<?xml version="1.0" encoding="utf-8" standalone="no"?>
<!DOCTYPE svg PUBLIC "-//W3C//DTD SVG 1.1//EN"
  "http://www.w3.org/Graphics/SVG/1.1/DTD/svg11.dtd">
<!-- Created with matplotlib (https://matplotlib.org/) -->
<svg height="207.83625pt" version="1.1" viewBox="0 0 276.98125 207.83625" width="276.98125pt" xmlns="http://www.w3.org/2000/svg" xmlns:xlink="http://www.w3.org/1999/xlink">
 <defs>
  <style type="text/css">
*{stroke-linecap:butt;stroke-linejoin:round;}
  </style>
 </defs>
 <g id="figure_1">
  <g id="patch_1">
   <path d="M 0 207.83625 
L 276.98125 207.83625 
L 276.98125 0 
L 0 0 
z
" style="fill:none;"/>
  </g>
  <g id="axes_1">
   <g id="patch_2">
    <path d="M 45.478125 170.28 
L 212.878125 170.28 
L 212.878125 7.2 
L 45.478125 7.2 
z
" style="fill:#ffffff;"/>
   </g>
   <g id="patch_3">
    <path clip-path="url(#p849d0ed963)" d="M 77.743836 92932.678934 
L 79.90528 92932.678934 
L 79.90528 62.120126 
L 77.743836 62.120126 
z
" style="fill:#0000ff;opacity:0.6;"/>
   </g>
   <g id="patch_4">
    <path clip-path="url(#p849d0ed963)" d="M 79.90528 92932.678934 
L 82.066724 92932.678934 
L 82.066724 108.10076 
L 79.90528 108.10076 
z
" style="fill:#0000ff;opacity:0.6;"/>
   </g>
   <g id="patch_5">
    <path clip-path="url(#p849d0ed963)" d="M 82.066724 92932.678934 
L 84.228168 92932.678934 
L 84.228168 109.812213 
L 82.066724 109.812213 
z
" style="fill:#0000ff;opacity:0.6;"/>
   </g>
   <g id="patch_6">
    <path clip-path="url(#p849d0ed963)" d="M 84.228168 92932.678934 
L 86.389612 92932.678934 
L 86.389612 92932.678934 
L 84.228168 92932.678934 
z
" style="fill:#0000ff;opacity:0.6;"/>
   </g>
   <g id="patch_7">
    <path clip-path="url(#p849d0ed963)" d="M 86.389612 92932.678934 
L 88.551056 92932.678934 
L 88.551056 85.304377 
L 86.389612 85.304377 
z
" style="fill:#0000ff;opacity:0.6;"/>
   </g>
   <g id="patch_8">
    <path clip-path="url(#p849d0ed963)" d="M 88.551056 92932.678934 
L 90.7125 92932.678934 
L 90.7125 92932.678934 
L 88.551056 92932.678934 
z
" style="fill:#0000ff;opacity:0.6;"/>
   </g>
   <g id="patch_9">
    <path clip-path="url(#p849d0ed963)" d="M 90.7125 92932.678934 
L 92.873944 92932.678934 
L 92.873944 92932.678934 
L 90.7125 92932.678934 
z
" style="fill:#0000ff;opacity:0.6;"/>
   </g>
   <g id="patch_10">
    <path clip-path="url(#p849d0ed963)" d="M 92.873944 92932.678934 
L 95.035388 92932.678934 
L 95.035388 92932.678934 
L 92.873944 92932.678934 
z
" style="fill:#0000ff;opacity:0.6;"/>
   </g>
   <g id="patch_11">
    <path clip-path="url(#p849d0ed963)" d="M 95.035388 92932.678934 
L 97.196832 92932.678934 
L 97.196832 92932.678934 
L 95.035388 92932.678934 
z
" style="fill:#0000ff;opacity:0.6;"/>
   </g>
   <g id="patch_12">
    <path clip-path="url(#p849d0ed963)" d="M 97.196832 92932.678934 
L 99.358276 92932.678934 
L 99.358276 77.523207 
L 97.196832 77.523207 
z
" style="fill:#0000ff;opacity:0.6;"/>
   </g>
   <g id="patch_13">
    <path clip-path="url(#p849d0ed963)" d="M 99.358276 92932.678934 
L 101.51972 92932.678934 
L 101.51972 92932.678934 
L 99.358276 92932.678934 
z
" style="fill:#0000ff;opacity:0.6;"/>
   </g>
   <g id="patch_14">
    <path clip-path="url(#p849d0ed963)" d="M 101.51972 92932.678934 
L 103.681164 92932.678934 
L 103.681164 92932.678934 
L 101.51972 92932.678934 
z
" style="fill:#0000ff;opacity:0.6;"/>
   </g>
   <g id="patch_15">
    <path clip-path="url(#p849d0ed963)" d="M 103.681164 92932.678934 
L 105.842608 92932.678934 
L 105.842608 92932.678934 
L 103.681164 92932.678934 
z
" style="fill:#0000ff;opacity:0.6;"/>
   </g>
   <g id="patch_16">
    <path clip-path="url(#p849d0ed963)" d="M 105.842608 92932.678934 
L 108.004052 92932.678934 
L 108.004052 112.299765 
L 105.842608 112.299765 
z
" style="fill:#0000ff;opacity:0.6;"/>
   </g>
   <g id="patch_17">
    <path clip-path="url(#p849d0ed963)" d="M 108.004052 92932.678934 
L 110.165496 92932.678934 
L 110.165496 92932.678934 
L 108.004052 92932.678934 
z
" style="fill:#0000ff;opacity:0.6;"/>
   </g>
   <g id="patch_18">
    <path clip-path="url(#p849d0ed963)" d="M 110.165496 92932.678934 
L 112.32694 92932.678934 
L 112.32694 92932.678934 
L 110.165496 92932.678934 
z
" style="fill:#0000ff;opacity:0.6;"/>
   </g>
   <g id="patch_19">
    <path clip-path="url(#p849d0ed963)" d="M 112.32694 92932.678934 
L 114.488384 92932.678934 
L 114.488384 105.84182 
L 112.32694 105.84182 
z
" style="fill:#0000ff;opacity:0.6;"/>
   </g>
   <g id="patch_20">
    <path clip-path="url(#p849d0ed963)" d="M 114.488384 92932.678934 
L 116.649828 92932.678934 
L 116.649828 92932.678934 
L 114.488384 92932.678934 
z
" style="fill:#0000ff;opacity:0.6;"/>
   </g>
   <g id="patch_21">
    <path clip-path="url(#p849d0ed963)" d="M 116.649828 92932.678934 
L 118.811272 92932.678934 
L 118.811272 109.264727 
L 116.649828 109.264727 
z
" style="fill:#0000ff;opacity:0.6;"/>
   </g>
   <g id="patch_22">
    <path clip-path="url(#p849d0ed963)" d="M 118.811272 92932.678934 
L 120.972717 92932.678934 
L 120.972717 110.97618 
L 118.811272 110.97618 
z
" style="fill:#0000ff;opacity:0.6;"/>
   </g>
   <g id="patch_23">
    <path clip-path="url(#p849d0ed963)" d="M 120.972717 92932.678934 
L 123.134161 92932.678934 
L 123.134161 92932.678934 
L 120.972717 92932.678934 
z
" style="fill:#0000ff;opacity:0.6;"/>
   </g>
   <g id="patch_24">
    <path clip-path="url(#p849d0ed963)" d="M 123.134161 92932.678934 
L 125.295605 92932.678934 
L 125.295605 105.407396 
L 123.134161 105.407396 
z
" style="fill:#0000ff;opacity:0.6;"/>
   </g>
   <g id="patch_25">
    <path clip-path="url(#p849d0ed963)" d="M 125.295605 92932.678934 
L 127.457049 92932.678934 
L 127.457049 92932.678934 
L 125.295605 92932.678934 
z
" style="fill:#0000ff;opacity:0.6;"/>
   </g>
   <g id="patch_26">
    <path clip-path="url(#p849d0ed963)" d="M 127.457049 92932.678934 
L 129.618493 92932.678934 
L 129.618493 92932.678934 
L 127.457049 92932.678934 
z
" style="fill:#0000ff;opacity:0.6;"/>
   </g>
   <g id="patch_27">
    <path clip-path="url(#p849d0ed963)" d="M 129.618493 92932.678934 
L 131.779937 92932.678934 
L 131.779937 110.541757 
L 129.618493 110.541757 
z
" style="fill:#0000ff;opacity:0.6;"/>
   </g>
   <g id="patch_28">
    <path clip-path="url(#p849d0ed963)" d="M 131.779937 92932.678934 
L 133.941381 92932.678934 
L 133.941381 92932.678934 
L 131.779937 92932.678934 
z
" style="fill:#0000ff;opacity:0.6;"/>
   </g>
   <g id="patch_29">
    <path clip-path="url(#p849d0ed963)" d="M 133.941381 92932.678934 
L 136.102825 92932.678934 
L 136.102825 106.617917 
L 133.941381 106.617917 
z
" style="fill:#0000ff;opacity:0.6;"/>
   </g>
   <g id="patch_30">
    <path clip-path="url(#p849d0ed963)" d="M 136.102825 92932.678934 
L 138.264269 92932.678934 
L 138.264269 108.329371 
L 136.102825 108.329371 
z
" style="fill:#0000ff;opacity:0.6;"/>
   </g>
   <g id="patch_31">
    <path clip-path="url(#p849d0ed963)" d="M 138.264269 92932.678934 
L 140.425713 92932.678934 
L 140.425713 92932.678934 
L 138.264269 92932.678934 
z
" style="fill:#0000ff;opacity:0.6;"/>
   </g>
   <g id="patch_32">
    <path clip-path="url(#p849d0ed963)" d="M 140.425713 92932.678934 
L 142.587157 92932.678934 
L 142.587157 92932.678934 
L 140.425713 92932.678934 
z
" style="fill:#0000ff;opacity:0.6;"/>
   </g>
   <g id="patch_33">
    <path clip-path="url(#p849d0ed963)" d="M 142.587157 92932.678934 
L 144.748601 92932.678934 
L 144.748601 113.463731 
L 142.587157 113.463731 
z
" style="fill:#0000ff;opacity:0.6;"/>
   </g>
   <g id="patch_34">
    <path clip-path="url(#p849d0ed963)" d="M 144.748601 92932.678934 
L 146.910045 92932.678934 
L 146.910045 108.963599 
L 144.748601 108.963599 
z
" style="fill:#0000ff;opacity:0.6;"/>
   </g>
   <g id="patch_35">
    <path clip-path="url(#p849d0ed963)" d="M 146.910045 92932.678934 
L 149.071489 92932.678934 
L 149.071489 92932.678934 
L 146.910045 92932.678934 
z
" style="fill:#0000ff;opacity:0.6;"/>
   </g>
   <g id="patch_36">
    <path clip-path="url(#p849d0ed963)" d="M 149.071489 92932.678934 
L 151.232933 92932.678934 
L 151.232933 162.867273 
L 149.071489 162.867273 
z
" style="fill:#0000ff;opacity:0.6;"/>
   </g>
   <g id="patch_37">
    <path clip-path="url(#p849d0ed963)" d="M 151.232933 92932.678934 
L 153.394377 92932.678934 
L 153.394377 114.09796 
L 151.232933 114.09796 
z
" style="fill:#0000ff;opacity:0.6;"/>
   </g>
   <g id="patch_38">
    <path clip-path="url(#p849d0ed963)" d="M 153.394377 92932.678934 
L 155.555821 92932.678934 
L 155.555821 92932.678934 
L 153.394377 92932.678934 
z
" style="fill:#0000ff;opacity:0.6;"/>
   </g>
   <g id="patch_39">
    <path clip-path="url(#p849d0ed963)" d="M 155.555821 92932.678934 
L 157.717265 92932.678934 
L 157.717265 92932.678934 
L 155.555821 92932.678934 
z
" style="fill:#0000ff;opacity:0.6;"/>
   </g>
   <g id="patch_40">
    <path clip-path="url(#p849d0ed963)" d="M 157.717265 92932.678934 
L 159.878709 92932.678934 
L 159.878709 92932.678934 
L 157.717265 92932.678934 
z
" style="fill:#0000ff;opacity:0.6;"/>
   </g>
   <g id="patch_41">
    <path clip-path="url(#p849d0ed963)" d="M 159.878709 92932.678934 
L 162.040153 92932.678934 
L 162.040153 92932.678934 
L 159.878709 92932.678934 
z
" style="fill:#0000ff;opacity:0.6;"/>
   </g>
   <g id="patch_42">
    <path clip-path="url(#p849d0ed963)" d="M 162.040153 92932.678934 
L 164.201597 92932.678934 
L 164.201597 92932.678934 
L 162.040153 92932.678934 
z
" style="fill:#0000ff;opacity:0.6;"/>
   </g>
   <g id="patch_43">
    <path clip-path="url(#p849d0ed963)" d="M 164.201597 92932.678934 
L 166.363041 92932.678934 
L 166.363041 92932.678934 
L 164.201597 92932.678934 
z
" style="fill:#0000ff;opacity:0.6;"/>
   </g>
   <g id="patch_44">
    <path clip-path="url(#p849d0ed963)" d="M 166.363041 92932.678934 
L 168.524485 92932.678934 
L 168.524485 92932.678934 
L 166.363041 92932.678934 
z
" style="fill:#0000ff;opacity:0.6;"/>
   </g>
   <g id="patch_45">
    <path clip-path="url(#p849d0ed963)" d="M 168.524485 92932.678934 
L 170.685929 92932.678934 
L 170.685929 92932.678934 
L 168.524485 92932.678934 
z
" style="fill:#0000ff;opacity:0.6;"/>
   </g>
   <g id="patch_46">
    <path clip-path="url(#p849d0ed963)" d="M 170.685929 92932.678934 
L 172.847373 92932.678934 
L 172.847373 92932.678934 
L 170.685929 92932.678934 
z
" style="fill:#0000ff;opacity:0.6;"/>
   </g>
   <g id="patch_47">
    <path clip-path="url(#p849d0ed963)" d="M 172.847373 92932.678934 
L 175.008818 92932.678934 
L 175.008818 92932.678934 
L 172.847373 92932.678934 
z
" style="fill:#0000ff;opacity:0.6;"/>
   </g>
   <g id="patch_48">
    <path clip-path="url(#p849d0ed963)" d="M 175.008818 92932.678934 
L 177.170262 92932.678934 
L 177.170262 92932.678934 
L 175.008818 92932.678934 
z
" style="fill:#0000ff;opacity:0.6;"/>
   </g>
   <g id="patch_49">
    <path clip-path="url(#p849d0ed963)" d="M 177.170262 92932.678934 
L 179.331706 92932.678934 
L 179.331706 92932.678934 
L 177.170262 92932.678934 
z
" style="fill:#0000ff;opacity:0.6;"/>
   </g>
   <g id="patch_50">
    <path clip-path="url(#p849d0ed963)" d="M 179.331706 92932.678934 
L 181.49315 92932.678934 
L 181.49315 92932.678934 
L 179.331706 92932.678934 
z
" style="fill:#0000ff;opacity:0.6;"/>
   </g>
   <g id="patch_51">
    <path clip-path="url(#p849d0ed963)" d="M 181.49315 92932.678934 
L 183.654594 92932.678934 
L 183.654594 92932.678934 
L 181.49315 92932.678934 
z
" style="fill:#0000ff;opacity:0.6;"/>
   </g>
   <g id="patch_52">
    <path clip-path="url(#p849d0ed963)" d="M 183.654594 92932.678934 
L 185.816038 92932.678934 
L 185.816038 92932.678934 
L 183.654594 92932.678934 
z
" style="fill:#0000ff;opacity:0.6;"/>
   </g>
   <g id="patch_53">
    <path clip-path="url(#p849d0ed963)" d="M 185.816038 92932.678934 
L 187.977482 92932.678934 
L 187.977482 92932.678934 
L 185.816038 92932.678934 
z
" style="fill:#0000ff;opacity:0.6;"/>
   </g>
   <g id="patch_54">
    <path clip-path="url(#p849d0ed963)" d="M 187.977482 92932.678934 
L 190.138926 92932.678934 
L 190.138926 92932.678934 
L 187.977482 92932.678934 
z
" style="fill:#0000ff;opacity:0.6;"/>
   </g>
   <g id="patch_55">
    <path clip-path="url(#p849d0ed963)" d="M 190.138926 92932.678934 
L 192.30037 92932.678934 
L 192.30037 92932.678934 
L 190.138926 92932.678934 
z
" style="fill:#0000ff;opacity:0.6;"/>
   </g>
   <g id="patch_56">
    <path clip-path="url(#p849d0ed963)" d="M 192.30037 92932.678934 
L 194.461814 92932.678934 
L 194.461814 92932.678934 
L 192.30037 92932.678934 
z
" style="fill:#0000ff;opacity:0.6;"/>
   </g>
   <g id="patch_57">
    <path clip-path="url(#p849d0ed963)" d="M 194.461814 92932.678934 
L 196.623258 92932.678934 
L 196.623258 92932.678934 
L 194.461814 92932.678934 
z
" style="fill:#0000ff;opacity:0.6;"/>
   </g>
   <g id="patch_58">
    <path clip-path="url(#p849d0ed963)" d="M 196.623258 92932.678934 
L 198.784702 92932.678934 
L 198.784702 92932.678934 
L 196.623258 92932.678934 
z
" style="fill:#0000ff;opacity:0.6;"/>
   </g>
   <g id="patch_59">
    <path clip-path="url(#p849d0ed963)" d="M 198.784702 92932.678934 
L 200.946146 92932.678934 
L 200.946146 92932.678934 
L 198.784702 92932.678934 
z
" style="fill:#0000ff;opacity:0.6;"/>
   </g>
   <g id="patch_60">
    <path clip-path="url(#p849d0ed963)" d="M 200.946146 92932.678934 
L 203.10759 92932.678934 
L 203.10759 92932.678934 
L 200.946146 92932.678934 
z
" style="fill:#0000ff;opacity:0.6;"/>
   </g>
   <g id="patch_61">
    <path clip-path="url(#p849d0ed963)" d="M 203.10759 92932.678934 
L 205.269034 92932.678934 
L 205.269034 112.86969 
L 203.10759 112.86969 
z
" style="fill:#0000ff;opacity:0.6;"/>
   </g>
   <g id="patch_62">
    <path clip-path="url(#p849d0ed963)" d="M 54.989295 92932.678934 
L 56.799233 92932.678934 
L 56.799233 53.149399 
L 54.989295 53.149399 
z
" style="fill:#800080;opacity:0.6;"/>
   </g>
   <g id="patch_63">
    <path clip-path="url(#p849d0ed963)" d="M 56.799233 92932.678934 
L 58.609171 92932.678934 
L 58.609171 92932.678934 
L 56.799233 92932.678934 
z
" style="fill:#800080;opacity:0.6;"/>
   </g>
   <g id="patch_64">
    <path clip-path="url(#p849d0ed963)" d="M 58.609171 92932.678934 
L 60.419108 92932.678934 
L 60.419108 83.946397 
L 58.609171 83.946397 
z
" style="fill:#800080;opacity:0.6;"/>
   </g>
   <g id="patch_65">
    <path clip-path="url(#p849d0ed963)" d="M 60.419108 92932.678934 
L 62.229046 92932.678934 
L 62.229046 92932.678934 
L 60.419108 92932.678934 
z
" style="fill:#800080;opacity:0.6;"/>
   </g>
   <g id="patch_66">
    <path clip-path="url(#p849d0ed963)" d="M 62.229046 92932.678934 
L 64.038984 92932.678934 
L 64.038984 14.612727 
L 62.229046 14.612727 
z
" style="fill:#800080;opacity:0.6;"/>
   </g>
   <g id="patch_67">
    <path clip-path="url(#p849d0ed963)" d="M 64.038984 92932.678934 
L 65.848922 92932.678934 
L 65.848922 88.245778 
L 64.038984 88.245778 
z
" style="fill:#800080;opacity:0.6;"/>
   </g>
   <g id="patch_68">
    <path clip-path="url(#p849d0ed963)" d="M 65.848922 92932.678934 
L 67.658859 92932.678934 
L 67.658859 61.748162 
L 65.848922 61.748162 
z
" style="fill:#800080;opacity:0.6;"/>
   </g>
   <g id="patch_69">
    <path clip-path="url(#p849d0ed963)" d="M 67.658859 92932.678934 
L 69.468797 92932.678934 
L 69.468797 92932.678934 
L 67.658859 92932.678934 
z
" style="fill:#800080;opacity:0.6;"/>
   </g>
   <g id="patch_70">
    <path clip-path="url(#p849d0ed963)" d="M 69.468797 92932.678934 
L 71.278735 92932.678934 
L 71.278735 64.614417 
L 69.468797 64.614417 
z
" style="fill:#800080;opacity:0.6;"/>
   </g>
   <g id="patch_71">
    <path clip-path="url(#p849d0ed963)" d="M 71.278735 92932.678934 
L 73.088673 92932.678934 
L 73.088673 92932.678934 
L 71.278735 92932.678934 
z
" style="fill:#800080;opacity:0.6;"/>
   </g>
   <g id="patch_72">
    <path clip-path="url(#p849d0ed963)" d="M 73.088673 92932.678934 
L 74.89861 92932.678934 
L 74.89861 95.411415 
L 73.088673 95.411415 
z
" style="fill:#800080;opacity:0.6;"/>
   </g>
   <g id="patch_73">
    <path clip-path="url(#p849d0ed963)" d="M 74.89861 92932.678934 
L 76.708548 92932.678934 
L 76.708548 96.844542 
L 74.89861 96.844542 
z
" style="fill:#800080;opacity:0.6;"/>
   </g>
   <g id="patch_74">
    <path clip-path="url(#p849d0ed963)" d="M 76.708548 92932.678934 
L 78.518486 92932.678934 
L 78.518486 98.277669 
L 76.708548 98.277669 
z
" style="fill:#800080;opacity:0.6;"/>
   </g>
   <g id="patch_75">
    <path clip-path="url(#p849d0ed963)" d="M 78.518486 92932.678934 
L 80.328424 92932.678934 
L 80.328424 71.780053 
L 78.518486 71.780053 
z
" style="fill:#800080;opacity:0.6;"/>
   </g>
   <g id="patch_76">
    <path clip-path="url(#p849d0ed963)" d="M 80.328424 92932.678934 
L 82.138361 92932.678934 
L 82.138361 92932.678934 
L 80.328424 92932.678934 
z
" style="fill:#800080;opacity:0.6;"/>
   </g>
   <g id="patch_77">
    <path clip-path="url(#p849d0ed963)" d="M 82.138361 92932.678934 
L 83.948299 92932.678934 
L 83.948299 102.577051 
L 82.138361 102.577051 
z
" style="fill:#800080;opacity:0.6;"/>
   </g>
   <g id="patch_78">
    <path clip-path="url(#p849d0ed963)" d="M 83.948299 92932.678934 
L 85.758237 92932.678934 
L 85.758237 92932.678934 
L 83.948299 92932.678934 
z
" style="fill:#800080;opacity:0.6;"/>
   </g>
   <g id="patch_79">
    <path clip-path="url(#p849d0ed963)" d="M 85.758237 92932.678934 
L 87.568175 92932.678934 
L 87.568175 92932.678934 
L 85.758237 92932.678934 
z
" style="fill:#800080;opacity:0.6;"/>
   </g>
   <g id="patch_80">
    <path clip-path="url(#p849d0ed963)" d="M 87.568175 92932.678934 
L 89.378112 92932.678934 
L 89.378112 92932.678934 
L 87.568175 92932.678934 
z
" style="fill:#800080;opacity:0.6;"/>
   </g>
   <g id="patch_81">
    <path clip-path="url(#p849d0ed963)" d="M 89.378112 92932.678934 
L 91.18805 92932.678934 
L 91.18805 91.971122 
L 89.378112 91.971122 
z
" style="fill:#800080;opacity:0.6;"/>
   </g>
   <g id="patch_82">
    <path clip-path="url(#p849d0ed963)" d="M 91.18805 92932.678934 
L 92.997988 92932.678934 
L 92.997988 93.40425 
L 91.18805 93.40425 
z
" style="fill:#800080;opacity:0.6;"/>
   </g>
   <g id="patch_83">
    <path clip-path="url(#p849d0ed963)" d="M 92.997988 92932.678934 
L 94.807926 92932.678934 
L 94.807926 139.106558 
L 92.997988 139.106558 
z
" style="fill:#800080;opacity:0.6;"/>
   </g>
   <g id="patch_84">
    <path clip-path="url(#p849d0ed963)" d="M 94.807926 92932.678934 
L 96.617863 92932.678934 
L 96.617863 96.270504 
L 94.807926 96.270504 
z
" style="fill:#800080;opacity:0.6;"/>
   </g>
   <g id="patch_85">
    <path clip-path="url(#p849d0ed963)" d="M 96.617863 92932.678934 
L 98.427801 92932.678934 
L 98.427801 69.772888 
L 96.617863 69.772888 
z
" style="fill:#800080;opacity:0.6;"/>
   </g>
   <g id="patch_86">
    <path clip-path="url(#p849d0ed963)" d="M 98.427801 92932.678934 
L 100.237739 92932.678934 
L 100.237739 71.206015 
L 98.427801 71.206015 
z
" style="fill:#800080;opacity:0.6;"/>
   </g>
   <g id="patch_87">
    <path clip-path="url(#p849d0ed963)" d="M 100.237739 92932.678934 
L 102.047677 92932.678934 
L 102.047677 92932.678934 
L 100.237739 92932.678934 
z
" style="fill:#800080;opacity:0.6;"/>
   </g>
   <g id="patch_88">
    <path clip-path="url(#p849d0ed963)" d="M 102.047677 92932.678934 
L 103.857614 92932.678934 
L 103.857614 102.003013 
L 102.047677 102.003013 
z
" style="fill:#800080;opacity:0.6;"/>
   </g>
   <g id="patch_89">
    <path clip-path="url(#p849d0ed963)" d="M 103.857614 92932.678934 
L 105.667552 92932.678934 
L 105.667552 92932.678934 
L 103.857614 92932.678934 
z
" style="fill:#800080;opacity:0.6;"/>
   </g>
   <g id="patch_90">
    <path clip-path="url(#p849d0ed963)" d="M 105.667552 92932.678934 
L 107.47749 92932.678934 
L 107.47749 92932.678934 
L 105.667552 92932.678934 
z
" style="fill:#800080;opacity:0.6;"/>
   </g>
   <g id="patch_91">
    <path clip-path="url(#p849d0ed963)" d="M 107.47749 92932.678934 
L 109.287428 92932.678934 
L 109.287428 92932.678934 
L 107.47749 92932.678934 
z
" style="fill:#800080;opacity:0.6;"/>
   </g>
   <g id="patch_92">
    <path clip-path="url(#p849d0ed963)" d="M 109.287428 92932.678934 
L 111.097365 92932.678934 
L 111.097365 92932.678934 
L 109.287428 92932.678934 
z
" style="fill:#800080;opacity:0.6;"/>
   </g>
   <g id="patch_93">
    <path clip-path="url(#p849d0ed963)" d="M 111.097365 92932.678934 
L 112.907303 92932.678934 
L 112.907303 97.576344 
L 111.097365 97.576344 
z
" style="fill:#800080;opacity:0.6;"/>
   </g>
   <g id="patch_94">
    <path clip-path="url(#p849d0ed963)" d="M 112.907303 92932.678934 
L 114.717241 92932.678934 
L 114.717241 99.009471 
L 112.907303 99.009471 
z
" style="fill:#800080;opacity:0.6;"/>
   </g>
   <g id="patch_95">
    <path clip-path="url(#p849d0ed963)" d="M 114.717241 92932.678934 
L 116.527179 92932.678934 
L 116.527179 92932.678934 
L 114.717241 92932.678934 
z
" style="fill:#800080;opacity:0.6;"/>
   </g>
   <g id="patch_96">
    <path clip-path="url(#p849d0ed963)" d="M 116.527179 92932.678934 
L 118.337116 92932.678934 
L 118.337116 92932.678934 
L 116.527179 92932.678934 
z
" style="fill:#800080;opacity:0.6;"/>
   </g>
   <g id="patch_97">
    <path clip-path="url(#p849d0ed963)" d="M 118.337116 92932.678934 
L 120.147054 92932.678934 
L 120.147054 103.308853 
L 118.337116 103.308853 
z
" style="fill:#800080;opacity:0.6;"/>
   </g>
   <g id="patch_98">
    <path clip-path="url(#p849d0ed963)" d="M 120.147054 92932.678934 
L 121.956992 92932.678934 
L 121.956992 92932.678934 
L 120.147054 92932.678934 
z
" style="fill:#800080;opacity:0.6;"/>
   </g>
   <g id="patch_99">
    <path clip-path="url(#p849d0ed963)" d="M 121.956992 92932.678934 
L 123.76693 92932.678934 
L 123.76693 92932.678934 
L 121.956992 92932.678934 
z
" style="fill:#800080;opacity:0.6;"/>
   </g>
   <g id="patch_100">
    <path clip-path="url(#p849d0ed963)" d="M 123.76693 92932.678934 
L 125.576867 92932.678934 
L 125.576867 92932.678934 
L 123.76693 92932.678934 
z
" style="fill:#800080;opacity:0.6;"/>
   </g>
   <g id="patch_101">
    <path clip-path="url(#p849d0ed963)" d="M 125.576867 92932.678934 
L 127.386805 92932.678934 
L 127.386805 92932.678934 
L 125.576867 92932.678934 
z
" style="fill:#800080;opacity:0.6;"/>
   </g>
   <g id="patch_102">
    <path clip-path="url(#p849d0ed963)" d="M 127.386805 92932.678934 
L 129.196743 92932.678934 
L 129.196743 92932.678934 
L 127.386805 92932.678934 
z
" style="fill:#800080;opacity:0.6;"/>
   </g>
   <g id="patch_103">
    <path clip-path="url(#p849d0ed963)" d="M 129.196743 92932.678934 
L 131.006681 92932.678934 
L 131.006681 92932.678934 
L 129.196743 92932.678934 
z
" style="fill:#800080;opacity:0.6;"/>
   </g>
   <g id="patch_104">
    <path clip-path="url(#p849d0ed963)" d="M 131.006681 92932.678934 
L 132.816618 92932.678934 
L 132.816618 92932.678934 
L 131.006681 92932.678934 
z
" style="fill:#800080;opacity:0.6;"/>
   </g>
   <g id="patch_105">
    <path clip-path="url(#p849d0ed963)" d="M 132.816618 92932.678934 
L 134.626556 92932.678934 
L 134.626556 92932.678934 
L 132.816618 92932.678934 
z
" style="fill:#800080;opacity:0.6;"/>
   </g>
   <g id="patch_106">
    <path clip-path="url(#p849d0ed963)" d="M 134.626556 92932.678934 
L 136.436494 92932.678934 
L 136.436494 92932.678934 
L 134.626556 92932.678934 
z
" style="fill:#800080;opacity:0.6;"/>
   </g>
   <g id="patch_107">
    <path clip-path="url(#p849d0ed963)" d="M 136.436494 92932.678934 
L 138.246432 92932.678934 
L 138.246432 92932.678934 
L 136.436494 92932.678934 
z
" style="fill:#800080;opacity:0.6;"/>
   </g>
   <g id="patch_108">
    <path clip-path="url(#p849d0ed963)" d="M 138.246432 92932.678934 
L 140.056369 92932.678934 
L 140.056369 92932.678934 
L 138.246432 92932.678934 
z
" style="fill:#800080;opacity:0.6;"/>
   </g>
   <g id="patch_109">
    <path clip-path="url(#p849d0ed963)" d="M 140.056369 92932.678934 
L 141.866307 92932.678934 
L 141.866307 104.167942 
L 140.056369 104.167942 
z
" style="fill:#800080;opacity:0.6;"/>
   </g>
   <g id="patch_110">
    <path clip-path="url(#p849d0ed963)" d="M 141.866307 92932.678934 
L 143.676245 92932.678934 
L 143.676245 92932.678934 
L 141.866307 92932.678934 
z
" style="fill:#800080;opacity:0.6;"/>
   </g>
   <g id="patch_111">
    <path clip-path="url(#p849d0ed963)" d="M 143.676245 92932.678934 
L 145.486183 92932.678934 
L 145.486183 92932.678934 
L 143.676245 92932.678934 
z
" style="fill:#800080;opacity:0.6;"/>
   </g>
   <g id="patch_112">
    <path clip-path="url(#p849d0ed963)" d="M 145.486183 92932.678934 
L 147.29612 92932.678934 
L 147.29612 102.255738 
L 145.486183 102.255738 
z
" style="fill:#800080;opacity:0.6;"/>
   </g>
   <g id="patch_113">
    <path clip-path="url(#p849d0ed963)" d="M 147.29612 92932.678934 
L 149.106058 92932.678934 
L 149.106058 92932.678934 
L 147.29612 92932.678934 
z
" style="fill:#800080;opacity:0.6;"/>
   </g>
   <g id="patch_114">
    <path clip-path="url(#p849d0ed963)" d="M 149.106058 92932.678934 
L 150.915996 92932.678934 
L 150.915996 92932.678934 
L 149.106058 92932.678934 
z
" style="fill:#800080;opacity:0.6;"/>
   </g>
   <g id="patch_115">
    <path clip-path="url(#p849d0ed963)" d="M 150.915996 92932.678934 
L 152.725934 92932.678934 
L 152.725934 92932.678934 
L 150.915996 92932.678934 
z
" style="fill:#800080;opacity:0.6;"/>
   </g>
   <g id="patch_116">
    <path clip-path="url(#p849d0ed963)" d="M 152.725934 92932.678934 
L 154.535871 92932.678934 
L 154.535871 92932.678934 
L 152.725934 92932.678934 
z
" style="fill:#800080;opacity:0.6;"/>
   </g>
   <g id="patch_117">
    <path clip-path="url(#p849d0ed963)" d="M 154.535871 92932.678934 
L 156.345809 92932.678934 
L 156.345809 92932.678934 
L 154.535871 92932.678934 
z
" style="fill:#800080;opacity:0.6;"/>
   </g>
   <g id="patch_118">
    <path clip-path="url(#p849d0ed963)" d="M 156.345809 92932.678934 
L 158.155747 92932.678934 
L 158.155747 92932.678934 
L 156.345809 92932.678934 
z
" style="fill:#800080;opacity:0.6;"/>
   </g>
   <g id="patch_119">
    <path clip-path="url(#p849d0ed963)" d="M 158.155747 92932.678934 
L 159.965685 92932.678934 
L 159.965685 92932.678934 
L 158.155747 92932.678934 
z
" style="fill:#800080;opacity:0.6;"/>
   </g>
   <g id="patch_120">
    <path clip-path="url(#p849d0ed963)" d="M 159.965685 92932.678934 
L 161.775623 92932.678934 
L 161.775623 103.593905 
L 159.965685 103.593905 
z
" style="fill:#800080;opacity:0.6;"/>
   </g>
   <g id="patch_121">
    <path clip-path="url(#p849d0ed963)" d="M 53.087216 92932.678934 
L 54.469719 92932.678934 
L 54.469719 23.456899 
L 53.087216 23.456899 
z
" style="fill:#808080;opacity:0.6;"/>
   </g>
   <g id="patch_122">
    <path clip-path="url(#p849d0ed963)" d="M 54.469719 92932.678934 
L 55.852223 92932.678934 
L 55.852223 68.82076 
L 54.469719 68.82076 
z
" style="fill:#808080;opacity:0.6;"/>
   </g>
   <g id="patch_123">
    <path clip-path="url(#p849d0ed963)" d="M 55.852223 92932.678934 
L 57.234726 92932.678934 
L 57.234726 25.64626 
L 55.852223 25.64626 
z
" style="fill:#808080;opacity:0.6;"/>
   </g>
   <g id="patch_124">
    <path clip-path="url(#p849d0ed963)" d="M 57.234726 92932.678934 
L 58.617229 92932.678934 
L 58.617229 26.74094 
L 57.234726 26.74094 
z
" style="fill:#808080;opacity:0.6;"/>
   </g>
   <g id="patch_125">
    <path clip-path="url(#p849d0ed963)" d="M 58.617229 92932.678934 
L 59.999733 92932.678934 
L 59.999733 44.174058 
L 58.617229 44.174058 
z
" style="fill:#808080;opacity:0.6;"/>
   </g>
   <g id="patch_126">
    <path clip-path="url(#p849d0ed963)" d="M 59.999733 92932.678934 
L 61.382236 92932.678934 
L 61.382236 45.268738 
L 59.999733 45.268738 
z
" style="fill:#808080;opacity:0.6;"/>
   </g>
   <g id="patch_127">
    <path clip-path="url(#p849d0ed963)" d="M 61.382236 92932.678934 
L 62.764739 92932.678934 
L 62.764739 92932.678934 
L 61.382236 92932.678934 
z
" style="fill:#808080;opacity:0.6;"/>
   </g>
   <g id="patch_128">
    <path clip-path="url(#p849d0ed963)" d="M 62.764739 92932.678934 
L 64.147243 92932.678934 
L 64.147243 75.388842 
L 62.764739 75.388842 
z
" style="fill:#808080;opacity:0.6;"/>
   </g>
   <g id="patch_129">
    <path clip-path="url(#p849d0ed963)" d="M 64.147243 92932.678934 
L 65.529746 92932.678934 
L 65.529746 92932.678934 
L 64.147243 92932.678934 
z
" style="fill:#808080;opacity:0.6;"/>
   </g>
   <g id="patch_130">
    <path clip-path="url(#p849d0ed963)" d="M 65.529746 92932.678934 
L 66.912249 92932.678934 
L 66.912249 77.578203 
L 65.529746 77.578203 
z
" style="fill:#808080;opacity:0.6;"/>
   </g>
   <g id="patch_131">
    <path clip-path="url(#p849d0ed963)" d="M 66.912249 92932.678934 
L 68.294753 92932.678934 
L 68.294753 50.74214 
L 66.912249 50.74214 
z
" style="fill:#808080;opacity:0.6;"/>
   </g>
   <g id="patch_132">
    <path clip-path="url(#p849d0ed963)" d="M 68.294753 92932.678934 
L 69.677256 92932.678934 
L 69.677256 79.767563 
L 68.294753 79.767563 
z
" style="fill:#808080;opacity:0.6;"/>
   </g>
   <g id="patch_133">
    <path clip-path="url(#p849d0ed963)" d="M 69.677256 92932.678934 
L 71.059759 92932.678934 
L 71.059759 80.862244 
L 69.677256 80.862244 
z
" style="fill:#808080;opacity:0.6;"/>
   </g>
   <g id="patch_134">
    <path clip-path="url(#p849d0ed963)" d="M 71.059759 92932.678934 
L 72.442263 92932.678934 
L 72.442263 54.026181 
L 71.059759 54.026181 
z
" style="fill:#808080;opacity:0.6;"/>
   </g>
   <g id="patch_135">
    <path clip-path="url(#p849d0ed963)" d="M 72.442263 92932.678934 
L 73.824766 92932.678934 
L 73.824766 55.120861 
L 72.442263 55.120861 
z
" style="fill:#808080;opacity:0.6;"/>
   </g>
   <g id="patch_136">
    <path clip-path="url(#p849d0ed963)" d="M 73.824766 92932.678934 
L 75.207269 92932.678934 
L 75.207269 92932.678934 
L 73.824766 92932.678934 
z
" style="fill:#808080;opacity:0.6;"/>
   </g>
   <g id="patch_137">
    <path clip-path="url(#p849d0ed963)" d="M 75.207269 92932.678934 
L 76.589773 92932.678934 
L 76.589773 29.379478 
L 75.207269 29.379478 
z
" style="fill:#808080;opacity:0.6;"/>
   </g>
   <g id="patch_138">
    <path clip-path="url(#p849d0ed963)" d="M 76.589773 92932.678934 
L 77.972276 92932.678934 
L 77.972276 86.335645 
L 76.589773 86.335645 
z
" style="fill:#808080;opacity:0.6;"/>
   </g>
   <g id="patch_139">
    <path clip-path="url(#p849d0ed963)" d="M 77.972276 92932.678934 
L 79.35478 92932.678934 
L 79.35478 92932.678934 
L 77.972276 92932.678934 
z
" style="fill:#808080;opacity:0.6;"/>
   </g>
   <g id="patch_140">
    <path clip-path="url(#p849d0ed963)" d="M 79.35478 92932.678934 
L 80.737283 92932.678934 
L 80.737283 88.525006 
L 79.35478 88.525006 
z
" style="fill:#808080;opacity:0.6;"/>
   </g>
   <g id="patch_141">
    <path clip-path="url(#p849d0ed963)" d="M 80.737283 92932.678934 
L 82.119786 92932.678934 
L 82.119786 89.619686 
L 80.737283 89.619686 
z
" style="fill:#808080;opacity:0.6;"/>
   </g>
   <g id="patch_142">
    <path clip-path="url(#p849d0ed963)" d="M 82.119786 92932.678934 
L 83.50229 92932.678934 
L 83.50229 90.714366 
L 82.119786 90.714366 
z
" style="fill:#808080;opacity:0.6;"/>
   </g>
   <g id="patch_143">
    <path clip-path="url(#p849d0ed963)" d="M 83.50229 92932.678934 
L 84.884793 92932.678934 
L 84.884793 91.809047 
L 83.50229 91.809047 
z
" style="fill:#808080;opacity:0.6;"/>
   </g>
   <g id="patch_144">
    <path clip-path="url(#p849d0ed963)" d="M 84.884793 92932.678934 
L 86.267296 92932.678934 
L 86.267296 92.903727 
L 84.884793 92.903727 
z
" style="fill:#808080;opacity:0.6;"/>
   </g>
   <g id="patch_145">
    <path clip-path="url(#p849d0ed963)" d="M 86.267296 92932.678934 
L 87.6498 92932.678934 
L 87.6498 92932.678934 
L 86.267296 92932.678934 
z
" style="fill:#808080;opacity:0.6;"/>
   </g>
   <g id="patch_146">
    <path clip-path="url(#p849d0ed963)" d="M 87.6498 92932.678934 
L 89.032303 92932.678934 
L 89.032303 92932.678934 
L 87.6498 92932.678934 
z
" style="fill:#808080;opacity:0.6;"/>
   </g>
   <g id="patch_147">
    <path clip-path="url(#p849d0ed963)" d="M 89.032303 92932.678934 
L 90.414806 92932.678934 
L 90.414806 92932.678934 
L 89.032303 92932.678934 
z
" style="fill:#808080;opacity:0.6;"/>
   </g>
   <g id="patch_148">
    <path clip-path="url(#p849d0ed963)" d="M 90.414806 92932.678934 
L 91.79731 92932.678934 
L 91.79731 92932.678934 
L 90.414806 92932.678934 
z
" style="fill:#808080;opacity:0.6;"/>
   </g>
   <g id="patch_149">
    <path clip-path="url(#p849d0ed963)" d="M 91.79731 92932.678934 
L 93.179813 92932.678934 
L 93.179813 92932.678934 
L 91.79731 92932.678934 
z
" style="fill:#808080;opacity:0.6;"/>
   </g>
   <g id="patch_150">
    <path clip-path="url(#p849d0ed963)" d="M 93.179813 92932.678934 
L 94.562316 92932.678934 
L 94.562316 92932.678934 
L 93.179813 92932.678934 
z
" style="fill:#808080;opacity:0.6;"/>
   </g>
   <g id="patch_151">
    <path clip-path="url(#p849d0ed963)" d="M 94.562316 92932.678934 
L 95.94482 92932.678934 
L 95.94482 92932.678934 
L 94.562316 92932.678934 
z
" style="fill:#808080;opacity:0.6;"/>
   </g>
   <g id="patch_152">
    <path clip-path="url(#p849d0ed963)" d="M 95.94482 92932.678934 
L 97.327323 92932.678934 
L 97.327323 51.180403 
L 95.94482 51.180403 
z
" style="fill:#808080;opacity:0.6;"/>
   </g>
   <g id="patch_153">
    <path clip-path="url(#p849d0ed963)" d="M 97.327323 92932.678934 
L 98.709826 92932.678934 
L 98.709826 92932.678934 
L 97.327323 92932.678934 
z
" style="fill:#808080;opacity:0.6;"/>
   </g>
   <g id="patch_154">
    <path clip-path="url(#p849d0ed963)" d="M 98.709826 92932.678934 
L 100.09233 92932.678934 
L 100.09233 87.512093 
L 98.709826 87.512093 
z
" style="fill:#808080;opacity:0.6;"/>
   </g>
   <g id="patch_155">
    <path clip-path="url(#p849d0ed963)" d="M 100.09233 92932.678934 
L 101.474833 92932.678934 
L 101.474833 88.606773 
L 100.09233 88.606773 
z
" style="fill:#808080;opacity:0.6;"/>
   </g>
   <g id="patch_156">
    <path clip-path="url(#p849d0ed963)" d="M 101.474833 92932.678934 
L 102.857336 92932.678934 
L 102.857336 92932.678934 
L 101.474833 92932.678934 
z
" style="fill:#808080;opacity:0.6;"/>
   </g>
   <g id="patch_157">
    <path clip-path="url(#p849d0ed963)" d="M 102.857336 92932.678934 
L 104.23984 92932.678934 
L 104.23984 92932.678934 
L 102.857336 92932.678934 
z
" style="fill:#808080;opacity:0.6;"/>
   </g>
   <g id="patch_158">
    <path clip-path="url(#p849d0ed963)" d="M 104.23984 92932.678934 
L 105.622343 92932.678934 
L 105.622343 92932.678934 
L 104.23984 92932.678934 
z
" style="fill:#808080;opacity:0.6;"/>
   </g>
   <g id="patch_159">
    <path clip-path="url(#p849d0ed963)" d="M 105.622343 92932.678934 
L 107.004846 92932.678934 
L 107.004846 92932.678934 
L 105.622343 92932.678934 
z
" style="fill:#808080;opacity:0.6;"/>
   </g>
   <g id="patch_160">
    <path clip-path="url(#p849d0ed963)" d="M 107.004846 92932.678934 
L 108.38735 92932.678934 
L 108.38735 94.080174 
L 107.004846 94.080174 
z
" style="fill:#808080;opacity:0.6;"/>
   </g>
   <g id="patch_161">
    <path clip-path="url(#p849d0ed963)" d="M 108.38735 92932.678934 
L 109.769853 92932.678934 
L 109.769853 92932.678934 
L 108.38735 92932.678934 
z
" style="fill:#808080;opacity:0.6;"/>
   </g>
   <g id="patch_162">
    <path clip-path="url(#p849d0ed963)" d="M 109.769853 92932.678934 
L 111.152357 92932.678934 
L 111.152357 84.677229 
L 109.769853 84.677229 
z
" style="fill:#808080;opacity:0.6;"/>
   </g>
   <g id="patch_163">
    <path clip-path="url(#p849d0ed963)" d="M 111.152357 92932.678934 
L 112.53486 92932.678934 
L 112.53486 92932.678934 
L 111.152357 92932.678934 
z
" style="fill:#808080;opacity:0.6;"/>
   </g>
   <g id="patch_164">
    <path clip-path="url(#p849d0ed963)" d="M 112.53486 92932.678934 
L 113.917363 92932.678934 
L 113.917363 92932.678934 
L 112.53486 92932.678934 
z
" style="fill:#808080;opacity:0.6;"/>
   </g>
   <g id="patch_165">
    <path clip-path="url(#p849d0ed963)" d="M 113.917363 92932.678934 
L 115.299867 92932.678934 
L 115.299867 87.96127 
L 113.917363 87.96127 
z
" style="fill:#808080;opacity:0.6;"/>
   </g>
   <g id="patch_166">
    <path clip-path="url(#p849d0ed963)" d="M 115.299867 92932.678934 
L 116.68237 92932.678934 
L 116.68237 92932.678934 
L 115.299867 92932.678934 
z
" style="fill:#808080;opacity:0.6;"/>
   </g>
   <g id="patch_167">
    <path clip-path="url(#p849d0ed963)" d="M 116.68237 92932.678934 
L 118.064873 92932.678934 
L 118.064873 92932.678934 
L 116.68237 92932.678934 
z
" style="fill:#808080;opacity:0.6;"/>
   </g>
   <g id="patch_168">
    <path clip-path="url(#p849d0ed963)" d="M 118.064873 92932.678934 
L 119.447377 92932.678934 
L 119.447377 92932.678934 
L 118.064873 92932.678934 
z
" style="fill:#808080;opacity:0.6;"/>
   </g>
   <g id="patch_169">
    <path clip-path="url(#p849d0ed963)" d="M 119.447377 92932.678934 
L 120.82988 92932.678934 
L 120.82988 92932.678934 
L 119.447377 92932.678934 
z
" style="fill:#808080;opacity:0.6;"/>
   </g>
   <g id="patch_170">
    <path clip-path="url(#p849d0ed963)" d="M 120.82988 92932.678934 
L 122.212383 92932.678934 
L 122.212383 92932.678934 
L 120.82988 92932.678934 
z
" style="fill:#808080;opacity:0.6;"/>
   </g>
   <g id="patch_171">
    <path clip-path="url(#p849d0ed963)" d="M 122.212383 92932.678934 
L 123.594887 92932.678934 
L 123.594887 92932.678934 
L 122.212383 92932.678934 
z
" style="fill:#808080;opacity:0.6;"/>
   </g>
   <g id="patch_172">
    <path clip-path="url(#p849d0ed963)" d="M 123.594887 92932.678934 
L 124.97739 92932.678934 
L 124.97739 92932.678934 
L 123.594887 92932.678934 
z
" style="fill:#808080;opacity:0.6;"/>
   </g>
   <g id="patch_173">
    <path clip-path="url(#p849d0ed963)" d="M 124.97739 92932.678934 
L 126.359893 92932.678934 
L 126.359893 92932.678934 
L 124.97739 92932.678934 
z
" style="fill:#808080;opacity:0.6;"/>
   </g>
   <g id="patch_174">
    <path clip-path="url(#p849d0ed963)" d="M 126.359893 92932.678934 
L 127.742397 92932.678934 
L 127.742397 92932.678934 
L 126.359893 92932.678934 
z
" style="fill:#808080;opacity:0.6;"/>
   </g>
   <g id="patch_175">
    <path clip-path="url(#p849d0ed963)" d="M 127.742397 92932.678934 
L 129.1249 92932.678934 
L 129.1249 92932.678934 
L 127.742397 92932.678934 
z
" style="fill:#808080;opacity:0.6;"/>
   </g>
   <g id="patch_176">
    <path clip-path="url(#p849d0ed963)" d="M 129.1249 92932.678934 
L 130.507403 92932.678934 
L 130.507403 92932.678934 
L 129.1249 92932.678934 
z
" style="fill:#808080;opacity:0.6;"/>
   </g>
   <g id="patch_177">
    <path clip-path="url(#p849d0ed963)" d="M 130.507403 92932.678934 
L 131.889907 92932.678934 
L 131.889907 92932.678934 
L 130.507403 92932.678934 
z
" style="fill:#808080;opacity:0.6;"/>
   </g>
   <g id="patch_178">
    <path clip-path="url(#p849d0ed963)" d="M 131.889907 92932.678934 
L 133.27241 92932.678934 
L 133.27241 92932.678934 
L 131.889907 92932.678934 
z
" style="fill:#808080;opacity:0.6;"/>
   </g>
   <g id="patch_179">
    <path clip-path="url(#p849d0ed963)" d="M 133.27241 92932.678934 
L 134.654913 92932.678934 
L 134.654913 94.295104 
L 133.27241 94.295104 
z
" style="fill:#808080;opacity:0.6;"/>
   </g>
   <g id="matplotlib.axis_1">
    <g id="xtick_1">
     <g id="line2d_1">
      <defs>
       <path d="M 0 0 
L 0 3.5 
" id="me5699904b1" style="stroke:#000000;stroke-width:0.8;"/>
      </defs>
      <g>
       <use style="stroke:#000000;stroke-width:0.8;" x="52.973242" xlink:href="#me5699904b1" y="170.28"/>
      </g>
     </g>
     <g id="text_1">
      <!-- $\mathdefault{10^{-1}}$ -->
      <defs>
       <path d="M 12.40625 8.296875 
L 28.515625 8.296875 
L 28.515625 63.921875 
L 10.984375 60.40625 
L 10.984375 69.390625 
L 28.421875 72.90625 
L 38.28125 72.90625 
L 38.28125 8.296875 
L 54.390625 8.296875 
L 54.390625 0 
L 12.40625 0 
z
" id="DejaVuSans-49"/>
       <path d="M 31.78125 66.40625 
Q 24.171875 66.40625 20.328125 58.90625 
Q 16.5 51.421875 16.5 36.375 
Q 16.5 21.390625 20.328125 13.890625 
Q 24.171875 6.390625 31.78125 6.390625 
Q 39.453125 6.390625 43.28125 13.890625 
Q 47.125 21.390625 47.125 36.375 
Q 47.125 51.421875 43.28125 58.90625 
Q 39.453125 66.40625 31.78125 66.40625 
z
M 31.78125 74.21875 
Q 44.046875 74.21875 50.515625 64.515625 
Q 56.984375 54.828125 56.984375 36.375 
Q 56.984375 17.96875 50.515625 8.265625 
Q 44.046875 -1.421875 31.78125 -1.421875 
Q 19.53125 -1.421875 13.0625 8.265625 
Q 6.59375 17.96875 6.59375 36.375 
Q 6.59375 54.828125 13.0625 64.515625 
Q 19.53125 74.21875 31.78125 74.21875 
z
" id="DejaVuSans-48"/>
       <path d="M 10.59375 35.5 
L 73.1875 35.5 
L 73.1875 27.203125 
L 10.59375 27.203125 
z
" id="DejaVuSans-8722"/>
      </defs>
      <g transform="translate(41.223242 184.878438)scale(0.1 -0.1)">
       <use transform="translate(0 0.684375)" xlink:href="#DejaVuSans-49"/>
       <use transform="translate(63.623047 0.684375)" xlink:href="#DejaVuSans-48"/>
       <use transform="translate(128.203125 38.965625)scale(0.7)" xlink:href="#DejaVuSans-8722"/>
       <use transform="translate(186.855469 38.965625)scale(0.7)" xlink:href="#DejaVuSans-49"/>
      </g>
     </g>
    </g>
    <g id="xtick_2">
     <g id="line2d_2">
      <g>
       <use style="stroke:#000000;stroke-width:0.8;" x="170.152733" xlink:href="#me5699904b1" y="170.28"/>
      </g>
     </g>
     <g id="text_2">
      <!-- $\mathdefault{10^{0}}$ -->
      <g transform="translate(161.352733 184.878438)scale(0.1 -0.1)">
       <use transform="translate(0 0.765625)" xlink:href="#DejaVuSans-49"/>
       <use transform="translate(63.623047 0.765625)" xlink:href="#DejaVuSans-48"/>
       <use transform="translate(128.203125 39.046875)scale(0.7)" xlink:href="#DejaVuSans-48"/>
      </g>
     </g>
    </g>
    <g id="xtick_3">
     <g id="line2d_3">
      <defs>
       <path d="M 0 0 
L 0 2 
" id="mfaa864c94f" style="stroke:#000000;stroke-width:0.6;"/>
      </defs>
      <g>
       <use style="stroke:#000000;stroke-width:0.6;" x="47.611403" xlink:href="#mfaa864c94f" y="170.28"/>
      </g>
     </g>
    </g>
    <g id="xtick_4">
     <g id="line2d_4">
      <g>
       <use style="stroke:#000000;stroke-width:0.6;" x="88.247784" xlink:href="#mfaa864c94f" y="170.28"/>
      </g>
     </g>
    </g>
    <g id="xtick_5">
     <g id="line2d_5">
      <g>
       <use style="stroke:#000000;stroke-width:0.6;" x="108.882068" xlink:href="#mfaa864c94f" y="170.28"/>
      </g>
     </g>
    </g>
    <g id="xtick_6">
     <g id="line2d_6">
      <g>
       <use style="stroke:#000000;stroke-width:0.6;" x="123.522325" xlink:href="#mfaa864c94f" y="170.28"/>
      </g>
     </g>
    </g>
    <g id="xtick_7">
     <g id="line2d_7">
      <g>
       <use style="stroke:#000000;stroke-width:0.6;" x="134.878191" xlink:href="#mfaa864c94f" y="170.28"/>
      </g>
     </g>
    </g>
    <g id="xtick_8">
     <g id="line2d_8">
      <g>
       <use style="stroke:#000000;stroke-width:0.6;" x="144.156609" xlink:href="#mfaa864c94f" y="170.28"/>
      </g>
     </g>
    </g>
    <g id="xtick_9">
     <g id="line2d_9">
      <g>
       <use style="stroke:#000000;stroke-width:0.6;" x="152.0014" xlink:href="#mfaa864c94f" y="170.28"/>
      </g>
     </g>
    </g>
    <g id="xtick_10">
     <g id="line2d_10">
      <g>
       <use style="stroke:#000000;stroke-width:0.6;" x="158.796867" xlink:href="#mfaa864c94f" y="170.28"/>
      </g>
     </g>
    </g>
    <g id="xtick_11">
     <g id="line2d_11">
      <g>
       <use style="stroke:#000000;stroke-width:0.6;" x="164.790893" xlink:href="#mfaa864c94f" y="170.28"/>
      </g>
     </g>
    </g>
    <g id="xtick_12">
     <g id="line2d_12">
      <g>
       <use style="stroke:#000000;stroke-width:0.6;" x="205.427274" xlink:href="#mfaa864c94f" y="170.28"/>
      </g>
     </g>
    </g>
    <g id="text_3">
     <!-- Length -->
     <defs>
      <path d="M 9.8125 72.90625 
L 19.671875 72.90625 
L 19.671875 8.296875 
L 55.171875 8.296875 
L 55.171875 0 
L 9.8125 0 
z
" id="DejaVuSans-76"/>
      <path d="M 56.203125 29.59375 
L 56.203125 25.203125 
L 14.890625 25.203125 
Q 15.484375 15.921875 20.484375 11.0625 
Q 25.484375 6.203125 34.421875 6.203125 
Q 39.59375 6.203125 44.453125 7.46875 
Q 49.3125 8.734375 54.109375 11.28125 
L 54.109375 2.78125 
Q 49.265625 0.734375 44.1875 -0.34375 
Q 39.109375 -1.421875 33.890625 -1.421875 
Q 20.796875 -1.421875 13.15625 6.1875 
Q 5.515625 13.8125 5.515625 26.8125 
Q 5.515625 40.234375 12.765625 48.109375 
Q 20.015625 56 32.328125 56 
Q 43.359375 56 49.78125 48.890625 
Q 56.203125 41.796875 56.203125 29.59375 
z
M 47.21875 32.234375 
Q 47.125 39.59375 43.09375 43.984375 
Q 39.0625 48.390625 32.421875 48.390625 
Q 24.90625 48.390625 20.390625 44.140625 
Q 15.875 39.890625 15.1875 32.171875 
z
" id="DejaVuSans-101"/>
      <path d="M 54.890625 33.015625 
L 54.890625 0 
L 45.90625 0 
L 45.90625 32.71875 
Q 45.90625 40.484375 42.875 44.328125 
Q 39.84375 48.1875 33.796875 48.1875 
Q 26.515625 48.1875 22.3125 43.546875 
Q 18.109375 38.921875 18.109375 30.90625 
L 18.109375 0 
L 9.078125 0 
L 9.078125 54.6875 
L 18.109375 54.6875 
L 18.109375 46.1875 
Q 21.34375 51.125 25.703125 53.5625 
Q 30.078125 56 35.796875 56 
Q 45.21875 56 50.046875 50.171875 
Q 54.890625 44.34375 54.890625 33.015625 
z
" id="DejaVuSans-110"/>
      <path d="M 45.40625 27.984375 
Q 45.40625 37.75 41.375 43.109375 
Q 37.359375 48.484375 30.078125 48.484375 
Q 22.859375 48.484375 18.828125 43.109375 
Q 14.796875 37.75 14.796875 27.984375 
Q 14.796875 18.265625 18.828125 12.890625 
Q 22.859375 7.515625 30.078125 7.515625 
Q 37.359375 7.515625 41.375 12.890625 
Q 45.40625 18.265625 45.40625 27.984375 
z
M 54.390625 6.78125 
Q 54.390625 -7.171875 48.1875 -13.984375 
Q 42 -20.796875 29.203125 -20.796875 
Q 24.46875 -20.796875 20.265625 -20.09375 
Q 16.0625 -19.390625 12.109375 -17.921875 
L 12.109375 -9.1875 
Q 16.0625 -11.328125 19.921875 -12.34375 
Q 23.78125 -13.375 27.78125 -13.375 
Q 36.625 -13.375 41.015625 -8.765625 
Q 45.40625 -4.15625 45.40625 5.171875 
L 45.40625 9.625 
Q 42.625 4.78125 38.28125 2.390625 
Q 33.9375 0 27.875 0 
Q 17.828125 0 11.671875 7.65625 
Q 5.515625 15.328125 5.515625 27.984375 
Q 5.515625 40.671875 11.671875 48.328125 
Q 17.828125 56 27.875 56 
Q 33.9375 56 38.28125 53.609375 
Q 42.625 51.21875 45.40625 46.390625 
L 45.40625 54.6875 
L 54.390625 54.6875 
z
" id="DejaVuSans-103"/>
      <path d="M 18.3125 70.21875 
L 18.3125 54.6875 
L 36.8125 54.6875 
L 36.8125 47.703125 
L 18.3125 47.703125 
L 18.3125 18.015625 
Q 18.3125 11.328125 20.140625 9.421875 
Q 21.96875 7.515625 27.59375 7.515625 
L 36.8125 7.515625 
L 36.8125 0 
L 27.59375 0 
Q 17.1875 0 13.234375 3.875 
Q 9.28125 7.765625 9.28125 18.015625 
L 9.28125 47.703125 
L 2.6875 47.703125 
L 2.6875 54.6875 
L 9.28125 54.6875 
L 9.28125 70.21875 
z
" id="DejaVuSans-116"/>
      <path d="M 54.890625 33.015625 
L 54.890625 0 
L 45.90625 0 
L 45.90625 32.71875 
Q 45.90625 40.484375 42.875 44.328125 
Q 39.84375 48.1875 33.796875 48.1875 
Q 26.515625 48.1875 22.3125 43.546875 
Q 18.109375 38.921875 18.109375 30.90625 
L 18.109375 0 
L 9.078125 0 
L 9.078125 75.984375 
L 18.109375 75.984375 
L 18.109375 46.1875 
Q 21.34375 51.125 25.703125 53.5625 
Q 30.078125 56 35.796875 56 
Q 45.21875 56 50.046875 50.171875 
Q 54.890625 44.34375 54.890625 33.015625 
z
" id="DejaVuSans-104"/>
     </defs>
     <g transform="translate(111.844531 198.556563)scale(0.1 -0.1)">
      <use xlink:href="#DejaVuSans-76"/>
      <use x="55.697266" xlink:href="#DejaVuSans-101"/>
      <use x="117.220703" xlink:href="#DejaVuSans-110"/>
      <use x="180.599609" xlink:href="#DejaVuSans-103"/>
      <use x="244.076172" xlink:href="#DejaVuSans-116"/>
      <use x="283.285156" xlink:href="#DejaVuSans-104"/>
     </g>
    </g>
   </g>
   <g id="matplotlib.axis_2">
    <g id="ytick_1">
     <g id="line2d_13">
      <defs>
       <path d="M 0 0 
L -3.5 0 
" id="m327a280c93" style="stroke:#000000;stroke-width:0.8;"/>
      </defs>
      <g>
       <use style="stroke:#000000;stroke-width:0.8;" x="45.478125" xlink:href="#m327a280c93" y="148.758259"/>
      </g>
     </g>
     <g id="text_4">
      <!-- $\mathdefault{10^{0}}$ -->
      <g transform="translate(20.878125 152.557477)scale(0.1 -0.1)">
       <use transform="translate(0 0.765625)" xlink:href="#DejaVuSans-49"/>
       <use transform="translate(63.623047 0.765625)" xlink:href="#DejaVuSans-48"/>
       <use transform="translate(128.203125 39.046875)scale(0.7)" xlink:href="#DejaVuSans-48"/>
      </g>
     </g>
    </g>
    <g id="ytick_2">
     <g id="line2d_14">
      <g>
       <use style="stroke:#000000;stroke-width:0.8;" x="45.478125" xlink:href="#m327a280c93" y="55.974338"/>
      </g>
     </g>
     <g id="text_5">
      <!-- $\mathdefault{10^{1}}$ -->
      <g transform="translate(20.878125 59.773557)scale(0.1 -0.1)">
       <use transform="translate(0 0.684375)" xlink:href="#DejaVuSans-49"/>
       <use transform="translate(63.623047 0.684375)" xlink:href="#DejaVuSans-48"/>
       <use transform="translate(128.203125 38.965625)scale(0.7)" xlink:href="#DejaVuSans-49"/>
      </g>
     </g>
    </g>
    <g id="ytick_3">
     <g id="line2d_15">
      <defs>
       <path d="M 0 0 
L -2 0 
" id="m616988de75" style="stroke:#000000;stroke-width:0.6;"/>
      </defs>
      <g>
       <use style="stroke:#000000;stroke-width:0.6;" x="45.478125" xlink:href="#m616988de75" y="169.342255"/>
      </g>
     </g>
    </g>
    <g id="ytick_4">
     <g id="line2d_16">
      <g>
       <use style="stroke:#000000;stroke-width:0.6;" x="45.478125" xlink:href="#m616988de75" y="163.13067"/>
      </g>
     </g>
    </g>
    <g id="ytick_5">
     <g id="line2d_17">
      <g>
       <use style="stroke:#000000;stroke-width:0.6;" x="45.478125" xlink:href="#m616988de75" y="157.74995"/>
      </g>
     </g>
    </g>
    <g id="ytick_6">
     <g id="line2d_18">
      <g>
       <use style="stroke:#000000;stroke-width:0.6;" x="45.478125" xlink:href="#m616988de75" y="153.003818"/>
      </g>
     </g>
    </g>
    <g id="ytick_7">
     <g id="line2d_19">
      <g>
       <use style="stroke:#000000;stroke-width:0.6;" x="45.478125" xlink:href="#m616988de75" y="120.827515"/>
      </g>
     </g>
    </g>
    <g id="ytick_8">
     <g id="line2d_20">
      <g>
       <use style="stroke:#000000;stroke-width:0.6;" x="45.478125" xlink:href="#m616988de75" y="104.489078"/>
      </g>
     </g>
    </g>
    <g id="ytick_9">
     <g id="line2d_21">
      <g>
       <use style="stroke:#000000;stroke-width:0.6;" x="45.478125" xlink:href="#m616988de75" y="92.896772"/>
      </g>
     </g>
    </g>
    <g id="ytick_10">
     <g id="line2d_22">
      <g>
       <use style="stroke:#000000;stroke-width:0.6;" x="45.478125" xlink:href="#m616988de75" y="83.905081"/>
      </g>
     </g>
    </g>
    <g id="ytick_11">
     <g id="line2d_23">
      <g>
       <use style="stroke:#000000;stroke-width:0.6;" x="45.478125" xlink:href="#m616988de75" y="76.558335"/>
      </g>
     </g>
    </g>
    <g id="ytick_12">
     <g id="line2d_24">
      <g>
       <use style="stroke:#000000;stroke-width:0.6;" x="45.478125" xlink:href="#m616988de75" y="70.346749"/>
      </g>
     </g>
    </g>
    <g id="ytick_13">
     <g id="line2d_25">
      <g>
       <use style="stroke:#000000;stroke-width:0.6;" x="45.478125" xlink:href="#m616988de75" y="64.966029"/>
      </g>
     </g>
    </g>
    <g id="ytick_14">
     <g id="line2d_26">
      <g>
       <use style="stroke:#000000;stroke-width:0.6;" x="45.478125" xlink:href="#m616988de75" y="60.219897"/>
      </g>
     </g>
    </g>
    <g id="ytick_15">
     <g id="line2d_27">
      <g>
       <use style="stroke:#000000;stroke-width:0.6;" x="45.478125" xlink:href="#m616988de75" y="28.043595"/>
      </g>
     </g>
    </g>
    <g id="ytick_16">
     <g id="line2d_28">
      <g>
       <use style="stroke:#000000;stroke-width:0.6;" x="45.478125" xlink:href="#m616988de75" y="11.705157"/>
      </g>
     </g>
    </g>
    <g id="text_6">
     <!-- Count -->
     <defs>
      <path d="M 64.40625 67.28125 
L 64.40625 56.890625 
Q 59.421875 61.53125 53.78125 63.8125 
Q 48.140625 66.109375 41.796875 66.109375 
Q 29.296875 66.109375 22.65625 58.46875 
Q 16.015625 50.828125 16.015625 36.375 
Q 16.015625 21.96875 22.65625 14.328125 
Q 29.296875 6.6875 41.796875 6.6875 
Q 48.140625 6.6875 53.78125 8.984375 
Q 59.421875 11.28125 64.40625 15.921875 
L 64.40625 5.609375 
Q 59.234375 2.09375 53.4375 0.328125 
Q 47.65625 -1.421875 41.21875 -1.421875 
Q 24.65625 -1.421875 15.125 8.703125 
Q 5.609375 18.84375 5.609375 36.375 
Q 5.609375 53.953125 15.125 64.078125 
Q 24.65625 74.21875 41.21875 74.21875 
Q 47.75 74.21875 53.53125 72.484375 
Q 59.328125 70.75 64.40625 67.28125 
z
" id="DejaVuSans-67"/>
      <path d="M 30.609375 48.390625 
Q 23.390625 48.390625 19.1875 42.75 
Q 14.984375 37.109375 14.984375 27.296875 
Q 14.984375 17.484375 19.15625 11.84375 
Q 23.34375 6.203125 30.609375 6.203125 
Q 37.796875 6.203125 41.984375 11.859375 
Q 46.1875 17.53125 46.1875 27.296875 
Q 46.1875 37.015625 41.984375 42.703125 
Q 37.796875 48.390625 30.609375 48.390625 
z
M 30.609375 56 
Q 42.328125 56 49.015625 48.375 
Q 55.71875 40.765625 55.71875 27.296875 
Q 55.71875 13.875 49.015625 6.21875 
Q 42.328125 -1.421875 30.609375 -1.421875 
Q 18.84375 -1.421875 12.171875 6.21875 
Q 5.515625 13.875 5.515625 27.296875 
Q 5.515625 40.765625 12.171875 48.375 
Q 18.84375 56 30.609375 56 
z
" id="DejaVuSans-111"/>
      <path d="M 8.5 21.578125 
L 8.5 54.6875 
L 17.484375 54.6875 
L 17.484375 21.921875 
Q 17.484375 14.15625 20.5 10.265625 
Q 23.53125 6.390625 29.59375 6.390625 
Q 36.859375 6.390625 41.078125 11.03125 
Q 45.3125 15.671875 45.3125 23.6875 
L 45.3125 54.6875 
L 54.296875 54.6875 
L 54.296875 0 
L 45.3125 0 
L 45.3125 8.40625 
Q 42.046875 3.421875 37.71875 1 
Q 33.40625 -1.421875 27.6875 -1.421875 
Q 18.265625 -1.421875 13.375 4.4375 
Q 8.5 10.296875 8.5 21.578125 
z
M 31.109375 56 
z
" id="DejaVuSans-117"/>
     </defs>
     <g transform="translate(14.798438 103.588437)rotate(-90)scale(0.1 -0.1)">
      <use xlink:href="#DejaVuSans-67"/>
      <use x="69.824219" xlink:href="#DejaVuSans-111"/>
      <use x="131.005859" xlink:href="#DejaVuSans-117"/>
      <use x="194.384766" xlink:href="#DejaVuSans-110"/>
      <use x="257.763672" xlink:href="#DejaVuSans-116"/>
     </g>
    </g>
   </g>
   <g id="patch_180">
    <path d="M 45.478125 170.28 
L 45.478125 7.2 
" style="fill:none;stroke:#000000;stroke-linecap:square;stroke-linejoin:miter;stroke-width:0.8;"/>
   </g>
   <g id="patch_181">
    <path d="M 45.478125 170.28 
L 212.878125 170.28 
" style="fill:none;stroke:#000000;stroke-linecap:square;stroke-linejoin:miter;stroke-width:0.8;"/>
   </g>
   <g id="legend_1">
    <g id="patch_182">
     <path d="M 219.878125 112.257187 
L 267.78125 112.257187 
Q 269.78125 112.257187 269.78125 110.257187 
L 269.78125 67.222812 
Q 269.78125 65.222812 267.78125 65.222812 
L 219.878125 65.222812 
Q 217.878125 65.222812 217.878125 67.222812 
L 217.878125 110.257187 
Q 217.878125 112.257187 219.878125 112.257187 
z
" style="fill:#ffffff;opacity:0.8;stroke:#cccccc;stroke-linejoin:miter;"/>
    </g>
    <g id="patch_183">
     <path d="M 221.878125 76.82125 
L 241.878125 76.82125 
L 241.878125 69.82125 
L 221.878125 69.82125 
z
" style="fill:#0000ff;opacity:0.6;"/>
    </g>
    <g id="text_7">
     <!-- 1.5 -->
     <defs>
      <path d="M 10.6875 12.40625 
L 21 12.40625 
L 21 0 
L 10.6875 0 
z
" id="DejaVuSans-46"/>
      <path d="M 10.796875 72.90625 
L 49.515625 72.90625 
L 49.515625 64.59375 
L 19.828125 64.59375 
L 19.828125 46.734375 
Q 21.96875 47.46875 24.109375 47.828125 
Q 26.265625 48.1875 28.421875 48.1875 
Q 40.625 48.1875 47.75 41.5 
Q 54.890625 34.8125 54.890625 23.390625 
Q 54.890625 11.625 47.5625 5.09375 
Q 40.234375 -1.421875 26.90625 -1.421875 
Q 22.3125 -1.421875 17.546875 -0.640625 
Q 12.796875 0.140625 7.71875 1.703125 
L 7.71875 11.625 
Q 12.109375 9.234375 16.796875 8.0625 
Q 21.484375 6.890625 26.703125 6.890625 
Q 35.15625 6.890625 40.078125 11.328125 
Q 45.015625 15.765625 45.015625 23.390625 
Q 45.015625 31 40.078125 35.4375 
Q 35.15625 39.890625 26.703125 39.890625 
Q 22.75 39.890625 18.8125 39.015625 
Q 14.890625 38.140625 10.796875 36.28125 
z
" id="DejaVuSans-53"/>
     </defs>
     <g transform="translate(249.878125 76.82125)scale(0.1 -0.1)">
      <use xlink:href="#DejaVuSans-49"/>
      <use x="63.623047" xlink:href="#DejaVuSans-46"/>
      <use x="95.410156" xlink:href="#DejaVuSans-53"/>
     </g>
    </g>
    <g id="patch_184">
     <path d="M 221.878125 91.499375 
L 241.878125 91.499375 
L 241.878125 84.499375 
L 221.878125 84.499375 
z
" style="fill:#800080;opacity:0.6;"/>
    </g>
    <g id="text_8">
     <!-- 2.0 -->
     <defs>
      <path d="M 19.1875 8.296875 
L 53.609375 8.296875 
L 53.609375 0 
L 7.328125 0 
L 7.328125 8.296875 
Q 12.9375 14.109375 22.625 23.890625 
Q 32.328125 33.6875 34.8125 36.53125 
Q 39.546875 41.84375 41.421875 45.53125 
Q 43.3125 49.21875 43.3125 52.78125 
Q 43.3125 58.59375 39.234375 62.25 
Q 35.15625 65.921875 28.609375 65.921875 
Q 23.96875 65.921875 18.8125 64.3125 
Q 13.671875 62.703125 7.8125 59.421875 
L 7.8125 69.390625 
Q 13.765625 71.78125 18.9375 73 
Q 24.125 74.21875 28.421875 74.21875 
Q 39.75 74.21875 46.484375 68.546875 
Q 53.21875 62.890625 53.21875 53.421875 
Q 53.21875 48.921875 51.53125 44.890625 
Q 49.859375 40.875 45.40625 35.40625 
Q 44.1875 33.984375 37.640625 27.21875 
Q 31.109375 20.453125 19.1875 8.296875 
z
" id="DejaVuSans-50"/>
     </defs>
     <g transform="translate(249.878125 91.499375)scale(0.1 -0.1)">
      <use xlink:href="#DejaVuSans-50"/>
      <use x="63.623047" xlink:href="#DejaVuSans-46"/>
      <use x="95.410156" xlink:href="#DejaVuSans-48"/>
     </g>
    </g>
    <g id="patch_185">
     <path d="M 221.878125 106.1775 
L 241.878125 106.1775 
L 241.878125 99.1775 
L 221.878125 99.1775 
z
" style="fill:#808080;opacity:0.6;"/>
    </g>
    <g id="text_9">
     <!-- 2.5 -->
     <g transform="translate(249.878125 106.1775)scale(0.1 -0.1)">
      <use xlink:href="#DejaVuSans-50"/>
      <use x="63.623047" xlink:href="#DejaVuSans-46"/>
      <use x="95.410156" xlink:href="#DejaVuSans-53"/>
     </g>
    </g>
   </g>
  </g>
 </g>
 <defs>
  <clipPath id="p849d0ed963">
   <rect height="163.08" width="167.4" x="45.478125" y="7.2"/>
  </clipPath>
 </defs>
</svg>