<?xml version="1.0" encoding="utf-8" standalone="no"?>
<!DOCTYPE svg PUBLIC "-//W3C//DTD SVG 1.1//EN"
  "http://www.w3.org/Graphics/SVG/1.1/DTD/svg11.dtd">
<!-- Created with matplotlib (https://matplotlib.org/) -->
<svg height="114.234375pt" version="1.1" viewBox="0 0 376.240625 114.234375" width="376.240625pt" xmlns="http://www.w3.org/2000/svg" xmlns:xlink="http://www.w3.org/1999/xlink">
 <defs>
  <style type="text/css">
*{stroke-linecap:butt;stroke-linejoin:round;}
  </style>
 </defs>
 <g id="figure_1">
  <g id="patch_1">
   <path d="M 0 114.234375 
L 376.240625 114.234375 
L 376.240625 0 
L 0 0 
z
" style="fill:none;"/>
  </g>
  <g id="axes_1">
   <g id="patch_2">
    <path d="M 34.240625 76.678125 
L 369.040625 76.678125 
L 369.040625 22.318125 
L 34.240625 22.318125 
z
" style="fill:#ffffff;"/>
   </g>
   <g id="PathCollection_1">
    <defs>
     <path d="M 0 1 
C 0.265203 1 0.51958 0.894634 0.707107 0.707107 
C 0.894634 0.51958 1 0.265203 1 0 
C 1 -0.265203 0.894634 -0.51958 0.707107 -0.707107 
C 0.51958 -0.894634 0.265203 -1 0 -1 
C -0.265203 -1 -0.51958 -0.894634 -0.707107 -0.707107 
C -0.894634 -0.51958 -1 -0.265203 -1 0 
C -1 0.265203 -0.894634 0.51958 -0.707107 0.707107 
C -0.51958 0.894634 -0.265203 1 0 1 
z
" id="me702044a3e" style="stroke:#800080;"/>
    </defs>
    <g clip-path="url(#pe75ff67203)">
     <use style="fill:#800080;stroke:#800080;" x="49.463375" xlink:href="#me702044a3e" y="57.634702"/>
     <use style="fill:#800080;stroke:#800080;" x="50.992795" xlink:href="#me702044a3e" y="25.088393"/>
     <use style="fill:#800080;stroke:#800080;" x="52.522214" xlink:href="#me702044a3e" y="25.088393"/>
     <use style="fill:#800080;stroke:#800080;" x="54.051634" xlink:href="#me702044a3e" y="41.361548"/>
     <use style="fill:#800080;stroke:#800080;" x="55.581053" xlink:href="#me702044a3e" y="57.634702"/>
     <use style="fill:#800080;stroke:#800080;" x="57.110473" xlink:href="#me702044a3e" y="25.088393"/>
     <use style="fill:#800080;stroke:#800080;" x="58.639893" xlink:href="#me702044a3e" y="57.634702"/>
     <use style="fill:#800080;stroke:#800080;" x="60.169312" xlink:href="#me702044a3e" y="57.634702"/>
     <use style="fill:#800080;stroke:#800080;" x="61.698732" xlink:href="#me702044a3e" y="73.907857"/>
     <use style="fill:#800080;stroke:#800080;" x="63.228151" xlink:href="#me702044a3e" y="73.907857"/>
     <use style="fill:#800080;stroke:#800080;" x="64.757571" xlink:href="#me702044a3e" y="57.634702"/>
     <use style="fill:#800080;stroke:#800080;" x="66.286991" xlink:href="#me702044a3e" y="57.634702"/>
     <use style="fill:#800080;stroke:#800080;" x="67.81641" xlink:href="#me702044a3e" y="57.634702"/>
     <use style="fill:#800080;stroke:#800080;" x="69.34583" xlink:href="#me702044a3e" y="57.634702"/>
     <use style="fill:#800080;stroke:#800080;" x="70.875249" xlink:href="#me702044a3e" y="57.634702"/>
     <use style="fill:#800080;stroke:#800080;" x="72.404669" xlink:href="#me702044a3e" y="57.634702"/>
     <use style="fill:#800080;stroke:#800080;" x="73.934089" xlink:href="#me702044a3e" y="57.634702"/>
     <use style="fill:#800080;stroke:#800080;" x="75.463508" xlink:href="#me702044a3e" y="41.361548"/>
     <use style="fill:#800080;stroke:#800080;" x="76.992928" xlink:href="#me702044a3e" y="57.634702"/>
     <use style="fill:#800080;stroke:#800080;" x="78.522347" xlink:href="#me702044a3e" y="25.088393"/>
     <use style="fill:#800080;stroke:#800080;" x="80.051767" xlink:href="#me702044a3e" y="57.634702"/>
     <use style="fill:#800080;stroke:#800080;" x="81.581187" xlink:href="#me702044a3e" y="57.634702"/>
     <use style="fill:#800080;stroke:#800080;" x="83.110606" xlink:href="#me702044a3e" y="57.634702"/>
     <use style="fill:#800080;stroke:#800080;" x="84.640026" xlink:href="#me702044a3e" y="57.634702"/>
     <use style="fill:#800080;stroke:#800080;" x="86.169445" xlink:href="#me702044a3e" y="57.634702"/>
     <use style="fill:#800080;stroke:#800080;" x="87.698865" xlink:href="#me702044a3e" y="57.634702"/>
     <use style="fill:#800080;stroke:#800080;" x="89.228285" xlink:href="#me702044a3e" y="57.634702"/>
     <use style="fill:#800080;stroke:#800080;" x="90.757704" xlink:href="#me702044a3e" y="57.634702"/>
     <use style="fill:#800080;stroke:#800080;" x="92.287124" xlink:href="#me702044a3e" y="57.634702"/>
     <use style="fill:#800080;stroke:#800080;" x="93.816543" xlink:href="#me702044a3e" y="57.634702"/>
     <use style="fill:#800080;stroke:#800080;" x="95.345963" xlink:href="#me702044a3e" y="57.634702"/>
     <use style="fill:#800080;stroke:#800080;" x="96.875383" xlink:href="#me702044a3e" y="57.634702"/>
     <use style="fill:#800080;stroke:#800080;" x="98.404802" xlink:href="#me702044a3e" y="57.634702"/>
     <use style="fill:#800080;stroke:#800080;" x="99.934222" xlink:href="#me702044a3e" y="25.088393"/>
     <use style="fill:#800080;stroke:#800080;" x="101.463641" xlink:href="#me702044a3e" y="57.634702"/>
     <use style="fill:#800080;stroke:#800080;" x="102.993061" xlink:href="#me702044a3e" y="57.634702"/>
     <use style="fill:#800080;stroke:#800080;" x="104.522481" xlink:href="#me702044a3e" y="57.634702"/>
     <use style="fill:#800080;stroke:#800080;" x="106.0519" xlink:href="#me702044a3e" y="57.634702"/>
     <use style="fill:#800080;stroke:#800080;" x="107.58132" xlink:href="#me702044a3e" y="57.634702"/>
     <use style="fill:#800080;stroke:#800080;" x="109.110739" xlink:href="#me702044a3e" y="57.634702"/>
     <use style="fill:#800080;stroke:#800080;" x="110.640159" xlink:href="#me702044a3e" y="57.634702"/>
     <use style="fill:#800080;stroke:#800080;" x="112.169579" xlink:href="#me702044a3e" y="57.634702"/>
     <use style="fill:#800080;stroke:#800080;" x="113.698998" xlink:href="#me702044a3e" y="57.634702"/>
     <use style="fill:#800080;stroke:#800080;" x="115.228418" xlink:href="#me702044a3e" y="57.634702"/>
     <use style="fill:#800080;stroke:#800080;" x="116.757837" xlink:href="#me702044a3e" y="57.634702"/>
     <use style="fill:#800080;stroke:#800080;" x="118.287257" xlink:href="#me702044a3e" y="57.634702"/>
     <use style="fill:#800080;stroke:#800080;" x="119.816676" xlink:href="#me702044a3e" y="57.634702"/>
     <use style="fill:#800080;stroke:#800080;" x="121.346096" xlink:href="#me702044a3e" y="25.088393"/>
     <use style="fill:#800080;stroke:#800080;" x="122.875516" xlink:href="#me702044a3e" y="57.634702"/>
     <use style="fill:#800080;stroke:#800080;" x="124.404935" xlink:href="#me702044a3e" y="57.634702"/>
     <use style="fill:#800080;stroke:#800080;" x="125.934355" xlink:href="#me702044a3e" y="57.634702"/>
     <use style="fill:#800080;stroke:#800080;" x="127.463774" xlink:href="#me702044a3e" y="57.634702"/>
     <use style="fill:#800080;stroke:#800080;" x="128.993194" xlink:href="#me702044a3e" y="57.634702"/>
     <use style="fill:#800080;stroke:#800080;" x="130.522614" xlink:href="#me702044a3e" y="57.634702"/>
     <use style="fill:#800080;stroke:#800080;" x="132.052033" xlink:href="#me702044a3e" y="57.634702"/>
     <use style="fill:#800080;stroke:#800080;" x="133.581453" xlink:href="#me702044a3e" y="57.634702"/>
     <use style="fill:#800080;stroke:#800080;" x="135.110872" xlink:href="#me702044a3e" y="57.634702"/>
     <use style="fill:#800080;stroke:#800080;" x="136.640292" xlink:href="#me702044a3e" y="57.634702"/>
     <use style="fill:#800080;stroke:#800080;" x="138.169712" xlink:href="#me702044a3e" y="57.634702"/>
     <use style="fill:#800080;stroke:#800080;" x="139.699131" xlink:href="#me702044a3e" y="57.634702"/>
     <use style="fill:#800080;stroke:#800080;" x="141.228551" xlink:href="#me702044a3e" y="57.634702"/>
     <use style="fill:#800080;stroke:#800080;" x="142.75797" xlink:href="#me702044a3e" y="57.634702"/>
     <use style="fill:#800080;stroke:#800080;" x="144.28739" xlink:href="#me702044a3e" y="57.634702"/>
     <use style="fill:#800080;stroke:#800080;" x="145.81681" xlink:href="#me702044a3e" y="57.634702"/>
     <use style="fill:#800080;stroke:#800080;" x="147.346229" xlink:href="#me702044a3e" y="57.634702"/>
     <use style="fill:#800080;stroke:#800080;" x="148.875649" xlink:href="#me702044a3e" y="57.634702"/>
     <use style="fill:#800080;stroke:#800080;" x="150.405068" xlink:href="#me702044a3e" y="57.634702"/>
     <use style="fill:#800080;stroke:#800080;" x="151.934488" xlink:href="#me702044a3e" y="57.634702"/>
     <use style="fill:#800080;stroke:#800080;" x="153.463908" xlink:href="#me702044a3e" y="57.634702"/>
     <use style="fill:#800080;stroke:#800080;" x="154.993327" xlink:href="#me702044a3e" y="57.634702"/>
     <use style="fill:#800080;stroke:#800080;" x="156.522747" xlink:href="#me702044a3e" y="73.907857"/>
     <use style="fill:#800080;stroke:#800080;" x="158.052166" xlink:href="#me702044a3e" y="41.361548"/>
     <use style="fill:#800080;stroke:#800080;" x="159.581586" xlink:href="#me702044a3e" y="73.907857"/>
     <use style="fill:#800080;stroke:#800080;" x="161.111006" xlink:href="#me702044a3e" y="57.634702"/>
     <use style="fill:#800080;stroke:#800080;" x="162.640425" xlink:href="#me702044a3e" y="25.088393"/>
     <use style="fill:#800080;stroke:#800080;" x="164.169845" xlink:href="#me702044a3e" y="57.634702"/>
     <use style="fill:#800080;stroke:#800080;" x="165.699264" xlink:href="#me702044a3e" y="57.634702"/>
     <use style="fill:#800080;stroke:#800080;" x="167.228684" xlink:href="#me702044a3e" y="73.907857"/>
     <use style="fill:#800080;stroke:#800080;" x="168.758104" xlink:href="#me702044a3e" y="25.088393"/>
     <use style="fill:#800080;stroke:#800080;" x="170.287523" xlink:href="#me702044a3e" y="57.634702"/>
     <use style="fill:#800080;stroke:#800080;" x="171.816943" xlink:href="#me702044a3e" y="73.907857"/>
     <use style="fill:#800080;stroke:#800080;" x="173.346362" xlink:href="#me702044a3e" y="25.088393"/>
     <use style="fill:#800080;stroke:#800080;" x="174.875782" xlink:href="#me702044a3e" y="57.634702"/>
     <use style="fill:#800080;stroke:#800080;" x="176.405202" xlink:href="#me702044a3e" y="73.907857"/>
     <use style="fill:#800080;stroke:#800080;" x="177.934621" xlink:href="#me702044a3e" y="25.088393"/>
     <use style="fill:#800080;stroke:#800080;" x="179.464041" xlink:href="#me702044a3e" y="57.634702"/>
     <use style="fill:#800080;stroke:#800080;" x="180.99346" xlink:href="#me702044a3e" y="73.907857"/>
     <use style="fill:#800080;stroke:#800080;" x="182.52288" xlink:href="#me702044a3e" y="25.088393"/>
     <use style="fill:#800080;stroke:#800080;" x="184.0523" xlink:href="#me702044a3e" y="57.634702"/>
     <use style="fill:#800080;stroke:#800080;" x="185.581719" xlink:href="#me702044a3e" y="73.907857"/>
     <use style="fill:#800080;stroke:#800080;" x="187.111139" xlink:href="#me702044a3e" y="25.088393"/>
     <use style="fill:#800080;stroke:#800080;" x="188.640558" xlink:href="#me702044a3e" y="57.634702"/>
     <use style="fill:#800080;stroke:#800080;" x="190.169978" xlink:href="#me702044a3e" y="57.634702"/>
     <use style="fill:#800080;stroke:#800080;" x="191.699398" xlink:href="#me702044a3e" y="57.634702"/>
     <use style="fill:#800080;stroke:#800080;" x="193.228817" xlink:href="#me702044a3e" y="73.907857"/>
     <use style="fill:#800080;stroke:#800080;" x="194.758237" xlink:href="#me702044a3e" y="57.634702"/>
     <use style="fill:#800080;stroke:#800080;" x="196.287656" xlink:href="#me702044a3e" y="57.634702"/>
     <use style="fill:#800080;stroke:#800080;" x="197.817076" xlink:href="#me702044a3e" y="25.088393"/>
     <use style="fill:#800080;stroke:#800080;" x="199.346496" xlink:href="#me702044a3e" y="57.634702"/>
     <use style="fill:#800080;stroke:#800080;" x="200.875915" xlink:href="#me702044a3e" y="57.634702"/>
     <use style="fill:#800080;stroke:#800080;" x="202.405335" xlink:href="#me702044a3e" y="57.634702"/>
     <use style="fill:#800080;stroke:#800080;" x="203.934754" xlink:href="#me702044a3e" y="57.634702"/>
     <use style="fill:#800080;stroke:#800080;" x="205.464174" xlink:href="#me702044a3e" y="57.634702"/>
     <use style="fill:#800080;stroke:#800080;" x="206.993594" xlink:href="#me702044a3e" y="57.634702"/>
     <use style="fill:#800080;stroke:#800080;" x="208.523013" xlink:href="#me702044a3e" y="57.634702"/>
     <use style="fill:#800080;stroke:#800080;" x="210.052433" xlink:href="#me702044a3e" y="57.634702"/>
     <use style="fill:#800080;stroke:#800080;" x="211.581852" xlink:href="#me702044a3e" y="57.634702"/>
     <use style="fill:#800080;stroke:#800080;" x="213.111272" xlink:href="#me702044a3e" y="57.634702"/>
     <use style="fill:#800080;stroke:#800080;" x="214.640692" xlink:href="#me702044a3e" y="57.634702"/>
     <use style="fill:#800080;stroke:#800080;" x="216.170111" xlink:href="#me702044a3e" y="57.634702"/>
     <use style="fill:#800080;stroke:#800080;" x="217.699531" xlink:href="#me702044a3e" y="57.634702"/>
     <use style="fill:#800080;stroke:#800080;" x="219.22895" xlink:href="#me702044a3e" y="57.634702"/>
     <use style="fill:#800080;stroke:#800080;" x="220.75837" xlink:href="#me702044a3e" y="73.907857"/>
     <use style="fill:#800080;stroke:#800080;" x="222.28779" xlink:href="#me702044a3e" y="57.634702"/>
     <use style="fill:#800080;stroke:#800080;" x="223.817209" xlink:href="#me702044a3e" y="57.634702"/>
     <use style="fill:#800080;stroke:#800080;" x="225.346629" xlink:href="#me702044a3e" y="57.634702"/>
     <use style="fill:#800080;stroke:#800080;" x="226.876048" xlink:href="#me702044a3e" y="57.634702"/>
     <use style="fill:#800080;stroke:#800080;" x="228.405468" xlink:href="#me702044a3e" y="57.634702"/>
     <use style="fill:#800080;stroke:#800080;" x="229.934888" xlink:href="#me702044a3e" y="57.634702"/>
     <use style="fill:#800080;stroke:#800080;" x="231.464307" xlink:href="#me702044a3e" y="57.634702"/>
     <use style="fill:#800080;stroke:#800080;" x="232.993727" xlink:href="#me702044a3e" y="57.634702"/>
     <use style="fill:#800080;stroke:#800080;" x="234.523146" xlink:href="#me702044a3e" y="57.634702"/>
     <use style="fill:#800080;stroke:#800080;" x="236.052566" xlink:href="#me702044a3e" y="57.634702"/>
     <use style="fill:#800080;stroke:#800080;" x="237.581986" xlink:href="#me702044a3e" y="25.088393"/>
     <use style="fill:#800080;stroke:#800080;" x="239.111405" xlink:href="#me702044a3e" y="57.634702"/>
     <use style="fill:#800080;stroke:#800080;" x="240.640825" xlink:href="#me702044a3e" y="57.634702"/>
     <use style="fill:#800080;stroke:#800080;" x="242.170244" xlink:href="#me702044a3e" y="57.634702"/>
     <use style="fill:#800080;stroke:#800080;" x="243.699664" xlink:href="#me702044a3e" y="57.634702"/>
     <use style="fill:#800080;stroke:#800080;" x="245.229084" xlink:href="#me702044a3e" y="41.361548"/>
     <use style="fill:#800080;stroke:#800080;" x="246.758503" xlink:href="#me702044a3e" y="57.634702"/>
     <use style="fill:#800080;stroke:#800080;" x="248.287923" xlink:href="#me702044a3e" y="57.634702"/>
     <use style="fill:#800080;stroke:#800080;" x="249.817342" xlink:href="#me702044a3e" y="57.634702"/>
     <use style="fill:#800080;stroke:#800080;" x="251.346762" xlink:href="#me702044a3e" y="57.634702"/>
     <use style="fill:#800080;stroke:#800080;" x="252.876182" xlink:href="#me702044a3e" y="57.634702"/>
     <use style="fill:#800080;stroke:#800080;" x="254.405601" xlink:href="#me702044a3e" y="57.634702"/>
     <use style="fill:#800080;stroke:#800080;" x="255.935021" xlink:href="#me702044a3e" y="57.634702"/>
     <use style="fill:#800080;stroke:#800080;" x="257.46444" xlink:href="#me702044a3e" y="57.634702"/>
     <use style="fill:#800080;stroke:#800080;" x="258.99386" xlink:href="#me702044a3e" y="57.634702"/>
     <use style="fill:#800080;stroke:#800080;" x="260.52328" xlink:href="#me702044a3e" y="57.634702"/>
     <use style="fill:#800080;stroke:#800080;" x="262.052699" xlink:href="#me702044a3e" y="57.634702"/>
     <use style="fill:#800080;stroke:#800080;" x="263.582119" xlink:href="#me702044a3e" y="57.634702"/>
     <use style="fill:#800080;stroke:#800080;" x="265.111538" xlink:href="#me702044a3e" y="57.634702"/>
     <use style="fill:#800080;stroke:#800080;" x="266.640958" xlink:href="#me702044a3e" y="57.634702"/>
     <use style="fill:#800080;stroke:#800080;" x="268.170378" xlink:href="#me702044a3e" y="57.634702"/>
     <use style="fill:#800080;stroke:#800080;" x="269.699797" xlink:href="#me702044a3e" y="25.088393"/>
     <use style="fill:#800080;stroke:#800080;" x="271.229217" xlink:href="#me702044a3e" y="57.634702"/>
     <use style="fill:#800080;stroke:#800080;" x="272.758636" xlink:href="#me702044a3e" y="73.907857"/>
     <use style="fill:#800080;stroke:#800080;" x="274.288056" xlink:href="#me702044a3e" y="57.634702"/>
     <use style="fill:#800080;stroke:#800080;" x="275.817476" xlink:href="#me702044a3e" y="57.634702"/>
     <use style="fill:#800080;stroke:#800080;" x="277.346895" xlink:href="#me702044a3e" y="57.634702"/>
     <use style="fill:#800080;stroke:#800080;" x="278.876315" xlink:href="#me702044a3e" y="57.634702"/>
     <use style="fill:#800080;stroke:#800080;" x="280.405734" xlink:href="#me702044a3e" y="57.634702"/>
     <use style="fill:#800080;stroke:#800080;" x="281.935154" xlink:href="#me702044a3e" y="57.634702"/>
     <use style="fill:#800080;stroke:#800080;" x="283.464574" xlink:href="#me702044a3e" y="57.634702"/>
     <use style="fill:#800080;stroke:#800080;" x="284.993993" xlink:href="#me702044a3e" y="57.634702"/>
     <use style="fill:#800080;stroke:#800080;" x="286.523413" xlink:href="#me702044a3e" y="57.634702"/>
     <use style="fill:#800080;stroke:#800080;" x="288.052832" xlink:href="#me702044a3e" y="57.634702"/>
     <use style="fill:#800080;stroke:#800080;" x="289.582252" xlink:href="#me702044a3e" y="57.634702"/>
     <use style="fill:#800080;stroke:#800080;" x="291.111671" xlink:href="#me702044a3e" y="57.634702"/>
     <use style="fill:#800080;stroke:#800080;" x="292.641091" xlink:href="#me702044a3e" y="57.634702"/>
     <use style="fill:#800080;stroke:#800080;" x="294.170511" xlink:href="#me702044a3e" y="57.634702"/>
     <use style="fill:#800080;stroke:#800080;" x="295.69993" xlink:href="#me702044a3e" y="57.634702"/>
     <use style="fill:#800080;stroke:#800080;" x="297.22935" xlink:href="#me702044a3e" y="57.634702"/>
     <use style="fill:#800080;stroke:#800080;" x="298.758769" xlink:href="#me702044a3e" y="57.634702"/>
     <use style="fill:#800080;stroke:#800080;" x="300.288189" xlink:href="#me702044a3e" y="41.361548"/>
     <use style="fill:#800080;stroke:#800080;" x="301.817609" xlink:href="#me702044a3e" y="57.634702"/>
     <use style="fill:#800080;stroke:#800080;" x="303.347028" xlink:href="#me702044a3e" y="57.634702"/>
     <use style="fill:#800080;stroke:#800080;" x="304.876448" xlink:href="#me702044a3e" y="57.634702"/>
     <use style="fill:#800080;stroke:#800080;" x="306.405867" xlink:href="#me702044a3e" y="57.634702"/>
     <use style="fill:#800080;stroke:#800080;" x="307.935287" xlink:href="#me702044a3e" y="57.634702"/>
     <use style="fill:#800080;stroke:#800080;" x="309.464707" xlink:href="#me702044a3e" y="57.634702"/>
     <use style="fill:#800080;stroke:#800080;" x="310.994126" xlink:href="#me702044a3e" y="57.634702"/>
     <use style="fill:#800080;stroke:#800080;" x="312.523546" xlink:href="#me702044a3e" y="25.088393"/>
     <use style="fill:#800080;stroke:#800080;" x="314.052965" xlink:href="#me702044a3e" y="57.634702"/>
     <use style="fill:#800080;stroke:#800080;" x="315.582385" xlink:href="#me702044a3e" y="57.634702"/>
     <use style="fill:#800080;stroke:#800080;" x="317.111805" xlink:href="#me702044a3e" y="57.634702"/>
     <use style="fill:#800080;stroke:#800080;" x="318.641224" xlink:href="#me702044a3e" y="57.634702"/>
     <use style="fill:#800080;stroke:#800080;" x="320.170644" xlink:href="#me702044a3e" y="57.634702"/>
     <use style="fill:#800080;stroke:#800080;" x="321.700063" xlink:href="#me702044a3e" y="57.634702"/>
     <use style="fill:#800080;stroke:#800080;" x="323.229483" xlink:href="#me702044a3e" y="73.907857"/>
     <use style="fill:#800080;stroke:#800080;" x="324.758903" xlink:href="#me702044a3e" y="57.634702"/>
     <use style="fill:#800080;stroke:#800080;" x="326.288322" xlink:href="#me702044a3e" y="57.634702"/>
     <use style="fill:#800080;stroke:#800080;" x="327.817742" xlink:href="#me702044a3e" y="73.907857"/>
     <use style="fill:#800080;stroke:#800080;" x="329.347161" xlink:href="#me702044a3e" y="73.907857"/>
     <use style="fill:#800080;stroke:#800080;" x="330.876581" xlink:href="#me702044a3e" y="73.907857"/>
     <use style="fill:#800080;stroke:#800080;" x="332.406001" xlink:href="#me702044a3e" y="73.907857"/>
     <use style="fill:#800080;stroke:#800080;" x="333.93542" xlink:href="#me702044a3e" y="73.907857"/>
     <use style="fill:#800080;stroke:#800080;" x="335.46484" xlink:href="#me702044a3e" y="57.634702"/>
     <use style="fill:#800080;stroke:#800080;" x="336.994259" xlink:href="#me702044a3e" y="73.907857"/>
     <use style="fill:#800080;stroke:#800080;" x="338.523679" xlink:href="#me702044a3e" y="73.907857"/>
     <use style="fill:#800080;stroke:#800080;" x="340.053099" xlink:href="#me702044a3e" y="73.907857"/>
     <use style="fill:#800080;stroke:#800080;" x="341.582518" xlink:href="#me702044a3e" y="73.907857"/>
     <use style="fill:#800080;stroke:#800080;" x="343.111938" xlink:href="#me702044a3e" y="73.907857"/>
     <use style="fill:#800080;stroke:#800080;" x="344.641357" xlink:href="#me702044a3e" y="73.907857"/>
     <use style="fill:#800080;stroke:#800080;" x="346.170777" xlink:href="#me702044a3e" y="57.634702"/>
     <use style="fill:#800080;stroke:#800080;" x="347.700197" xlink:href="#me702044a3e" y="73.907857"/>
     <use style="fill:#800080;stroke:#800080;" x="349.229616" xlink:href="#me702044a3e" y="57.634702"/>
     <use style="fill:#800080;stroke:#800080;" x="350.759036" xlink:href="#me702044a3e" y="57.634702"/>
     <use style="fill:#800080;stroke:#800080;" x="352.288455" xlink:href="#me702044a3e" y="57.634702"/>
     <use style="fill:#800080;stroke:#800080;" x="353.817875" xlink:href="#me702044a3e" y="57.634702"/>
    </g>
   </g>
   <g id="matplotlib.axis_1">
    <g id="xtick_1">
     <g id="line2d_1">
      <defs>
       <path d="M 0 0 
L 0 3.5 
" id="md93b7914f2" style="stroke:#000000;stroke-width:0.8;"/>
      </defs>
      <g>
       <use style="stroke:#000000;stroke-width:0.8;" x="47.933955" xlink:href="#md93b7914f2" y="76.678125"/>
      </g>
     </g>
     <g id="text_1">
      <!-- 0 -->
      <defs>
       <path d="M 31.78125 66.40625 
Q 24.171875 66.40625 20.328125 58.90625 
Q 16.5 51.421875 16.5 36.375 
Q 16.5 21.390625 20.328125 13.890625 
Q 24.171875 6.390625 31.78125 6.390625 
Q 39.453125 6.390625 43.28125 13.890625 
Q 47.125 21.390625 47.125 36.375 
Q 47.125 51.421875 43.28125 58.90625 
Q 39.453125 66.40625 31.78125 66.40625 
z
M 31.78125 74.21875 
Q 44.046875 74.21875 50.515625 64.515625 
Q 56.984375 54.828125 56.984375 36.375 
Q 56.984375 17.96875 50.515625 8.265625 
Q 44.046875 -1.421875 31.78125 -1.421875 
Q 19.53125 -1.421875 13.0625 8.265625 
Q 6.59375 17.96875 6.59375 36.375 
Q 6.59375 54.828125 13.0625 64.515625 
Q 19.53125 74.21875 31.78125 74.21875 
z
" id="DejaVuSans-48"/>
      </defs>
      <g transform="translate(44.752705 91.276563)scale(0.1 -0.1)">
       <use xlink:href="#DejaVuSans-48"/>
      </g>
     </g>
    </g>
    <g id="xtick_2">
     <g id="line2d_2">
      <g>
       <use style="stroke:#000000;stroke-width:0.8;" x="86.169445" xlink:href="#md93b7914f2" y="76.678125"/>
      </g>
     </g>
     <g id="text_2">
      <!-- 25 -->
      <defs>
       <path d="M 19.1875 8.296875 
L 53.609375 8.296875 
L 53.609375 0 
L 7.328125 0 
L 7.328125 8.296875 
Q 12.9375 14.109375 22.625 23.890625 
Q 32.328125 33.6875 34.8125 36.53125 
Q 39.546875 41.84375 41.421875 45.53125 
Q 43.3125 49.21875 43.3125 52.78125 
Q 43.3125 58.59375 39.234375 62.25 
Q 35.15625 65.921875 28.609375 65.921875 
Q 23.96875 65.921875 18.8125 64.3125 
Q 13.671875 62.703125 7.8125 59.421875 
L 7.8125 69.390625 
Q 13.765625 71.78125 18.9375 73 
Q 24.125 74.21875 28.421875 74.21875 
Q 39.75 74.21875 46.484375 68.546875 
Q 53.21875 62.890625 53.21875 53.421875 
Q 53.21875 48.921875 51.53125 44.890625 
Q 49.859375 40.875 45.40625 35.40625 
Q 44.1875 33.984375 37.640625 27.21875 
Q 31.109375 20.453125 19.1875 8.296875 
z
" id="DejaVuSans-50"/>
       <path d="M 10.796875 72.90625 
L 49.515625 72.90625 
L 49.515625 64.59375 
L 19.828125 64.59375 
L 19.828125 46.734375 
Q 21.96875 47.46875 24.109375 47.828125 
Q 26.265625 48.1875 28.421875 48.1875 
Q 40.625 48.1875 47.75 41.5 
Q 54.890625 34.8125 54.890625 23.390625 
Q 54.890625 11.625 47.5625 5.09375 
Q 40.234375 -1.421875 26.90625 -1.421875 
Q 22.3125 -1.421875 17.546875 -0.640625 
Q 12.796875 0.140625 7.71875 1.703125 
L 7.71875 11.625 
Q 12.109375 9.234375 16.796875 8.0625 
Q 21.484375 6.890625 26.703125 6.890625 
Q 35.15625 6.890625 40.078125 11.328125 
Q 45.015625 15.765625 45.015625 23.390625 
Q 45.015625 31 40.078125 35.4375 
Q 35.15625 39.890625 26.703125 39.890625 
Q 22.75 39.890625 18.8125 39.015625 
Q 14.890625 38.140625 10.796875 36.28125 
z
" id="DejaVuSans-53"/>
      </defs>
      <g transform="translate(79.806945 91.276563)scale(0.1 -0.1)">
       <use xlink:href="#DejaVuSans-50"/>
       <use x="63.623047" xlink:href="#DejaVuSans-53"/>
      </g>
     </g>
    </g>
    <g id="xtick_3">
     <g id="line2d_3">
      <g>
       <use style="stroke:#000000;stroke-width:0.8;" x="124.404935" xlink:href="#md93b7914f2" y="76.678125"/>
      </g>
     </g>
     <g id="text_3">
      <!-- 50 -->
      <g transform="translate(118.042435 91.276563)scale(0.1 -0.1)">
       <use xlink:href="#DejaVuSans-53"/>
       <use x="63.623047" xlink:href="#DejaVuSans-48"/>
      </g>
     </g>
    </g>
    <g id="xtick_4">
     <g id="line2d_4">
      <g>
       <use style="stroke:#000000;stroke-width:0.8;" x="162.640425" xlink:href="#md93b7914f2" y="76.678125"/>
      </g>
     </g>
     <g id="text_4">
      <!-- 75 -->
      <defs>
       <path d="M 8.203125 72.90625 
L 55.078125 72.90625 
L 55.078125 68.703125 
L 28.609375 0 
L 18.3125 0 
L 43.21875 64.59375 
L 8.203125 64.59375 
z
" id="DejaVuSans-55"/>
      </defs>
      <g transform="translate(156.277925 91.276563)scale(0.1 -0.1)">
       <use xlink:href="#DejaVuSans-55"/>
       <use x="63.623047" xlink:href="#DejaVuSans-53"/>
      </g>
     </g>
    </g>
    <g id="xtick_5">
     <g id="line2d_5">
      <g>
       <use style="stroke:#000000;stroke-width:0.8;" x="200.875915" xlink:href="#md93b7914f2" y="76.678125"/>
      </g>
     </g>
     <g id="text_5">
      <!-- 100 -->
      <defs>
       <path d="M 12.40625 8.296875 
L 28.515625 8.296875 
L 28.515625 63.921875 
L 10.984375 60.40625 
L 10.984375 69.390625 
L 28.421875 72.90625 
L 38.28125 72.90625 
L 38.28125 8.296875 
L 54.390625 8.296875 
L 54.390625 0 
L 12.40625 0 
z
" id="DejaVuSans-49"/>
      </defs>
      <g transform="translate(191.332165 91.276563)scale(0.1 -0.1)">
       <use xlink:href="#DejaVuSans-49"/>
       <use x="63.623047" xlink:href="#DejaVuSans-48"/>
       <use x="127.246094" xlink:href="#DejaVuSans-48"/>
      </g>
     </g>
    </g>
    <g id="xtick_6">
     <g id="line2d_6">
      <g>
       <use style="stroke:#000000;stroke-width:0.8;" x="239.111405" xlink:href="#md93b7914f2" y="76.678125"/>
      </g>
     </g>
     <g id="text_6">
      <!-- 125 -->
      <g transform="translate(229.567655 91.276563)scale(0.1 -0.1)">
       <use xlink:href="#DejaVuSans-49"/>
       <use x="63.623047" xlink:href="#DejaVuSans-50"/>
       <use x="127.246094" xlink:href="#DejaVuSans-53"/>
      </g>
     </g>
    </g>
    <g id="xtick_7">
     <g id="line2d_7">
      <g>
       <use style="stroke:#000000;stroke-width:0.8;" x="277.346895" xlink:href="#md93b7914f2" y="76.678125"/>
      </g>
     </g>
     <g id="text_7">
      <!-- 150 -->
      <g transform="translate(267.803145 91.276563)scale(0.1 -0.1)">
       <use xlink:href="#DejaVuSans-49"/>
       <use x="63.623047" xlink:href="#DejaVuSans-53"/>
       <use x="127.246094" xlink:href="#DejaVuSans-48"/>
      </g>
     </g>
    </g>
    <g id="xtick_8">
     <g id="line2d_8">
      <g>
       <use style="stroke:#000000;stroke-width:0.8;" x="315.582385" xlink:href="#md93b7914f2" y="76.678125"/>
      </g>
     </g>
     <g id="text_8">
      <!-- 175 -->
      <g transform="translate(306.038635 91.276563)scale(0.1 -0.1)">
       <use xlink:href="#DejaVuSans-49"/>
       <use x="63.623047" xlink:href="#DejaVuSans-55"/>
       <use x="127.246094" xlink:href="#DejaVuSans-53"/>
      </g>
     </g>
    </g>
    <g id="xtick_9">
     <g id="line2d_9">
      <g>
       <use style="stroke:#000000;stroke-width:0.8;" x="353.817875" xlink:href="#md93b7914f2" y="76.678125"/>
      </g>
     </g>
     <g id="text_9">
      <!-- 200 -->
      <g transform="translate(344.274125 91.276563)scale(0.1 -0.1)">
       <use xlink:href="#DejaVuSans-50"/>
       <use x="63.623047" xlink:href="#DejaVuSans-48"/>
       <use x="127.246094" xlink:href="#DejaVuSans-48"/>
      </g>
     </g>
    </g>
    <g id="text_10">
     <!-- Step -->
     <defs>
      <path d="M 53.515625 70.515625 
L 53.515625 60.890625 
Q 47.90625 63.578125 42.921875 64.890625 
Q 37.9375 66.21875 33.296875 66.21875 
Q 25.25 66.21875 20.875 63.09375 
Q 16.5 59.96875 16.5 54.203125 
Q 16.5 49.359375 19.40625 46.890625 
Q 22.3125 44.4375 30.421875 42.921875 
L 36.375 41.703125 
Q 47.40625 39.59375 52.65625 34.296875 
Q 57.90625 29 57.90625 20.125 
Q 57.90625 9.515625 50.796875 4.046875 
Q 43.703125 -1.421875 29.984375 -1.421875 
Q 24.8125 -1.421875 18.96875 -0.25 
Q 13.140625 0.921875 6.890625 3.21875 
L 6.890625 13.375 
Q 12.890625 10.015625 18.65625 8.296875 
Q 24.421875 6.59375 29.984375 6.59375 
Q 38.421875 6.59375 43.015625 9.90625 
Q 47.609375 13.234375 47.609375 19.390625 
Q 47.609375 24.75 44.3125 27.78125 
Q 41.015625 30.8125 33.5 32.328125 
L 27.484375 33.5 
Q 16.453125 35.6875 11.515625 40.375 
Q 6.59375 45.0625 6.59375 53.421875 
Q 6.59375 63.09375 13.40625 68.65625 
Q 20.21875 74.21875 32.171875 74.21875 
Q 37.3125 74.21875 42.625 73.28125 
Q 47.953125 72.359375 53.515625 70.515625 
z
" id="DejaVuSans-83"/>
      <path d="M 18.3125 70.21875 
L 18.3125 54.6875 
L 36.8125 54.6875 
L 36.8125 47.703125 
L 18.3125 47.703125 
L 18.3125 18.015625 
Q 18.3125 11.328125 20.140625 9.421875 
Q 21.96875 7.515625 27.59375 7.515625 
L 36.8125 7.515625 
L 36.8125 0 
L 27.59375 0 
Q 17.1875 0 13.234375 3.875 
Q 9.28125 7.765625 9.28125 18.015625 
L 9.28125 47.703125 
L 2.6875 47.703125 
L 2.6875 54.6875 
L 9.28125 54.6875 
L 9.28125 70.21875 
z
" id="DejaVuSans-116"/>
      <path d="M 56.203125 29.59375 
L 56.203125 25.203125 
L 14.890625 25.203125 
Q 15.484375 15.921875 20.484375 11.0625 
Q 25.484375 6.203125 34.421875 6.203125 
Q 39.59375 6.203125 44.453125 7.46875 
Q 49.3125 8.734375 54.109375 11.28125 
L 54.109375 2.78125 
Q 49.265625 0.734375 44.1875 -0.34375 
Q 39.109375 -1.421875 33.890625 -1.421875 
Q 20.796875 -1.421875 13.15625 6.1875 
Q 5.515625 13.8125 5.515625 26.8125 
Q 5.515625 40.234375 12.765625 48.109375 
Q 20.015625 56 32.328125 56 
Q 43.359375 56 49.78125 48.890625 
Q 56.203125 41.796875 56.203125 29.59375 
z
M 47.21875 32.234375 
Q 47.125 39.59375 43.09375 43.984375 
Q 39.0625 48.390625 32.421875 48.390625 
Q 24.90625 48.390625 20.390625 44.140625 
Q 15.875 39.890625 15.1875 32.171875 
z
" id="DejaVuSans-101"/>
      <path d="M 18.109375 8.203125 
L 18.109375 -20.796875 
L 9.078125 -20.796875 
L 9.078125 54.6875 
L 18.109375 54.6875 
L 18.109375 46.390625 
Q 20.953125 51.265625 25.265625 53.625 
Q 29.59375 56 35.59375 56 
Q 45.5625 56 51.78125 48.09375 
Q 58.015625 40.1875 58.015625 27.296875 
Q 58.015625 14.40625 51.78125 6.484375 
Q 45.5625 -1.421875 35.59375 -1.421875 
Q 29.59375 -1.421875 25.265625 0.953125 
Q 20.953125 3.328125 18.109375 8.203125 
z
M 48.6875 27.296875 
Q 48.6875 37.203125 44.609375 42.84375 
Q 40.53125 48.484375 33.40625 48.484375 
Q 26.265625 48.484375 22.1875 42.84375 
Q 18.109375 37.203125 18.109375 27.296875 
Q 18.109375 17.390625 22.1875 11.75 
Q 26.265625 6.109375 33.40625 6.109375 
Q 40.53125 6.109375 44.609375 11.75 
Q 48.6875 17.390625 48.6875 27.296875 
z
" id="DejaVuSans-112"/>
     </defs>
     <g transform="translate(190.255469 104.954688)scale(0.1 -0.1)">
      <use xlink:href="#DejaVuSans-83"/>
      <use x="63.476562" xlink:href="#DejaVuSans-116"/>
      <use x="102.685547" xlink:href="#DejaVuSans-101"/>
      <use x="164.208984" xlink:href="#DejaVuSans-112"/>
     </g>
    </g>
   </g>
   <g id="matplotlib.axis_2">
    <g id="ytick_1">
     <g id="line2d_10">
      <defs>
       <path d="M 0 0 
L -3.5 0 
" id="mfb89f4e932" style="stroke:#000000;stroke-width:0.8;"/>
      </defs>
      <g>
       <use style="stroke:#000000;stroke-width:0.8;" x="34.240625" xlink:href="#mfb89f4e932" y="73.907857"/>
      </g>
     </g>
     <g id="text_11">
      <!-- 0 -->
      <g transform="translate(20.878125 77.707076)scale(0.1 -0.1)">
       <use xlink:href="#DejaVuSans-48"/>
      </g>
     </g>
    </g>
    <g id="ytick_2">
     <g id="line2d_11">
      <g>
       <use style="stroke:#000000;stroke-width:0.8;" x="34.240625" xlink:href="#mfb89f4e932" y="41.361548"/>
      </g>
     </g>
     <g id="text_12">
      <!-- 2 -->
      <g transform="translate(20.878125 45.160766)scale(0.1 -0.1)">
       <use xlink:href="#DejaVuSans-50"/>
      </g>
     </g>
    </g>
    <g id="text_13">
     <!-- Arm -->
     <defs>
      <path d="M 34.1875 63.1875 
L 20.796875 26.90625 
L 47.609375 26.90625 
z
M 28.609375 72.90625 
L 39.796875 72.90625 
L 67.578125 0 
L 57.328125 0 
L 50.6875 18.703125 
L 17.828125 18.703125 
L 11.1875 0 
L 0.78125 0 
z
" id="DejaVuSans-65"/>
      <path d="M 41.109375 46.296875 
Q 39.59375 47.171875 37.8125 47.578125 
Q 36.03125 48 33.890625 48 
Q 26.265625 48 22.1875 43.046875 
Q 18.109375 38.09375 18.109375 28.8125 
L 18.109375 0 
L 9.078125 0 
L 9.078125 54.6875 
L 18.109375 54.6875 
L 18.109375 46.1875 
Q 20.953125 51.171875 25.484375 53.578125 
Q 30.03125 56 36.53125 56 
Q 37.453125 56 38.578125 55.875 
Q 39.703125 55.765625 41.0625 55.515625 
z
" id="DejaVuSans-114"/>
      <path d="M 52 44.1875 
Q 55.375 50.25 60.0625 53.125 
Q 64.75 56 71.09375 56 
Q 79.640625 56 84.28125 50.015625 
Q 88.921875 44.046875 88.921875 33.015625 
L 88.921875 0 
L 79.890625 0 
L 79.890625 32.71875 
Q 79.890625 40.578125 77.09375 44.375 
Q 74.3125 48.1875 68.609375 48.1875 
Q 61.625 48.1875 57.5625 43.546875 
Q 53.515625 38.921875 53.515625 30.90625 
L 53.515625 0 
L 44.484375 0 
L 44.484375 32.71875 
Q 44.484375 40.625 41.703125 44.40625 
Q 38.921875 48.1875 33.109375 48.1875 
Q 26.21875 48.1875 22.15625 43.53125 
Q 18.109375 38.875 18.109375 30.90625 
L 18.109375 0 
L 9.078125 0 
L 9.078125 54.6875 
L 18.109375 54.6875 
L 18.109375 46.1875 
Q 21.1875 51.21875 25.484375 53.609375 
Q 29.78125 56 35.6875 56 
Q 41.65625 56 45.828125 52.96875 
Q 50 49.953125 52 44.1875 
z
" id="DejaVuSans-109"/>
     </defs>
     <g transform="translate(14.798437 59.843438)rotate(-90)scale(0.1 -0.1)">
      <use xlink:href="#DejaVuSans-65"/>
      <use x="68.408203" xlink:href="#DejaVuSans-114"/>
      <use x="109.505859" xlink:href="#DejaVuSans-109"/>
     </g>
    </g>
   </g>
   <g id="patch_3">
    <path d="M 34.240625 76.678125 
L 34.240625 22.318125 
" style="fill:none;stroke:#000000;stroke-linecap:square;stroke-linejoin:miter;stroke-width:0.8;"/>
   </g>
   <g id="patch_4">
    <path d="M 369.040625 76.678125 
L 369.040625 22.318125 
" style="fill:none;stroke:#000000;stroke-linecap:square;stroke-linejoin:miter;stroke-width:0.8;"/>
   </g>
   <g id="patch_5">
    <path d="M 34.240625 76.678125 
L 369.040625 76.678125 
" style="fill:none;stroke:#000000;stroke-linecap:square;stroke-linejoin:miter;stroke-width:0.8;"/>
   </g>
   <g id="patch_6">
    <path d="M 34.240625 22.318125 
L 369.040625 22.318125 
" style="fill:none;stroke:#000000;stroke-linecap:square;stroke-linejoin:miter;stroke-width:0.8;"/>
   </g>
   <g id="text_14">
    <!-- ep-greedy -->
    <defs>
     <path d="M 4.890625 31.390625 
L 31.203125 31.390625 
L 31.203125 23.390625 
L 4.890625 23.390625 
z
" id="DejaVuSans-45"/>
     <path d="M 45.40625 27.984375 
Q 45.40625 37.75 41.375 43.109375 
Q 37.359375 48.484375 30.078125 48.484375 
Q 22.859375 48.484375 18.828125 43.109375 
Q 14.796875 37.75 14.796875 27.984375 
Q 14.796875 18.265625 18.828125 12.890625 
Q 22.859375 7.515625 30.078125 7.515625 
Q 37.359375 7.515625 41.375 12.890625 
Q 45.40625 18.265625 45.40625 27.984375 
z
M 54.390625 6.78125 
Q 54.390625 -7.171875 48.1875 -13.984375 
Q 42 -20.796875 29.203125 -20.796875 
Q 24.46875 -20.796875 20.265625 -20.09375 
Q 16.0625 -19.390625 12.109375 -17.921875 
L 12.109375 -9.1875 
Q 16.0625 -11.328125 19.921875 -12.34375 
Q 23.78125 -13.375 27.78125 -13.375 
Q 36.625 -13.375 41.015625 -8.765625 
Q 45.40625 -4.15625 45.40625 5.171875 
L 45.40625 9.625 
Q 42.625 4.78125 38.28125 2.390625 
Q 33.9375 0 27.875 0 
Q 17.828125 0 11.671875 7.65625 
Q 5.515625 15.328125 5.515625 27.984375 
Q 5.515625 40.671875 11.671875 48.328125 
Q 17.828125 56 27.875 56 
Q 33.9375 56 38.28125 53.609375 
Q 42.625 51.21875 45.40625 46.390625 
L 45.40625 54.6875 
L 54.390625 54.6875 
z
" id="DejaVuSans-103"/>
     <path d="M 45.40625 46.390625 
L 45.40625 75.984375 
L 54.390625 75.984375 
L 54.390625 0 
L 45.40625 0 
L 45.40625 8.203125 
Q 42.578125 3.328125 38.25 0.953125 
Q 33.9375 -1.421875 27.875 -1.421875 
Q 17.96875 -1.421875 11.734375 6.484375 
Q 5.515625 14.40625 5.515625 27.296875 
Q 5.515625 40.1875 11.734375 48.09375 
Q 17.96875 56 27.875 56 
Q 33.9375 56 38.25 53.625 
Q 42.578125 51.265625 45.40625 46.390625 
z
M 14.796875 27.296875 
Q 14.796875 17.390625 18.875 11.75 
Q 22.953125 6.109375 30.078125 6.109375 
Q 37.203125 6.109375 41.296875 11.75 
Q 45.40625 17.390625 45.40625 27.296875 
Q 45.40625 37.203125 41.296875 42.84375 
Q 37.203125 48.484375 30.078125 48.484375 
Q 22.953125 48.484375 18.875 42.84375 
Q 14.796875 37.203125 14.796875 27.296875 
z
" id="DejaVuSans-100"/>
     <path d="M 32.171875 -5.078125 
Q 28.375 -14.84375 24.75 -17.8125 
Q 21.140625 -20.796875 15.09375 -20.796875 
L 7.90625 -20.796875 
L 7.90625 -13.28125 
L 13.1875 -13.28125 
Q 16.890625 -13.28125 18.9375 -11.515625 
Q 21 -9.765625 23.484375 -3.21875 
L 25.09375 0.875 
L 2.984375 54.6875 
L 12.5 54.6875 
L 29.59375 11.921875 
L 46.6875 54.6875 
L 56.203125 54.6875 
z
" id="DejaVuSans-121"/>
    </defs>
    <g transform="translate(170.957188 16.318125)scale(0.12 -0.12)">
     <use xlink:href="#DejaVuSans-101"/>
     <use x="61.523438" xlink:href="#DejaVuSans-112"/>
     <use x="125" xlink:href="#DejaVuSans-45"/>
     <use x="161.083984" xlink:href="#DejaVuSans-103"/>
     <use x="224.560547" xlink:href="#DejaVuSans-114"/>
     <use x="265.642578" xlink:href="#DejaVuSans-101"/>
     <use x="327.166016" xlink:href="#DejaVuSans-101"/>
     <use x="388.689453" xlink:href="#DejaVuSans-100"/>
     <use x="452.166016" xlink:href="#DejaVuSans-121"/>
    </g>
   </g>
  </g>
 </g>
 <defs>
  <clipPath id="pe75ff67203">
   <rect height="54.36" width="334.8" x="34.240625" y="22.318125"/>
  </clipPath>
 </defs>
</svg>