<?xml version="1.0" encoding="utf-8" standalone="no"?>
<!DOCTYPE svg PUBLIC "-//W3C//DTD SVG 1.1//EN"
  "http://www.w3.org/Graphics/SVG/1.1/DTD/svg11.dtd">
<!-- Created with matplotlib (https://matplotlib.org/) -->
<svg height="207.83625pt" version="1.1" viewBox="0 0 324.925 207.83625" width="324.925pt" xmlns="http://www.w3.org/2000/svg" xmlns:xlink="http://www.w3.org/1999/xlink">
 <defs>
  <style type="text/css">
*{stroke-linecap:butt;stroke-linejoin:round;}
  </style>
 </defs>
 <g id="figure_1">
  <g id="patch_1">
   <path d="M 0 207.83625 
L 324.925 207.83625 
L 324.925 0 
L 0 0 
z
" style="fill:none;"/>
  </g>
  <g id="axes_1">
   <g id="patch_2">
    <path d="M 62.478125 170.28 
L 229.878125 170.28 
L 229.878125 7.2 
L 62.478125 7.2 
z
" style="fill:#ffffff;"/>
   </g>
   <g id="patch_3">
    <path clip-path="url(#pb3cdc1384f)" d="M 71.684117 165829.781677 
L 74.084955 165829.781677 
L 74.084955 65.772077 
L 71.684117 65.772077 
z
" style="fill:#a52a2a;opacity:0.6;"/>
   </g>
   <g id="patch_4">
    <path clip-path="url(#pb3cdc1384f)" d="M 74.084955 165829.781677 
L 76.485793 165829.781677 
L 76.485793 165829.781677 
L 74.084955 165829.781677 
z
" style="fill:#a52a2a;opacity:0.6;"/>
   </g>
   <g id="patch_5">
    <path clip-path="url(#pb3cdc1384f)" d="M 76.485793 165829.781677 
L 78.886631 165829.781677 
L 78.886631 120.274625 
L 76.485793 120.274625 
z
" style="fill:#a52a2a;opacity:0.6;"/>
   </g>
   <g id="patch_6">
    <path clip-path="url(#pb3cdc1384f)" d="M 78.886631 165829.781677 
L 81.287469 165829.781677 
L 81.287469 22.909616 
L 78.886631 22.909616 
z
" style="fill:#a52a2a;opacity:0.6;"/>
   </g>
   <g id="patch_7">
    <path clip-path="url(#pb3cdc1384f)" d="M 81.287469 165829.781677 
L 83.688307 165829.781677 
L 83.688307 75.084147 
L 81.287469 75.084147 
z
" style="fill:#a52a2a;opacity:0.6;"/>
   </g>
   <g id="patch_8">
    <path clip-path="url(#pb3cdc1384f)" d="M 83.688307 165829.781677 
L 86.089146 165829.781677 
L 86.089146 165829.781677 
L 83.688307 165829.781677 
z
" style="fill:#a52a2a;opacity:0.6;"/>
   </g>
   <g id="patch_9">
    <path clip-path="url(#pb3cdc1384f)" d="M 86.089146 165829.781677 
L 88.489984 165829.781677 
L 88.489984 165829.781677 
L 86.089146 165829.781677 
z
" style="fill:#a52a2a;opacity:0.6;"/>
   </g>
   <g id="patch_10">
    <path clip-path="url(#pb3cdc1384f)" d="M 88.489984 165829.781677 
L 90.890822 165829.781677 
L 90.890822 165829.781677 
L 88.489984 165829.781677 
z
" style="fill:#a52a2a;opacity:0.6;"/>
   </g>
   <g id="patch_11">
    <path clip-path="url(#pb3cdc1384f)" d="M 90.890822 165829.781677 
L 93.29166 165829.781677 
L 93.29166 165829.781677 
L 90.890822 165829.781677 
z
" style="fill:#a52a2a;opacity:0.6;"/>
   </g>
   <g id="patch_12">
    <path clip-path="url(#pb3cdc1384f)" d="M 93.29166 165829.781677 
L 95.692498 165829.781677 
L 95.692498 86.724233 
L 93.29166 86.724233 
z
" style="fill:#a52a2a;opacity:0.6;"/>
   </g>
   <g id="patch_13">
    <path clip-path="url(#pb3cdc1384f)" d="M 95.692498 165829.781677 
L 98.093336 165829.781677 
L 98.093336 138.898764 
L 95.692498 138.898764 
z
" style="fill:#a52a2a;opacity:0.6;"/>
   </g>
   <g id="patch_14">
    <path clip-path="url(#pb3cdc1384f)" d="M 98.093336 165829.781677 
L 100.494174 165829.781677 
L 100.494174 62.221927 
L 98.093336 62.221927 
z
" style="fill:#a52a2a;opacity:0.6;"/>
   </g>
   <g id="patch_15">
    <path clip-path="url(#pb3cdc1384f)" d="M 100.494174 165829.781677 
L 102.895013 165829.781677 
L 102.895013 64.549945 
L 100.494174 64.549945 
z
" style="fill:#a52a2a;opacity:0.6;"/>
   </g>
   <g id="patch_16">
    <path clip-path="url(#pb3cdc1384f)" d="M 102.895013 165829.781677 
L 105.295851 165829.781677 
L 105.295851 145.882816 
L 102.895013 145.882816 
z
" style="fill:#a52a2a;opacity:0.6;"/>
   </g>
   <g id="patch_17">
    <path clip-path="url(#pb3cdc1384f)" d="M 105.295851 165829.781677 
L 107.696689 165829.781677 
L 107.696689 165829.781677 
L 105.295851 165829.781677 
z
" style="fill:#a52a2a;opacity:0.6;"/>
   </g>
   <g id="patch_18">
    <path clip-path="url(#pb3cdc1384f)" d="M 107.696689 165829.781677 
L 110.097527 165829.781677 
L 110.097527 150.53885 
L 107.696689 150.53885 
z
" style="fill:#a52a2a;opacity:0.6;"/>
   </g>
   <g id="patch_19">
    <path clip-path="url(#pb3cdc1384f)" d="M 110.097527 165829.781677 
L 112.498365 165829.781677 
L 112.498365 152.866868 
L 110.097527 152.866868 
z
" style="fill:#a52a2a;opacity:0.6;"/>
   </g>
   <g id="patch_20">
    <path clip-path="url(#pb3cdc1384f)" d="M 112.498365 165829.781677 
L 114.899203 165829.781677 
L 114.899203 165829.781677 
L 112.498365 165829.781677 
z
" style="fill:#a52a2a;opacity:0.6;"/>
   </g>
   <g id="patch_21">
    <path clip-path="url(#pb3cdc1384f)" d="M 114.899203 165829.781677 
L 117.300042 165829.781677 
L 117.300042 107.676389 
L 114.899203 107.676389 
z
" style="fill:#a52a2a;opacity:0.6;"/>
   </g>
   <g id="patch_22">
    <path clip-path="url(#pb3cdc1384f)" d="M 117.300042 165829.781677 
L 119.70088 165829.781677 
L 119.70088 159.85092 
L 117.300042 159.85092 
z
" style="fill:#a52a2a;opacity:0.6;"/>
   </g>
   <g id="patch_23">
    <path clip-path="url(#pb3cdc1384f)" d="M 119.70088 165829.781677 
L 122.101718 165829.781677 
L 122.101718 162.178937 
L 119.70088 162.178937 
z
" style="fill:#a52a2a;opacity:0.6;"/>
   </g>
   <g id="patch_24">
    <path clip-path="url(#pb3cdc1384f)" d="M 122.101718 165829.781677 
L 124.502556 165829.781677 
L 124.502556 165829.781677 
L 122.101718 165829.781677 
z
" style="fill:#a52a2a;opacity:0.6;"/>
   </g>
   <g id="patch_25">
    <path clip-path="url(#pb3cdc1384f)" d="M 124.502556 165829.781677 
L 126.903394 165829.781677 
L 126.903394 137.676631 
L 124.502556 137.676631 
z
" style="fill:#a52a2a;opacity:0.6;"/>
   </g>
   <g id="patch_26">
    <path clip-path="url(#pb3cdc1384f)" d="M 126.903394 165829.781677 
L 129.304232 165829.781677 
L 129.304232 140.004648 
L 126.903394 140.004648 
z
" style="fill:#a52a2a;opacity:0.6;"/>
   </g>
   <g id="patch_27">
    <path clip-path="url(#pb3cdc1384f)" d="M 129.304232 165829.781677 
L 131.70507 165829.781677 
L 131.70507 165829.781677 
L 129.304232 165829.781677 
z
" style="fill:#a52a2a;opacity:0.6;"/>
   </g>
   <g id="patch_28">
    <path clip-path="url(#pb3cdc1384f)" d="M 131.70507 165829.781677 
L 134.105909 165829.781677 
L 134.105909 94.81417 
L 131.70507 94.81417 
z
" style="fill:#a52a2a;opacity:0.6;"/>
   </g>
   <g id="patch_29">
    <path clip-path="url(#pb3cdc1384f)" d="M 134.105909 165829.781677 
L 136.506747 165829.781677 
L 136.506747 146.9887 
L 134.105909 146.9887 
z
" style="fill:#a52a2a;opacity:0.6;"/>
   </g>
   <g id="patch_30">
    <path clip-path="url(#pb3cdc1384f)" d="M 136.506747 165829.781677 
L 138.907585 165829.781677 
L 138.907585 165829.781677 
L 136.506747 165829.781677 
z
" style="fill:#a52a2a;opacity:0.6;"/>
   </g>
   <g id="patch_31">
    <path clip-path="url(#pb3cdc1384f)" d="M 138.907585 165829.781677 
L 141.308423 165829.781677 
L 141.308423 151.644735 
L 138.907585 151.644735 
z
" style="fill:#a52a2a;opacity:0.6;"/>
   </g>
   <g id="patch_32">
    <path clip-path="url(#pb3cdc1384f)" d="M 141.308423 165829.781677 
L 143.709261 165829.781677 
L 143.709261 153.972752 
L 141.308423 153.972752 
z
" style="fill:#a52a2a;opacity:0.6;"/>
   </g>
   <g id="patch_33">
    <path clip-path="url(#pb3cdc1384f)" d="M 143.709261 165829.781677 
L 146.110099 165829.781677 
L 146.110099 156.30077 
L 143.709261 156.30077 
z
" style="fill:#a52a2a;opacity:0.6;"/>
   </g>
   <g id="patch_34">
    <path clip-path="url(#pb3cdc1384f)" d="M 146.110099 165829.781677 
L 148.510937 165829.781677 
L 148.510937 158.628787 
L 146.110099 158.628787 
z
" style="fill:#a52a2a;opacity:0.6;"/>
   </g>
   <g id="patch_35">
    <path clip-path="url(#pb3cdc1384f)" d="M 148.510937 165829.781677 
L 150.911776 165829.781677 
L 150.911776 165829.781677 
L 148.510937 165829.781677 
z
" style="fill:#a52a2a;opacity:0.6;"/>
   </g>
   <g id="patch_36">
    <path clip-path="url(#pb3cdc1384f)" d="M 150.911776 165829.781677 
L 153.312614 165829.781677 
L 153.312614 142.59665 
L 150.911776 142.59665 
z
" style="fill:#a52a2a;opacity:0.6;"/>
   </g>
   <g id="patch_37">
    <path clip-path="url(#pb3cdc1384f)" d="M 153.312614 165829.781677 
L 155.713452 165829.781677 
L 155.713452 165829.781677 
L 153.312614 165829.781677 
z
" style="fill:#a52a2a;opacity:0.6;"/>
   </g>
   <g id="patch_38">
    <path clip-path="url(#pb3cdc1384f)" d="M 155.713452 165829.781677 
L 158.11429 165829.781677 
L 158.11429 147.252684 
L 155.713452 147.252684 
z
" style="fill:#a52a2a;opacity:0.6;"/>
   </g>
   <g id="patch_39">
    <path clip-path="url(#pb3cdc1384f)" d="M 158.11429 165829.781677 
L 160.515128 165829.781677 
L 160.515128 149.580702 
L 158.11429 149.580702 
z
" style="fill:#a52a2a;opacity:0.6;"/>
   </g>
   <g id="patch_40">
    <path clip-path="url(#pb3cdc1384f)" d="M 160.515128 165829.781677 
L 162.915966 165829.781677 
L 162.915966 165829.781677 
L 160.515128 165829.781677 
z
" style="fill:#a52a2a;opacity:0.6;"/>
   </g>
   <g id="patch_41">
    <path clip-path="url(#pb3cdc1384f)" d="M 162.915966 165829.781677 
L 165.316804 165829.781677 
L 165.316804 165829.781677 
L 162.915966 165829.781677 
z
" style="fill:#a52a2a;opacity:0.6;"/>
   </g>
   <g id="patch_42">
    <path clip-path="url(#pb3cdc1384f)" d="M 165.316804 165829.781677 
L 167.717643 165829.781677 
L 167.717643 156.564754 
L 165.316804 156.564754 
z
" style="fill:#a52a2a;opacity:0.6;"/>
   </g>
   <g id="patch_43">
    <path clip-path="url(#pb3cdc1384f)" d="M 167.717643 165829.781677 
L 170.118481 165829.781677 
L 170.118481 165829.781677 
L 167.717643 165829.781677 
z
" style="fill:#a52a2a;opacity:0.6;"/>
   </g>
   <g id="patch_44">
    <path clip-path="url(#pb3cdc1384f)" d="M 170.118481 165829.781677 
L 172.519319 165829.781677 
L 172.519319 165829.781677 
L 170.118481 165829.781677 
z
" style="fill:#a52a2a;opacity:0.6;"/>
   </g>
   <g id="patch_45">
    <path clip-path="url(#pb3cdc1384f)" d="M 172.519319 165829.781677 
L 174.920157 165829.781677 
L 174.920157 165829.781677 
L 172.519319 165829.781677 
z
" style="fill:#a52a2a;opacity:0.6;"/>
   </g>
   <g id="patch_46">
    <path clip-path="url(#pb3cdc1384f)" d="M 174.920157 165829.781677 
L 177.320995 165829.781677 
L 177.320995 165829.781677 
L 174.920157 165829.781677 
z
" style="fill:#a52a2a;opacity:0.6;"/>
   </g>
   <g id="patch_47">
    <path clip-path="url(#pb3cdc1384f)" d="M 177.320995 165829.781677 
L 179.721833 165829.781677 
L 179.721833 165829.781677 
L 177.320995 165829.781677 
z
" style="fill:#a52a2a;opacity:0.6;"/>
   </g>
   <g id="patch_48">
    <path clip-path="url(#pb3cdc1384f)" d="M 179.721833 165829.781677 
L 182.122672 165829.781677 
L 182.122672 165829.781677 
L 179.721833 165829.781677 
z
" style="fill:#a52a2a;opacity:0.6;"/>
   </g>
   <g id="patch_49">
    <path clip-path="url(#pb3cdc1384f)" d="M 182.122672 165829.781677 
L 184.52351 165829.781677 
L 184.52351 165829.781677 
L 182.122672 165829.781677 
z
" style="fill:#a52a2a;opacity:0.6;"/>
   </g>
   <g id="patch_50">
    <path clip-path="url(#pb3cdc1384f)" d="M 184.52351 165829.781677 
L 186.924348 165829.781677 
L 186.924348 165829.781677 
L 184.52351 165829.781677 
z
" style="fill:#a52a2a;opacity:0.6;"/>
   </g>
   <g id="patch_51">
    <path clip-path="url(#pb3cdc1384f)" d="M 186.924348 165829.781677 
L 189.325186 165829.781677 
L 189.325186 148.358569 
L 186.924348 148.358569 
z
" style="fill:#a52a2a;opacity:0.6;"/>
   </g>
   <g id="patch_52">
    <path clip-path="url(#pb3cdc1384f)" d="M 70.087216 165829.781677 
L 72.666569 165829.781677 
L 72.666569 117.847159 
L 70.087216 117.847159 
z
" style="fill:#800080;opacity:0.6;"/>
   </g>
   <g id="patch_53">
    <path clip-path="url(#pb3cdc1384f)" d="M 72.666569 165829.781677 
L 75.245922 165829.781677 
L 75.245922 20.65525 
L 72.666569 20.65525 
z
" style="fill:#800080;opacity:0.6;"/>
   </g>
   <g id="patch_54">
    <path clip-path="url(#pb3cdc1384f)" d="M 75.245922 165829.781677 
L 77.825274 165829.781677 
L 77.825274 23.156368 
L 75.245922 23.156368 
z
" style="fill:#800080;opacity:0.6;"/>
   </g>
   <g id="patch_55">
    <path clip-path="url(#pb3cdc1384f)" d="M 77.825274 165829.781677 
L 80.404627 165829.781677 
L 80.404627 75.503998 
L 77.825274 75.503998 
z
" style="fill:#800080;opacity:0.6;"/>
   </g>
   <g id="patch_56">
    <path clip-path="url(#pb3cdc1384f)" d="M 80.404627 165829.781677 
L 82.98398 165829.781677 
L 82.98398 48.846775 
L 80.404627 48.846775 
z
" style="fill:#800080;opacity:0.6;"/>
   </g>
   <g id="patch_57">
    <path clip-path="url(#pb3cdc1384f)" d="M 82.98398 165829.781677 
L 85.563333 165829.781677 
L 85.563333 14.612727 
L 82.98398 14.612727 
z
" style="fill:#800080;opacity:0.6;"/>
   </g>
   <g id="patch_58">
    <path clip-path="url(#pb3cdc1384f)" d="M 85.563333 165829.781677 
L 88.142686 165829.781677 
L 88.142686 132.853863 
L 85.563333 132.853863 
z
" style="fill:#800080;opacity:0.6;"/>
   </g>
   <g id="patch_59">
    <path clip-path="url(#pb3cdc1384f)" d="M 88.142686 165829.781677 
L 90.722039 165829.781677 
L 90.722039 85.508468 
L 88.142686 85.508468 
z
" style="fill:#800080;opacity:0.6;"/>
   </g>
   <g id="patch_60">
    <path clip-path="url(#pb3cdc1384f)" d="M 90.722039 165829.781677 
L 93.301392 165829.781677 
L 93.301392 137.856098 
L 90.722039 137.856098 
z
" style="fill:#800080;opacity:0.6;"/>
   </g>
   <g id="patch_61">
    <path clip-path="url(#pb3cdc1384f)" d="M 93.301392 165829.781677 
L 95.880744 165829.781677 
L 95.880744 140.357216 
L 93.301392 140.357216 
z
" style="fill:#800080;opacity:0.6;"/>
   </g>
   <g id="patch_62">
    <path clip-path="url(#pb3cdc1384f)" d="M 95.880744 165829.781677 
L 98.460097 165829.781677 
L 98.460097 165829.781677 
L 95.880744 165829.781677 
z
" style="fill:#800080;opacity:0.6;"/>
   </g>
   <g id="patch_63">
    <path clip-path="url(#pb3cdc1384f)" d="M 98.460097 165829.781677 
L 101.03945 165829.781677 
L 101.03945 165829.781677 
L 98.460097 165829.781677 
z
" style="fill:#800080;opacity:0.6;"/>
   </g>
   <g id="patch_64">
    <path clip-path="url(#pb3cdc1384f)" d="M 101.03945 165829.781677 
L 103.618803 165829.781677 
L 103.618803 165829.781677 
L 101.03945 165829.781677 
z
" style="fill:#800080;opacity:0.6;"/>
   </g>
   <g id="patch_65">
    <path clip-path="url(#pb3cdc1384f)" d="M 103.618803 165829.781677 
L 106.198156 165829.781677 
L 106.198156 165829.781677 
L 103.618803 165829.781677 
z
" style="fill:#800080;opacity:0.6;"/>
   </g>
   <g id="patch_66">
    <path clip-path="url(#pb3cdc1384f)" d="M 106.198156 165829.781677 
L 108.777509 165829.781677 
L 108.777509 165829.781677 
L 106.198156 165829.781677 
z
" style="fill:#800080;opacity:0.6;"/>
   </g>
   <g id="patch_67">
    <path clip-path="url(#pb3cdc1384f)" d="M 108.777509 165829.781677 
L 111.356862 165829.781677 
L 111.356862 105.517408 
L 108.777509 105.517408 
z
" style="fill:#800080;opacity:0.6;"/>
   </g>
   <g id="patch_68">
    <path clip-path="url(#pb3cdc1384f)" d="M 111.356862 165829.781677 
L 113.936214 165829.781677 
L 113.936214 165829.781677 
L 111.356862 165829.781677 
z
" style="fill:#800080;opacity:0.6;"/>
   </g>
   <g id="patch_69">
    <path clip-path="url(#pb3cdc1384f)" d="M 113.936214 165829.781677 
L 116.515567 165829.781677 
L 116.515567 160.366155 
L 113.936214 160.366155 
z
" style="fill:#800080;opacity:0.6;"/>
   </g>
   <g id="patch_70">
    <path clip-path="url(#pb3cdc1384f)" d="M 116.515567 165829.781677 
L 119.09492 165829.781677 
L 119.09492 162.867273 
L 116.515567 162.867273 
z
" style="fill:#800080;opacity:0.6;"/>
   </g>
   <g id="patch_71">
    <path clip-path="url(#pb3cdc1384f)" d="M 119.09492 165829.781677 
L 121.674273 165829.781677 
L 121.674273 165829.781677 
L 119.09492 165829.781677 
z
" style="fill:#800080;opacity:0.6;"/>
   </g>
   <g id="patch_72">
    <path clip-path="url(#pb3cdc1384f)" d="M 121.674273 165829.781677 
L 124.253626 165829.781677 
L 124.253626 138.711167 
L 121.674273 138.711167 
z
" style="fill:#800080;opacity:0.6;"/>
   </g>
   <g id="patch_73">
    <path clip-path="url(#pb3cdc1384f)" d="M 124.253626 165829.781677 
L 126.832979 165829.781677 
L 126.832979 165829.781677 
L 124.253626 165829.781677 
z
" style="fill:#800080;opacity:0.6;"/>
   </g>
   <g id="patch_74">
    <path clip-path="url(#pb3cdc1384f)" d="M 126.832979 165829.781677 
L 129.412331 165829.781677 
L 129.412331 165829.781677 
L 126.832979 165829.781677 
z
" style="fill:#800080;opacity:0.6;"/>
   </g>
   <g id="patch_75">
    <path clip-path="url(#pb3cdc1384f)" d="M 129.412331 165829.781677 
L 131.991684 165829.781677 
L 131.991684 165829.781677 
L 129.412331 165829.781677 
z
" style="fill:#800080;opacity:0.6;"/>
   </g>
   <g id="patch_76">
    <path clip-path="url(#pb3cdc1384f)" d="M 131.991684 165829.781677 
L 134.571037 165829.781677 
L 134.571037 148.715637 
L 131.991684 148.715637 
z
" style="fill:#800080;opacity:0.6;"/>
   </g>
   <g id="patch_77">
    <path clip-path="url(#pb3cdc1384f)" d="M 134.571037 165829.781677 
L 137.15039 165829.781677 
L 137.15039 151.216754 
L 134.571037 151.216754 
z
" style="fill:#800080;opacity:0.6;"/>
   </g>
   <g id="patch_78">
    <path clip-path="url(#pb3cdc1384f)" d="M 137.15039 165829.781677 
L 139.729743 165829.781677 
L 139.729743 165829.781677 
L 137.15039 165829.781677 
z
" style="fill:#800080;opacity:0.6;"/>
   </g>
   <g id="patch_79">
    <path clip-path="url(#pb3cdc1384f)" d="M 139.729743 165829.781677 
L 142.309096 165829.781677 
L 142.309096 165829.781677 
L 139.729743 165829.781677 
z
" style="fill:#800080;opacity:0.6;"/>
   </g>
   <g id="patch_80">
    <path clip-path="url(#pb3cdc1384f)" d="M 142.309096 165829.781677 
L 144.888449 165829.781677 
L 144.888449 158.720106 
L 142.309096 158.720106 
z
" style="fill:#800080;opacity:0.6;"/>
   </g>
   <g id="patch_81">
    <path clip-path="url(#pb3cdc1384f)" d="M 144.888449 165829.781677 
L 147.467801 165829.781677 
L 147.467801 161.221224 
L 144.888449 161.221224 
z
" style="fill:#800080;opacity:0.6;"/>
   </g>
   <g id="patch_82">
    <path clip-path="url(#pb3cdc1384f)" d="M 147.467801 165829.781677 
L 150.047154 165829.781677 
L 150.047154 165829.781677 
L 147.467801 165829.781677 
z
" style="fill:#800080;opacity:0.6;"/>
   </g>
   <g id="patch_83">
    <path clip-path="url(#pb3cdc1384f)" d="M 150.047154 165829.781677 
L 152.626507 165829.781677 
L 152.626507 165829.781677 
L 150.047154 165829.781677 
z
" style="fill:#800080;opacity:0.6;"/>
   </g>
   <g id="patch_84">
    <path clip-path="url(#pb3cdc1384f)" d="M 152.626507 165829.781677 
L 155.20586 165829.781677 
L 155.20586 165829.781677 
L 152.626507 165829.781677 
z
" style="fill:#800080;opacity:0.6;"/>
   </g>
   <g id="patch_85">
    <path clip-path="url(#pb3cdc1384f)" d="M 155.20586 165829.781677 
L 157.785213 165829.781677 
L 157.785213 150.537522 
L 155.20586 150.537522 
z
" style="fill:#800080;opacity:0.6;"/>
   </g>
   <g id="patch_86">
    <path clip-path="url(#pb3cdc1384f)" d="M 157.785213 165829.781677 
L 160.364566 165829.781677 
L 160.364566 165829.781677 
L 157.785213 165829.781677 
z
" style="fill:#800080;opacity:0.6;"/>
   </g>
   <g id="patch_87">
    <path clip-path="url(#pb3cdc1384f)" d="M 160.364566 165829.781677 
L 162.943919 165829.781677 
L 162.943919 165829.781677 
L 160.364566 165829.781677 
z
" style="fill:#800080;opacity:0.6;"/>
   </g>
   <g id="patch_88">
    <path clip-path="url(#pb3cdc1384f)" d="M 162.943919 165829.781677 
L 165.523271 165829.781677 
L 165.523271 165829.781677 
L 162.943919 165829.781677 
z
" style="fill:#800080;opacity:0.6;"/>
   </g>
   <g id="patch_89">
    <path clip-path="url(#pb3cdc1384f)" d="M 165.523271 165829.781677 
L 168.102624 165829.781677 
L 168.102624 165829.781677 
L 165.523271 165829.781677 
z
" style="fill:#800080;opacity:0.6;"/>
   </g>
   <g id="patch_90">
    <path clip-path="url(#pb3cdc1384f)" d="M 168.102624 165829.781677 
L 170.681977 165829.781677 
L 170.681977 165829.781677 
L 168.102624 165829.781677 
z
" style="fill:#800080;opacity:0.6;"/>
   </g>
   <g id="patch_91">
    <path clip-path="url(#pb3cdc1384f)" d="M 170.681977 165829.781677 
L 173.26133 165829.781677 
L 173.26133 165829.781677 
L 170.681977 165829.781677 
z
" style="fill:#800080;opacity:0.6;"/>
   </g>
   <g id="patch_92">
    <path clip-path="url(#pb3cdc1384f)" d="M 173.26133 165829.781677 
L 175.840683 165829.781677 
L 175.840683 165829.781677 
L 173.26133 165829.781677 
z
" style="fill:#800080;opacity:0.6;"/>
   </g>
   <g id="patch_93">
    <path clip-path="url(#pb3cdc1384f)" d="M 175.840683 165829.781677 
L 178.420036 165829.781677 
L 178.420036 165829.781677 
L 175.840683 165829.781677 
z
" style="fill:#800080;opacity:0.6;"/>
   </g>
   <g id="patch_94">
    <path clip-path="url(#pb3cdc1384f)" d="M 178.420036 165829.781677 
L 180.999388 165829.781677 
L 180.999388 165829.781677 
L 178.420036 165829.781677 
z
" style="fill:#800080;opacity:0.6;"/>
   </g>
   <g id="patch_95">
    <path clip-path="url(#pb3cdc1384f)" d="M 180.999388 165829.781677 
L 183.578741 165829.781677 
L 183.578741 165829.781677 
L 180.999388 165829.781677 
z
" style="fill:#800080;opacity:0.6;"/>
   </g>
   <g id="patch_96">
    <path clip-path="url(#pb3cdc1384f)" d="M 183.578741 165829.781677 
L 186.158094 165829.781677 
L 186.158094 165829.781677 
L 183.578741 165829.781677 
z
" style="fill:#800080;opacity:0.6;"/>
   </g>
   <g id="patch_97">
    <path clip-path="url(#pb3cdc1384f)" d="M 186.158094 165829.781677 
L 188.737447 165829.781677 
L 188.737447 165829.781677 
L 186.158094 165829.781677 
z
" style="fill:#800080;opacity:0.6;"/>
   </g>
   <g id="patch_98">
    <path clip-path="url(#pb3cdc1384f)" d="M 188.737447 165829.781677 
L 191.3168 165829.781677 
L 191.3168 153.893707 
L 188.737447 153.893707 
z
" style="fill:#800080;opacity:0.6;"/>
   </g>
   <g id="patch_99">
    <path clip-path="url(#pb3cdc1384f)" d="M 191.3168 165829.781677 
L 193.896153 165829.781677 
L 193.896153 165829.781677 
L 191.3168 165829.781677 
z
" style="fill:#800080;opacity:0.6;"/>
   </g>
   <g id="patch_100">
    <path clip-path="url(#pb3cdc1384f)" d="M 193.896153 165829.781677 
L 196.475506 165829.781677 
L 196.475506 165829.781677 
L 193.896153 165829.781677 
z
" style="fill:#800080;opacity:0.6;"/>
   </g>
   <g id="patch_101">
    <path clip-path="url(#pb3cdc1384f)" d="M 196.475506 165829.781677 
L 199.054858 165829.781677 
L 199.054858 165829.781677 
L 196.475506 165829.781677 
z
" style="fill:#800080;opacity:0.6;"/>
   </g>
   <g id="patch_102">
    <path clip-path="url(#pb3cdc1384f)" d="M 199.054858 165829.781677 
L 201.634211 165829.781677 
L 201.634211 165829.781677 
L 199.054858 165829.781677 
z
" style="fill:#800080;opacity:0.6;"/>
   </g>
   <g id="patch_103">
    <path clip-path="url(#pb3cdc1384f)" d="M 201.634211 165829.781677 
L 204.213564 165829.781677 
L 204.213564 165829.781677 
L 201.634211 165829.781677 
z
" style="fill:#800080;opacity:0.6;"/>
   </g>
   <g id="patch_104">
    <path clip-path="url(#pb3cdc1384f)" d="M 204.213564 165829.781677 
L 206.792917 165829.781677 
L 206.792917 165829.781677 
L 204.213564 165829.781677 
z
" style="fill:#800080;opacity:0.6;"/>
   </g>
   <g id="patch_105">
    <path clip-path="url(#pb3cdc1384f)" d="M 206.792917 165829.781677 
L 209.37227 165829.781677 
L 209.37227 165829.781677 
L 206.792917 165829.781677 
z
" style="fill:#800080;opacity:0.6;"/>
   </g>
   <g id="patch_106">
    <path clip-path="url(#pb3cdc1384f)" d="M 209.37227 165829.781677 
L 211.951623 165829.781677 
L 211.951623 165829.781677 
L 209.37227 165829.781677 
z
" style="fill:#800080;opacity:0.6;"/>
   </g>
   <g id="patch_107">
    <path clip-path="url(#pb3cdc1384f)" d="M 211.951623 165829.781677 
L 214.530976 165829.781677 
L 214.530976 165829.781677 
L 211.951623 165829.781677 
z
" style="fill:#800080;opacity:0.6;"/>
   </g>
   <g id="patch_108">
    <path clip-path="url(#pb3cdc1384f)" d="M 214.530976 165829.781677 
L 217.110328 165829.781677 
L 217.110328 165829.781677 
L 214.530976 165829.781677 
z
" style="fill:#800080;opacity:0.6;"/>
   </g>
   <g id="patch_109">
    <path clip-path="url(#pb3cdc1384f)" d="M 217.110328 165829.781677 
L 219.689681 165829.781677 
L 219.689681 165829.781677 
L 217.110328 165829.781677 
z
" style="fill:#800080;opacity:0.6;"/>
   </g>
   <g id="patch_110">
    <path clip-path="url(#pb3cdc1384f)" d="M 219.689681 165829.781677 
L 222.269034 165829.781677 
L 222.269034 113.372432 
L 219.689681 113.372432 
z
" style="fill:#800080;opacity:0.6;"/>
   </g>
   <g id="matplotlib.axis_1">
    <g id="xtick_1">
     <g id="line2d_1">
      <defs>
       <path d="M 0 0 
L 0 3.5 
" id="mc548d8be04" style="stroke:#000000;stroke-width:0.8;"/>
      </defs>
      <g>
       <use style="stroke:#000000;stroke-width:0.8;" x="68.715389" xlink:href="#mc548d8be04" y="170.28"/>
      </g>
     </g>
     <g id="text_1">
      <!-- $\mathdefault{10^{-1}}$ -->
      <defs>
       <path d="M 12.40625 8.296875 
L 28.515625 8.296875 
L 28.515625 63.921875 
L 10.984375 60.40625 
L 10.984375 69.390625 
L 28.421875 72.90625 
L 38.28125 72.90625 
L 38.28125 8.296875 
L 54.390625 8.296875 
L 54.390625 0 
L 12.40625 0 
z
" id="DejaVuSans-49"/>
       <path d="M 31.78125 66.40625 
Q 24.171875 66.40625 20.328125 58.90625 
Q 16.5 51.421875 16.5 36.375 
Q 16.5 21.390625 20.328125 13.890625 
Q 24.171875 6.390625 31.78125 6.390625 
Q 39.453125 6.390625 43.28125 13.890625 
Q 47.125 21.390625 47.125 36.375 
Q 47.125 51.421875 43.28125 58.90625 
Q 39.453125 66.40625 31.78125 66.40625 
z
M 31.78125 74.21875 
Q 44.046875 74.21875 50.515625 64.515625 
Q 56.984375 54.828125 56.984375 36.375 
Q 56.984375 17.96875 50.515625 8.265625 
Q 44.046875 -1.421875 31.78125 -1.421875 
Q 19.53125 -1.421875 13.0625 8.265625 
Q 6.59375 17.96875 6.59375 36.375 
Q 6.59375 54.828125 13.0625 64.515625 
Q 19.53125 74.21875 31.78125 74.21875 
z
" id="DejaVuSans-48"/>
       <path d="M 10.59375 35.5 
L 73.1875 35.5 
L 73.1875 27.203125 
L 10.59375 27.203125 
z
" id="DejaVuSans-8722"/>
      </defs>
      <g transform="translate(56.965389 184.878438)scale(0.1 -0.1)">
       <use transform="translate(0 0.684375)" xlink:href="#DejaVuSans-49"/>
       <use transform="translate(63.623047 0.684375)" xlink:href="#DejaVuSans-48"/>
       <use transform="translate(128.203125 38.965625)scale(0.7)" xlink:href="#DejaVuSans-8722"/>
       <use transform="translate(186.855469 38.965625)scale(0.7)" xlink:href="#DejaVuSans-49"/>
      </g>
     </g>
    </g>
    <g id="xtick_2">
     <g id="line2d_2">
      <defs>
       <path d="M 0 0 
L 0 2 
" id="m7cd8708776" style="stroke:#000000;stroke-width:0.6;"/>
      </defs>
      <g>
       <use style="stroke:#000000;stroke-width:0.6;" x="120.121109" xlink:href="#m7cd8708776" y="170.28"/>
      </g>
     </g>
     <g id="text_2">
      <!-- $\mathdefault{2\times10^{-1}}$ -->
      <defs>
       <path d="M 19.1875 8.296875 
L 53.609375 8.296875 
L 53.609375 0 
L 7.328125 0 
L 7.328125 8.296875 
Q 12.9375 14.109375 22.625 23.890625 
Q 32.328125 33.6875 34.8125 36.53125 
Q 39.546875 41.84375 41.421875 45.53125 
Q 43.3125 49.21875 43.3125 52.78125 
Q 43.3125 58.59375 39.234375 62.25 
Q 35.15625 65.921875 28.609375 65.921875 
Q 23.96875 65.921875 18.8125 64.3125 
Q 13.671875 62.703125 7.8125 59.421875 
L 7.8125 69.390625 
Q 13.765625 71.78125 18.9375 73 
Q 24.125 74.21875 28.421875 74.21875 
Q 39.75 74.21875 46.484375 68.546875 
Q 53.21875 62.890625 53.21875 53.421875 
Q 53.21875 48.921875 51.53125 44.890625 
Q 49.859375 40.875 45.40625 35.40625 
Q 44.1875 33.984375 37.640625 27.21875 
Q 31.109375 20.453125 19.1875 8.296875 
z
" id="DejaVuSans-50"/>
       <path d="M 70.125 53.71875 
L 47.796875 31.296875 
L 70.125 8.984375 
L 64.3125 3.078125 
L 41.890625 25.484375 
L 19.484375 3.078125 
L 13.71875 8.984375 
L 35.984375 31.296875 
L 13.71875 53.71875 
L 19.484375 59.625 
L 41.890625 37.203125 
L 64.3125 59.625 
z
" id="DejaVuSans-215"/>
      </defs>
      <g transform="translate(99.071109 183.278437)scale(0.1 -0.1)">
       <use transform="translate(0 0.684375)" xlink:href="#DejaVuSans-50"/>
       <use transform="translate(83.105469 0.684375)" xlink:href="#DejaVuSans-215"/>
       <use transform="translate(186.376953 0.684375)" xlink:href="#DejaVuSans-49"/>
       <use transform="translate(250 0.684375)" xlink:href="#DejaVuSans-48"/>
       <use transform="translate(314.580078 38.965625)scale(0.7)" xlink:href="#DejaVuSans-8722"/>
       <use transform="translate(373.232422 38.965625)scale(0.7)" xlink:href="#DejaVuSans-49"/>
      </g>
     </g>
    </g>
    <g id="xtick_3">
     <g id="line2d_3">
      <g>
       <use style="stroke:#000000;stroke-width:0.6;" x="150.191528" xlink:href="#m7cd8708776" y="170.28"/>
      </g>
     </g>
     <g id="text_3">
      <!-- $\mathdefault{3\times10^{-1}}$ -->
      <defs>
       <path d="M 40.578125 39.3125 
Q 47.65625 37.796875 51.625 33 
Q 55.609375 28.21875 55.609375 21.1875 
Q 55.609375 10.40625 48.1875 4.484375 
Q 40.765625 -1.421875 27.09375 -1.421875 
Q 22.515625 -1.421875 17.65625 -0.515625 
Q 12.796875 0.390625 7.625 2.203125 
L 7.625 11.71875 
Q 11.71875 9.328125 16.59375 8.109375 
Q 21.484375 6.890625 26.8125 6.890625 
Q 36.078125 6.890625 40.9375 10.546875 
Q 45.796875 14.203125 45.796875 21.1875 
Q 45.796875 27.640625 41.28125 31.265625 
Q 36.765625 34.90625 28.71875 34.90625 
L 20.21875 34.90625 
L 20.21875 43.015625 
L 29.109375 43.015625 
Q 36.375 43.015625 40.234375 45.921875 
Q 44.09375 48.828125 44.09375 54.296875 
Q 44.09375 59.90625 40.109375 62.90625 
Q 36.140625 65.921875 28.71875 65.921875 
Q 24.65625 65.921875 20.015625 65.03125 
Q 15.375 64.15625 9.8125 62.3125 
L 9.8125 71.09375 
Q 15.4375 72.65625 20.34375 73.4375 
Q 25.25 74.21875 29.59375 74.21875 
Q 40.828125 74.21875 47.359375 69.109375 
Q 53.90625 64.015625 53.90625 55.328125 
Q 53.90625 49.265625 50.4375 45.09375 
Q 46.96875 40.921875 40.578125 39.3125 
z
" id="DejaVuSans-51"/>
      </defs>
      <g transform="translate(129.141528 183.278437)scale(0.1 -0.1)">
       <use transform="translate(0 0.684375)" xlink:href="#DejaVuSans-51"/>
       <use transform="translate(83.105469 0.684375)" xlink:href="#DejaVuSans-215"/>
       <use transform="translate(186.376953 0.684375)" xlink:href="#DejaVuSans-49"/>
       <use transform="translate(250 0.684375)" xlink:href="#DejaVuSans-48"/>
       <use transform="translate(314.580078 38.965625)scale(0.7)" xlink:href="#DejaVuSans-8722"/>
       <use transform="translate(373.232422 38.965625)scale(0.7)" xlink:href="#DejaVuSans-49"/>
      </g>
     </g>
    </g>
    <g id="xtick_4">
     <g id="line2d_4">
      <g>
       <use style="stroke:#000000;stroke-width:0.6;" x="171.52683" xlink:href="#m7cd8708776" y="170.28"/>
      </g>
     </g>
     <g id="text_4">
      <!-- $\mathdefault{4\times10^{-1}}$ -->
      <defs>
       <path d="M 37.796875 64.3125 
L 12.890625 25.390625 
L 37.796875 25.390625 
z
M 35.203125 72.90625 
L 47.609375 72.90625 
L 47.609375 25.390625 
L 58.015625 25.390625 
L 58.015625 17.1875 
L 47.609375 17.1875 
L 47.609375 0 
L 37.796875 0 
L 37.796875 17.1875 
L 4.890625 17.1875 
L 4.890625 26.703125 
z
" id="DejaVuSans-52"/>
      </defs>
      <g transform="translate(150.47683 183.278437)scale(0.1 -0.1)">
       <use transform="translate(0 0.684375)" xlink:href="#DejaVuSans-52"/>
       <use transform="translate(83.105469 0.684375)" xlink:href="#DejaVuSans-215"/>
       <use transform="translate(186.376953 0.684375)" xlink:href="#DejaVuSans-49"/>
       <use transform="translate(250 0.684375)" xlink:href="#DejaVuSans-48"/>
       <use transform="translate(314.580078 38.965625)scale(0.7)" xlink:href="#DejaVuSans-8722"/>
       <use transform="translate(373.232422 38.965625)scale(0.7)" xlink:href="#DejaVuSans-49"/>
      </g>
     </g>
    </g>
    <g id="xtick_5">
     <g id="line2d_5">
      <g>
       <use style="stroke:#000000;stroke-width:0.6;" x="188.075776" xlink:href="#m7cd8708776" y="170.28"/>
      </g>
     </g>
    </g>
    <g id="xtick_6">
     <g id="line2d_6">
      <g>
       <use style="stroke:#000000;stroke-width:0.6;" x="201.597249" xlink:href="#m7cd8708776" y="170.28"/>
      </g>
     </g>
     <g id="text_5">
      <!-- $\mathdefault{6\times10^{-1}}$ -->
      <defs>
       <path d="M 33.015625 40.375 
Q 26.375 40.375 22.484375 35.828125 
Q 18.609375 31.296875 18.609375 23.390625 
Q 18.609375 15.53125 22.484375 10.953125 
Q 26.375 6.390625 33.015625 6.390625 
Q 39.65625 6.390625 43.53125 10.953125 
Q 47.40625 15.53125 47.40625 23.390625 
Q 47.40625 31.296875 43.53125 35.828125 
Q 39.65625 40.375 33.015625 40.375 
z
M 52.59375 71.296875 
L 52.59375 62.3125 
Q 48.875 64.0625 45.09375 64.984375 
Q 41.3125 65.921875 37.59375 65.921875 
Q 27.828125 65.921875 22.671875 59.328125 
Q 17.53125 52.734375 16.796875 39.40625 
Q 19.671875 43.65625 24.015625 45.921875 
Q 28.375 48.1875 33.59375 48.1875 
Q 44.578125 48.1875 50.953125 41.515625 
Q 57.328125 34.859375 57.328125 23.390625 
Q 57.328125 12.15625 50.6875 5.359375 
Q 44.046875 -1.421875 33.015625 -1.421875 
Q 20.359375 -1.421875 13.671875 8.265625 
Q 6.984375 17.96875 6.984375 36.375 
Q 6.984375 53.65625 15.1875 63.9375 
Q 23.390625 74.21875 37.203125 74.21875 
Q 40.921875 74.21875 44.703125 73.484375 
Q 48.484375 72.75 52.59375 71.296875 
z
" id="DejaVuSans-54"/>
      </defs>
      <g transform="translate(180.547249 183.278437)scale(0.1 -0.1)">
       <use transform="translate(0 0.684375)" xlink:href="#DejaVuSans-54"/>
       <use transform="translate(83.105469 0.684375)" xlink:href="#DejaVuSans-215"/>
       <use transform="translate(186.376953 0.684375)" xlink:href="#DejaVuSans-49"/>
       <use transform="translate(250 0.684375)" xlink:href="#DejaVuSans-48"/>
       <use transform="translate(314.580078 38.965625)scale(0.7)" xlink:href="#DejaVuSans-8722"/>
       <use transform="translate(373.232422 38.965625)scale(0.7)" xlink:href="#DejaVuSans-49"/>
      </g>
     </g>
    </g>
    <g id="xtick_7">
     <g id="line2d_7">
      <g>
       <use style="stroke:#000000;stroke-width:0.6;" x="213.029492" xlink:href="#m7cd8708776" y="170.28"/>
      </g>
     </g>
    </g>
    <g id="xtick_8">
     <g id="line2d_8">
      <g>
       <use style="stroke:#000000;stroke-width:0.6;" x="222.932551" xlink:href="#m7cd8708776" y="170.28"/>
      </g>
     </g>
    </g>
    <g id="text_6">
     <!-- Length -->
     <defs>
      <path d="M 9.8125 72.90625 
L 19.671875 72.90625 
L 19.671875 8.296875 
L 55.171875 8.296875 
L 55.171875 0 
L 9.8125 0 
z
" id="DejaVuSans-76"/>
      <path d="M 56.203125 29.59375 
L 56.203125 25.203125 
L 14.890625 25.203125 
Q 15.484375 15.921875 20.484375 11.0625 
Q 25.484375 6.203125 34.421875 6.203125 
Q 39.59375 6.203125 44.453125 7.46875 
Q 49.3125 8.734375 54.109375 11.28125 
L 54.109375 2.78125 
Q 49.265625 0.734375 44.1875 -0.34375 
Q 39.109375 -1.421875 33.890625 -1.421875 
Q 20.796875 -1.421875 13.15625 6.1875 
Q 5.515625 13.8125 5.515625 26.8125 
Q 5.515625 40.234375 12.765625 48.109375 
Q 20.015625 56 32.328125 56 
Q 43.359375 56 49.78125 48.890625 
Q 56.203125 41.796875 56.203125 29.59375 
z
M 47.21875 32.234375 
Q 47.125 39.59375 43.09375 43.984375 
Q 39.0625 48.390625 32.421875 48.390625 
Q 24.90625 48.390625 20.390625 44.140625 
Q 15.875 39.890625 15.1875 32.171875 
z
" id="DejaVuSans-101"/>
      <path d="M 54.890625 33.015625 
L 54.890625 0 
L 45.90625 0 
L 45.90625 32.71875 
Q 45.90625 40.484375 42.875 44.328125 
Q 39.84375 48.1875 33.796875 48.1875 
Q 26.515625 48.1875 22.3125 43.546875 
Q 18.109375 38.921875 18.109375 30.90625 
L 18.109375 0 
L 9.078125 0 
L 9.078125 54.6875 
L 18.109375 54.6875 
L 18.109375 46.1875 
Q 21.34375 51.125 25.703125 53.5625 
Q 30.078125 56 35.796875 56 
Q 45.21875 56 50.046875 50.171875 
Q 54.890625 44.34375 54.890625 33.015625 
z
" id="DejaVuSans-110"/>
      <path d="M 45.40625 27.984375 
Q 45.40625 37.75 41.375 43.109375 
Q 37.359375 48.484375 30.078125 48.484375 
Q 22.859375 48.484375 18.828125 43.109375 
Q 14.796875 37.75 14.796875 27.984375 
Q 14.796875 18.265625 18.828125 12.890625 
Q 22.859375 7.515625 30.078125 7.515625 
Q 37.359375 7.515625 41.375 12.890625 
Q 45.40625 18.265625 45.40625 27.984375 
z
M 54.390625 6.78125 
Q 54.390625 -7.171875 48.1875 -13.984375 
Q 42 -20.796875 29.203125 -20.796875 
Q 24.46875 -20.796875 20.265625 -20.09375 
Q 16.0625 -19.390625 12.109375 -17.921875 
L 12.109375 -9.1875 
Q 16.0625 -11.328125 19.921875 -12.34375 
Q 23.78125 -13.375 27.78125 -13.375 
Q 36.625 -13.375 41.015625 -8.765625 
Q 45.40625 -4.15625 45.40625 5.171875 
L 45.40625 9.625 
Q 42.625 4.78125 38.28125 2.390625 
Q 33.9375 0 27.875 0 
Q 17.828125 0 11.671875 7.65625 
Q 5.515625 15.328125 5.515625 27.984375 
Q 5.515625 40.671875 11.671875 48.328125 
Q 17.828125 56 27.875 56 
Q 33.9375 56 38.28125 53.609375 
Q 42.625 51.21875 45.40625 46.390625 
L 45.40625 54.6875 
L 54.390625 54.6875 
z
" id="DejaVuSans-103"/>
      <path d="M 18.3125 70.21875 
L 18.3125 54.6875 
L 36.8125 54.6875 
L 36.8125 47.703125 
L 18.3125 47.703125 
L 18.3125 18.015625 
Q 18.3125 11.328125 20.140625 9.421875 
Q 21.96875 7.515625 27.59375 7.515625 
L 36.8125 7.515625 
L 36.8125 0 
L 27.59375 0 
Q 17.1875 0 13.234375 3.875 
Q 9.28125 7.765625 9.28125 18.015625 
L 9.28125 47.703125 
L 2.6875 47.703125 
L 2.6875 54.6875 
L 9.28125 54.6875 
L 9.28125 70.21875 
z
" id="DejaVuSans-116"/>
      <path d="M 54.890625 33.015625 
L 54.890625 0 
L 45.90625 0 
L 45.90625 32.71875 
Q 45.90625 40.484375 42.875 44.328125 
Q 39.84375 48.1875 33.796875 48.1875 
Q 26.515625 48.1875 22.3125 43.546875 
Q 18.109375 38.921875 18.109375 30.90625 
L 18.109375 0 
L 9.078125 0 
L 9.078125 75.984375 
L 18.109375 75.984375 
L 18.109375 46.1875 
Q 21.34375 51.125 25.703125 53.5625 
Q 30.078125 56 35.796875 56 
Q 45.21875 56 50.046875 50.171875 
Q 54.890625 44.34375 54.890625 33.015625 
z
" id="DejaVuSans-104"/>
     </defs>
     <g transform="translate(128.844531 198.556563)scale(0.1 -0.1)">
      <use xlink:href="#DejaVuSans-76"/>
      <use x="55.697266" xlink:href="#DejaVuSans-101"/>
      <use x="117.220703" xlink:href="#DejaVuSans-110"/>
      <use x="180.599609" xlink:href="#DejaVuSans-103"/>
      <use x="244.076172" xlink:href="#DejaVuSans-116"/>
      <use x="283.285156" xlink:href="#DejaVuSans-104"/>
     </g>
    </g>
   </g>
   <g id="matplotlib.axis_2">
    <g id="ytick_1">
     <g id="line2d_9">
      <defs>
       <path d="M 0 0 
L -3.5 0 
" id="maeddbeb094" style="stroke:#000000;stroke-width:0.8;"/>
      </defs>
      <g>
       <use style="stroke:#000000;stroke-width:0.8;" x="62.478125" xlink:href="#maeddbeb094" y="77.663603"/>
      </g>
     </g>
     <g id="text_7">
      <!-- $\mathdefault{10^{1}}$ -->
      <g transform="translate(37.878125 81.462822)scale(0.1 -0.1)">
       <use transform="translate(0 0.684375)" xlink:href="#DejaVuSans-49"/>
       <use transform="translate(63.623047 0.684375)" xlink:href="#DejaVuSans-48"/>
       <use transform="translate(128.203125 38.965625)scale(0.7)" xlink:href="#DejaVuSans-49"/>
      </g>
     </g>
    </g>
    <g id="ytick_2">
     <g id="line2d_10">
      <defs>
       <path d="M 0 0 
L -2 0 
" id="mefb21a0477" style="stroke:#000000;stroke-width:0.6;"/>
      </defs>
      <g>
       <use style="stroke:#000000;stroke-width:0.6;" x="62.478125" xlink:href="#mefb21a0477" y="164.245281"/>
      </g>
     </g>
     <g id="text_8">
      <!-- $\mathdefault{3\times10^{0}}$ -->
      <g transform="translate(20.878125 168.0445)scale(0.1 -0.1)">
       <use transform="translate(0 0.765625)" xlink:href="#DejaVuSans-51"/>
       <use transform="translate(83.105469 0.765625)" xlink:href="#DejaVuSans-215"/>
       <use transform="translate(186.376953 0.765625)" xlink:href="#DejaVuSans-49"/>
       <use transform="translate(250 0.765625)" xlink:href="#DejaVuSans-48"/>
       <use transform="translate(314.580078 39.046875)scale(0.7)" xlink:href="#DejaVuSans-48"/>
      </g>
     </g>
    </g>
    <g id="ytick_3">
     <g id="line2d_11">
      <g>
       <use style="stroke:#000000;stroke-width:0.6;" x="62.478125" xlink:href="#mefb21a0477" y="143.557109"/>
      </g>
     </g>
     <g id="text_9">
      <!-- $\mathdefault{4\times10^{0}}$ -->
      <g transform="translate(20.878125 147.356328)scale(0.1 -0.1)">
       <use transform="translate(0 0.765625)" xlink:href="#DejaVuSans-52"/>
       <use transform="translate(83.105469 0.765625)" xlink:href="#DejaVuSans-215"/>
       <use transform="translate(186.376953 0.765625)" xlink:href="#DejaVuSans-49"/>
       <use transform="translate(250 0.765625)" xlink:href="#DejaVuSans-48"/>
       <use transform="translate(314.580078 39.046875)scale(0.7)" xlink:href="#DejaVuSans-48"/>
      </g>
     </g>
    </g>
    <g id="ytick_4">
     <g id="line2d_12">
      <g>
       <use style="stroke:#000000;stroke-width:0.6;" x="62.478125" xlink:href="#mefb21a0477" y="127.510116"/>
      </g>
     </g>
    </g>
    <g id="ytick_5">
     <g id="line2d_13">
      <g>
       <use style="stroke:#000000;stroke-width:0.6;" x="62.478125" xlink:href="#mefb21a0477" y="114.398768"/>
      </g>
     </g>
     <g id="text_10">
      <!-- $\mathdefault{6\times10^{0}}$ -->
      <g transform="translate(20.878125 118.197987)scale(0.1 -0.1)">
       <use transform="translate(0 0.765625)" xlink:href="#DejaVuSans-54"/>
       <use transform="translate(83.105469 0.765625)" xlink:href="#DejaVuSans-215"/>
       <use transform="translate(186.376953 0.765625)" xlink:href="#DejaVuSans-49"/>
       <use transform="translate(250 0.765625)" xlink:href="#DejaVuSans-48"/>
       <use transform="translate(314.580078 39.046875)scale(0.7)" xlink:href="#DejaVuSans-48"/>
      </g>
     </g>
    </g>
    <g id="ytick_6">
     <g id="line2d_14">
      <g>
       <use style="stroke:#000000;stroke-width:0.6;" x="62.478125" xlink:href="#mefb21a0477" y="103.313281"/>
      </g>
     </g>
    </g>
    <g id="ytick_7">
     <g id="line2d_15">
      <g>
       <use style="stroke:#000000;stroke-width:0.6;" x="62.478125" xlink:href="#mefb21a0477" y="93.710596"/>
      </g>
     </g>
    </g>
    <g id="ytick_8">
     <g id="line2d_16">
      <g>
       <use style="stroke:#000000;stroke-width:0.6;" x="62.478125" xlink:href="#mefb21a0477" y="85.240427"/>
      </g>
     </g>
    </g>
    <g id="ytick_9">
     <g id="line2d_17">
      <g>
       <use style="stroke:#000000;stroke-width:0.6;" x="62.478125" xlink:href="#mefb21a0477" y="27.81709"/>
      </g>
     </g>
     <g id="text_11">
      <!-- $\mathdefault{2\times10^{1}}$ -->
      <g transform="translate(20.878125 31.616309)scale(0.1 -0.1)">
       <use transform="translate(0 0.684375)" xlink:href="#DejaVuSans-50"/>
       <use transform="translate(83.105469 0.684375)" xlink:href="#DejaVuSans-215"/>
       <use transform="translate(186.376953 0.684375)" xlink:href="#DejaVuSans-49"/>
       <use transform="translate(250 0.684375)" xlink:href="#DejaVuSans-48"/>
       <use transform="translate(314.580078 38.965625)scale(0.7)" xlink:href="#DejaVuSans-49"/>
      </g>
     </g>
    </g>
    <g id="text_12">
     <!-- Count -->
     <defs>
      <path d="M 64.40625 67.28125 
L 64.40625 56.890625 
Q 59.421875 61.53125 53.78125 63.8125 
Q 48.140625 66.109375 41.796875 66.109375 
Q 29.296875 66.109375 22.65625 58.46875 
Q 16.015625 50.828125 16.015625 36.375 
Q 16.015625 21.96875 22.65625 14.328125 
Q 29.296875 6.6875 41.796875 6.6875 
Q 48.140625 6.6875 53.78125 8.984375 
Q 59.421875 11.28125 64.40625 15.921875 
L 64.40625 5.609375 
Q 59.234375 2.09375 53.4375 0.328125 
Q 47.65625 -1.421875 41.21875 -1.421875 
Q 24.65625 -1.421875 15.125 8.703125 
Q 5.609375 18.84375 5.609375 36.375 
Q 5.609375 53.953125 15.125 64.078125 
Q 24.65625 74.21875 41.21875 74.21875 
Q 47.75 74.21875 53.53125 72.484375 
Q 59.328125 70.75 64.40625 67.28125 
z
" id="DejaVuSans-67"/>
      <path d="M 30.609375 48.390625 
Q 23.390625 48.390625 19.1875 42.75 
Q 14.984375 37.109375 14.984375 27.296875 
Q 14.984375 17.484375 19.15625 11.84375 
Q 23.34375 6.203125 30.609375 6.203125 
Q 37.796875 6.203125 41.984375 11.859375 
Q 46.1875 17.53125 46.1875 27.296875 
Q 46.1875 37.015625 41.984375 42.703125 
Q 37.796875 48.390625 30.609375 48.390625 
z
M 30.609375 56 
Q 42.328125 56 49.015625 48.375 
Q 55.71875 40.765625 55.71875 27.296875 
Q 55.71875 13.875 49.015625 6.21875 
Q 42.328125 -1.421875 30.609375 -1.421875 
Q 18.84375 -1.421875 12.171875 6.21875 
Q 5.515625 13.875 5.515625 27.296875 
Q 5.515625 40.765625 12.171875 48.375 
Q 18.84375 56 30.609375 56 
z
" id="DejaVuSans-111"/>
      <path d="M 8.5 21.578125 
L 8.5 54.6875 
L 17.484375 54.6875 
L 17.484375 21.921875 
Q 17.484375 14.15625 20.5 10.265625 
Q 23.53125 6.390625 29.59375 6.390625 
Q 36.859375 6.390625 41.078125 11.03125 
Q 45.3125 15.671875 45.3125 23.6875 
L 45.3125 54.6875 
L 54.296875 54.6875 
L 54.296875 0 
L 45.3125 0 
L 45.3125 8.40625 
Q 42.046875 3.421875 37.71875 1 
Q 33.40625 -1.421875 27.6875 -1.421875 
Q 18.265625 -1.421875 13.375 4.4375 
Q 8.5 10.296875 8.5 21.578125 
z
M 31.109375 56 
z
" id="DejaVuSans-117"/>
     </defs>
     <g transform="translate(14.798437 103.588437)rotate(-90)scale(0.1 -0.1)">
      <use xlink:href="#DejaVuSans-67"/>
      <use x="69.824219" xlink:href="#DejaVuSans-111"/>
      <use x="131.005859" xlink:href="#DejaVuSans-117"/>
      <use x="194.384766" xlink:href="#DejaVuSans-110"/>
      <use x="257.763672" xlink:href="#DejaVuSans-116"/>
     </g>
    </g>
   </g>
   <g id="patch_111">
    <path d="M 62.478125 170.28 
L 62.478125 7.2 
" style="fill:none;stroke:#000000;stroke-linecap:square;stroke-linejoin:miter;stroke-width:0.8;"/>
   </g>
   <g id="patch_112">
    <path d="M 62.478125 170.28 
L 229.878125 170.28 
" style="fill:none;stroke:#000000;stroke-linecap:square;stroke-linejoin:miter;stroke-width:0.8;"/>
   </g>
   <g id="legend_1">
    <g id="patch_113">
     <path d="M 236.878125 104.918125 
L 315.725 104.918125 
Q 317.725 104.918125 317.725 102.918125 
L 317.725 74.561875 
Q 317.725 72.561875 315.725 72.561875 
L 236.878125 72.561875 
Q 234.878125 72.561875 234.878125 74.561875 
L 234.878125 102.918125 
Q 234.878125 104.918125 236.878125 104.918125 
z
" style="fill:#ffffff;opacity:0.8;stroke:#cccccc;stroke-linejoin:miter;"/>
    </g>
    <g id="patch_114">
     <path d="M 238.878125 84.160313 
L 258.878125 84.160313 
L 258.878125 77.160313 
L 238.878125 77.160313 
z
" style="fill:#a52a2a;opacity:0.6;"/>
    </g>
    <g id="text_13">
     <!-- Brownian -->
     <defs>
      <path d="M 19.671875 34.8125 
L 19.671875 8.109375 
L 35.5 8.109375 
Q 43.453125 8.109375 47.28125 11.40625 
Q 51.125 14.703125 51.125 21.484375 
Q 51.125 28.328125 47.28125 31.5625 
Q 43.453125 34.8125 35.5 34.8125 
z
M 19.671875 64.796875 
L 19.671875 42.828125 
L 34.28125 42.828125 
Q 41.5 42.828125 45.03125 45.53125 
Q 48.578125 48.25 48.578125 53.8125 
Q 48.578125 59.328125 45.03125 62.0625 
Q 41.5 64.796875 34.28125 64.796875 
z
M 9.8125 72.90625 
L 35.015625 72.90625 
Q 46.296875 72.90625 52.390625 68.21875 
Q 58.5 63.53125 58.5 54.890625 
Q 58.5 48.1875 55.375 44.234375 
Q 52.25 40.28125 46.1875 39.3125 
Q 53.46875 37.75 57.5 32.78125 
Q 61.53125 27.828125 61.53125 20.40625 
Q 61.53125 10.640625 54.890625 5.3125 
Q 48.25 0 35.984375 0 
L 9.8125 0 
z
" id="DejaVuSans-66"/>
      <path d="M 41.109375 46.296875 
Q 39.59375 47.171875 37.8125 47.578125 
Q 36.03125 48 33.890625 48 
Q 26.265625 48 22.1875 43.046875 
Q 18.109375 38.09375 18.109375 28.8125 
L 18.109375 0 
L 9.078125 0 
L 9.078125 54.6875 
L 18.109375 54.6875 
L 18.109375 46.1875 
Q 20.953125 51.171875 25.484375 53.578125 
Q 30.03125 56 36.53125 56 
Q 37.453125 56 38.578125 55.875 
Q 39.703125 55.765625 41.0625 55.515625 
z
" id="DejaVuSans-114"/>
      <path d="M 4.203125 54.6875 
L 13.1875 54.6875 
L 24.421875 12.015625 
L 35.59375 54.6875 
L 46.1875 54.6875 
L 57.421875 12.015625 
L 68.609375 54.6875 
L 77.59375 54.6875 
L 63.28125 0 
L 52.6875 0 
L 40.921875 44.828125 
L 29.109375 0 
L 18.5 0 
z
" id="DejaVuSans-119"/>
      <path d="M 9.421875 54.6875 
L 18.40625 54.6875 
L 18.40625 0 
L 9.421875 0 
z
M 9.421875 75.984375 
L 18.40625 75.984375 
L 18.40625 64.59375 
L 9.421875 64.59375 
z
" id="DejaVuSans-105"/>
      <path d="M 34.28125 27.484375 
Q 23.390625 27.484375 19.1875 25 
Q 14.984375 22.515625 14.984375 16.5 
Q 14.984375 11.71875 18.140625 8.90625 
Q 21.296875 6.109375 26.703125 6.109375 
Q 34.1875 6.109375 38.703125 11.40625 
Q 43.21875 16.703125 43.21875 25.484375 
L 43.21875 27.484375 
z
M 52.203125 31.203125 
L 52.203125 0 
L 43.21875 0 
L 43.21875 8.296875 
Q 40.140625 3.328125 35.546875 0.953125 
Q 30.953125 -1.421875 24.3125 -1.421875 
Q 15.921875 -1.421875 10.953125 3.296875 
Q 6 8.015625 6 15.921875 
Q 6 25.140625 12.171875 29.828125 
Q 18.359375 34.515625 30.609375 34.515625 
L 43.21875 34.515625 
L 43.21875 35.40625 
Q 43.21875 41.609375 39.140625 45 
Q 35.0625 48.390625 27.6875 48.390625 
Q 23 48.390625 18.546875 47.265625 
Q 14.109375 46.140625 10.015625 43.890625 
L 10.015625 52.203125 
Q 14.9375 54.109375 19.578125 55.046875 
Q 24.21875 56 28.609375 56 
Q 40.484375 56 46.34375 49.84375 
Q 52.203125 43.703125 52.203125 31.203125 
z
" id="DejaVuSans-97"/>
     </defs>
     <g transform="translate(266.878125 84.160313)scale(0.1 -0.1)">
      <use xlink:href="#DejaVuSans-66"/>
      <use x="68.603516" xlink:href="#DejaVuSans-114"/>
      <use x="109.685547" xlink:href="#DejaVuSans-111"/>
      <use x="170.867188" xlink:href="#DejaVuSans-119"/>
      <use x="252.654297" xlink:href="#DejaVuSans-110"/>
      <use x="316.033203" xlink:href="#DejaVuSans-105"/>
      <use x="343.816406" xlink:href="#DejaVuSans-97"/>
      <use x="405.095703" xlink:href="#DejaVuSans-110"/>
     </g>
    </g>
    <g id="patch_115">
     <path d="M 238.878125 98.838437 
L 258.878125 98.838437 
L 258.878125 91.838437 
L 238.878125 91.838437 
z
" style="fill:#800080;opacity:0.6;"/>
    </g>
    <g id="text_14">
     <!-- Levy -->
     <defs>
      <path d="M 2.984375 54.6875 
L 12.5 54.6875 
L 29.59375 8.796875 
L 46.6875 54.6875 
L 56.203125 54.6875 
L 35.6875 0 
L 23.484375 0 
z
" id="DejaVuSans-118"/>
      <path d="M 32.171875 -5.078125 
Q 28.375 -14.84375 24.75 -17.8125 
Q 21.140625 -20.796875 15.09375 -20.796875 
L 7.90625 -20.796875 
L 7.90625 -13.28125 
L 13.1875 -13.28125 
Q 16.890625 -13.28125 18.9375 -11.515625 
Q 21 -9.765625 23.484375 -3.21875 
L 25.09375 0.875 
L 2.984375 54.6875 
L 12.5 54.6875 
L 29.59375 11.921875 
L 46.6875 54.6875 
L 56.203125 54.6875 
z
" id="DejaVuSans-121"/>
     </defs>
     <g transform="translate(266.878125 98.838437)scale(0.1 -0.1)">
      <use xlink:href="#DejaVuSans-76"/>
      <use x="55.697266" xlink:href="#DejaVuSans-101"/>
      <use x="117.220703" xlink:href="#DejaVuSans-118"/>
      <use x="176.400391" xlink:href="#DejaVuSans-121"/>
     </g>
    </g>
   </g>
  </g>
 </g>
 <defs>
  <clipPath id="pb3cdc1384f">
   <rect height="163.08" width="167.4" x="62.478125" y="7.2"/>
  </clipPath>
 </defs>
</svg>