<?xml version="1.0" encoding="utf-8" standalone="no"?>
<!DOCTYPE svg PUBLIC "-//W3C//DTD SVG 1.1//EN"
  "http://www.w3.org/Graphics/SVG/1.1/DTD/svg11.dtd">
<!-- Created with matplotlib (https://matplotlib.org/) -->
<svg height="168.594375pt" version="1.1" viewBox="0 0 384.629247 168.594375" width="384.629247pt" xmlns="http://www.w3.org/2000/svg" xmlns:xlink="http://www.w3.org/1999/xlink">
 <defs>
  <style type="text/css">
*{stroke-linecap:butt;stroke-linejoin:round;}
  </style>
 </defs>
 <g id="figure_1">
  <g id="patch_1">
   <path d="M 0 168.594375 
L 384.629247 168.594375 
L 384.629247 0 
L 0 0 
z
" style="fill:none;"/>
  </g>
  <g id="axes_1">
   <g id="patch_2">
    <path d="M 34.240625 131.038125 
L 369.040625 131.038125 
L 369.040625 22.318125 
L 34.240625 22.318125 
z
" style="fill:#ffffff;"/>
   </g>
   <g id="PathCollection_1">
    <defs>
     <path d="M 0 1 
C 0.265203 1 0.51958 0.894634 0.707107 0.707107 
C 0.894634 0.51958 1 0.265203 1 0 
C 1 -0.265203 0.894634 -0.51958 0.707107 -0.707107 
C 0.51958 -0.894634 0.265203 -1 0 -1 
C -0.265203 -1 -0.51958 -0.894634 -0.707107 -0.707107 
C -0.894634 -0.51958 -1 -0.265203 -1 0 
C -1 0.265203 -0.894634 0.51958 -0.707107 0.707107 
C -0.51958 0.894634 -0.265203 1 0 1 
z
" id="m1752f29788" style="stroke:#800080;"/>
    </defs>
    <g clip-path="url(#p1d6942bcdc)">
     <use style="fill:#800080;stroke:#800080;" x="49.462626" xlink:href="#m1752f29788" y="49.498125"/>
     <use style="fill:#800080;stroke:#800080;" x="50.741433" xlink:href="#m1752f29788" y="49.498125"/>
     <use style="fill:#800080;stroke:#800080;" x="52.02024" xlink:href="#m1752f29788" y="103.858125"/>
     <use style="fill:#800080;stroke:#800080;" x="53.299047" xlink:href="#m1752f29788" y="76.678125"/>
     <use style="fill:#800080;stroke:#800080;" x="54.577853" xlink:href="#m1752f29788" y="76.678125"/>
     <use style="fill:#800080;stroke:#800080;" x="55.85666" xlink:href="#m1752f29788" y="103.858125"/>
     <use style="fill:#800080;stroke:#800080;" x="57.135467" xlink:href="#m1752f29788" y="131.038125"/>
     <use style="fill:#800080;stroke:#800080;" x="58.414273" xlink:href="#m1752f29788" y="131.038125"/>
     <use style="fill:#800080;stroke:#800080;" x="59.69308" xlink:href="#m1752f29788" y="76.678125"/>
     <use style="fill:#800080;stroke:#800080;" x="60.971887" xlink:href="#m1752f29788" y="103.858125"/>
     <use style="fill:#800080;stroke:#800080;" x="62.250694" xlink:href="#m1752f29788" y="103.858125"/>
     <use style="fill:#800080;stroke:#800080;" x="63.5295" xlink:href="#m1752f29788" y="131.038125"/>
     <use style="fill:#800080;stroke:#800080;" x="64.808307" xlink:href="#m1752f29788" y="76.678125"/>
     <use style="fill:#800080;stroke:#800080;" x="66.087114" xlink:href="#m1752f29788" y="103.858125"/>
     <use style="fill:#800080;stroke:#800080;" x="67.36592" xlink:href="#m1752f29788" y="103.858125"/>
     <use style="fill:#800080;stroke:#800080;" x="68.644727" xlink:href="#m1752f29788" y="76.678125"/>
     <use style="fill:#800080;stroke:#800080;" x="69.923534" xlink:href="#m1752f29788" y="76.678125"/>
     <use style="fill:#800080;stroke:#800080;" x="71.202341" xlink:href="#m1752f29788" y="103.858125"/>
     <use style="fill:#800080;stroke:#800080;" x="72.481147" xlink:href="#m1752f29788" y="76.678125"/>
     <use style="fill:#800080;stroke:#800080;" x="73.759954" xlink:href="#m1752f29788" y="131.038125"/>
     <use style="fill:#800080;stroke:#800080;" x="75.038761" xlink:href="#m1752f29788" y="103.858125"/>
     <use style="fill:#800080;stroke:#800080;" x="76.317567" xlink:href="#m1752f29788" y="49.498125"/>
     <use style="fill:#800080;stroke:#800080;" x="77.596374" xlink:href="#m1752f29788" y="76.678125"/>
     <use style="fill:#800080;stroke:#800080;" x="78.875181" xlink:href="#m1752f29788" y="76.678125"/>
     <use style="fill:#800080;stroke:#800080;" x="80.153987" xlink:href="#m1752f29788" y="76.678125"/>
     <use style="fill:#800080;stroke:#800080;" x="81.432794" xlink:href="#m1752f29788" y="103.858125"/>
     <use style="fill:#800080;stroke:#800080;" x="82.711601" xlink:href="#m1752f29788" y="49.498125"/>
     <use style="fill:#800080;stroke:#800080;" x="83.990408" xlink:href="#m1752f29788" y="76.678125"/>
     <use style="fill:#800080;stroke:#800080;" x="85.269214" xlink:href="#m1752f29788" y="103.858125"/>
     <use style="fill:#800080;stroke:#800080;" x="86.548021" xlink:href="#m1752f29788" y="103.858125"/>
     <use style="fill:#800080;stroke:#800080;" x="87.826828" xlink:href="#m1752f29788" y="103.858125"/>
     <use style="fill:#800080;stroke:#800080;" x="89.105634" xlink:href="#m1752f29788" y="103.858125"/>
     <use style="fill:#800080;stroke:#800080;" x="90.384441" xlink:href="#m1752f29788" y="103.858125"/>
     <use style="fill:#800080;stroke:#800080;" x="91.663248" xlink:href="#m1752f29788" y="76.678125"/>
     <use style="fill:#800080;stroke:#800080;" x="92.942055" xlink:href="#m1752f29788" y="76.678125"/>
     <use style="fill:#800080;stroke:#800080;" x="94.220861" xlink:href="#m1752f29788" y="76.678125"/>
     <use style="fill:#800080;stroke:#800080;" x="95.499668" xlink:href="#m1752f29788" y="76.678125"/>
     <use style="fill:#800080;stroke:#800080;" x="96.778475" xlink:href="#m1752f29788" y="76.678125"/>
     <use style="fill:#800080;stroke:#800080;" x="98.057281" xlink:href="#m1752f29788" y="76.678125"/>
     <use style="fill:#800080;stroke:#800080;" x="99.336088" xlink:href="#m1752f29788" y="131.038125"/>
     <use style="fill:#800080;stroke:#800080;" x="100.614895" xlink:href="#m1752f29788" y="76.678125"/>
     <use style="fill:#800080;stroke:#800080;" x="101.893702" xlink:href="#m1752f29788" y="76.678125"/>
     <use style="fill:#800080;stroke:#800080;" x="103.172508" xlink:href="#m1752f29788" y="76.678125"/>
     <use style="fill:#800080;stroke:#800080;" x="104.451315" xlink:href="#m1752f29788" y="76.678125"/>
     <use style="fill:#800080;stroke:#800080;" x="105.730122" xlink:href="#m1752f29788" y="103.858125"/>
     <use style="fill:#800080;stroke:#800080;" x="107.008928" xlink:href="#m1752f29788" y="103.858125"/>
     <use style="fill:#800080;stroke:#800080;" x="108.287735" xlink:href="#m1752f29788" y="103.858125"/>
     <use style="fill:#800080;stroke:#800080;" x="109.566542" xlink:href="#m1752f29788" y="76.678125"/>
     <use style="fill:#800080;stroke:#800080;" x="110.845349" xlink:href="#m1752f29788" y="103.858125"/>
     <use style="fill:#800080;stroke:#800080;" x="112.124155" xlink:href="#m1752f29788" y="76.678125"/>
     <use style="fill:#800080;stroke:#800080;" x="113.402962" xlink:href="#m1752f29788" y="76.678125"/>
     <use style="fill:#800080;stroke:#800080;" x="114.681769" xlink:href="#m1752f29788" y="76.678125"/>
     <use style="fill:#800080;stroke:#800080;" x="115.960575" xlink:href="#m1752f29788" y="76.678125"/>
     <use style="fill:#800080;stroke:#800080;" x="117.239382" xlink:href="#m1752f29788" y="103.858125"/>
     <use style="fill:#800080;stroke:#800080;" x="118.518189" xlink:href="#m1752f29788" y="76.678125"/>
     <use style="fill:#800080;stroke:#800080;" x="119.796996" xlink:href="#m1752f29788" y="76.678125"/>
     <use style="fill:#800080;stroke:#800080;" x="121.075802" xlink:href="#m1752f29788" y="76.678125"/>
     <use style="fill:#800080;stroke:#800080;" x="122.354609" xlink:href="#m1752f29788" y="103.858125"/>
     <use style="fill:#800080;stroke:#800080;" x="123.633416" xlink:href="#m1752f29788" y="103.858125"/>
     <use style="fill:#800080;stroke:#800080;" x="124.912222" xlink:href="#m1752f29788" y="76.678125"/>
     <use style="fill:#800080;stroke:#800080;" x="126.191029" xlink:href="#m1752f29788" y="76.678125"/>
     <use style="fill:#800080;stroke:#800080;" x="127.469836" xlink:href="#m1752f29788" y="76.678125"/>
     <use style="fill:#800080;stroke:#800080;" x="128.748642" xlink:href="#m1752f29788" y="76.678125"/>
     <use style="fill:#800080;stroke:#800080;" x="130.027449" xlink:href="#m1752f29788" y="49.498125"/>
     <use style="fill:#800080;stroke:#800080;" x="131.306256" xlink:href="#m1752f29788" y="76.678125"/>
     <use style="fill:#800080;stroke:#800080;" x="132.585063" xlink:href="#m1752f29788" y="103.858125"/>
     <use style="fill:#800080;stroke:#800080;" x="133.863869" xlink:href="#m1752f29788" y="76.678125"/>
     <use style="fill:#800080;stroke:#800080;" x="135.142676" xlink:href="#m1752f29788" y="76.678125"/>
     <use style="fill:#800080;stroke:#800080;" x="136.421483" xlink:href="#m1752f29788" y="76.678125"/>
     <use style="fill:#800080;stroke:#800080;" x="137.700289" xlink:href="#m1752f29788" y="103.858125"/>
     <use style="fill:#800080;stroke:#800080;" x="138.979096" xlink:href="#m1752f29788" y="76.678125"/>
     <use style="fill:#800080;stroke:#800080;" x="140.257903" xlink:href="#m1752f29788" y="103.858125"/>
     <use style="fill:#800080;stroke:#800080;" x="141.53671" xlink:href="#m1752f29788" y="49.498125"/>
     <use style="fill:#800080;stroke:#800080;" x="142.815516" xlink:href="#m1752f29788" y="49.498125"/>
     <use style="fill:#800080;stroke:#800080;" x="144.094323" xlink:href="#m1752f29788" y="76.678125"/>
     <use style="fill:#800080;stroke:#800080;" x="145.37313" xlink:href="#m1752f29788" y="76.678125"/>
     <use style="fill:#800080;stroke:#800080;" x="146.651936" xlink:href="#m1752f29788" y="49.498125"/>
     <use style="fill:#800080;stroke:#800080;" x="147.930743" xlink:href="#m1752f29788" y="76.678125"/>
     <use style="fill:#800080;stroke:#800080;" x="149.20955" xlink:href="#m1752f29788" y="76.678125"/>
     <use style="fill:#800080;stroke:#800080;" x="150.488357" xlink:href="#m1752f29788" y="103.858125"/>
     <use style="fill:#800080;stroke:#800080;" x="151.767163" xlink:href="#m1752f29788" y="76.678125"/>
     <use style="fill:#800080;stroke:#800080;" x="153.04597" xlink:href="#m1752f29788" y="76.678125"/>
     <use style="fill:#800080;stroke:#800080;" x="154.324777" xlink:href="#m1752f29788" y="76.678125"/>
     <use style="fill:#800080;stroke:#800080;" x="155.603583" xlink:href="#m1752f29788" y="49.498125"/>
     <use style="fill:#800080;stroke:#800080;" x="156.88239" xlink:href="#m1752f29788" y="49.498125"/>
     <use style="fill:#800080;stroke:#800080;" x="158.161197" xlink:href="#m1752f29788" y="131.038125"/>
     <use style="fill:#800080;stroke:#800080;" x="159.440004" xlink:href="#m1752f29788" y="76.678125"/>
     <use style="fill:#800080;stroke:#800080;" x="160.71881" xlink:href="#m1752f29788" y="49.498125"/>
     <use style="fill:#800080;stroke:#800080;" x="161.997617" xlink:href="#m1752f29788" y="49.498125"/>
     <use style="fill:#800080;stroke:#800080;" x="163.276424" xlink:href="#m1752f29788" y="76.678125"/>
     <use style="fill:#800080;stroke:#800080;" x="164.55523" xlink:href="#m1752f29788" y="103.858125"/>
     <use style="fill:#800080;stroke:#800080;" x="165.834037" xlink:href="#m1752f29788" y="103.858125"/>
     <use style="fill:#800080;stroke:#800080;" x="167.112844" xlink:href="#m1752f29788" y="49.498125"/>
     <use style="fill:#800080;stroke:#800080;" x="168.391651" xlink:href="#m1752f29788" y="49.498125"/>
     <use style="fill:#800080;stroke:#800080;" x="169.670457" xlink:href="#m1752f29788" y="49.498125"/>
     <use style="fill:#800080;stroke:#800080;" x="170.949264" xlink:href="#m1752f29788" y="76.678125"/>
     <use style="fill:#800080;stroke:#800080;" x="172.228071" xlink:href="#m1752f29788" y="103.858125"/>
     <use style="fill:#800080;stroke:#800080;" x="173.506877" xlink:href="#m1752f29788" y="103.858125"/>
     <use style="fill:#800080;stroke:#800080;" x="174.785684" xlink:href="#m1752f29788" y="103.858125"/>
     <use style="fill:#800080;stroke:#800080;" x="176.064491" xlink:href="#m1752f29788" y="131.038125"/>
     <use style="fill:#800080;stroke:#800080;" x="177.343297" xlink:href="#m1752f29788" y="76.678125"/>
     <use style="fill:#800080;stroke:#800080;" x="178.622104" xlink:href="#m1752f29788" y="131.038125"/>
     <use style="fill:#800080;stroke:#800080;" x="179.900911" xlink:href="#m1752f29788" y="76.678125"/>
     <use style="fill:#800080;stroke:#800080;" x="181.179718" xlink:href="#m1752f29788" y="76.678125"/>
     <use style="fill:#800080;stroke:#800080;" x="182.458524" xlink:href="#m1752f29788" y="131.038125"/>
     <use style="fill:#800080;stroke:#800080;" x="183.737331" xlink:href="#m1752f29788" y="49.498125"/>
     <use style="fill:#800080;stroke:#800080;" x="185.016138" xlink:href="#m1752f29788" y="49.498125"/>
     <use style="fill:#800080;stroke:#800080;" x="186.294944" xlink:href="#m1752f29788" y="103.858125"/>
     <use style="fill:#800080;stroke:#800080;" x="187.573751" xlink:href="#m1752f29788" y="49.498125"/>
     <use style="fill:#800080;stroke:#800080;" x="188.852558" xlink:href="#m1752f29788" y="76.678125"/>
     <use style="fill:#800080;stroke:#800080;" x="190.131365" xlink:href="#m1752f29788" y="103.858125"/>
     <use style="fill:#800080;stroke:#800080;" x="191.410171" xlink:href="#m1752f29788" y="49.498125"/>
     <use style="fill:#800080;stroke:#800080;" x="192.688978" xlink:href="#m1752f29788" y="103.858125"/>
     <use style="fill:#800080;stroke:#800080;" x="193.967785" xlink:href="#m1752f29788" y="49.498125"/>
     <use style="fill:#800080;stroke:#800080;" x="195.246591" xlink:href="#m1752f29788" y="76.678125"/>
     <use style="fill:#800080;stroke:#800080;" x="196.525398" xlink:href="#m1752f29788" y="76.678125"/>
     <use style="fill:#800080;stroke:#800080;" x="197.804205" xlink:href="#m1752f29788" y="49.498125"/>
     <use style="fill:#800080;stroke:#800080;" x="199.083012" xlink:href="#m1752f29788" y="76.678125"/>
     <use style="fill:#800080;stroke:#800080;" x="200.361818" xlink:href="#m1752f29788" y="49.498125"/>
     <use style="fill:#800080;stroke:#800080;" x="201.640625" xlink:href="#m1752f29788" y="49.498125"/>
     <use style="fill:#800080;stroke:#800080;" x="202.919432" xlink:href="#m1752f29788" y="49.498125"/>
     <use style="fill:#800080;stroke:#800080;" x="204.198238" xlink:href="#m1752f29788" y="76.678125"/>
     <use style="fill:#800080;stroke:#800080;" x="205.477045" xlink:href="#m1752f29788" y="76.678125"/>
     <use style="fill:#800080;stroke:#800080;" x="206.755852" xlink:href="#m1752f29788" y="49.498125"/>
     <use style="fill:#800080;stroke:#800080;" x="208.034659" xlink:href="#m1752f29788" y="131.038125"/>
     <use style="fill:#800080;stroke:#800080;" x="209.313465" xlink:href="#m1752f29788" y="103.858125"/>
     <use style="fill:#800080;stroke:#800080;" x="210.592272" xlink:href="#m1752f29788" y="131.038125"/>
     <use style="fill:#800080;stroke:#800080;" x="211.871079" xlink:href="#m1752f29788" y="131.038125"/>
     <use style="fill:#800080;stroke:#800080;" x="213.149885" xlink:href="#m1752f29788" y="49.498125"/>
     <use style="fill:#800080;stroke:#800080;" x="214.428692" xlink:href="#m1752f29788" y="131.038125"/>
     <use style="fill:#800080;stroke:#800080;" x="215.707499" xlink:href="#m1752f29788" y="103.858125"/>
     <use style="fill:#800080;stroke:#800080;" x="216.986306" xlink:href="#m1752f29788" y="131.038125"/>
     <use style="fill:#800080;stroke:#800080;" x="218.265112" xlink:href="#m1752f29788" y="131.038125"/>
     <use style="fill:#800080;stroke:#800080;" x="219.543919" xlink:href="#m1752f29788" y="103.858125"/>
     <use style="fill:#800080;stroke:#800080;" x="220.822726" xlink:href="#m1752f29788" y="49.498125"/>
     <use style="fill:#800080;stroke:#800080;" x="222.101532" xlink:href="#m1752f29788" y="103.858125"/>
     <use style="fill:#800080;stroke:#800080;" x="223.380339" xlink:href="#m1752f29788" y="76.678125"/>
     <use style="fill:#800080;stroke:#800080;" x="224.659146" xlink:href="#m1752f29788" y="76.678125"/>
     <use style="fill:#800080;stroke:#800080;" x="225.937953" xlink:href="#m1752f29788" y="49.498125"/>
     <use style="fill:#800080;stroke:#800080;" x="227.216759" xlink:href="#m1752f29788" y="49.498125"/>
     <use style="fill:#800080;stroke:#800080;" x="228.495566" xlink:href="#m1752f29788" y="76.678125"/>
     <use style="fill:#800080;stroke:#800080;" x="229.774373" xlink:href="#m1752f29788" y="103.858125"/>
     <use style="fill:#800080;stroke:#800080;" x="231.053179" xlink:href="#m1752f29788" y="131.038125"/>
     <use style="fill:#800080;stroke:#800080;" x="232.331986" xlink:href="#m1752f29788" y="76.678125"/>
     <use style="fill:#800080;stroke:#800080;" x="233.610793" xlink:href="#m1752f29788" y="76.678125"/>
     <use style="fill:#800080;stroke:#800080;" x="234.889599" xlink:href="#m1752f29788" y="103.858125"/>
     <use style="fill:#800080;stroke:#800080;" x="236.168406" xlink:href="#m1752f29788" y="131.038125"/>
     <use style="fill:#800080;stroke:#800080;" x="237.447213" xlink:href="#m1752f29788" y="103.858125"/>
     <use style="fill:#800080;stroke:#800080;" x="238.72602" xlink:href="#m1752f29788" y="49.498125"/>
     <use style="fill:#800080;stroke:#800080;" x="240.004826" xlink:href="#m1752f29788" y="76.678125"/>
     <use style="fill:#800080;stroke:#800080;" x="241.283633" xlink:href="#m1752f29788" y="49.498125"/>
     <use style="fill:#800080;stroke:#800080;" x="242.56244" xlink:href="#m1752f29788" y="76.678125"/>
     <use style="fill:#800080;stroke:#800080;" x="243.841246" xlink:href="#m1752f29788" y="49.498125"/>
     <use style="fill:#800080;stroke:#800080;" x="245.120053" xlink:href="#m1752f29788" y="49.498125"/>
     <use style="fill:#800080;stroke:#800080;" x="246.39886" xlink:href="#m1752f29788" y="131.038125"/>
     <use style="fill:#800080;stroke:#800080;" x="247.677667" xlink:href="#m1752f29788" y="49.498125"/>
     <use style="fill:#800080;stroke:#800080;" x="248.956473" xlink:href="#m1752f29788" y="103.858125"/>
     <use style="fill:#800080;stroke:#800080;" x="250.23528" xlink:href="#m1752f29788" y="131.038125"/>
     <use style="fill:#800080;stroke:#800080;" x="251.514087" xlink:href="#m1752f29788" y="76.678125"/>
     <use style="fill:#800080;stroke:#800080;" x="252.792893" xlink:href="#m1752f29788" y="103.858125"/>
     <use style="fill:#800080;stroke:#800080;" x="254.0717" xlink:href="#m1752f29788" y="76.678125"/>
     <use style="fill:#800080;stroke:#800080;" x="255.350507" xlink:href="#m1752f29788" y="76.678125"/>
     <use style="fill:#800080;stroke:#800080;" x="256.629314" xlink:href="#m1752f29788" y="49.498125"/>
     <use style="fill:#800080;stroke:#800080;" x="257.90812" xlink:href="#m1752f29788" y="76.678125"/>
     <use style="fill:#800080;stroke:#800080;" x="259.186927" xlink:href="#m1752f29788" y="103.858125"/>
     <use style="fill:#800080;stroke:#800080;" x="260.465734" xlink:href="#m1752f29788" y="103.858125"/>
     <use style="fill:#800080;stroke:#800080;" x="261.74454" xlink:href="#m1752f29788" y="49.498125"/>
     <use style="fill:#800080;stroke:#800080;" x="263.023347" xlink:href="#m1752f29788" y="131.038125"/>
     <use style="fill:#800080;stroke:#800080;" x="264.302154" xlink:href="#m1752f29788" y="103.858125"/>
     <use style="fill:#800080;stroke:#800080;" x="265.580961" xlink:href="#m1752f29788" y="131.038125"/>
     <use style="fill:#800080;stroke:#800080;" x="266.859767" xlink:href="#m1752f29788" y="49.498125"/>
     <use style="fill:#800080;stroke:#800080;" x="268.138574" xlink:href="#m1752f29788" y="131.038125"/>
     <use style="fill:#800080;stroke:#800080;" x="269.417381" xlink:href="#m1752f29788" y="49.498125"/>
     <use style="fill:#800080;stroke:#800080;" x="270.696187" xlink:href="#m1752f29788" y="76.678125"/>
     <use style="fill:#800080;stroke:#800080;" x="271.974994" xlink:href="#m1752f29788" y="76.678125"/>
     <use style="fill:#800080;stroke:#800080;" x="273.253801" xlink:href="#m1752f29788" y="76.678125"/>
     <use style="fill:#800080;stroke:#800080;" x="274.532608" xlink:href="#m1752f29788" y="103.858125"/>
     <use style="fill:#800080;stroke:#800080;" x="275.811414" xlink:href="#m1752f29788" y="131.038125"/>
     <use style="fill:#800080;stroke:#800080;" x="277.090221" xlink:href="#m1752f29788" y="131.038125"/>
     <use style="fill:#800080;stroke:#800080;" x="278.369028" xlink:href="#m1752f29788" y="131.038125"/>
     <use style="fill:#800080;stroke:#800080;" x="279.647834" xlink:href="#m1752f29788" y="49.498125"/>
     <use style="fill:#800080;stroke:#800080;" x="280.926641" xlink:href="#m1752f29788" y="76.678125"/>
     <use style="fill:#800080;stroke:#800080;" x="282.205448" xlink:href="#m1752f29788" y="103.858125"/>
     <use style="fill:#800080;stroke:#800080;" x="283.484254" xlink:href="#m1752f29788" y="76.678125"/>
     <use style="fill:#800080;stroke:#800080;" x="284.763061" xlink:href="#m1752f29788" y="76.678125"/>
     <use style="fill:#800080;stroke:#800080;" x="286.041868" xlink:href="#m1752f29788" y="76.678125"/>
     <use style="fill:#800080;stroke:#800080;" x="287.320675" xlink:href="#m1752f29788" y="49.498125"/>
     <use style="fill:#800080;stroke:#800080;" x="288.599481" xlink:href="#m1752f29788" y="103.858125"/>
     <use style="fill:#800080;stroke:#800080;" x="289.878288" xlink:href="#m1752f29788" y="49.498125"/>
     <use style="fill:#800080;stroke:#800080;" x="291.157095" xlink:href="#m1752f29788" y="103.858125"/>
     <use style="fill:#800080;stroke:#800080;" x="292.435901" xlink:href="#m1752f29788" y="49.498125"/>
     <use style="fill:#800080;stroke:#800080;" x="293.714708" xlink:href="#m1752f29788" y="49.498125"/>
     <use style="fill:#800080;stroke:#800080;" x="294.993515" xlink:href="#m1752f29788" y="49.498125"/>
     <use style="fill:#800080;stroke:#800080;" x="296.272322" xlink:href="#m1752f29788" y="131.038125"/>
     <use style="fill:#800080;stroke:#800080;" x="297.551128" xlink:href="#m1752f29788" y="49.498125"/>
     <use style="fill:#800080;stroke:#800080;" x="298.829935" xlink:href="#m1752f29788" y="76.678125"/>
     <use style="fill:#800080;stroke:#800080;" x="300.108742" xlink:href="#m1752f29788" y="49.498125"/>
     <use style="fill:#800080;stroke:#800080;" x="301.387548" xlink:href="#m1752f29788" y="103.858125"/>
     <use style="fill:#800080;stroke:#800080;" x="302.666355" xlink:href="#m1752f29788" y="76.678125"/>
     <use style="fill:#800080;stroke:#800080;" x="303.945162" xlink:href="#m1752f29788" y="103.858125"/>
     <use style="fill:#800080;stroke:#800080;" x="305.223969" xlink:href="#m1752f29788" y="49.498125"/>
     <use style="fill:#800080;stroke:#800080;" x="306.502775" xlink:href="#m1752f29788" y="103.858125"/>
     <use style="fill:#800080;stroke:#800080;" x="307.781582" xlink:href="#m1752f29788" y="76.678125"/>
     <use style="fill:#800080;stroke:#800080;" x="309.060389" xlink:href="#m1752f29788" y="103.858125"/>
     <use style="fill:#800080;stroke:#800080;" x="310.339195" xlink:href="#m1752f29788" y="103.858125"/>
     <use style="fill:#800080;stroke:#800080;" x="311.618002" xlink:href="#m1752f29788" y="49.498125"/>
     <use style="fill:#800080;stroke:#800080;" x="312.896809" xlink:href="#m1752f29788" y="131.038125"/>
     <use style="fill:#800080;stroke:#800080;" x="314.175616" xlink:href="#m1752f29788" y="131.038125"/>
     <use style="fill:#800080;stroke:#800080;" x="315.454422" xlink:href="#m1752f29788" y="76.678125"/>
     <use style="fill:#800080;stroke:#800080;" x="316.733229" xlink:href="#m1752f29788" y="49.498125"/>
     <use style="fill:#800080;stroke:#800080;" x="318.012036" xlink:href="#m1752f29788" y="103.858125"/>
     <use style="fill:#800080;stroke:#800080;" x="319.290842" xlink:href="#m1752f29788" y="103.858125"/>
     <use style="fill:#800080;stroke:#800080;" x="320.569649" xlink:href="#m1752f29788" y="76.678125"/>
     <use style="fill:#800080;stroke:#800080;" x="321.848456" xlink:href="#m1752f29788" y="76.678125"/>
     <use style="fill:#800080;stroke:#800080;" x="323.127263" xlink:href="#m1752f29788" y="49.498125"/>
     <use style="fill:#800080;stroke:#800080;" x="324.406069" xlink:href="#m1752f29788" y="76.678125"/>
     <use style="fill:#800080;stroke:#800080;" x="325.684876" xlink:href="#m1752f29788" y="76.678125"/>
     <use style="fill:#800080;stroke:#800080;" x="326.963683" xlink:href="#m1752f29788" y="103.858125"/>
     <use style="fill:#800080;stroke:#800080;" x="328.242489" xlink:href="#m1752f29788" y="49.498125"/>
     <use style="fill:#800080;stroke:#800080;" x="329.521296" xlink:href="#m1752f29788" y="49.498125"/>
     <use style="fill:#800080;stroke:#800080;" x="330.800103" xlink:href="#m1752f29788" y="103.858125"/>
     <use style="fill:#800080;stroke:#800080;" x="332.078909" xlink:href="#m1752f29788" y="49.498125"/>
     <use style="fill:#800080;stroke:#800080;" x="333.357716" xlink:href="#m1752f29788" y="49.498125"/>
     <use style="fill:#800080;stroke:#800080;" x="334.636523" xlink:href="#m1752f29788" y="49.498125"/>
     <use style="fill:#800080;stroke:#800080;" x="335.91533" xlink:href="#m1752f29788" y="49.498125"/>
     <use style="fill:#800080;stroke:#800080;" x="337.194136" xlink:href="#m1752f29788" y="103.858125"/>
     <use style="fill:#800080;stroke:#800080;" x="338.472943" xlink:href="#m1752f29788" y="49.498125"/>
     <use style="fill:#800080;stroke:#800080;" x="339.75175" xlink:href="#m1752f29788" y="49.498125"/>
     <use style="fill:#800080;stroke:#800080;" x="341.030556" xlink:href="#m1752f29788" y="103.858125"/>
     <use style="fill:#800080;stroke:#800080;" x="342.309363" xlink:href="#m1752f29788" y="49.498125"/>
     <use style="fill:#800080;stroke:#800080;" x="343.58817" xlink:href="#m1752f29788" y="49.498125"/>
     <use style="fill:#800080;stroke:#800080;" x="344.866977" xlink:href="#m1752f29788" y="131.038125"/>
     <use style="fill:#800080;stroke:#800080;" x="346.145783" xlink:href="#m1752f29788" y="49.498125"/>
     <use style="fill:#800080;stroke:#800080;" x="347.42459" xlink:href="#m1752f29788" y="103.858125"/>
     <use style="fill:#800080;stroke:#800080;" x="348.703397" xlink:href="#m1752f29788" y="49.498125"/>
     <use style="fill:#800080;stroke:#800080;" x="349.982203" xlink:href="#m1752f29788" y="49.498125"/>
     <use style="fill:#800080;stroke:#800080;" x="351.26101" xlink:href="#m1752f29788" y="131.038125"/>
     <use style="fill:#800080;stroke:#800080;" x="352.539817" xlink:href="#m1752f29788" y="103.858125"/>
     <use style="fill:#800080;stroke:#800080;" x="353.818624" xlink:href="#m1752f29788" y="103.858125"/>
    </g>
   </g>
   <g id="matplotlib.axis_1">
    <g id="xtick_1">
     <g id="line2d_1">
      <defs>
       <path d="M 0 0 
L 0 3.5 
" id="mde529e1e49" style="stroke:#000000;stroke-width:0.8;"/>
      </defs>
      <g>
       <use style="stroke:#000000;stroke-width:0.8;" x="48.18382" xlink:href="#mde529e1e49" y="131.038125"/>
      </g>
     </g>
     <g id="text_1">
      <!-- 0 -->
      <defs>
       <path d="M 31.78125 66.40625 
Q 24.171875 66.40625 20.328125 58.90625 
Q 16.5 51.421875 16.5 36.375 
Q 16.5 21.390625 20.328125 13.890625 
Q 24.171875 6.390625 31.78125 6.390625 
Q 39.453125 6.390625 43.28125 13.890625 
Q 47.125 21.390625 47.125 36.375 
Q 47.125 51.421875 43.28125 58.90625 
Q 39.453125 66.40625 31.78125 66.40625 
z
M 31.78125 74.21875 
Q 44.046875 74.21875 50.515625 64.515625 
Q 56.984375 54.828125 56.984375 36.375 
Q 56.984375 17.96875 50.515625 8.265625 
Q 44.046875 -1.421875 31.78125 -1.421875 
Q 19.53125 -1.421875 13.0625 8.265625 
Q 6.59375 17.96875 6.59375 36.375 
Q 6.59375 54.828125 13.0625 64.515625 
Q 19.53125 74.21875 31.78125 74.21875 
z
" id="DejaVuSans-48"/>
      </defs>
      <g transform="translate(45.00257 145.636562)scale(0.1 -0.1)">
       <use xlink:href="#DejaVuSans-48"/>
      </g>
     </g>
    </g>
    <g id="xtick_2">
     <g id="line2d_2">
      <g>
       <use style="stroke:#000000;stroke-width:0.8;" x="112.124155" xlink:href="#mde529e1e49" y="131.038125"/>
      </g>
     </g>
     <g id="text_2">
      <!-- 50 -->
      <defs>
       <path d="M 10.796875 72.90625 
L 49.515625 72.90625 
L 49.515625 64.59375 
L 19.828125 64.59375 
L 19.828125 46.734375 
Q 21.96875 47.46875 24.109375 47.828125 
Q 26.265625 48.1875 28.421875 48.1875 
Q 40.625 48.1875 47.75 41.5 
Q 54.890625 34.8125 54.890625 23.390625 
Q 54.890625 11.625 47.5625 5.09375 
Q 40.234375 -1.421875 26.90625 -1.421875 
Q 22.3125 -1.421875 17.546875 -0.640625 
Q 12.796875 0.140625 7.71875 1.703125 
L 7.71875 11.625 
Q 12.109375 9.234375 16.796875 8.0625 
Q 21.484375 6.890625 26.703125 6.890625 
Q 35.15625 6.890625 40.078125 11.328125 
Q 45.015625 15.765625 45.015625 23.390625 
Q 45.015625 31 40.078125 35.4375 
Q 35.15625 39.890625 26.703125 39.890625 
Q 22.75 39.890625 18.8125 39.015625 
Q 14.890625 38.140625 10.796875 36.28125 
z
" id="DejaVuSans-53"/>
      </defs>
      <g transform="translate(105.761655 145.636562)scale(0.1 -0.1)">
       <use xlink:href="#DejaVuSans-53"/>
       <use x="63.623047" xlink:href="#DejaVuSans-48"/>
      </g>
     </g>
    </g>
    <g id="xtick_3">
     <g id="line2d_3">
      <g>
       <use style="stroke:#000000;stroke-width:0.8;" x="176.064491" xlink:href="#mde529e1e49" y="131.038125"/>
      </g>
     </g>
     <g id="text_3">
      <!-- 100 -->
      <defs>
       <path d="M 12.40625 8.296875 
L 28.515625 8.296875 
L 28.515625 63.921875 
L 10.984375 60.40625 
L 10.984375 69.390625 
L 28.421875 72.90625 
L 38.28125 72.90625 
L 38.28125 8.296875 
L 54.390625 8.296875 
L 54.390625 0 
L 12.40625 0 
z
" id="DejaVuSans-49"/>
      </defs>
      <g transform="translate(166.520741 145.636562)scale(0.1 -0.1)">
       <use xlink:href="#DejaVuSans-49"/>
       <use x="63.623047" xlink:href="#DejaVuSans-48"/>
       <use x="127.246094" xlink:href="#DejaVuSans-48"/>
      </g>
     </g>
    </g>
    <g id="xtick_4">
     <g id="line2d_4">
      <g>
       <use style="stroke:#000000;stroke-width:0.8;" x="240.004826" xlink:href="#mde529e1e49" y="131.038125"/>
      </g>
     </g>
     <g id="text_4">
      <!-- 150 -->
      <g transform="translate(230.461076 145.636562)scale(0.1 -0.1)">
       <use xlink:href="#DejaVuSans-49"/>
       <use x="63.623047" xlink:href="#DejaVuSans-53"/>
       <use x="127.246094" xlink:href="#DejaVuSans-48"/>
      </g>
     </g>
    </g>
    <g id="xtick_5">
     <g id="line2d_5">
      <g>
       <use style="stroke:#000000;stroke-width:0.8;" x="303.945162" xlink:href="#mde529e1e49" y="131.038125"/>
      </g>
     </g>
     <g id="text_5">
      <!-- 200 -->
      <defs>
       <path d="M 19.1875 8.296875 
L 53.609375 8.296875 
L 53.609375 0 
L 7.328125 0 
L 7.328125 8.296875 
Q 12.9375 14.109375 22.625 23.890625 
Q 32.328125 33.6875 34.8125 36.53125 
Q 39.546875 41.84375 41.421875 45.53125 
Q 43.3125 49.21875 43.3125 52.78125 
Q 43.3125 58.59375 39.234375 62.25 
Q 35.15625 65.921875 28.609375 65.921875 
Q 23.96875 65.921875 18.8125 64.3125 
Q 13.671875 62.703125 7.8125 59.421875 
L 7.8125 69.390625 
Q 13.765625 71.78125 18.9375 73 
Q 24.125 74.21875 28.421875 74.21875 
Q 39.75 74.21875 46.484375 68.546875 
Q 53.21875 62.890625 53.21875 53.421875 
Q 53.21875 48.921875 51.53125 44.890625 
Q 49.859375 40.875 45.40625 35.40625 
Q 44.1875 33.984375 37.640625 27.21875 
Q 31.109375 20.453125 19.1875 8.296875 
z
" id="DejaVuSans-50"/>
      </defs>
      <g transform="translate(294.401412 145.636562)scale(0.1 -0.1)">
       <use xlink:href="#DejaVuSans-50"/>
       <use x="63.623047" xlink:href="#DejaVuSans-48"/>
       <use x="127.246094" xlink:href="#DejaVuSans-48"/>
      </g>
     </g>
    </g>
    <g id="xtick_6">
     <g id="line2d_6">
      <g>
       <use style="stroke:#000000;stroke-width:0.8;" x="367.885497" xlink:href="#mde529e1e49" y="131.038125"/>
      </g>
     </g>
     <g id="text_6">
      <!-- 250 -->
      <g transform="translate(358.341747 145.636562)scale(0.1 -0.1)">
       <use xlink:href="#DejaVuSans-50"/>
       <use x="63.623047" xlink:href="#DejaVuSans-53"/>
       <use x="127.246094" xlink:href="#DejaVuSans-48"/>
      </g>
     </g>
    </g>
    <g id="text_7">
     <!-- Step -->
     <defs>
      <path d="M 53.515625 70.515625 
L 53.515625 60.890625 
Q 47.90625 63.578125 42.921875 64.890625 
Q 37.9375 66.21875 33.296875 66.21875 
Q 25.25 66.21875 20.875 63.09375 
Q 16.5 59.96875 16.5 54.203125 
Q 16.5 49.359375 19.40625 46.890625 
Q 22.3125 44.4375 30.421875 42.921875 
L 36.375 41.703125 
Q 47.40625 39.59375 52.65625 34.296875 
Q 57.90625 29 57.90625 20.125 
Q 57.90625 9.515625 50.796875 4.046875 
Q 43.703125 -1.421875 29.984375 -1.421875 
Q 24.8125 -1.421875 18.96875 -0.25 
Q 13.140625 0.921875 6.890625 3.21875 
L 6.890625 13.375 
Q 12.890625 10.015625 18.65625 8.296875 
Q 24.421875 6.59375 29.984375 6.59375 
Q 38.421875 6.59375 43.015625 9.90625 
Q 47.609375 13.234375 47.609375 19.390625 
Q 47.609375 24.75 44.3125 27.78125 
Q 41.015625 30.8125 33.5 32.328125 
L 27.484375 33.5 
Q 16.453125 35.6875 11.515625 40.375 
Q 6.59375 45.0625 6.59375 53.421875 
Q 6.59375 63.09375 13.40625 68.65625 
Q 20.21875 74.21875 32.171875 74.21875 
Q 37.3125 74.21875 42.625 73.28125 
Q 47.953125 72.359375 53.515625 70.515625 
z
" id="DejaVuSans-83"/>
      <path d="M 18.3125 70.21875 
L 18.3125 54.6875 
L 36.8125 54.6875 
L 36.8125 47.703125 
L 18.3125 47.703125 
L 18.3125 18.015625 
Q 18.3125 11.328125 20.140625 9.421875 
Q 21.96875 7.515625 27.59375 7.515625 
L 36.8125 7.515625 
L 36.8125 0 
L 27.59375 0 
Q 17.1875 0 13.234375 3.875 
Q 9.28125 7.765625 9.28125 18.015625 
L 9.28125 47.703125 
L 2.6875 47.703125 
L 2.6875 54.6875 
L 9.28125 54.6875 
L 9.28125 70.21875 
z
" id="DejaVuSans-116"/>
      <path d="M 56.203125 29.59375 
L 56.203125 25.203125 
L 14.890625 25.203125 
Q 15.484375 15.921875 20.484375 11.0625 
Q 25.484375 6.203125 34.421875 6.203125 
Q 39.59375 6.203125 44.453125 7.46875 
Q 49.3125 8.734375 54.109375 11.28125 
L 54.109375 2.78125 
Q 49.265625 0.734375 44.1875 -0.34375 
Q 39.109375 -1.421875 33.890625 -1.421875 
Q 20.796875 -1.421875 13.15625 6.1875 
Q 5.515625 13.8125 5.515625 26.8125 
Q 5.515625 40.234375 12.765625 48.109375 
Q 20.015625 56 32.328125 56 
Q 43.359375 56 49.78125 48.890625 
Q 56.203125 41.796875 56.203125 29.59375 
z
M 47.21875 32.234375 
Q 47.125 39.59375 43.09375 43.984375 
Q 39.0625 48.390625 32.421875 48.390625 
Q 24.90625 48.390625 20.390625 44.140625 
Q 15.875 39.890625 15.1875 32.171875 
z
" id="DejaVuSans-101"/>
      <path d="M 18.109375 8.203125 
L 18.109375 -20.796875 
L 9.078125 -20.796875 
L 9.078125 54.6875 
L 18.109375 54.6875 
L 18.109375 46.390625 
Q 20.953125 51.265625 25.265625 53.625 
Q 29.59375 56 35.59375 56 
Q 45.5625 56 51.78125 48.09375 
Q 58.015625 40.1875 58.015625 27.296875 
Q 58.015625 14.40625 51.78125 6.484375 
Q 45.5625 -1.421875 35.59375 -1.421875 
Q 29.59375 -1.421875 25.265625 0.953125 
Q 20.953125 3.328125 18.109375 8.203125 
z
M 48.6875 27.296875 
Q 48.6875 37.203125 44.609375 42.84375 
Q 40.53125 48.484375 33.40625 48.484375 
Q 26.265625 48.484375 22.1875 42.84375 
Q 18.109375 37.203125 18.109375 27.296875 
Q 18.109375 17.390625 22.1875 11.75 
Q 26.265625 6.109375 33.40625 6.109375 
Q 40.53125 6.109375 44.609375 11.75 
Q 48.6875 17.390625 48.6875 27.296875 
z
" id="DejaVuSans-112"/>
     </defs>
     <g transform="translate(190.255469 159.314687)scale(0.1 -0.1)">
      <use xlink:href="#DejaVuSans-83"/>
      <use x="63.476562" xlink:href="#DejaVuSans-116"/>
      <use x="102.685547" xlink:href="#DejaVuSans-101"/>
      <use x="164.208984" xlink:href="#DejaVuSans-112"/>
     </g>
    </g>
   </g>
   <g id="matplotlib.axis_2">
    <g id="ytick_1">
     <g id="line2d_7">
      <defs>
       <path d="M 0 0 
L -3.5 0 
" id="m0a5593c7ed" style="stroke:#000000;stroke-width:0.8;"/>
      </defs>
      <g>
       <use style="stroke:#000000;stroke-width:0.8;" x="34.240625" xlink:href="#m0a5593c7ed" y="131.038125"/>
      </g>
     </g>
     <g id="text_8">
      <!-- 0 -->
      <g transform="translate(20.878125 134.837344)scale(0.1 -0.1)">
       <use xlink:href="#DejaVuSans-48"/>
      </g>
     </g>
    </g>
    <g id="ytick_2">
     <g id="line2d_8">
      <g>
       <use style="stroke:#000000;stroke-width:0.8;" x="34.240625" xlink:href="#m0a5593c7ed" y="103.858125"/>
      </g>
     </g>
     <g id="text_9">
      <!-- 1 -->
      <g transform="translate(20.878125 107.657344)scale(0.1 -0.1)">
       <use xlink:href="#DejaVuSans-49"/>
      </g>
     </g>
    </g>
    <g id="ytick_3">
     <g id="line2d_9">
      <g>
       <use style="stroke:#000000;stroke-width:0.8;" x="34.240625" xlink:href="#m0a5593c7ed" y="76.678125"/>
      </g>
     </g>
     <g id="text_10">
      <!-- 2 -->
      <g transform="translate(20.878125 80.477344)scale(0.1 -0.1)">
       <use xlink:href="#DejaVuSans-50"/>
      </g>
     </g>
    </g>
    <g id="ytick_4">
     <g id="line2d_10">
      <g>
       <use style="stroke:#000000;stroke-width:0.8;" x="34.240625" xlink:href="#m0a5593c7ed" y="49.498125"/>
      </g>
     </g>
     <g id="text_11">
      <!-- 3 -->
      <defs>
       <path d="M 40.578125 39.3125 
Q 47.65625 37.796875 51.625 33 
Q 55.609375 28.21875 55.609375 21.1875 
Q 55.609375 10.40625 48.1875 4.484375 
Q 40.765625 -1.421875 27.09375 -1.421875 
Q 22.515625 -1.421875 17.65625 -0.515625 
Q 12.796875 0.390625 7.625 2.203125 
L 7.625 11.71875 
Q 11.71875 9.328125 16.59375 8.109375 
Q 21.484375 6.890625 26.8125 6.890625 
Q 36.078125 6.890625 40.9375 10.546875 
Q 45.796875 14.203125 45.796875 21.1875 
Q 45.796875 27.640625 41.28125 31.265625 
Q 36.765625 34.90625 28.71875 34.90625 
L 20.21875 34.90625 
L 20.21875 43.015625 
L 29.109375 43.015625 
Q 36.375 43.015625 40.234375 45.921875 
Q 44.09375 48.828125 44.09375 54.296875 
Q 44.09375 59.90625 40.109375 62.90625 
Q 36.140625 65.921875 28.71875 65.921875 
Q 24.65625 65.921875 20.015625 65.03125 
Q 15.375 64.15625 9.8125 62.3125 
L 9.8125 71.09375 
Q 15.4375 72.65625 20.34375 73.4375 
Q 25.25 74.21875 29.59375 74.21875 
Q 40.828125 74.21875 47.359375 69.109375 
Q 53.90625 64.015625 53.90625 55.328125 
Q 53.90625 49.265625 50.4375 45.09375 
Q 46.96875 40.921875 40.578125 39.3125 
z
" id="DejaVuSans-51"/>
      </defs>
      <g transform="translate(20.878125 53.297344)scale(0.1 -0.1)">
       <use xlink:href="#DejaVuSans-51"/>
      </g>
     </g>
    </g>
    <g id="text_12">
     <!-- Arm -->
     <defs>
      <path d="M 34.1875 63.1875 
L 20.796875 26.90625 
L 47.609375 26.90625 
z
M 28.609375 72.90625 
L 39.796875 72.90625 
L 67.578125 0 
L 57.328125 0 
L 50.6875 18.703125 
L 17.828125 18.703125 
L 11.1875 0 
L 0.78125 0 
z
" id="DejaVuSans-65"/>
      <path d="M 41.109375 46.296875 
Q 39.59375 47.171875 37.8125 47.578125 
Q 36.03125 48 33.890625 48 
Q 26.265625 48 22.1875 43.046875 
Q 18.109375 38.09375 18.109375 28.8125 
L 18.109375 0 
L 9.078125 0 
L 9.078125 54.6875 
L 18.109375 54.6875 
L 18.109375 46.1875 
Q 20.953125 51.171875 25.484375 53.578125 
Q 30.03125 56 36.53125 56 
Q 37.453125 56 38.578125 55.875 
Q 39.703125 55.765625 41.0625 55.515625 
z
" id="DejaVuSans-114"/>
      <path d="M 52 44.1875 
Q 55.375 50.25 60.0625 53.125 
Q 64.75 56 71.09375 56 
Q 79.640625 56 84.28125 50.015625 
Q 88.921875 44.046875 88.921875 33.015625 
L 88.921875 0 
L 79.890625 0 
L 79.890625 32.71875 
Q 79.890625 40.578125 77.09375 44.375 
Q 74.3125 48.1875 68.609375 48.1875 
Q 61.625 48.1875 57.5625 43.546875 
Q 53.515625 38.921875 53.515625 30.90625 
L 53.515625 0 
L 44.484375 0 
L 44.484375 32.71875 
Q 44.484375 40.625 41.703125 44.40625 
Q 38.921875 48.1875 33.109375 48.1875 
Q 26.21875 48.1875 22.15625 43.53125 
Q 18.109375 38.875 18.109375 30.90625 
L 18.109375 0 
L 9.078125 0 
L 9.078125 54.6875 
L 18.109375 54.6875 
L 18.109375 46.1875 
Q 21.1875 51.21875 25.484375 53.609375 
Q 29.78125 56 35.6875 56 
Q 41.65625 56 45.828125 52.96875 
Q 50 49.953125 52 44.1875 
z
" id="DejaVuSans-109"/>
     </defs>
     <g transform="translate(14.798437 87.023437)rotate(-90)scale(0.1 -0.1)">
      <use xlink:href="#DejaVuSans-65"/>
      <use x="68.408203" xlink:href="#DejaVuSans-114"/>
      <use x="109.505859" xlink:href="#DejaVuSans-109"/>
     </g>
    </g>
   </g>
   <g id="patch_3">
    <path d="M 34.240625 131.038125 
L 34.240625 22.318125 
" style="fill:none;stroke:#000000;stroke-linecap:square;stroke-linejoin:miter;stroke-width:0.8;"/>
   </g>
   <g id="patch_4">
    <path d="M 34.240625 131.038125 
L 369.040625 131.038125 
" style="fill:none;stroke:#000000;stroke-linecap:square;stroke-linejoin:miter;stroke-width:0.8;"/>
   </g>
   <g id="text_13">
    <!-- softmax-nov -->
    <defs>
     <path d="M 44.28125 53.078125 
L 44.28125 44.578125 
Q 40.484375 46.53125 36.375 47.5 
Q 32.28125 48.484375 27.875 48.484375 
Q 21.1875 48.484375 17.84375 46.4375 
Q 14.5 44.390625 14.5 40.28125 
Q 14.5 37.15625 16.890625 35.375 
Q 19.28125 33.59375 26.515625 31.984375 
L 29.59375 31.296875 
Q 39.15625 29.25 43.1875 25.515625 
Q 47.21875 21.78125 47.21875 15.09375 
Q 47.21875 7.46875 41.1875 3.015625 
Q 35.15625 -1.421875 24.609375 -1.421875 
Q 20.21875 -1.421875 15.453125 -0.5625 
Q 10.6875 0.296875 5.421875 2 
L 5.421875 11.28125 
Q 10.40625 8.6875 15.234375 7.390625 
Q 20.0625 6.109375 24.8125 6.109375 
Q 31.15625 6.109375 34.5625 8.28125 
Q 37.984375 10.453125 37.984375 14.40625 
Q 37.984375 18.0625 35.515625 20.015625 
Q 33.0625 21.96875 24.703125 23.78125 
L 21.578125 24.515625 
Q 13.234375 26.265625 9.515625 29.90625 
Q 5.8125 33.546875 5.8125 39.890625 
Q 5.8125 47.609375 11.28125 51.796875 
Q 16.75 56 26.8125 56 
Q 31.78125 56 36.171875 55.265625 
Q 40.578125 54.546875 44.28125 53.078125 
z
" id="DejaVuSans-115"/>
     <path d="M 30.609375 48.390625 
Q 23.390625 48.390625 19.1875 42.75 
Q 14.984375 37.109375 14.984375 27.296875 
Q 14.984375 17.484375 19.15625 11.84375 
Q 23.34375 6.203125 30.609375 6.203125 
Q 37.796875 6.203125 41.984375 11.859375 
Q 46.1875 17.53125 46.1875 27.296875 
Q 46.1875 37.015625 41.984375 42.703125 
Q 37.796875 48.390625 30.609375 48.390625 
z
M 30.609375 56 
Q 42.328125 56 49.015625 48.375 
Q 55.71875 40.765625 55.71875 27.296875 
Q 55.71875 13.875 49.015625 6.21875 
Q 42.328125 -1.421875 30.609375 -1.421875 
Q 18.84375 -1.421875 12.171875 6.21875 
Q 5.515625 13.875 5.515625 27.296875 
Q 5.515625 40.765625 12.171875 48.375 
Q 18.84375 56 30.609375 56 
z
" id="DejaVuSans-111"/>
     <path d="M 37.109375 75.984375 
L 37.109375 68.5 
L 28.515625 68.5 
Q 23.6875 68.5 21.796875 66.546875 
Q 19.921875 64.59375 19.921875 59.515625 
L 19.921875 54.6875 
L 34.71875 54.6875 
L 34.71875 47.703125 
L 19.921875 47.703125 
L 19.921875 0 
L 10.890625 0 
L 10.890625 47.703125 
L 2.296875 47.703125 
L 2.296875 54.6875 
L 10.890625 54.6875 
L 10.890625 58.5 
Q 10.890625 67.625 15.140625 71.796875 
Q 19.390625 75.984375 28.609375 75.984375 
z
" id="DejaVuSans-102"/>
     <path d="M 34.28125 27.484375 
Q 23.390625 27.484375 19.1875 25 
Q 14.984375 22.515625 14.984375 16.5 
Q 14.984375 11.71875 18.140625 8.90625 
Q 21.296875 6.109375 26.703125 6.109375 
Q 34.1875 6.109375 38.703125 11.40625 
Q 43.21875 16.703125 43.21875 25.484375 
L 43.21875 27.484375 
z
M 52.203125 31.203125 
L 52.203125 0 
L 43.21875 0 
L 43.21875 8.296875 
Q 40.140625 3.328125 35.546875 0.953125 
Q 30.953125 -1.421875 24.3125 -1.421875 
Q 15.921875 -1.421875 10.953125 3.296875 
Q 6 8.015625 6 15.921875 
Q 6 25.140625 12.171875 29.828125 
Q 18.359375 34.515625 30.609375 34.515625 
L 43.21875 34.515625 
L 43.21875 35.40625 
Q 43.21875 41.609375 39.140625 45 
Q 35.0625 48.390625 27.6875 48.390625 
Q 23 48.390625 18.546875 47.265625 
Q 14.109375 46.140625 10.015625 43.890625 
L 10.015625 52.203125 
Q 14.9375 54.109375 19.578125 55.046875 
Q 24.21875 56 28.609375 56 
Q 40.484375 56 46.34375 49.84375 
Q 52.203125 43.703125 52.203125 31.203125 
z
" id="DejaVuSans-97"/>
     <path d="M 54.890625 54.6875 
L 35.109375 28.078125 
L 55.90625 0 
L 45.3125 0 
L 29.390625 21.484375 
L 13.484375 0 
L 2.875 0 
L 24.125 28.609375 
L 4.6875 54.6875 
L 15.28125 54.6875 
L 29.78125 35.203125 
L 44.28125 54.6875 
z
" id="DejaVuSans-120"/>
     <path d="M 4.890625 31.390625 
L 31.203125 31.390625 
L 31.203125 23.390625 
L 4.890625 23.390625 
z
" id="DejaVuSans-45"/>
     <path d="M 54.890625 33.015625 
L 54.890625 0 
L 45.90625 0 
L 45.90625 32.71875 
Q 45.90625 40.484375 42.875 44.328125 
Q 39.84375 48.1875 33.796875 48.1875 
Q 26.515625 48.1875 22.3125 43.546875 
Q 18.109375 38.921875 18.109375 30.90625 
L 18.109375 0 
L 9.078125 0 
L 9.078125 54.6875 
L 18.109375 54.6875 
L 18.109375 46.1875 
Q 21.34375 51.125 25.703125 53.5625 
Q 30.078125 56 35.796875 56 
Q 45.21875 56 50.046875 50.171875 
Q 54.890625 44.34375 54.890625 33.015625 
z
" id="DejaVuSans-110"/>
     <path d="M 2.984375 54.6875 
L 12.5 54.6875 
L 29.59375 8.796875 
L 46.6875 54.6875 
L 56.203125 54.6875 
L 35.6875 0 
L 23.484375 0 
z
" id="DejaVuSans-118"/>
    </defs>
    <g transform="translate(164.118125 16.318125)scale(0.12 -0.12)">
     <use xlink:href="#DejaVuSans-115"/>
     <use x="52.099609" xlink:href="#DejaVuSans-111"/>
     <use x="113.28125" xlink:href="#DejaVuSans-102"/>
     <use x="148.470703" xlink:href="#DejaVuSans-116"/>
     <use x="187.679688" xlink:href="#DejaVuSans-109"/>
     <use x="285.091797" xlink:href="#DejaVuSans-97"/>
     <use x="346.371094" xlink:href="#DejaVuSans-120"/>
     <use x="405.550781" xlink:href="#DejaVuSans-45"/>
     <use x="441.634766" xlink:href="#DejaVuSans-110"/>
     <use x="505.013672" xlink:href="#DejaVuSans-111"/>
     <use x="566.195312" xlink:href="#DejaVuSans-118"/>
    </g>
   </g>
  </g>
 </g>
 <defs>
  <clipPath id="p1d6942bcdc">
   <rect height="108.72" width="334.8" x="34.240625" y="22.318125"/>
  </clipPath>
 </defs>
</svg>