<?xml version="1.0" encoding="utf-8" standalone="no"?>
<!DOCTYPE svg PUBLIC "-//W3C//DTD SVG 1.1//EN"
  "http://www.w3.org/Graphics/SVG/1.1/DTD/svg11.dtd">
<!-- Created with matplotlib (https://matplotlib.org/) -->
<svg height="280.15625pt" version="1.1" viewBox="0 0 424.7625 280.15625" width="424.7625pt" xmlns="http://www.w3.org/2000/svg" xmlns:xlink="http://www.w3.org/1999/xlink">
 <defs>
  <style type="text/css">
*{stroke-linecap:butt;stroke-linejoin:round;}
  </style>
 </defs>
 <g id="figure_1">
  <g id="patch_1">
   <path d="M 0 280.15625 
L 424.7625 280.15625 
L 424.7625 0 
L 0 0 
z
" style="fill:none;"/>
  </g>
  <g id="axes_1">
   <g id="patch_2">
    <path d="M 33.2875 242.6 
L 417.5625 242.6 
L 417.5625 7.2 
L 33.2875 7.2 
z
" style="fill:#ffffff;"/>
   </g>
   <g id="patch_3">
    <path clip-path="url(#p3d6e249a59)" d="M 50.754545 242.6 
L 68.126716 242.6 
L 68.126716 236.830392 
L 50.754545 236.830392 
z
" style="fill:#a52a2a;opacity:0.5;"/>
   </g>
   <g id="patch_4">
    <path clip-path="url(#p3d6e249a59)" d="M 68.126716 242.6 
L 85.498886 242.6 
L 85.498886 241.77577 
L 68.126716 241.77577 
z
" style="fill:#a52a2a;opacity:0.5;"/>
   </g>
   <g id="patch_5">
    <path clip-path="url(#p3d6e249a59)" d="M 85.498886 242.6 
L 102.871056 242.6 
L 102.871056 242.6 
L 85.498886 242.6 
z
" style="fill:#a52a2a;opacity:0.5;"/>
   </g>
   <g id="patch_6">
    <path clip-path="url(#p3d6e249a59)" d="M 102.871056 242.6 
L 120.243226 242.6 
L 120.243226 240.127311 
L 102.871056 240.127311 
z
" style="fill:#a52a2a;opacity:0.5;"/>
   </g>
   <g id="patch_7">
    <path clip-path="url(#p3d6e249a59)" d="M 120.243226 242.6 
L 137.615396 242.6 
L 137.615396 239.303081 
L 120.243226 239.303081 
z
" style="fill:#a52a2a;opacity:0.5;"/>
   </g>
   <g id="patch_8">
    <path clip-path="url(#p3d6e249a59)" d="M 137.615396 242.6 
L 154.987566 242.6 
L 154.987566 240.127311 
L 137.615396 240.127311 
z
" style="fill:#a52a2a;opacity:0.5;"/>
   </g>
   <g id="patch_9">
    <path clip-path="url(#p3d6e249a59)" d="M 154.987566 242.6 
L 172.359736 242.6 
L 172.359736 235.181933 
L 154.987566 235.181933 
z
" style="fill:#a52a2a;opacity:0.5;"/>
   </g>
   <g id="patch_10">
    <path clip-path="url(#p3d6e249a59)" d="M 172.359736 242.6 
L 189.731907 242.6 
L 189.731907 236.006162 
L 172.359736 236.006162 
z
" style="fill:#a52a2a;opacity:0.5;"/>
   </g>
   <g id="patch_11">
    <path clip-path="url(#p3d6e249a59)" d="M 189.731907 242.6 
L 207.104077 242.6 
L 207.104077 231.885014 
L 189.731907 231.885014 
z
" style="fill:#a52a2a;opacity:0.5;"/>
   </g>
   <g id="patch_12">
    <path clip-path="url(#p3d6e249a59)" d="M 207.104077 242.6 
L 224.476247 242.6 
L 224.476247 222.818487 
L 207.104077 222.818487 
z
" style="fill:#a52a2a;opacity:0.5;"/>
   </g>
   <g id="patch_13">
    <path clip-path="url(#p3d6e249a59)" d="M 224.476247 242.6 
L 241.848417 242.6 
L 241.848417 225.291176 
L 224.476247 225.291176 
z
" style="fill:#a52a2a;opacity:0.5;"/>
   </g>
   <g id="patch_14">
    <path clip-path="url(#p3d6e249a59)" d="M 241.848417 242.6 
L 259.220587 242.6 
L 259.220587 217.873109 
L 241.848417 217.873109 
z
" style="fill:#a52a2a;opacity:0.5;"/>
   </g>
   <g id="patch_15">
    <path clip-path="url(#p3d6e249a59)" d="M 259.220587 242.6 
L 276.592757 242.6 
L 276.592757 218.697339 
L 259.220587 218.697339 
z
" style="fill:#a52a2a;opacity:0.5;"/>
   </g>
   <g id="patch_16">
    <path clip-path="url(#p3d6e249a59)" d="M 276.592757 242.6 
L 293.964927 242.6 
L 293.964927 209.630812 
L 276.592757 209.630812 
z
" style="fill:#a52a2a;opacity:0.5;"/>
   </g>
   <g id="patch_17">
    <path clip-path="url(#p3d6e249a59)" d="M 293.964927 242.6 
L 311.337097 242.6 
L 311.337097 177.485854 
L 293.964927 177.485854 
z
" style="fill:#a52a2a;opacity:0.5;"/>
   </g>
   <g id="patch_18">
    <path clip-path="url(#p3d6e249a59)" d="M 311.337097 242.6 
L 328.709268 242.6 
L 328.709268 163.47395 
L 311.337097 163.47395 
z
" style="fill:#a52a2a;opacity:0.5;"/>
   </g>
   <g id="patch_19">
    <path clip-path="url(#p3d6e249a59)" d="M 328.709268 242.6 
L 346.081438 242.6 
L 346.081438 142.868207 
L 328.709268 142.868207 
z
" style="fill:#a52a2a;opacity:0.5;"/>
   </g>
   <g id="patch_20">
    <path clip-path="url(#p3d6e249a59)" d="M 346.081438 242.6 
L 363.453608 242.6 
L 363.453608 121.438235 
L 346.081438 121.438235 
z
" style="fill:#a52a2a;opacity:0.5;"/>
   </g>
   <g id="patch_21">
    <path clip-path="url(#p3d6e249a59)" d="M 363.453608 242.6 
L 380.825778 242.6 
L 380.825778 102.480952 
L 363.453608 102.480952 
z
" style="fill:#a52a2a;opacity:0.5;"/>
   </g>
   <g id="patch_22">
    <path clip-path="url(#p3d6e249a59)" d="M 380.825778 242.6 
L 398.197948 242.6 
L 398.197948 81.87521 
L 380.825778 81.87521 
z
" style="fill:#a52a2a;opacity:0.5;"/>
   </g>
   <g id="patch_23">
    <path clip-path="url(#p3d6e249a59)" d="M 50.754545 242.6 
L 68.206611 242.6 
L 68.206611 233.533473 
L 50.754545 233.533473 
z
" style="fill:#800080;opacity:0.5;"/>
   </g>
   <g id="patch_24">
    <path clip-path="url(#p3d6e249a59)" d="M 68.206611 242.6 
L 85.658676 242.6 
L 85.658676 242.6 
L 68.206611 242.6 
z
" style="fill:#800080;opacity:0.5;"/>
   </g>
   <g id="patch_25">
    <path clip-path="url(#p3d6e249a59)" d="M 85.658676 242.6 
L 103.110741 242.6 
L 103.110741 241.77577 
L 85.658676 241.77577 
z
" style="fill:#800080;opacity:0.5;"/>
   </g>
   <g id="patch_26">
    <path clip-path="url(#p3d6e249a59)" d="M 103.110741 242.6 
L 120.562806 242.6 
L 120.562806 239.303081 
L 103.110741 239.303081 
z
" style="fill:#800080;opacity:0.5;"/>
   </g>
   <g id="patch_27">
    <path clip-path="url(#p3d6e249a59)" d="M 120.562806 242.6 
L 138.014871 242.6 
L 138.014871 235.181933 
L 120.562806 235.181933 
z
" style="fill:#800080;opacity:0.5;"/>
   </g>
   <g id="patch_28">
    <path clip-path="url(#p3d6e249a59)" d="M 138.014871 242.6 
L 155.466936 242.6 
L 155.466936 236.830392 
L 138.014871 236.830392 
z
" style="fill:#800080;opacity:0.5;"/>
   </g>
   <g id="patch_29">
    <path clip-path="url(#p3d6e249a59)" d="M 155.466936 242.6 
L 172.919001 242.6 
L 172.919001 231.060784 
L 155.466936 231.060784 
z
" style="fill:#800080;opacity:0.5;"/>
   </g>
   <g id="patch_30">
    <path clip-path="url(#p3d6e249a59)" d="M 172.919001 242.6 
L 190.371067 242.6 
L 190.371067 232.709244 
L 172.919001 232.709244 
z
" style="fill:#800080;opacity:0.5;"/>
   </g>
   <g id="patch_31">
    <path clip-path="url(#p3d6e249a59)" d="M 190.371067 242.6 
L 207.823132 242.6 
L 207.823132 236.830392 
L 190.371067 236.830392 
z
" style="fill:#800080;opacity:0.5;"/>
   </g>
   <g id="patch_32">
    <path clip-path="url(#p3d6e249a59)" d="M 207.823132 242.6 
L 225.275197 242.6 
L 225.275197 221.994258 
L 207.823132 221.994258 
z
" style="fill:#800080;opacity:0.5;"/>
   </g>
   <g id="patch_33">
    <path clip-path="url(#p3d6e249a59)" d="M 225.275197 242.6 
L 242.727262 242.6 
L 242.727262 224.466947 
L 225.275197 224.466947 
z
" style="fill:#800080;opacity:0.5;"/>
   </g>
   <g id="patch_34">
    <path clip-path="url(#p3d6e249a59)" d="M 242.727262 242.6 
L 260.179327 242.6 
L 260.179327 207.982353 
L 242.727262 207.982353 
z
" style="fill:#800080;opacity:0.5;"/>
   </g>
   <g id="patch_35">
    <path clip-path="url(#p3d6e249a59)" d="M 260.179327 242.6 
L 277.631392 242.6 
L 277.631392 209.630812 
L 260.179327 209.630812 
z
" style="fill:#800080;opacity:0.5;"/>
   </g>
   <g id="patch_36">
    <path clip-path="url(#p3d6e249a59)" d="M 277.631392 242.6 
L 295.083457 242.6 
L 295.083457 195.618908 
L 277.631392 195.618908 
z
" style="fill:#800080;opacity:0.5;"/>
   </g>
   <g id="patch_37">
    <path clip-path="url(#p3d6e249a59)" d="M 295.083457 242.6 
L 312.535523 242.6 
L 312.535523 187.376611 
L 295.083457 187.376611 
z
" style="fill:#800080;opacity:0.5;"/>
   </g>
   <g id="patch_38">
    <path clip-path="url(#p3d6e249a59)" d="M 312.535523 242.6 
L 329.987588 242.6 
L 329.987588 170.892017 
L 312.535523 170.892017 
z
" style="fill:#800080;opacity:0.5;"/>
   </g>
   <g id="patch_39">
    <path clip-path="url(#p3d6e249a59)" d="M 329.987588 242.6 
L 347.439653 242.6 
L 347.439653 138.747059 
L 329.987588 138.747059 
z
" style="fill:#800080;opacity:0.5;"/>
   </g>
   <g id="patch_40">
    <path clip-path="url(#p3d6e249a59)" d="M 347.439653 242.6 
L 364.891718 242.6 
L 364.891718 126.383613 
L 347.439653 126.383613 
z
" style="fill:#800080;opacity:0.5;"/>
   </g>
   <g id="patch_41">
    <path clip-path="url(#p3d6e249a59)" d="M 364.891718 242.6 
L 382.343783 242.6 
L 382.343783 109.89902 
L 364.891718 109.89902 
z
" style="fill:#800080;opacity:0.5;"/>
   </g>
   <g id="patch_42">
    <path clip-path="url(#p3d6e249a59)" d="M 382.343783 242.6 
L 399.795848 242.6 
L 399.795848 104.953641 
L 382.343783 104.953641 
z
" style="fill:#800080;opacity:0.5;"/>
   </g>
   <g id="patch_43">
    <path clip-path="url(#p3d6e249a59)" d="M 50.754545 242.6 
L 68.221591 242.6 
L 68.221591 241.77577 
L 50.754545 241.77577 
z
" style="fill:#008000;opacity:0.5;"/>
   </g>
   <g id="patch_44">
    <path clip-path="url(#p3d6e249a59)" d="M 68.221591 242.6 
L 85.688636 242.6 
L 85.688636 242.6 
L 68.221591 242.6 
z
" style="fill:#008000;opacity:0.5;"/>
   </g>
   <g id="patch_45">
    <path clip-path="url(#p3d6e249a59)" d="M 85.688636 242.6 
L 103.155682 242.6 
L 103.155682 241.77577 
L 85.688636 241.77577 
z
" style="fill:#008000;opacity:0.5;"/>
   </g>
   <g id="patch_46">
    <path clip-path="url(#p3d6e249a59)" d="M 103.155682 242.6 
L 120.622727 242.6 
L 120.622727 240.127311 
L 103.155682 240.127311 
z
" style="fill:#008000;opacity:0.5;"/>
   </g>
   <g id="patch_47">
    <path clip-path="url(#p3d6e249a59)" d="M 120.622727 242.6 
L 138.089773 242.6 
L 138.089773 242.6 
L 120.622727 242.6 
z
" style="fill:#008000;opacity:0.5;"/>
   </g>
   <g id="patch_48">
    <path clip-path="url(#p3d6e249a59)" d="M 138.089773 242.6 
L 155.556818 242.6 
L 155.556818 239.303081 
L 138.089773 239.303081 
z
" style="fill:#008000;opacity:0.5;"/>
   </g>
   <g id="patch_49">
    <path clip-path="url(#p3d6e249a59)" d="M 155.556818 242.6 
L 173.023864 242.6 
L 173.023864 240.951541 
L 155.556818 240.951541 
z
" style="fill:#008000;opacity:0.5;"/>
   </g>
   <g id="patch_50">
    <path clip-path="url(#p3d6e249a59)" d="M 173.023864 242.6 
L 190.490909 242.6 
L 190.490909 240.951541 
L 173.023864 240.951541 
z
" style="fill:#008000;opacity:0.5;"/>
   </g>
   <g id="patch_51">
    <path clip-path="url(#p3d6e249a59)" d="M 190.490909 242.6 
L 207.957955 242.6 
L 207.957955 236.830392 
L 190.490909 236.830392 
z
" style="fill:#008000;opacity:0.5;"/>
   </g>
   <g id="patch_52">
    <path clip-path="url(#p3d6e249a59)" d="M 207.957955 242.6 
L 225.425 242.6 
L 225.425 237.654622 
L 207.957955 237.654622 
z
" style="fill:#008000;opacity:0.5;"/>
   </g>
   <g id="patch_53">
    <path clip-path="url(#p3d6e249a59)" d="M 225.425 242.6 
L 242.892045 242.6 
L 242.892045 230.236555 
L 225.425 230.236555 
z
" style="fill:#008000;opacity:0.5;"/>
   </g>
   <g id="patch_54">
    <path clip-path="url(#p3d6e249a59)" d="M 242.892045 242.6 
L 260.359091 242.6 
L 260.359091 226.115406 
L 242.892045 226.115406 
z
" style="fill:#008000;opacity:0.5;"/>
   </g>
   <g id="patch_55">
    <path clip-path="url(#p3d6e249a59)" d="M 260.359091 242.6 
L 277.826136 242.6 
L 277.826136 218.697339 
L 260.359091 218.697339 
z
" style="fill:#008000;opacity:0.5;"/>
   </g>
   <g id="patch_56">
    <path clip-path="url(#p3d6e249a59)" d="M 277.826136 242.6 
L 295.293182 242.6 
L 295.293182 208.806583 
L 277.826136 208.806583 
z
" style="fill:#008000;opacity:0.5;"/>
   </g>
   <g id="patch_57">
    <path clip-path="url(#p3d6e249a59)" d="M 295.293182 242.6 
L 312.760227 242.6 
L 312.760227 193.146218 
L 295.293182 193.146218 
z
" style="fill:#008000;opacity:0.5;"/>
   </g>
   <g id="patch_58">
    <path clip-path="url(#p3d6e249a59)" d="M 312.760227 242.6 
L 330.227273 242.6 
L 330.227273 184.903922 
L 312.760227 184.903922 
z
" style="fill:#008000;opacity:0.5;"/>
   </g>
   <g id="patch_59">
    <path clip-path="url(#p3d6e249a59)" d="M 330.227273 242.6 
L 347.694318 242.6 
L 347.694318 156.055882 
L 330.227273 156.055882 
z
" style="fill:#008000;opacity:0.5;"/>
   </g>
   <g id="patch_60">
    <path clip-path="url(#p3d6e249a59)" d="M 347.694318 242.6 
L 365.161364 242.6 
L 365.161364 118.965546 
L 347.694318 118.965546 
z
" style="fill:#008000;opacity:0.5;"/>
   </g>
   <g id="patch_61">
    <path clip-path="url(#p3d6e249a59)" d="M 365.161364 242.6 
L 382.628409 242.6 
L 382.628409 67.863305 
L 365.161364 67.863305 
z
" style="fill:#008000;opacity:0.5;"/>
   </g>
   <g id="patch_62">
    <path clip-path="url(#p3d6e249a59)" d="M 382.628409 242.6 
L 400.095455 242.6 
L 400.095455 18.409524 
L 382.628409 18.409524 
z
" style="fill:#008000;opacity:0.5;"/>
   </g>
   <g id="matplotlib.axis_1">
    <g id="xtick_1">
     <g id="line2d_1">
      <defs>
       <path d="M 0 0 
L 0 3.5 
" id="mb35266e3ca" style="stroke:#000000;stroke-width:0.8;"/>
      </defs>
      <g>
       <use style="stroke:#000000;stroke-width:0.8;" x="50.704611" xlink:href="#mb35266e3ca" y="242.6"/>
      </g>
     </g>
     <g id="text_1">
      <!-- −10 -->
      <defs>
       <path d="M 10.59375 35.5 
L 73.1875 35.5 
L 73.1875 27.203125 
L 10.59375 27.203125 
z
" id="DejaVuSans-8722"/>
       <path d="M 12.40625 8.296875 
L 28.515625 8.296875 
L 28.515625 63.921875 
L 10.984375 60.40625 
L 10.984375 69.390625 
L 28.421875 72.90625 
L 38.28125 72.90625 
L 38.28125 8.296875 
L 54.390625 8.296875 
L 54.390625 0 
L 12.40625 0 
z
" id="DejaVuSans-49"/>
       <path d="M 31.78125 66.40625 
Q 24.171875 66.40625 20.328125 58.90625 
Q 16.5 51.421875 16.5 36.375 
Q 16.5 21.390625 20.328125 13.890625 
Q 24.171875 6.390625 31.78125 6.390625 
Q 39.453125 6.390625 43.28125 13.890625 
Q 47.125 21.390625 47.125 36.375 
Q 47.125 51.421875 43.28125 58.90625 
Q 39.453125 66.40625 31.78125 66.40625 
z
M 31.78125 74.21875 
Q 44.046875 74.21875 50.515625 64.515625 
Q 56.984375 54.828125 56.984375 36.375 
Q 56.984375 17.96875 50.515625 8.265625 
Q 44.046875 -1.421875 31.78125 -1.421875 
Q 19.53125 -1.421875 13.0625 8.265625 
Q 6.59375 17.96875 6.59375 36.375 
Q 6.59375 54.828125 13.0625 64.515625 
Q 19.53125 74.21875 31.78125 74.21875 
z
" id="DejaVuSans-48"/>
      </defs>
      <g transform="translate(40.152267 257.198437)scale(0.1 -0.1)">
       <use xlink:href="#DejaVuSans-8722"/>
       <use x="83.789062" xlink:href="#DejaVuSans-49"/>
       <use x="147.412109" xlink:href="#DejaVuSans-48"/>
      </g>
     </g>
    </g>
    <g id="xtick_2">
     <g id="line2d_2">
      <g>
       <use style="stroke:#000000;stroke-width:0.8;" x="114.620615" xlink:href="#mb35266e3ca" y="242.6"/>
      </g>
     </g>
     <g id="text_2">
      <!-- −8 -->
      <defs>
       <path d="M 31.78125 34.625 
Q 24.75 34.625 20.71875 30.859375 
Q 16.703125 27.09375 16.703125 20.515625 
Q 16.703125 13.921875 20.71875 10.15625 
Q 24.75 6.390625 31.78125 6.390625 
Q 38.8125 6.390625 42.859375 10.171875 
Q 46.921875 13.96875 46.921875 20.515625 
Q 46.921875 27.09375 42.890625 30.859375 
Q 38.875 34.625 31.78125 34.625 
z
M 21.921875 38.8125 
Q 15.578125 40.375 12.03125 44.71875 
Q 8.5 49.078125 8.5 55.328125 
Q 8.5 64.0625 14.71875 69.140625 
Q 20.953125 74.21875 31.78125 74.21875 
Q 42.671875 74.21875 48.875 69.140625 
Q 55.078125 64.0625 55.078125 55.328125 
Q 55.078125 49.078125 51.53125 44.71875 
Q 48 40.375 41.703125 38.8125 
Q 48.828125 37.15625 52.796875 32.3125 
Q 56.78125 27.484375 56.78125 20.515625 
Q 56.78125 9.90625 50.3125 4.234375 
Q 43.84375 -1.421875 31.78125 -1.421875 
Q 19.734375 -1.421875 13.25 4.234375 
Q 6.78125 9.90625 6.78125 20.515625 
Q 6.78125 27.484375 10.78125 32.3125 
Q 14.796875 37.15625 21.921875 38.8125 
z
M 18.3125 54.390625 
Q 18.3125 48.734375 21.84375 45.5625 
Q 25.390625 42.390625 31.78125 42.390625 
Q 38.140625 42.390625 41.71875 45.5625 
Q 45.3125 48.734375 45.3125 54.390625 
Q 45.3125 60.0625 41.71875 63.234375 
Q 38.140625 66.40625 31.78125 66.40625 
Q 25.390625 66.40625 21.84375 63.234375 
Q 18.3125 60.0625 18.3125 54.390625 
z
" id="DejaVuSans-56"/>
      </defs>
      <g transform="translate(107.249521 257.198437)scale(0.1 -0.1)">
       <use xlink:href="#DejaVuSans-8722"/>
       <use x="83.789062" xlink:href="#DejaVuSans-56"/>
      </g>
     </g>
    </g>
    <g id="xtick_3">
     <g id="line2d_3">
      <g>
       <use style="stroke:#000000;stroke-width:0.8;" x="178.536619" xlink:href="#mb35266e3ca" y="242.6"/>
      </g>
     </g>
     <g id="text_3">
      <!-- −6 -->
      <defs>
       <path d="M 33.015625 40.375 
Q 26.375 40.375 22.484375 35.828125 
Q 18.609375 31.296875 18.609375 23.390625 
Q 18.609375 15.53125 22.484375 10.953125 
Q 26.375 6.390625 33.015625 6.390625 
Q 39.65625 6.390625 43.53125 10.953125 
Q 47.40625 15.53125 47.40625 23.390625 
Q 47.40625 31.296875 43.53125 35.828125 
Q 39.65625 40.375 33.015625 40.375 
z
M 52.59375 71.296875 
L 52.59375 62.3125 
Q 48.875 64.0625 45.09375 64.984375 
Q 41.3125 65.921875 37.59375 65.921875 
Q 27.828125 65.921875 22.671875 59.328125 
Q 17.53125 52.734375 16.796875 39.40625 
Q 19.671875 43.65625 24.015625 45.921875 
Q 28.375 48.1875 33.59375 48.1875 
Q 44.578125 48.1875 50.953125 41.515625 
Q 57.328125 34.859375 57.328125 23.390625 
Q 57.328125 12.15625 50.6875 5.359375 
Q 44.046875 -1.421875 33.015625 -1.421875 
Q 20.359375 -1.421875 13.671875 8.265625 
Q 6.984375 17.96875 6.984375 36.375 
Q 6.984375 53.65625 15.1875 63.9375 
Q 23.390625 74.21875 37.203125 74.21875 
Q 40.921875 74.21875 44.703125 73.484375 
Q 48.484375 72.75 52.59375 71.296875 
z
" id="DejaVuSans-54"/>
      </defs>
      <g transform="translate(171.165525 257.198437)scale(0.1 -0.1)">
       <use xlink:href="#DejaVuSans-8722"/>
       <use x="83.789062" xlink:href="#DejaVuSans-54"/>
      </g>
     </g>
    </g>
    <g id="xtick_4">
     <g id="line2d_4">
      <g>
       <use style="stroke:#000000;stroke-width:0.8;" x="242.452623" xlink:href="#mb35266e3ca" y="242.6"/>
      </g>
     </g>
     <g id="text_4">
      <!-- −4 -->
      <defs>
       <path d="M 37.796875 64.3125 
L 12.890625 25.390625 
L 37.796875 25.390625 
z
M 35.203125 72.90625 
L 47.609375 72.90625 
L 47.609375 25.390625 
L 58.015625 25.390625 
L 58.015625 17.1875 
L 47.609375 17.1875 
L 47.609375 0 
L 37.796875 0 
L 37.796875 17.1875 
L 4.890625 17.1875 
L 4.890625 26.703125 
z
" id="DejaVuSans-52"/>
      </defs>
      <g transform="translate(235.081529 257.198437)scale(0.1 -0.1)">
       <use xlink:href="#DejaVuSans-8722"/>
       <use x="83.789062" xlink:href="#DejaVuSans-52"/>
      </g>
     </g>
    </g>
    <g id="xtick_5">
     <g id="line2d_5">
      <g>
       <use style="stroke:#000000;stroke-width:0.8;" x="306.368627" xlink:href="#mb35266e3ca" y="242.6"/>
      </g>
     </g>
     <g id="text_5">
      <!-- −2 -->
      <defs>
       <path d="M 19.1875 8.296875 
L 53.609375 8.296875 
L 53.609375 0 
L 7.328125 0 
L 7.328125 8.296875 
Q 12.9375 14.109375 22.625 23.890625 
Q 32.328125 33.6875 34.8125 36.53125 
Q 39.546875 41.84375 41.421875 45.53125 
Q 43.3125 49.21875 43.3125 52.78125 
Q 43.3125 58.59375 39.234375 62.25 
Q 35.15625 65.921875 28.609375 65.921875 
Q 23.96875 65.921875 18.8125 64.3125 
Q 13.671875 62.703125 7.8125 59.421875 
L 7.8125 69.390625 
Q 13.765625 71.78125 18.9375 73 
Q 24.125 74.21875 28.421875 74.21875 
Q 39.75 74.21875 46.484375 68.546875 
Q 53.21875 62.890625 53.21875 53.421875 
Q 53.21875 48.921875 51.53125 44.890625 
Q 49.859375 40.875 45.40625 35.40625 
Q 44.1875 33.984375 37.640625 27.21875 
Q 31.109375 20.453125 19.1875 8.296875 
z
" id="DejaVuSans-50"/>
      </defs>
      <g transform="translate(298.997533 257.198437)scale(0.1 -0.1)">
       <use xlink:href="#DejaVuSans-8722"/>
       <use x="83.789062" xlink:href="#DejaVuSans-50"/>
      </g>
     </g>
    </g>
    <g id="xtick_6">
     <g id="line2d_6">
      <g>
       <use style="stroke:#000000;stroke-width:0.8;" x="370.284631" xlink:href="#mb35266e3ca" y="242.6"/>
      </g>
     </g>
     <g id="text_6">
      <!-- 0 -->
      <g transform="translate(367.103381 257.198437)scale(0.1 -0.1)">
       <use xlink:href="#DejaVuSans-48"/>
      </g>
     </g>
    </g>
    <g id="text_7">
     <!-- Score -->
     <defs>
      <path d="M 53.515625 70.515625 
L 53.515625 60.890625 
Q 47.90625 63.578125 42.921875 64.890625 
Q 37.9375 66.21875 33.296875 66.21875 
Q 25.25 66.21875 20.875 63.09375 
Q 16.5 59.96875 16.5 54.203125 
Q 16.5 49.359375 19.40625 46.890625 
Q 22.3125 44.4375 30.421875 42.921875 
L 36.375 41.703125 
Q 47.40625 39.59375 52.65625 34.296875 
Q 57.90625 29 57.90625 20.125 
Q 57.90625 9.515625 50.796875 4.046875 
Q 43.703125 -1.421875 29.984375 -1.421875 
Q 24.8125 -1.421875 18.96875 -0.25 
Q 13.140625 0.921875 6.890625 3.21875 
L 6.890625 13.375 
Q 12.890625 10.015625 18.65625 8.296875 
Q 24.421875 6.59375 29.984375 6.59375 
Q 38.421875 6.59375 43.015625 9.90625 
Q 47.609375 13.234375 47.609375 19.390625 
Q 47.609375 24.75 44.3125 27.78125 
Q 41.015625 30.8125 33.5 32.328125 
L 27.484375 33.5 
Q 16.453125 35.6875 11.515625 40.375 
Q 6.59375 45.0625 6.59375 53.421875 
Q 6.59375 63.09375 13.40625 68.65625 
Q 20.21875 74.21875 32.171875 74.21875 
Q 37.3125 74.21875 42.625 73.28125 
Q 47.953125 72.359375 53.515625 70.515625 
z
" id="DejaVuSans-83"/>
      <path d="M 48.78125 52.59375 
L 48.78125 44.1875 
Q 44.96875 46.296875 41.140625 47.34375 
Q 37.3125 48.390625 33.40625 48.390625 
Q 24.65625 48.390625 19.8125 42.84375 
Q 14.984375 37.3125 14.984375 27.296875 
Q 14.984375 17.28125 19.8125 11.734375 
Q 24.65625 6.203125 33.40625 6.203125 
Q 37.3125 6.203125 41.140625 7.25 
Q 44.96875 8.296875 48.78125 10.40625 
L 48.78125 2.09375 
Q 45.015625 0.34375 40.984375 -0.53125 
Q 36.96875 -1.421875 32.421875 -1.421875 
Q 20.0625 -1.421875 12.78125 6.34375 
Q 5.515625 14.109375 5.515625 27.296875 
Q 5.515625 40.671875 12.859375 48.328125 
Q 20.21875 56 33.015625 56 
Q 37.15625 56 41.109375 55.140625 
Q 45.0625 54.296875 48.78125 52.59375 
z
" id="DejaVuSans-99"/>
      <path d="M 30.609375 48.390625 
Q 23.390625 48.390625 19.1875 42.75 
Q 14.984375 37.109375 14.984375 27.296875 
Q 14.984375 17.484375 19.15625 11.84375 
Q 23.34375 6.203125 30.609375 6.203125 
Q 37.796875 6.203125 41.984375 11.859375 
Q 46.1875 17.53125 46.1875 27.296875 
Q 46.1875 37.015625 41.984375 42.703125 
Q 37.796875 48.390625 30.609375 48.390625 
z
M 30.609375 56 
Q 42.328125 56 49.015625 48.375 
Q 55.71875 40.765625 55.71875 27.296875 
Q 55.71875 13.875 49.015625 6.21875 
Q 42.328125 -1.421875 30.609375 -1.421875 
Q 18.84375 -1.421875 12.171875 6.21875 
Q 5.515625 13.875 5.515625 27.296875 
Q 5.515625 40.765625 12.171875 48.375 
Q 18.84375 56 30.609375 56 
z
" id="DejaVuSans-111"/>
      <path d="M 41.109375 46.296875 
Q 39.59375 47.171875 37.8125 47.578125 
Q 36.03125 48 33.890625 48 
Q 26.265625 48 22.1875 43.046875 
Q 18.109375 38.09375 18.109375 28.8125 
L 18.109375 0 
L 9.078125 0 
L 9.078125 54.6875 
L 18.109375 54.6875 
L 18.109375 46.1875 
Q 20.953125 51.171875 25.484375 53.578125 
Q 30.03125 56 36.53125 56 
Q 37.453125 56 38.578125 55.875 
Q 39.703125 55.765625 41.0625 55.515625 
z
" id="DejaVuSans-114"/>
      <path d="M 56.203125 29.59375 
L 56.203125 25.203125 
L 14.890625 25.203125 
Q 15.484375 15.921875 20.484375 11.0625 
Q 25.484375 6.203125 34.421875 6.203125 
Q 39.59375 6.203125 44.453125 7.46875 
Q 49.3125 8.734375 54.109375 11.28125 
L 54.109375 2.78125 
Q 49.265625 0.734375 44.1875 -0.34375 
Q 39.109375 -1.421875 33.890625 -1.421875 
Q 20.796875 -1.421875 13.15625 6.1875 
Q 5.515625 13.8125 5.515625 26.8125 
Q 5.515625 40.234375 12.765625 48.109375 
Q 20.015625 56 32.328125 56 
Q 43.359375 56 49.78125 48.890625 
Q 56.203125 41.796875 56.203125 29.59375 
z
M 47.21875 32.234375 
Q 47.125 39.59375 43.09375 43.984375 
Q 39.0625 48.390625 32.421875 48.390625 
Q 24.90625 48.390625 20.390625 44.140625 
Q 15.875 39.890625 15.1875 32.171875 
z
" id="DejaVuSans-101"/>
     </defs>
     <g transform="translate(211.311719 270.876562)scale(0.1 -0.1)">
      <use xlink:href="#DejaVuSans-83"/>
      <use x="63.476562" xlink:href="#DejaVuSans-99"/>
      <use x="118.457031" xlink:href="#DejaVuSans-111"/>
      <use x="179.638672" xlink:href="#DejaVuSans-114"/>
      <use x="220.720703" xlink:href="#DejaVuSans-101"/>
     </g>
    </g>
   </g>
   <g id="matplotlib.axis_2">
    <g id="ytick_1">
     <g id="line2d_7">
      <defs>
       <path d="M 0 0 
L -3.5 0 
" id="m581040ebf7" style="stroke:#000000;stroke-width:0.8;"/>
      </defs>
      <g>
       <use style="stroke:#000000;stroke-width:0.8;" x="33.2875" xlink:href="#m581040ebf7" y="242.6"/>
      </g>
     </g>
     <g id="text_8">
      <!-- 0 -->
      <g transform="translate(19.925 246.399219)scale(0.1 -0.1)">
       <use xlink:href="#DejaVuSans-48"/>
      </g>
     </g>
    </g>
    <g id="ytick_2">
     <g id="line2d_8">
      <g>
       <use style="stroke:#000000;stroke-width:0.8;" x="33.2875" xlink:href="#m581040ebf7" y="201.388515"/>
      </g>
     </g>
     <g id="text_9">
      <!-- 50 -->
      <defs>
       <path d="M 10.796875 72.90625 
L 49.515625 72.90625 
L 49.515625 64.59375 
L 19.828125 64.59375 
L 19.828125 46.734375 
Q 21.96875 47.46875 24.109375 47.828125 
Q 26.265625 48.1875 28.421875 48.1875 
Q 40.625 48.1875 47.75 41.5 
Q 54.890625 34.8125 54.890625 23.390625 
Q 54.890625 11.625 47.5625 5.09375 
Q 40.234375 -1.421875 26.90625 -1.421875 
Q 22.3125 -1.421875 17.546875 -0.640625 
Q 12.796875 0.140625 7.71875 1.703125 
L 7.71875 11.625 
Q 12.109375 9.234375 16.796875 8.0625 
Q 21.484375 6.890625 26.703125 6.890625 
Q 35.15625 6.890625 40.078125 11.328125 
Q 45.015625 15.765625 45.015625 23.390625 
Q 45.015625 31 40.078125 35.4375 
Q 35.15625 39.890625 26.703125 39.890625 
Q 22.75 39.890625 18.8125 39.015625 
Q 14.890625 38.140625 10.796875 36.28125 
z
" id="DejaVuSans-53"/>
      </defs>
      <g transform="translate(13.5625 205.187734)scale(0.1 -0.1)">
       <use xlink:href="#DejaVuSans-53"/>
       <use x="63.623047" xlink:href="#DejaVuSans-48"/>
      </g>
     </g>
    </g>
    <g id="ytick_3">
     <g id="line2d_9">
      <g>
       <use style="stroke:#000000;stroke-width:0.8;" x="33.2875" xlink:href="#m581040ebf7" y="160.177031"/>
      </g>
     </g>
     <g id="text_10">
      <!-- 100 -->
      <g transform="translate(7.2 163.97625)scale(0.1 -0.1)">
       <use xlink:href="#DejaVuSans-49"/>
       <use x="63.623047" xlink:href="#DejaVuSans-48"/>
       <use x="127.246094" xlink:href="#DejaVuSans-48"/>
      </g>
     </g>
    </g>
    <g id="ytick_4">
     <g id="line2d_10">
      <g>
       <use style="stroke:#000000;stroke-width:0.8;" x="33.2875" xlink:href="#m581040ebf7" y="118.965546"/>
      </g>
     </g>
     <g id="text_11">
      <!-- 150 -->
      <g transform="translate(7.2 122.764765)scale(0.1 -0.1)">
       <use xlink:href="#DejaVuSans-49"/>
       <use x="63.623047" xlink:href="#DejaVuSans-53"/>
       <use x="127.246094" xlink:href="#DejaVuSans-48"/>
      </g>
     </g>
    </g>
    <g id="ytick_5">
     <g id="line2d_11">
      <g>
       <use style="stroke:#000000;stroke-width:0.8;" x="33.2875" xlink:href="#m581040ebf7" y="77.754062"/>
      </g>
     </g>
     <g id="text_12">
      <!-- 200 -->
      <g transform="translate(7.2 81.55328)scale(0.1 -0.1)">
       <use xlink:href="#DejaVuSans-50"/>
       <use x="63.623047" xlink:href="#DejaVuSans-48"/>
       <use x="127.246094" xlink:href="#DejaVuSans-48"/>
      </g>
     </g>
    </g>
    <g id="ytick_6">
     <g id="line2d_12">
      <g>
       <use style="stroke:#000000;stroke-width:0.8;" x="33.2875" xlink:href="#m581040ebf7" y="36.542577"/>
      </g>
     </g>
     <g id="text_13">
      <!-- 250 -->
      <g transform="translate(7.2 40.341796)scale(0.1 -0.1)">
       <use xlink:href="#DejaVuSans-50"/>
       <use x="63.623047" xlink:href="#DejaVuSans-53"/>
       <use x="127.246094" xlink:href="#DejaVuSans-48"/>
      </g>
     </g>
    </g>
   </g>
   <g id="patch_63">
    <path d="M 33.2875 242.6 
L 33.2875 7.2 
" style="fill:none;stroke:#000000;stroke-linecap:square;stroke-linejoin:miter;stroke-width:0.8;"/>
   </g>
   <g id="patch_64">
    <path d="M 33.2875 242.6 
L 417.5625 242.6 
" style="fill:none;stroke:#000000;stroke-linecap:square;stroke-linejoin:miter;stroke-width:0.8;"/>
   </g>
   <g id="legend_1">
    <g id="patch_65">
     <path d="M 40.2875 59.234375 
L 95.848437 59.234375 
Q 97.848437 59.234375 97.848437 57.234375 
L 97.848437 14.2 
Q 97.848437 12.2 95.848437 12.2 
L 40.2875 12.2 
Q 38.2875 12.2 38.2875 14.2 
L 38.2875 57.234375 
Q 38.2875 59.234375 40.2875 59.234375 
z
" style="fill:#ffffff;opacity:0.8;stroke:#cccccc;stroke-linejoin:miter;"/>
    </g>
    <g id="patch_66">
     <path d="M 42.2875 23.798437 
L 62.2875 23.798437 
L 62.2875 16.798437 
L 42.2875 16.798437 
z
" style="fill:#a52a2a;opacity:0.5;"/>
    </g>
    <g id="text_14">
     <!-- Diff -->
     <defs>
      <path d="M 19.671875 64.796875 
L 19.671875 8.109375 
L 31.59375 8.109375 
Q 46.6875 8.109375 53.6875 14.9375 
Q 60.6875 21.78125 60.6875 36.53125 
Q 60.6875 51.171875 53.6875 57.984375 
Q 46.6875 64.796875 31.59375 64.796875 
z
M 9.8125 72.90625 
L 30.078125 72.90625 
Q 51.265625 72.90625 61.171875 64.09375 
Q 71.09375 55.28125 71.09375 36.53125 
Q 71.09375 17.671875 61.125 8.828125 
Q 51.171875 0 30.078125 0 
L 9.8125 0 
z
" id="DejaVuSans-68"/>
      <path d="M 9.421875 54.6875 
L 18.40625 54.6875 
L 18.40625 0 
L 9.421875 0 
z
M 9.421875 75.984375 
L 18.40625 75.984375 
L 18.40625 64.59375 
L 9.421875 64.59375 
z
" id="DejaVuSans-105"/>
      <path d="M 37.109375 75.984375 
L 37.109375 68.5 
L 28.515625 68.5 
Q 23.6875 68.5 21.796875 66.546875 
Q 19.921875 64.59375 19.921875 59.515625 
L 19.921875 54.6875 
L 34.71875 54.6875 
L 34.71875 47.703125 
L 19.921875 47.703125 
L 19.921875 0 
L 10.890625 0 
L 10.890625 47.703125 
L 2.296875 47.703125 
L 2.296875 54.6875 
L 10.890625 54.6875 
L 10.890625 58.5 
Q 10.890625 67.625 15.140625 71.796875 
Q 19.390625 75.984375 28.609375 75.984375 
z
" id="DejaVuSans-102"/>
     </defs>
     <g transform="translate(70.2875 23.798437)scale(0.1 -0.1)">
      <use xlink:href="#DejaVuSans-68"/>
      <use x="77.001953" xlink:href="#DejaVuSans-105"/>
      <use x="104.785156" xlink:href="#DejaVuSans-102"/>
      <use x="139.990234" xlink:href="#DejaVuSans-102"/>
     </g>
    </g>
    <g id="patch_67">
     <path d="M 42.2875 38.476562 
L 62.2875 38.476562 
L 62.2875 31.476562 
L 42.2875 31.476562 
z
" style="fill:#800080;opacity:0.5;"/>
    </g>
    <g id="text_15">
     <!-- Levy -->
     <defs>
      <path d="M 9.8125 72.90625 
L 19.671875 72.90625 
L 19.671875 8.296875 
L 55.171875 8.296875 
L 55.171875 0 
L 9.8125 0 
z
" id="DejaVuSans-76"/>
      <path d="M 2.984375 54.6875 
L 12.5 54.6875 
L 29.59375 8.796875 
L 46.6875 54.6875 
L 56.203125 54.6875 
L 35.6875 0 
L 23.484375 0 
z
" id="DejaVuSans-118"/>
      <path d="M 32.171875 -5.078125 
Q 28.375 -14.84375 24.75 -17.8125 
Q 21.140625 -20.796875 15.09375 -20.796875 
L 7.90625 -20.796875 
L 7.90625 -13.28125 
L 13.1875 -13.28125 
Q 16.890625 -13.28125 18.9375 -11.515625 
Q 21 -9.765625 23.484375 -3.21875 
L 25.09375 0.875 
L 2.984375 54.6875 
L 12.5 54.6875 
L 29.59375 11.921875 
L 46.6875 54.6875 
L 56.203125 54.6875 
z
" id="DejaVuSans-121"/>
     </defs>
     <g transform="translate(70.2875 38.476562)scale(0.1 -0.1)">
      <use xlink:href="#DejaVuSans-76"/>
      <use x="55.697266" xlink:href="#DejaVuSans-101"/>
      <use x="117.220703" xlink:href="#DejaVuSans-118"/>
      <use x="176.400391" xlink:href="#DejaVuSans-121"/>
     </g>
    </g>
    <g id="patch_68">
     <path d="M 42.2875 53.154687 
L 62.2875 53.154687 
L 62.2875 46.154687 
L 42.2875 46.154687 
z
" style="fill:#008000;opacity:0.5;"/>
    </g>
    <g id="text_16">
     <!-- Sniff -->
     <defs>
      <path d="M 54.890625 33.015625 
L 54.890625 0 
L 45.90625 0 
L 45.90625 32.71875 
Q 45.90625 40.484375 42.875 44.328125 
Q 39.84375 48.1875 33.796875 48.1875 
Q 26.515625 48.1875 22.3125 43.546875 
Q 18.109375 38.921875 18.109375 30.90625 
L 18.109375 0 
L 9.078125 0 
L 9.078125 54.6875 
L 18.109375 54.6875 
L 18.109375 46.1875 
Q 21.34375 51.125 25.703125 53.5625 
Q 30.078125 56 35.796875 56 
Q 45.21875 56 50.046875 50.171875 
Q 54.890625 44.34375 54.890625 33.015625 
z
" id="DejaVuSans-110"/>
     </defs>
     <g transform="translate(70.2875 53.154687)scale(0.1 -0.1)">
      <use xlink:href="#DejaVuSans-83"/>
      <use x="63.476562" xlink:href="#DejaVuSans-110"/>
      <use x="126.855469" xlink:href="#DejaVuSans-105"/>
      <use x="154.638672" xlink:href="#DejaVuSans-102"/>
      <use x="189.84375" xlink:href="#DejaVuSans-102"/>
     </g>
    </g>
   </g>
  </g>
 </g>
 <defs>
  <clipPath id="p3d6e249a59">
   <rect height="235.4" width="384.275" x="33.2875" y="7.2"/>
  </clipPath>
 </defs>
</svg>