<?xml version="1.0" encoding="utf-8" standalone="no"?>
<!DOCTYPE svg PUBLIC "-//W3C//DTD SVG 1.1//EN"
  "http://www.w3.org/Graphics/SVG/1.1/DTD/svg11.dtd">
<!-- Created with matplotlib (https://matplotlib.org/) -->
<svg height="279.967799pt" version="1.1" viewBox="0 0 424.7625 279.967799" width="424.7625pt" xmlns="http://www.w3.org/2000/svg" xmlns:xlink="http://www.w3.org/1999/xlink">
 <defs>
  <style type="text/css">
*{stroke-linecap:butt;stroke-linejoin:round;}
  </style>
 </defs>
 <g id="figure_1">
  <g id="patch_1">
   <path d="M 0 279.967799 
L 424.7625 279.967799 
L 424.7625 0 
L 0 0 
z
" style="fill:none;"/>
  </g>
  <g id="axes_1">
   <g id="patch_2">
    <path d="M 33.2875 242.411549 
L 417.5625 242.411549 
L 417.5625 10.059106 
L 33.2875 10.059106 
z
" style="fill:#ffffff;"/>
   </g>
   <g id="patch_3">
    <path clip-path="url(#p44c634a0b1)" d="M 50.754545 242.411549 
L 68.221591 242.411549 
L 68.221591 74.348344 
L 50.754545 74.348344 
z
" style="fill:#0000ff;opacity:0.5;"/>
   </g>
   <g id="patch_4">
    <path clip-path="url(#p44c634a0b1)" d="M 68.221591 242.411549 
L 85.688636 242.411549 
L 85.688636 231.708729 
L 68.221591 231.708729 
z
" style="fill:#0000ff;opacity:0.5;"/>
   </g>
   <g id="patch_5">
    <path clip-path="url(#p44c634a0b1)" d="M 85.688636 242.411549 
L 103.155682 242.411549 
L 103.155682 229.394606 
L 85.688636 229.394606 
z
" style="fill:#0000ff;opacity:0.5;"/>
   </g>
   <g id="patch_6">
    <path clip-path="url(#p44c634a0b1)" d="M 103.155682 242.411549 
L 120.622727 242.411549 
L 120.622727 230.840933 
L 103.155682 230.840933 
z
" style="fill:#0000ff;opacity:0.5;"/>
   </g>
   <g id="patch_7">
    <path clip-path="url(#p44c634a0b1)" d="M 120.622727 242.411549 
L 138.089773 242.411549 
L 138.089773 225.055625 
L 120.622727 225.055625 
z
" style="fill:#0000ff;opacity:0.5;"/>
   </g>
   <g id="patch_8">
    <path clip-path="url(#p44c634a0b1)" d="M 138.089773 242.411549 
L 155.556818 242.411549 
L 155.556818 234.022852 
L 138.089773 234.022852 
z
" style="fill:#0000ff;opacity:0.5;"/>
   </g>
   <g id="patch_9">
    <path clip-path="url(#p44c634a0b1)" d="M 155.556818 242.411549 
L 173.023864 242.411549 
L 173.023864 228.816075 
L 155.556818 228.816075 
z
" style="fill:#0000ff;opacity:0.5;"/>
   </g>
   <g id="patch_10">
    <path clip-path="url(#p44c634a0b1)" d="M 173.023864 242.411549 
L 190.490909 242.411549 
L 190.490909 233.444322 
L 173.023864 233.444322 
z
" style="fill:#0000ff;opacity:0.5;"/>
   </g>
   <g id="patch_11">
    <path clip-path="url(#p44c634a0b1)" d="M 190.490909 242.411549 
L 207.957955 242.411549 
L 207.957955 234.890649 
L 190.490909 234.890649 
z
" style="fill:#0000ff;opacity:0.5;"/>
   </g>
   <g id="patch_12">
    <path clip-path="url(#p44c634a0b1)" d="M 207.957955 242.411549 
L 225.425 242.411549 
L 225.425 236.626241 
L 207.957955 236.626241 
z
" style="fill:#0000ff;opacity:0.5;"/>
   </g>
   <g id="patch_13">
    <path clip-path="url(#p44c634a0b1)" d="M 225.425 242.411549 
L 242.892045 242.411549 
L 242.892045 236.915507 
L 225.425 236.915507 
z
" style="fill:#0000ff;opacity:0.5;"/>
   </g>
   <g id="patch_14">
    <path clip-path="url(#p44c634a0b1)" d="M 242.892045 242.411549 
L 260.359091 242.411549 
L 260.359091 238.651099 
L 242.892045 238.651099 
z
" style="fill:#0000ff;opacity:0.5;"/>
   </g>
   <g id="patch_15">
    <path clip-path="url(#p44c634a0b1)" d="M 260.359091 242.411549 
L 277.826136 242.411549 
L 277.826136 237.783303 
L 260.359091 237.783303 
z
" style="fill:#0000ff;opacity:0.5;"/>
   </g>
   <g id="patch_16">
    <path clip-path="url(#p44c634a0b1)" d="M 277.826136 242.411549 
L 295.293182 242.411549 
L 295.293182 238.072568 
L 277.826136 238.072568 
z
" style="fill:#0000ff;opacity:0.5;"/>
   </g>
   <g id="patch_17">
    <path clip-path="url(#p44c634a0b1)" d="M 295.293182 242.411549 
L 312.760227 242.411549 
L 312.760227 240.965222 
L 295.293182 240.965222 
z
" style="fill:#0000ff;opacity:0.5;"/>
   </g>
   <g id="patch_18">
    <path clip-path="url(#p44c634a0b1)" d="M 312.760227 242.411549 
L 330.227273 242.411549 
L 330.227273 241.254488 
L 312.760227 241.254488 
z
" style="fill:#0000ff;opacity:0.5;"/>
   </g>
   <g id="patch_19">
    <path clip-path="url(#p44c634a0b1)" d="M 330.227273 242.411549 
L 347.694318 242.411549 
L 347.694318 240.675957 
L 330.227273 240.675957 
z
" style="fill:#0000ff;opacity:0.5;"/>
   </g>
   <g id="patch_20">
    <path clip-path="url(#p44c634a0b1)" d="M 347.694318 242.411549 
L 365.161364 242.411549 
L 365.161364 241.833019 
L 347.694318 241.833019 
z
" style="fill:#0000ff;opacity:0.5;"/>
   </g>
   <g id="patch_21">
    <path clip-path="url(#p44c634a0b1)" d="M 365.161364 242.411549 
L 382.628409 242.411549 
L 382.628409 241.833019 
L 365.161364 241.833019 
z
" style="fill:#0000ff;opacity:0.5;"/>
   </g>
   <g id="patch_22">
    <path clip-path="url(#p44c634a0b1)" d="M 382.628409 242.411549 
L 400.095455 242.411549 
L 400.095455 241.833019 
L 382.628409 241.833019 
z
" style="fill:#0000ff;opacity:0.5;"/>
   </g>
   <g id="patch_23">
    <path clip-path="url(#p44c634a0b1)" d="M 50.754545 242.411549 
L 66.958913 242.411549 
L 66.958913 29.512205 
L 50.754545 29.512205 
z
" style="fill:#800080;opacity:0.5;"/>
   </g>
   <g id="patch_24">
    <path clip-path="url(#p44c634a0b1)" d="M 66.958913 242.411549 
L 83.16328 242.411549 
L 83.16328 231.130198 
L 66.958913 231.130198 
z
" style="fill:#800080;opacity:0.5;"/>
   </g>
   <g id="patch_25">
    <path clip-path="url(#p44c634a0b1)" d="M 83.16328 242.411549 
L 99.367648 242.411549 
L 99.367648 235.469179 
L 83.16328 235.469179 
z
" style="fill:#800080;opacity:0.5;"/>
   </g>
   <g id="patch_26">
    <path clip-path="url(#p44c634a0b1)" d="M 99.367648 242.411549 
L 115.572015 242.411549 
L 115.572015 232.576525 
L 99.367648 232.576525 
z
" style="fill:#800080;opacity:0.5;"/>
   </g>
   <g id="patch_27">
    <path clip-path="url(#p44c634a0b1)" d="M 115.572015 242.411549 
L 131.776383 242.411549 
L 131.776383 234.022852 
L 115.572015 234.022852 
z
" style="fill:#800080;opacity:0.5;"/>
   </g>
   <g id="patch_28">
    <path clip-path="url(#p44c634a0b1)" d="M 131.776383 242.411549 
L 147.98075 242.411549 
L 147.98075 236.626241 
L 131.776383 236.626241 
z
" style="fill:#800080;opacity:0.5;"/>
   </g>
   <g id="patch_29">
    <path clip-path="url(#p44c634a0b1)" d="M 147.98075 242.411549 
L 164.185118 242.411549 
L 164.185118 238.072568 
L 147.98075 238.072568 
z
" style="fill:#800080;opacity:0.5;"/>
   </g>
   <g id="patch_30">
    <path clip-path="url(#p44c634a0b1)" d="M 164.185118 242.411549 
L 180.389485 242.411549 
L 180.389485 237.494037 
L 164.185118 237.494037 
z
" style="fill:#800080;opacity:0.5;"/>
   </g>
   <g id="patch_31">
    <path clip-path="url(#p44c634a0b1)" d="M 180.389485 242.411549 
L 196.593853 242.411549 
L 196.593853 238.940364 
L 180.389485 238.940364 
z
" style="fill:#800080;opacity:0.5;"/>
   </g>
   <g id="patch_32">
    <path clip-path="url(#p44c634a0b1)" d="M 196.593853 242.411549 
L 212.79822 242.411549 
L 212.79822 237.783303 
L 196.593853 237.783303 
z
" style="fill:#800080;opacity:0.5;"/>
   </g>
   <g id="patch_33">
    <path clip-path="url(#p44c634a0b1)" d="M 212.79822 242.411549 
L 229.002588 242.411549 
L 229.002588 239.518895 
L 212.79822 239.518895 
z
" style="fill:#800080;opacity:0.5;"/>
   </g>
   <g id="patch_34">
    <path clip-path="url(#p44c634a0b1)" d="M 229.002588 242.411549 
L 245.206955 242.411549 
L 245.206955 239.808161 
L 229.002588 239.808161 
z
" style="fill:#800080;opacity:0.5;"/>
   </g>
   <g id="patch_35">
    <path clip-path="url(#p44c634a0b1)" d="M 245.206955 242.411549 
L 261.411323 242.411549 
L 261.411323 240.675957 
L 245.206955 240.675957 
z
" style="fill:#800080;opacity:0.5;"/>
   </g>
   <g id="patch_36">
    <path clip-path="url(#p44c634a0b1)" d="M 261.411323 242.411549 
L 277.61569 242.411549 
L 277.61569 240.675957 
L 261.411323 240.675957 
z
" style="fill:#800080;opacity:0.5;"/>
   </g>
   <g id="patch_37">
    <path clip-path="url(#p44c634a0b1)" d="M 277.61569 242.411549 
L 293.820058 242.411549 
L 293.820058 240.675957 
L 277.61569 240.675957 
z
" style="fill:#800080;opacity:0.5;"/>
   </g>
   <g id="patch_38">
    <path clip-path="url(#p44c634a0b1)" d="M 293.820058 242.411549 
L 310.024425 242.411549 
L 310.024425 240.386691 
L 293.820058 240.386691 
z
" style="fill:#800080;opacity:0.5;"/>
   </g>
   <g id="patch_39">
    <path clip-path="url(#p44c634a0b1)" d="M 310.024425 242.411549 
L 326.228792 242.411549 
L 326.228792 240.965222 
L 310.024425 240.965222 
z
" style="fill:#800080;opacity:0.5;"/>
   </g>
   <g id="patch_40">
    <path clip-path="url(#p44c634a0b1)" d="M 326.228792 242.411549 
L 342.43316 242.411549 
L 342.43316 241.254488 
L 326.228792 241.254488 
z
" style="fill:#800080;opacity:0.5;"/>
   </g>
   <g id="patch_41">
    <path clip-path="url(#p44c634a0b1)" d="M 342.43316 242.411549 
L 358.637527 242.411549 
L 358.637527 241.543753 
L 342.43316 241.543753 
z
" style="fill:#800080;opacity:0.5;"/>
   </g>
   <g id="patch_42">
    <path clip-path="url(#p44c634a0b1)" d="M 358.637527 242.411549 
L 374.841895 242.411549 
L 374.841895 241.833019 
L 358.637527 241.833019 
z
" style="fill:#800080;opacity:0.5;"/>
   </g>
   <g id="patch_43">
    <path clip-path="url(#p44c634a0b1)" d="M 50.754545 242.411549 
L 66.958913 242.411549 
L 66.958913 21.123508 
L 50.754545 21.123508 
z
" style="fill:#808080;opacity:0.5;"/>
   </g>
   <g id="patch_44">
    <path clip-path="url(#p44c634a0b1)" d="M 66.958913 242.411549 
L 83.16328 242.411549 
L 83.16328 229.973137 
L 66.958913 229.973137 
z
" style="fill:#808080;opacity:0.5;"/>
   </g>
   <g id="patch_45">
    <path clip-path="url(#p44c634a0b1)" d="M 83.16328 242.411549 
L 99.367648 242.411549 
L 99.367648 231.997994 
L 83.16328 231.997994 
z
" style="fill:#808080;opacity:0.5;"/>
   </g>
   <g id="patch_46">
    <path clip-path="url(#p44c634a0b1)" d="M 99.367648 242.411549 
L 115.572015 242.411549 
L 115.572015 235.179914 
L 99.367648 235.179914 
z
" style="fill:#808080;opacity:0.5;"/>
   </g>
   <g id="patch_47">
    <path clip-path="url(#p44c634a0b1)" d="M 115.572015 242.411549 
L 131.776383 242.411549 
L 131.776383 235.758445 
L 115.572015 235.758445 
z
" style="fill:#808080;opacity:0.5;"/>
   </g>
   <g id="patch_48">
    <path clip-path="url(#p44c634a0b1)" d="M 131.776383 242.411549 
L 147.98075 242.411549 
L 147.98075 235.179914 
L 131.776383 235.179914 
z
" style="fill:#808080;opacity:0.5;"/>
   </g>
   <g id="patch_49">
    <path clip-path="url(#p44c634a0b1)" d="M 147.98075 242.411549 
L 164.185118 242.411549 
L 164.185118 238.940364 
L 147.98075 238.940364 
z
" style="fill:#808080;opacity:0.5;"/>
   </g>
   <g id="patch_50">
    <path clip-path="url(#p44c634a0b1)" d="M 164.185118 242.411549 
L 180.389485 242.411549 
L 180.389485 239.22963 
L 164.185118 239.22963 
z
" style="fill:#808080;opacity:0.5;"/>
   </g>
   <g id="patch_51">
    <path clip-path="url(#p44c634a0b1)" d="M 180.389485 242.411549 
L 196.593853 242.411549 
L 196.593853 239.22963 
L 180.389485 239.22963 
z
" style="fill:#808080;opacity:0.5;"/>
   </g>
   <g id="patch_52">
    <path clip-path="url(#p44c634a0b1)" d="M 196.593853 242.411549 
L 212.79822 242.411549 
L 212.79822 238.651099 
L 196.593853 238.651099 
z
" style="fill:#808080;opacity:0.5;"/>
   </g>
   <g id="patch_53">
    <path clip-path="url(#p44c634a0b1)" d="M 212.79822 242.411549 
L 229.002588 242.411549 
L 229.002588 239.518895 
L 212.79822 239.518895 
z
" style="fill:#808080;opacity:0.5;"/>
   </g>
   <g id="patch_54">
    <path clip-path="url(#p44c634a0b1)" d="M 229.002588 242.411549 
L 245.206955 242.411549 
L 245.206955 240.386691 
L 229.002588 240.386691 
z
" style="fill:#808080;opacity:0.5;"/>
   </g>
   <g id="patch_55">
    <path clip-path="url(#p44c634a0b1)" d="M 245.206955 242.411549 
L 261.411323 242.411549 
L 261.411323 240.965222 
L 245.206955 240.965222 
z
" style="fill:#808080;opacity:0.5;"/>
   </g>
   <g id="patch_56">
    <path clip-path="url(#p44c634a0b1)" d="M 261.411323 242.411549 
L 277.61569 242.411549 
L 277.61569 241.543753 
L 261.411323 241.543753 
z
" style="fill:#808080;opacity:0.5;"/>
   </g>
   <g id="patch_57">
    <path clip-path="url(#p44c634a0b1)" d="M 277.61569 242.411549 
L 293.820058 242.411549 
L 293.820058 241.254488 
L 277.61569 241.254488 
z
" style="fill:#808080;opacity:0.5;"/>
   </g>
   <g id="patch_58">
    <path clip-path="url(#p44c634a0b1)" d="M 293.820058 242.411549 
L 310.024425 242.411549 
L 310.024425 241.833019 
L 293.820058 241.833019 
z
" style="fill:#808080;opacity:0.5;"/>
   </g>
   <g id="patch_59">
    <path clip-path="url(#p44c634a0b1)" d="M 310.024425 242.411549 
L 326.228792 242.411549 
L 326.228792 242.122284 
L 310.024425 242.122284 
z
" style="fill:#808080;opacity:0.5;"/>
   </g>
   <g id="patch_60">
    <path clip-path="url(#p44c634a0b1)" d="M 326.228792 242.411549 
L 342.43316 242.411549 
L 342.43316 241.543753 
L 326.228792 241.543753 
z
" style="fill:#808080;opacity:0.5;"/>
   </g>
   <g id="patch_61">
    <path clip-path="url(#p44c634a0b1)" d="M 342.43316 242.411549 
L 358.637527 242.411549 
L 358.637527 242.411549 
L 342.43316 242.411549 
z
" style="fill:#808080;opacity:0.5;"/>
   </g>
   <g id="patch_62">
    <path clip-path="url(#p44c634a0b1)" d="M 358.637527 242.411549 
L 374.841895 242.411549 
L 374.841895 242.122284 
L 358.637527 242.122284 
z
" style="fill:#808080;opacity:0.5;"/>
   </g>
   <g id="matplotlib.axis_1">
    <g id="xtick_1">
     <g id="line2d_1">
      <defs>
       <path d="M 0 0 
L 0 3.5 
" id="maf2c46e197" style="stroke:#000000;stroke-width:0.8;"/>
      </defs>
      <g>
       <use style="stroke:#000000;stroke-width:0.8;" x="50.754545" xlink:href="#maf2c46e197" y="242.411549"/>
      </g>
     </g>
     <g id="text_1">
      <!-- 0 -->
      <defs>
       <path d="M 31.78125 66.40625 
Q 24.171875 66.40625 20.328125 58.90625 
Q 16.5 51.421875 16.5 36.375 
Q 16.5 21.390625 20.328125 13.890625 
Q 24.171875 6.390625 31.78125 6.390625 
Q 39.453125 6.390625 43.28125 13.890625 
Q 47.125 21.390625 47.125 36.375 
Q 47.125 51.421875 43.28125 58.90625 
Q 39.453125 66.40625 31.78125 66.40625 
z
M 31.78125 74.21875 
Q 44.046875 74.21875 50.515625 64.515625 
Q 56.984375 54.828125 56.984375 36.375 
Q 56.984375 17.96875 50.515625 8.265625 
Q 44.046875 -1.421875 31.78125 -1.421875 
Q 19.53125 -1.421875 13.0625 8.265625 
Q 6.59375 17.96875 6.59375 36.375 
Q 6.59375 54.828125 13.0625 64.515625 
Q 19.53125 74.21875 31.78125 74.21875 
z
" id="DejaVuSans-48"/>
      </defs>
      <g transform="translate(47.573295 257.009987)scale(0.1 -0.1)">
       <use xlink:href="#DejaVuSans-48"/>
      </g>
     </g>
    </g>
    <g id="xtick_2">
     <g id="line2d_2">
      <g>
       <use style="stroke:#000000;stroke-width:0.8;" x="134.091292" xlink:href="#maf2c46e197" y="242.411549"/>
      </g>
     </g>
     <g id="text_2">
      <!-- 2 -->
      <defs>
       <path d="M 19.1875 8.296875 
L 53.609375 8.296875 
L 53.609375 0 
L 7.328125 0 
L 7.328125 8.296875 
Q 12.9375 14.109375 22.625 23.890625 
Q 32.328125 33.6875 34.8125 36.53125 
Q 39.546875 41.84375 41.421875 45.53125 
Q 43.3125 49.21875 43.3125 52.78125 
Q 43.3125 58.59375 39.234375 62.25 
Q 35.15625 65.921875 28.609375 65.921875 
Q 23.96875 65.921875 18.8125 64.3125 
Q 13.671875 62.703125 7.8125 59.421875 
L 7.8125 69.390625 
Q 13.765625 71.78125 18.9375 73 
Q 24.125 74.21875 28.421875 74.21875 
Q 39.75 74.21875 46.484375 68.546875 
Q 53.21875 62.890625 53.21875 53.421875 
Q 53.21875 48.921875 51.53125 44.890625 
Q 49.859375 40.875 45.40625 35.40625 
Q 44.1875 33.984375 37.640625 27.21875 
Q 31.109375 20.453125 19.1875 8.296875 
z
" id="DejaVuSans-50"/>
      </defs>
      <g transform="translate(130.910042 257.009987)scale(0.1 -0.1)">
       <use xlink:href="#DejaVuSans-50"/>
      </g>
     </g>
    </g>
    <g id="xtick_3">
     <g id="line2d_3">
      <g>
       <use style="stroke:#000000;stroke-width:0.8;" x="217.428039" xlink:href="#maf2c46e197" y="242.411549"/>
      </g>
     </g>
     <g id="text_3">
      <!-- 4 -->
      <defs>
       <path d="M 37.796875 64.3125 
L 12.890625 25.390625 
L 37.796875 25.390625 
z
M 35.203125 72.90625 
L 47.609375 72.90625 
L 47.609375 25.390625 
L 58.015625 25.390625 
L 58.015625 17.1875 
L 47.609375 17.1875 
L 47.609375 0 
L 37.796875 0 
L 37.796875 17.1875 
L 4.890625 17.1875 
L 4.890625 26.703125 
z
" id="DejaVuSans-52"/>
      </defs>
      <g transform="translate(214.246789 257.009987)scale(0.1 -0.1)">
       <use xlink:href="#DejaVuSans-52"/>
      </g>
     </g>
    </g>
    <g id="xtick_4">
     <g id="line2d_4">
      <g>
       <use style="stroke:#000000;stroke-width:0.8;" x="300.764786" xlink:href="#maf2c46e197" y="242.411549"/>
      </g>
     </g>
     <g id="text_4">
      <!-- 6 -->
      <defs>
       <path d="M 33.015625 40.375 
Q 26.375 40.375 22.484375 35.828125 
Q 18.609375 31.296875 18.609375 23.390625 
Q 18.609375 15.53125 22.484375 10.953125 
Q 26.375 6.390625 33.015625 6.390625 
Q 39.65625 6.390625 43.53125 10.953125 
Q 47.40625 15.53125 47.40625 23.390625 
Q 47.40625 31.296875 43.53125 35.828125 
Q 39.65625 40.375 33.015625 40.375 
z
M 52.59375 71.296875 
L 52.59375 62.3125 
Q 48.875 64.0625 45.09375 64.984375 
Q 41.3125 65.921875 37.59375 65.921875 
Q 27.828125 65.921875 22.671875 59.328125 
Q 17.53125 52.734375 16.796875 39.40625 
Q 19.671875 43.65625 24.015625 45.921875 
Q 28.375 48.1875 33.59375 48.1875 
Q 44.578125 48.1875 50.953125 41.515625 
Q 57.328125 34.859375 57.328125 23.390625 
Q 57.328125 12.15625 50.6875 5.359375 
Q 44.046875 -1.421875 33.015625 -1.421875 
Q 20.359375 -1.421875 13.671875 8.265625 
Q 6.984375 17.96875 6.984375 36.375 
Q 6.984375 53.65625 15.1875 63.9375 
Q 23.390625 74.21875 37.203125 74.21875 
Q 40.921875 74.21875 44.703125 73.484375 
Q 48.484375 72.75 52.59375 71.296875 
z
" id="DejaVuSans-54"/>
      </defs>
      <g transform="translate(297.583536 257.009987)scale(0.1 -0.1)">
       <use xlink:href="#DejaVuSans-54"/>
      </g>
     </g>
    </g>
    <g id="xtick_5">
     <g id="line2d_5">
      <g>
       <use style="stroke:#000000;stroke-width:0.8;" x="384.101533" xlink:href="#maf2c46e197" y="242.411549"/>
      </g>
     </g>
     <g id="text_5">
      <!-- 8 -->
      <defs>
       <path d="M 31.78125 34.625 
Q 24.75 34.625 20.71875 30.859375 
Q 16.703125 27.09375 16.703125 20.515625 
Q 16.703125 13.921875 20.71875 10.15625 
Q 24.75 6.390625 31.78125 6.390625 
Q 38.8125 6.390625 42.859375 10.171875 
Q 46.921875 13.96875 46.921875 20.515625 
Q 46.921875 27.09375 42.890625 30.859375 
Q 38.875 34.625 31.78125 34.625 
z
M 21.921875 38.8125 
Q 15.578125 40.375 12.03125 44.71875 
Q 8.5 49.078125 8.5 55.328125 
Q 8.5 64.0625 14.71875 69.140625 
Q 20.953125 74.21875 31.78125 74.21875 
Q 42.671875 74.21875 48.875 69.140625 
Q 55.078125 64.0625 55.078125 55.328125 
Q 55.078125 49.078125 51.53125 44.71875 
Q 48 40.375 41.703125 38.8125 
Q 48.828125 37.15625 52.796875 32.3125 
Q 56.78125 27.484375 56.78125 20.515625 
Q 56.78125 9.90625 50.3125 4.234375 
Q 43.84375 -1.421875 31.78125 -1.421875 
Q 19.734375 -1.421875 13.25 4.234375 
Q 6.78125 9.90625 6.78125 20.515625 
Q 6.78125 27.484375 10.78125 32.3125 
Q 14.796875 37.15625 21.921875 38.8125 
z
M 18.3125 54.390625 
Q 18.3125 48.734375 21.84375 45.5625 
Q 25.390625 42.390625 31.78125 42.390625 
Q 38.140625 42.390625 41.71875 45.5625 
Q 45.3125 48.734375 45.3125 54.390625 
Q 45.3125 60.0625 41.71875 63.234375 
Q 38.140625 66.40625 31.78125 66.40625 
Q 25.390625 66.40625 21.84375 63.234375 
Q 18.3125 60.0625 18.3125 54.390625 
z
" id="DejaVuSans-56"/>
      </defs>
      <g transform="translate(380.920283 257.009987)scale(0.1 -0.1)">
       <use xlink:href="#DejaVuSans-56"/>
      </g>
     </g>
    </g>
    <g id="text_6">
     <!-- Score -->
     <defs>
      <path d="M 53.515625 70.515625 
L 53.515625 60.890625 
Q 47.90625 63.578125 42.921875 64.890625 
Q 37.9375 66.21875 33.296875 66.21875 
Q 25.25 66.21875 20.875 63.09375 
Q 16.5 59.96875 16.5 54.203125 
Q 16.5 49.359375 19.40625 46.890625 
Q 22.3125 44.4375 30.421875 42.921875 
L 36.375 41.703125 
Q 47.40625 39.59375 52.65625 34.296875 
Q 57.90625 29 57.90625 20.125 
Q 57.90625 9.515625 50.796875 4.046875 
Q 43.703125 -1.421875 29.984375 -1.421875 
Q 24.8125 -1.421875 18.96875 -0.25 
Q 13.140625 0.921875 6.890625 3.21875 
L 6.890625 13.375 
Q 12.890625 10.015625 18.65625 8.296875 
Q 24.421875 6.59375 29.984375 6.59375 
Q 38.421875 6.59375 43.015625 9.90625 
Q 47.609375 13.234375 47.609375 19.390625 
Q 47.609375 24.75 44.3125 27.78125 
Q 41.015625 30.8125 33.5 32.328125 
L 27.484375 33.5 
Q 16.453125 35.6875 11.515625 40.375 
Q 6.59375 45.0625 6.59375 53.421875 
Q 6.59375 63.09375 13.40625 68.65625 
Q 20.21875 74.21875 32.171875 74.21875 
Q 37.3125 74.21875 42.625 73.28125 
Q 47.953125 72.359375 53.515625 70.515625 
z
" id="DejaVuSans-83"/>
      <path d="M 48.78125 52.59375 
L 48.78125 44.1875 
Q 44.96875 46.296875 41.140625 47.34375 
Q 37.3125 48.390625 33.40625 48.390625 
Q 24.65625 48.390625 19.8125 42.84375 
Q 14.984375 37.3125 14.984375 27.296875 
Q 14.984375 17.28125 19.8125 11.734375 
Q 24.65625 6.203125 33.40625 6.203125 
Q 37.3125 6.203125 41.140625 7.25 
Q 44.96875 8.296875 48.78125 10.40625 
L 48.78125 2.09375 
Q 45.015625 0.34375 40.984375 -0.53125 
Q 36.96875 -1.421875 32.421875 -1.421875 
Q 20.0625 -1.421875 12.78125 6.34375 
Q 5.515625 14.109375 5.515625 27.296875 
Q 5.515625 40.671875 12.859375 48.328125 
Q 20.21875 56 33.015625 56 
Q 37.15625 56 41.109375 55.140625 
Q 45.0625 54.296875 48.78125 52.59375 
z
" id="DejaVuSans-99"/>
      <path d="M 30.609375 48.390625 
Q 23.390625 48.390625 19.1875 42.75 
Q 14.984375 37.109375 14.984375 27.296875 
Q 14.984375 17.484375 19.15625 11.84375 
Q 23.34375 6.203125 30.609375 6.203125 
Q 37.796875 6.203125 41.984375 11.859375 
Q 46.1875 17.53125 46.1875 27.296875 
Q 46.1875 37.015625 41.984375 42.703125 
Q 37.796875 48.390625 30.609375 48.390625 
z
M 30.609375 56 
Q 42.328125 56 49.015625 48.375 
Q 55.71875 40.765625 55.71875 27.296875 
Q 55.71875 13.875 49.015625 6.21875 
Q 42.328125 -1.421875 30.609375 -1.421875 
Q 18.84375 -1.421875 12.171875 6.21875 
Q 5.515625 13.875 5.515625 27.296875 
Q 5.515625 40.765625 12.171875 48.375 
Q 18.84375 56 30.609375 56 
z
" id="DejaVuSans-111"/>
      <path d="M 41.109375 46.296875 
Q 39.59375 47.171875 37.8125 47.578125 
Q 36.03125 48 33.890625 48 
Q 26.265625 48 22.1875 43.046875 
Q 18.109375 38.09375 18.109375 28.8125 
L 18.109375 0 
L 9.078125 0 
L 9.078125 54.6875 
L 18.109375 54.6875 
L 18.109375 46.1875 
Q 20.953125 51.171875 25.484375 53.578125 
Q 30.03125 56 36.53125 56 
Q 37.453125 56 38.578125 55.875 
Q 39.703125 55.765625 41.0625 55.515625 
z
" id="DejaVuSans-114"/>
      <path d="M 56.203125 29.59375 
L 56.203125 25.203125 
L 14.890625 25.203125 
Q 15.484375 15.921875 20.484375 11.0625 
Q 25.484375 6.203125 34.421875 6.203125 
Q 39.59375 6.203125 44.453125 7.46875 
Q 49.3125 8.734375 54.109375 11.28125 
L 54.109375 2.78125 
Q 49.265625 0.734375 44.1875 -0.34375 
Q 39.109375 -1.421875 33.890625 -1.421875 
Q 20.796875 -1.421875 13.15625 6.1875 
Q 5.515625 13.8125 5.515625 26.8125 
Q 5.515625 40.234375 12.765625 48.109375 
Q 20.015625 56 32.328125 56 
Q 43.359375 56 49.78125 48.890625 
Q 56.203125 41.796875 56.203125 29.59375 
z
M 47.21875 32.234375 
Q 47.125 39.59375 43.09375 43.984375 
Q 39.0625 48.390625 32.421875 48.390625 
Q 24.90625 48.390625 20.390625 44.140625 
Q 15.875 39.890625 15.1875 32.171875 
z
" id="DejaVuSans-101"/>
     </defs>
     <g transform="translate(211.311719 270.688112)scale(0.1 -0.1)">
      <use xlink:href="#DejaVuSans-83"/>
      <use x="63.476562" xlink:href="#DejaVuSans-99"/>
      <use x="118.457031" xlink:href="#DejaVuSans-111"/>
      <use x="179.638672" xlink:href="#DejaVuSans-114"/>
      <use x="220.720703" xlink:href="#DejaVuSans-101"/>
     </g>
    </g>
   </g>
   <g id="matplotlib.axis_2">
    <g id="ytick_1">
     <g id="line2d_6">
      <defs>
       <path d="M 0 0 
L -3.5 0 
" id="m5980f0e283" style="stroke:#000000;stroke-width:0.8;"/>
      </defs>
      <g>
       <use style="stroke:#000000;stroke-width:0.8;" x="33.2875" xlink:href="#m5980f0e283" y="242.411549"/>
      </g>
     </g>
     <g id="text_7">
      <!-- 0 -->
      <g transform="translate(19.925 246.210768)scale(0.1 -0.1)">
       <use xlink:href="#DejaVuSans-48"/>
      </g>
     </g>
    </g>
    <g id="ytick_2">
     <g id="line2d_7">
      <g>
       <use style="stroke:#000000;stroke-width:0.8;" x="33.2875" xlink:href="#m5980f0e283" y="213.485008"/>
      </g>
     </g>
     <g id="text_8">
      <!-- 100 -->
      <defs>
       <path d="M 12.40625 8.296875 
L 28.515625 8.296875 
L 28.515625 63.921875 
L 10.984375 60.40625 
L 10.984375 69.390625 
L 28.421875 72.90625 
L 38.28125 72.90625 
L 38.28125 8.296875 
L 54.390625 8.296875 
L 54.390625 0 
L 12.40625 0 
z
" id="DejaVuSans-49"/>
      </defs>
      <g transform="translate(7.2 217.284227)scale(0.1 -0.1)">
       <use xlink:href="#DejaVuSans-49"/>
       <use x="63.623047" xlink:href="#DejaVuSans-48"/>
       <use x="127.246094" xlink:href="#DejaVuSans-48"/>
      </g>
     </g>
    </g>
    <g id="ytick_3">
     <g id="line2d_8">
      <g>
       <use style="stroke:#000000;stroke-width:0.8;" x="33.2875" xlink:href="#m5980f0e283" y="184.558467"/>
      </g>
     </g>
     <g id="text_9">
      <!-- 200 -->
      <g transform="translate(7.2 188.357685)scale(0.1 -0.1)">
       <use xlink:href="#DejaVuSans-50"/>
       <use x="63.623047" xlink:href="#DejaVuSans-48"/>
       <use x="127.246094" xlink:href="#DejaVuSans-48"/>
      </g>
     </g>
    </g>
    <g id="ytick_4">
     <g id="line2d_9">
      <g>
       <use style="stroke:#000000;stroke-width:0.8;" x="33.2875" xlink:href="#m5980f0e283" y="155.631925"/>
      </g>
     </g>
     <g id="text_10">
      <!-- 300 -->
      <defs>
       <path d="M 40.578125 39.3125 
Q 47.65625 37.796875 51.625 33 
Q 55.609375 28.21875 55.609375 21.1875 
Q 55.609375 10.40625 48.1875 4.484375 
Q 40.765625 -1.421875 27.09375 -1.421875 
Q 22.515625 -1.421875 17.65625 -0.515625 
Q 12.796875 0.390625 7.625 2.203125 
L 7.625 11.71875 
Q 11.71875 9.328125 16.59375 8.109375 
Q 21.484375 6.890625 26.8125 6.890625 
Q 36.078125 6.890625 40.9375 10.546875 
Q 45.796875 14.203125 45.796875 21.1875 
Q 45.796875 27.640625 41.28125 31.265625 
Q 36.765625 34.90625 28.71875 34.90625 
L 20.21875 34.90625 
L 20.21875 43.015625 
L 29.109375 43.015625 
Q 36.375 43.015625 40.234375 45.921875 
Q 44.09375 48.828125 44.09375 54.296875 
Q 44.09375 59.90625 40.109375 62.90625 
Q 36.140625 65.921875 28.71875 65.921875 
Q 24.65625 65.921875 20.015625 65.03125 
Q 15.375 64.15625 9.8125 62.3125 
L 9.8125 71.09375 
Q 15.4375 72.65625 20.34375 73.4375 
Q 25.25 74.21875 29.59375 74.21875 
Q 40.828125 74.21875 47.359375 69.109375 
Q 53.90625 64.015625 53.90625 55.328125 
Q 53.90625 49.265625 50.4375 45.09375 
Q 46.96875 40.921875 40.578125 39.3125 
z
" id="DejaVuSans-51"/>
      </defs>
      <g transform="translate(7.2 159.431144)scale(0.1 -0.1)">
       <use xlink:href="#DejaVuSans-51"/>
       <use x="63.623047" xlink:href="#DejaVuSans-48"/>
       <use x="127.246094" xlink:href="#DejaVuSans-48"/>
      </g>
     </g>
    </g>
    <g id="ytick_5">
     <g id="line2d_10">
      <g>
       <use style="stroke:#000000;stroke-width:0.8;" x="33.2875" xlink:href="#m5980f0e283" y="126.705384"/>
      </g>
     </g>
     <g id="text_11">
      <!-- 400 -->
      <g transform="translate(7.2 130.504603)scale(0.1 -0.1)">
       <use xlink:href="#DejaVuSans-52"/>
       <use x="63.623047" xlink:href="#DejaVuSans-48"/>
       <use x="127.246094" xlink:href="#DejaVuSans-48"/>
      </g>
     </g>
    </g>
    <g id="ytick_6">
     <g id="line2d_11">
      <g>
       <use style="stroke:#000000;stroke-width:0.8;" x="33.2875" xlink:href="#m5980f0e283" y="97.778843"/>
      </g>
     </g>
     <g id="text_12">
      <!-- 500 -->
      <defs>
       <path d="M 10.796875 72.90625 
L 49.515625 72.90625 
L 49.515625 64.59375 
L 19.828125 64.59375 
L 19.828125 46.734375 
Q 21.96875 47.46875 24.109375 47.828125 
Q 26.265625 48.1875 28.421875 48.1875 
Q 40.625 48.1875 47.75 41.5 
Q 54.890625 34.8125 54.890625 23.390625 
Q 54.890625 11.625 47.5625 5.09375 
Q 40.234375 -1.421875 26.90625 -1.421875 
Q 22.3125 -1.421875 17.546875 -0.640625 
Q 12.796875 0.140625 7.71875 1.703125 
L 7.71875 11.625 
Q 12.109375 9.234375 16.796875 8.0625 
Q 21.484375 6.890625 26.703125 6.890625 
Q 35.15625 6.890625 40.078125 11.328125 
Q 45.015625 15.765625 45.015625 23.390625 
Q 45.015625 31 40.078125 35.4375 
Q 35.15625 39.890625 26.703125 39.890625 
Q 22.75 39.890625 18.8125 39.015625 
Q 14.890625 38.140625 10.796875 36.28125 
z
" id="DejaVuSans-53"/>
      </defs>
      <g transform="translate(7.2 101.578061)scale(0.1 -0.1)">
       <use xlink:href="#DejaVuSans-53"/>
       <use x="63.623047" xlink:href="#DejaVuSans-48"/>
       <use x="127.246094" xlink:href="#DejaVuSans-48"/>
      </g>
     </g>
    </g>
    <g id="ytick_7">
     <g id="line2d_12">
      <g>
       <use style="stroke:#000000;stroke-width:0.8;" x="33.2875" xlink:href="#m5980f0e283" y="68.852301"/>
      </g>
     </g>
     <g id="text_13">
      <!-- 600 -->
      <g transform="translate(7.2 72.65152)scale(0.1 -0.1)">
       <use xlink:href="#DejaVuSans-54"/>
       <use x="63.623047" xlink:href="#DejaVuSans-48"/>
       <use x="127.246094" xlink:href="#DejaVuSans-48"/>
      </g>
     </g>
    </g>
    <g id="ytick_8">
     <g id="line2d_13">
      <g>
       <use style="stroke:#000000;stroke-width:0.8;" x="33.2875" xlink:href="#m5980f0e283" y="39.92576"/>
      </g>
     </g>
     <g id="text_14">
      <!-- 700 -->
      <defs>
       <path d="M 8.203125 72.90625 
L 55.078125 72.90625 
L 55.078125 68.703125 
L 28.609375 0 
L 18.3125 0 
L 43.21875 64.59375 
L 8.203125 64.59375 
z
" id="DejaVuSans-55"/>
      </defs>
      <g transform="translate(7.2 43.724979)scale(0.1 -0.1)">
       <use xlink:href="#DejaVuSans-55"/>
       <use x="63.623047" xlink:href="#DejaVuSans-48"/>
       <use x="127.246094" xlink:href="#DejaVuSans-48"/>
      </g>
     </g>
    </g>
    <g id="ytick_9">
     <g id="line2d_14">
      <g>
       <use style="stroke:#000000;stroke-width:0.8;" x="33.2875" xlink:href="#m5980f0e283" y="10.999219"/>
      </g>
     </g>
     <g id="text_15">
      <!-- 800 -->
      <g transform="translate(7.2 14.798437)scale(0.1 -0.1)">
       <use xlink:href="#DejaVuSans-56"/>
       <use x="63.623047" xlink:href="#DejaVuSans-48"/>
       <use x="127.246094" xlink:href="#DejaVuSans-48"/>
      </g>
     </g>
    </g>
   </g>
   <g id="patch_63">
    <path d="M 33.2875 242.411549 
L 33.2875 10.059106 
" style="fill:none;stroke:#000000;stroke-linecap:square;stroke-linejoin:miter;stroke-width:0.8;"/>
   </g>
   <g id="patch_64">
    <path d="M 33.2875 242.411549 
L 417.5625 242.411549 
" style="fill:none;stroke:#000000;stroke-linecap:square;stroke-linejoin:miter;stroke-width:0.8;"/>
   </g>
   <g id="legend_1">
    <g id="patch_65">
     <path d="M 362.659375 62.093481 
L 410.5625 62.093481 
Q 412.5625 62.093481 412.5625 60.093481 
L 412.5625 17.059106 
Q 412.5625 15.059106 410.5625 15.059106 
L 362.659375 15.059106 
Q 360.659375 15.059106 360.659375 17.059106 
L 360.659375 60.093481 
Q 360.659375 62.093481 362.659375 62.093481 
z
" style="fill:#ffffff;opacity:0.8;stroke:#cccccc;stroke-linejoin:miter;"/>
    </g>
    <g id="patch_66">
     <path d="M 364.659375 26.657544 
L 384.659375 26.657544 
L 384.659375 19.657544 
L 364.659375 19.657544 
z
" style="fill:#0000ff;opacity:0.5;"/>
    </g>
    <g id="text_16">
     <!-- 1.5 -->
     <defs>
      <path d="M 10.6875 12.40625 
L 21 12.40625 
L 21 0 
L 10.6875 0 
z
" id="DejaVuSans-46"/>
     </defs>
     <g transform="translate(392.659375 26.657544)scale(0.1 -0.1)">
      <use xlink:href="#DejaVuSans-49"/>
      <use x="63.623047" xlink:href="#DejaVuSans-46"/>
      <use x="95.410156" xlink:href="#DejaVuSans-53"/>
     </g>
    </g>
    <g id="patch_67">
     <path d="M 364.659375 41.335669 
L 384.659375 41.335669 
L 384.659375 34.335669 
L 364.659375 34.335669 
z
" style="fill:#800080;opacity:0.5;"/>
    </g>
    <g id="text_17">
     <!-- 2.0 -->
     <g transform="translate(392.659375 41.335669)scale(0.1 -0.1)">
      <use xlink:href="#DejaVuSans-50"/>
      <use x="63.623047" xlink:href="#DejaVuSans-46"/>
      <use x="95.410156" xlink:href="#DejaVuSans-48"/>
     </g>
    </g>
    <g id="patch_68">
     <path d="M 364.659375 56.013794 
L 384.659375 56.013794 
L 384.659375 49.013794 
L 364.659375 49.013794 
z
" style="fill:#808080;opacity:0.5;"/>
    </g>
    <g id="text_18">
     <!-- 2.5 -->
     <g transform="translate(392.659375 56.013794)scale(0.1 -0.1)">
      <use xlink:href="#DejaVuSans-50"/>
      <use x="63.623047" xlink:href="#DejaVuSans-46"/>
      <use x="95.410156" xlink:href="#DejaVuSans-53"/>
     </g>
    </g>
   </g>
  </g>
 </g>
 <defs>
  <clipPath id="p44c634a0b1">
   <rect height="232.352443" width="384.275" x="33.2875" y="10.059106"/>
  </clipPath>
 </defs>
</svg>