<?xml version="1.0" encoding="utf-8" standalone="no"?>
<!DOCTYPE svg PUBLIC "-//W3C//DTD SVG 1.1//EN"
  "http://www.w3.org/Graphics/SVG/1.1/DTD/svg11.dtd">
<!-- Created with matplotlib (https://matplotlib.org/) -->
<svg height="207.83625pt" version="1.1" viewBox="0 0 307.925 207.83625" width="307.925pt" xmlns="http://www.w3.org/2000/svg" xmlns:xlink="http://www.w3.org/1999/xlink">
 <defs>
  <style type="text/css">
*{stroke-linecap:butt;stroke-linejoin:round;}
  </style>
 </defs>
 <g id="figure_1">
  <g id="patch_1">
   <path d="M 0 207.83625 
L 307.925 207.83625 
L 307.925 0 
L 0 0 
z
" style="fill:none;"/>
  </g>
  <g id="axes_1">
   <g id="patch_2">
    <path d="M 45.478125 170.28 
L 212.878125 170.28 
L 212.878125 7.2 
L 45.478125 7.2 
z
" style="fill:#ffffff;"/>
   </g>
   <g id="patch_3">
    <path clip-path="url(#p8ac438c69c)" d="M 53.087216 143463.029537 
L 55.647116 143463.029537 
L 55.647116 77.330591 
L 53.087216 77.330591 
z
" style="fill:#a52a2a;opacity:0.6;"/>
   </g>
   <g id="patch_4">
    <path clip-path="url(#p8ac438c69c)" d="M 55.647116 143463.029537 
L 58.207017 143463.029537 
L 58.207017 79.642636 
L 55.647116 79.642636 
z
" style="fill:#a52a2a;opacity:0.6;"/>
   </g>
   <g id="patch_5">
    <path clip-path="url(#p8ac438c69c)" d="M 58.207017 143463.029537 
L 60.766917 143463.029537 
L 60.766917 143463.029537 
L 58.207017 143463.029537 
z
" style="fill:#a52a2a;opacity:0.6;"/>
   </g>
   <g id="patch_6">
    <path clip-path="url(#p8ac438c69c)" d="M 60.766917 143463.029537 
L 63.326818 143463.029537 
L 63.326818 143463.029537 
L 60.766917 143463.029537 
z
" style="fill:#a52a2a;opacity:0.6;"/>
   </g>
   <g id="patch_7">
    <path clip-path="url(#p8ac438c69c)" d="M 63.326818 143463.029537 
L 65.886718 143463.029537 
L 65.886718 129.697836 
L 63.326818 129.697836 
z
" style="fill:#a52a2a;opacity:0.6;"/>
   </g>
   <g id="patch_8">
    <path clip-path="url(#p8ac438c69c)" d="M 65.886718 143463.029537 
L 68.446619 143463.029537 
L 68.446619 132.009881 
L 65.886718 132.009881 
z
" style="fill:#a52a2a;opacity:0.6;"/>
   </g>
   <g id="patch_9">
    <path clip-path="url(#p8ac438c69c)" d="M 68.446619 143463.029537 
L 71.006519 143463.029537 
L 71.006519 91.202859 
L 68.446619 91.202859 
z
" style="fill:#a52a2a;opacity:0.6;"/>
   </g>
   <g id="patch_10">
    <path clip-path="url(#p8ac438c69c)" d="M 71.006519 143463.029537 
L 73.56642 143463.029537 
L 73.56642 136.63397 
L 71.006519 136.63397 
z
" style="fill:#a52a2a;opacity:0.6;"/>
   </g>
   <g id="patch_11">
    <path clip-path="url(#p8ac438c69c)" d="M 73.56642 143463.029537 
L 76.12632 143463.029537 
L 76.12632 138.946015 
L 73.56642 138.946015 
z
" style="fill:#a52a2a;opacity:0.6;"/>
   </g>
   <g id="patch_12">
    <path clip-path="url(#p8ac438c69c)" d="M 76.12632 143463.029537 
L 78.686221 143463.029537 
L 78.686221 141.258059 
L 76.12632 141.258059 
z
" style="fill:#a52a2a;opacity:0.6;"/>
   </g>
   <g id="patch_13">
    <path clip-path="url(#p8ac438c69c)" d="M 78.686221 143463.029537 
L 81.246121 143463.029537 
L 81.246121 143.570104 
L 78.686221 143.570104 
z
" style="fill:#a52a2a;opacity:0.6;"/>
   </g>
   <g id="patch_14">
    <path clip-path="url(#p8ac438c69c)" d="M 81.246121 143463.029537 
L 83.806022 143463.029537 
L 83.806022 143463.029537 
L 81.246121 143463.029537 
z
" style="fill:#a52a2a;opacity:0.6;"/>
   </g>
   <g id="patch_15">
    <path clip-path="url(#p8ac438c69c)" d="M 83.806022 143463.029537 
L 86.365922 143463.029537 
L 86.365922 79.85209 
L 83.806022 79.85209 
z
" style="fill:#a52a2a;opacity:0.6;"/>
   </g>
   <g id="patch_16">
    <path clip-path="url(#p8ac438c69c)" d="M 86.365922 143463.029537 
L 88.925822 143463.029537 
L 88.925822 107.387172 
L 86.365922 107.387172 
z
" style="fill:#a52a2a;opacity:0.6;"/>
   </g>
   <g id="patch_17">
    <path clip-path="url(#p8ac438c69c)" d="M 88.925822 143463.029537 
L 91.485723 143463.029537 
L 91.485723 143463.029537 
L 88.925822 143463.029537 
z
" style="fill:#a52a2a;opacity:0.6;"/>
   </g>
   <g id="patch_18">
    <path clip-path="url(#p8ac438c69c)" d="M 91.485723 143463.029537 
L 94.045623 143463.029537 
L 94.045623 112.011261 
L 91.485723 112.011261 
z
" style="fill:#a52a2a;opacity:0.6;"/>
   </g>
   <g id="patch_19">
    <path clip-path="url(#p8ac438c69c)" d="M 94.045623 143463.029537 
L 96.605524 143463.029537 
L 96.605524 157.442372 
L 94.045623 157.442372 
z
" style="fill:#a52a2a;opacity:0.6;"/>
   </g>
   <g id="patch_20">
    <path clip-path="url(#p8ac438c69c)" d="M 96.605524 143463.029537 
L 99.165424 143463.029537 
L 99.165424 116.63535 
L 96.605524 116.63535 
z
" style="fill:#a52a2a;opacity:0.6;"/>
   </g>
   <g id="patch_21">
    <path clip-path="url(#p8ac438c69c)" d="M 99.165424 143463.029537 
L 101.725325 143463.029537 
L 101.725325 136.843424 
L 99.165424 136.843424 
z
" style="fill:#a52a2a;opacity:0.6;"/>
   </g>
   <g id="patch_22">
    <path clip-path="url(#p8ac438c69c)" d="M 101.725325 143463.029537 
L 104.285225 143463.029537 
L 104.285225 143463.029537 
L 101.725325 143463.029537 
z
" style="fill:#a52a2a;opacity:0.6;"/>
   </g>
   <g id="patch_23">
    <path clip-path="url(#p8ac438c69c)" d="M 104.285225 143463.029537 
L 106.845126 143463.029537 
L 106.845126 143463.029537 
L 104.285225 143463.029537 
z
" style="fill:#a52a2a;opacity:0.6;"/>
   </g>
   <g id="patch_24">
    <path clip-path="url(#p8ac438c69c)" d="M 106.845126 143463.029537 
L 109.405026 143463.029537 
L 109.405026 143.779558 
L 106.845126 143.779558 
z
" style="fill:#a52a2a;opacity:0.6;"/>
   </g>
   <g id="patch_25">
    <path clip-path="url(#p8ac438c69c)" d="M 109.405026 143463.029537 
L 111.964927 143463.029537 
L 111.964927 143463.029537 
L 109.405026 143463.029537 
z
" style="fill:#a52a2a;opacity:0.6;"/>
   </g>
   <g id="patch_26">
    <path clip-path="url(#p8ac438c69c)" d="M 111.964927 143463.029537 
L 114.524827 143463.029537 
L 114.524827 80.061545 
L 111.964927 80.061545 
z
" style="fill:#a52a2a;opacity:0.6;"/>
   </g>
   <g id="patch_27">
    <path clip-path="url(#p8ac438c69c)" d="M 114.524827 143463.029537 
L 117.084728 143463.029537 
L 117.084728 150.715692 
L 114.524827 150.715692 
z
" style="fill:#a52a2a;opacity:0.6;"/>
   </g>
   <g id="patch_28">
    <path clip-path="url(#p8ac438c69c)" d="M 117.084728 143463.029537 
L 119.644628 143463.029537 
L 119.644628 143463.029537 
L 117.084728 143463.029537 
z
" style="fill:#a52a2a;opacity:0.6;"/>
   </g>
   <g id="patch_29">
    <path clip-path="url(#p8ac438c69c)" d="M 119.644628 143463.029537 
L 122.204529 143463.029537 
L 122.204529 143463.029537 
L 119.644628 143463.029537 
z
" style="fill:#a52a2a;opacity:0.6;"/>
   </g>
   <g id="patch_30">
    <path clip-path="url(#p8ac438c69c)" d="M 122.204529 143463.029537 
L 124.764429 143463.029537 
L 124.764429 143463.029537 
L 122.204529 143463.029537 
z
" style="fill:#a52a2a;opacity:0.6;"/>
   </g>
   <g id="patch_31">
    <path clip-path="url(#p8ac438c69c)" d="M 124.764429 143463.029537 
L 127.324329 143463.029537 
L 127.324329 143463.029537 
L 124.764429 143463.029537 
z
" style="fill:#a52a2a;opacity:0.6;"/>
   </g>
   <g id="patch_32">
    <path clip-path="url(#p8ac438c69c)" d="M 127.324329 143463.029537 
L 129.88423 143463.029537 
L 129.88423 143463.029537 
L 127.324329 143463.029537 
z
" style="fill:#a52a2a;opacity:0.6;"/>
   </g>
   <g id="patch_33">
    <path clip-path="url(#p8ac438c69c)" d="M 129.88423 143463.029537 
L 132.44413 143463.029537 
L 132.44413 143463.029537 
L 129.88423 143463.029537 
z
" style="fill:#a52a2a;opacity:0.6;"/>
   </g>
   <g id="patch_34">
    <path clip-path="url(#p8ac438c69c)" d="M 132.44413 143463.029537 
L 135.004031 143463.029537 
L 135.004031 143463.029537 
L 132.44413 143463.029537 
z
" style="fill:#a52a2a;opacity:0.6;"/>
   </g>
   <g id="patch_35">
    <path clip-path="url(#p8ac438c69c)" d="M 135.004031 143463.029537 
L 137.563931 143463.029537 
L 137.563931 151.31602 
L 135.004031 151.31602 
z
" style="fill:#a52a2a;opacity:0.6;"/>
   </g>
   <g id="patch_36">
    <path clip-path="url(#p8ac438c69c)" d="M 137.563931 143463.029537 
L 140.123832 143463.029537 
L 140.123832 153.628065 
L 137.563931 153.628065 
z
" style="fill:#a52a2a;opacity:0.6;"/>
   </g>
   <g id="patch_37">
    <path clip-path="url(#p8ac438c69c)" d="M 140.123832 143463.029537 
L 142.683732 143463.029537 
L 142.683732 112.821043 
L 140.123832 112.821043 
z
" style="fill:#a52a2a;opacity:0.6;"/>
   </g>
   <g id="patch_38">
    <path clip-path="url(#p8ac438c69c)" d="M 142.683732 143463.029537 
L 145.243633 143463.029537 
L 145.243633 158.252154 
L 142.683732 158.252154 
z
" style="fill:#a52a2a;opacity:0.6;"/>
   </g>
   <g id="patch_39">
    <path clip-path="url(#p8ac438c69c)" d="M 145.243633 143463.029537 
L 147.803533 143463.029537 
L 147.803533 143463.029537 
L 145.243633 143463.029537 
z
" style="fill:#a52a2a;opacity:0.6;"/>
   </g>
   <g id="patch_40">
    <path clip-path="url(#p8ac438c69c)" d="M 147.803533 143463.029537 
L 150.363434 143463.029537 
L 150.363434 143463.029537 
L 147.803533 143463.029537 
z
" style="fill:#a52a2a;opacity:0.6;"/>
   </g>
   <g id="patch_41">
    <path clip-path="url(#p8ac438c69c)" d="M 150.363434 143463.029537 
L 152.923334 143463.029537 
L 152.923334 143463.029537 
L 150.363434 143463.029537 
z
" style="fill:#a52a2a;opacity:0.6;"/>
   </g>
   <g id="patch_42">
    <path clip-path="url(#p8ac438c69c)" d="M 152.923334 143463.029537 
L 155.483235 143463.029537 
L 155.483235 153.619094 
L 152.923334 153.619094 
z
" style="fill:#a52a2a;opacity:0.6;"/>
   </g>
   <g id="patch_43">
    <path clip-path="url(#p8ac438c69c)" d="M 155.483235 143463.029537 
L 158.043135 143463.029537 
L 158.043135 143463.029537 
L 155.483235 143463.029537 
z
" style="fill:#a52a2a;opacity:0.6;"/>
   </g>
   <g id="patch_44">
    <path clip-path="url(#p8ac438c69c)" d="M 158.043135 143463.029537 
L 160.603036 143463.029537 
L 160.603036 143463.029537 
L 158.043135 143463.029537 
z
" style="fill:#a52a2a;opacity:0.6;"/>
   </g>
   <g id="patch_45">
    <path clip-path="url(#p8ac438c69c)" d="M 160.603036 143463.029537 
L 163.162936 143463.029537 
L 163.162936 143463.029537 
L 160.603036 143463.029537 
z
" style="fill:#a52a2a;opacity:0.6;"/>
   </g>
   <g id="patch_46">
    <path clip-path="url(#p8ac438c69c)" d="M 163.162936 143463.029537 
L 165.722836 143463.029537 
L 165.722836 162.867273 
L 163.162936 162.867273 
z
" style="fill:#a52a2a;opacity:0.6;"/>
   </g>
   <g id="patch_47">
    <path clip-path="url(#p8ac438c69c)" d="M 165.722836 143463.029537 
L 168.282737 143463.029537 
L 168.282737 143463.029537 
L 165.722836 143463.029537 
z
" style="fill:#a52a2a;opacity:0.6;"/>
   </g>
   <g id="patch_48">
    <path clip-path="url(#p8ac438c69c)" d="M 168.282737 143463.029537 
L 170.842637 143463.029537 
L 170.842637 143463.029537 
L 168.282737 143463.029537 
z
" style="fill:#a52a2a;opacity:0.6;"/>
   </g>
   <g id="patch_49">
    <path clip-path="url(#p8ac438c69c)" d="M 170.842637 143463.029537 
L 173.402538 143463.029537 
L 173.402538 143463.029537 
L 170.842637 143463.029537 
z
" style="fill:#a52a2a;opacity:0.6;"/>
   </g>
   <g id="patch_50">
    <path clip-path="url(#p8ac438c69c)" d="M 173.402538 143463.029537 
L 175.962438 143463.029537 
L 175.962438 143463.029537 
L 173.402538 143463.029537 
z
" style="fill:#a52a2a;opacity:0.6;"/>
   </g>
   <g id="patch_51">
    <path clip-path="url(#p8ac438c69c)" d="M 175.962438 143463.029537 
L 178.522339 143463.029537 
L 178.522339 153.496345 
L 175.962438 153.496345 
z
" style="fill:#a52a2a;opacity:0.6;"/>
   </g>
   <g id="patch_52">
    <path clip-path="url(#p8ac438c69c)" d="M 54.154528 143463.029537 
L 56.715791 143463.029537 
L 56.715791 53.105243 
L 54.154528 53.105243 
z
" style="fill:#800080;opacity:0.6;"/>
   </g>
   <g id="patch_53">
    <path clip-path="url(#p8ac438c69c)" d="M 56.715791 143463.029537 
L 59.277054 143463.029537 
L 59.277054 123.760621 
L 56.715791 123.760621 
z
" style="fill:#800080;opacity:0.6;"/>
   </g>
   <g id="patch_54">
    <path clip-path="url(#p8ac438c69c)" d="M 59.277054 143463.029537 
L 61.838317 143463.029537 
L 61.838317 14.612727 
L 59.277054 14.612727 
z
" style="fill:#800080;opacity:0.6;"/>
   </g>
   <g id="patch_55">
    <path clip-path="url(#p8ac438c69c)" d="M 61.838317 143463.029537 
L 64.399579 143463.029537 
L 64.399579 60.045068 
L 61.838317 60.045068 
z
" style="fill:#800080;opacity:0.6;"/>
   </g>
   <g id="patch_56">
    <path clip-path="url(#p8ac438c69c)" d="M 64.399579 143463.029537 
L 66.960842 143463.029537 
L 66.960842 62.358344 
L 64.399579 62.358344 
z
" style="fill:#800080;opacity:0.6;"/>
   </g>
   <g id="patch_57">
    <path clip-path="url(#p8ac438c69c)" d="M 66.960842 143463.029537 
L 69.522105 143463.029537 
L 69.522105 133.013722 
L 66.960842 133.013722 
z
" style="fill:#800080;opacity:0.6;"/>
   </g>
   <g id="patch_58">
    <path clip-path="url(#p8ac438c69c)" d="M 69.522105 143463.029537 
L 72.083368 143463.029537 
L 72.083368 92.207931 
L 69.522105 92.207931 
z
" style="fill:#800080;opacity:0.6;"/>
   </g>
   <g id="patch_59">
    <path clip-path="url(#p8ac438c69c)" d="M 72.083368 143463.029537 
L 74.644631 143463.029537 
L 74.644631 143463.029537 
L 72.083368 143463.029537 
z
" style="fill:#800080;opacity:0.6;"/>
   </g>
   <g id="patch_60">
    <path clip-path="url(#p8ac438c69c)" d="M 74.644631 143463.029537 
L 77.205893 143463.029537 
L 77.205893 139.953547 
L 74.644631 139.953547 
z
" style="fill:#800080;opacity:0.6;"/>
   </g>
   <g id="patch_61">
    <path clip-path="url(#p8ac438c69c)" d="M 77.205893 143463.029537 
L 79.767156 143463.029537 
L 79.767156 73.924719 
L 77.205893 73.924719 
z
" style="fill:#800080;opacity:0.6;"/>
   </g>
   <g id="patch_62">
    <path clip-path="url(#p8ac438c69c)" d="M 79.767156 143463.029537 
L 82.328419 143463.029537 
L 82.328419 143463.029537 
L 79.767156 143463.029537 
z
" style="fill:#800080;opacity:0.6;"/>
   </g>
   <g id="patch_63">
    <path clip-path="url(#p8ac438c69c)" d="M 82.328419 143463.029537 
L 84.889682 143463.029537 
L 84.889682 146.893372 
L 82.328419 146.893372 
z
" style="fill:#800080;opacity:0.6;"/>
   </g>
   <g id="patch_64">
    <path clip-path="url(#p8ac438c69c)" d="M 84.889682 143463.029537 
L 87.450945 143463.029537 
L 87.450945 80.864544 
L 84.889682 80.864544 
z
" style="fill:#800080;opacity:0.6;"/>
   </g>
   <g id="patch_65">
    <path clip-path="url(#p8ac438c69c)" d="M 87.450945 143463.029537 
L 90.012208 143463.029537 
L 90.012208 65.28179 
L 87.450945 65.28179 
z
" style="fill:#800080;opacity:0.6;"/>
   </g>
   <g id="patch_66">
    <path clip-path="url(#p8ac438c69c)" d="M 90.012208 143463.029537 
L 92.57347 143463.029537 
L 92.57347 143463.029537 
L 90.012208 143463.029537 
z
" style="fill:#800080;opacity:0.6;"/>
   </g>
   <g id="patch_67">
    <path clip-path="url(#p8ac438c69c)" d="M 92.57347 143463.029537 
L 95.134733 143463.029537 
L 95.134733 156.146473 
L 92.57347 156.146473 
z
" style="fill:#800080;opacity:0.6;"/>
   </g>
   <g id="patch_68">
    <path clip-path="url(#p8ac438c69c)" d="M 95.134733 143463.029537 
L 97.695996 143463.029537 
L 97.695996 158.459748 
L 95.134733 158.459748 
z
" style="fill:#800080;opacity:0.6;"/>
   </g>
   <g id="patch_69">
    <path clip-path="url(#p8ac438c69c)" d="M 97.695996 143463.029537 
L 100.257259 143463.029537 
L 100.257259 143463.029537 
L 97.695996 143463.029537 
z
" style="fill:#800080;opacity:0.6;"/>
   </g>
   <g id="patch_70">
    <path clip-path="url(#p8ac438c69c)" d="M 100.257259 143463.029537 
L 102.818522 143463.029537 
L 102.818522 137.863261 
L 100.257259 137.863261 
z
" style="fill:#800080;opacity:0.6;"/>
   </g>
   <g id="patch_71">
    <path clip-path="url(#p8ac438c69c)" d="M 102.818522 143463.029537 
L 105.379784 143463.029537 
L 105.379784 140.176536 
L 102.818522 140.176536 
z
" style="fill:#800080;opacity:0.6;"/>
   </g>
   <g id="patch_72">
    <path clip-path="url(#p8ac438c69c)" d="M 105.379784 143463.029537 
L 107.941047 143463.029537 
L 107.941047 143463.029537 
L 105.379784 143463.029537 
z
" style="fill:#800080;opacity:0.6;"/>
   </g>
   <g id="patch_73">
    <path clip-path="url(#p8ac438c69c)" d="M 107.941047 143463.029537 
L 110.50231 143463.029537 
L 110.50231 143463.029537 
L 107.941047 143463.029537 
z
" style="fill:#800080;opacity:0.6;"/>
   </g>
   <g id="patch_74">
    <path clip-path="url(#p8ac438c69c)" d="M 110.50231 143463.029537 
L 113.063573 143463.029537 
L 113.063573 143463.029537 
L 110.50231 143463.029537 
z
" style="fill:#800080;opacity:0.6;"/>
   </g>
   <g id="patch_75">
    <path clip-path="url(#p8ac438c69c)" d="M 113.063573 143463.029537 
L 115.624836 143463.029537 
L 115.624836 143463.029537 
L 113.063573 143463.029537 
z
" style="fill:#800080;opacity:0.6;"/>
   </g>
   <g id="patch_76">
    <path clip-path="url(#p8ac438c69c)" d="M 115.624836 143463.029537 
L 118.186098 143463.029537 
L 118.186098 108.623846 
L 115.624836 108.623846 
z
" style="fill:#800080;opacity:0.6;"/>
   </g>
   <g id="patch_77">
    <path clip-path="url(#p8ac438c69c)" d="M 118.186098 143463.029537 
L 120.747361 143463.029537 
L 120.747361 143463.029537 
L 118.186098 143463.029537 
z
" style="fill:#800080;opacity:0.6;"/>
   </g>
   <g id="patch_78">
    <path clip-path="url(#p8ac438c69c)" d="M 120.747361 143463.029537 
L 123.308624 143463.029537 
L 123.308624 143463.029537 
L 120.747361 143463.029537 
z
" style="fill:#800080;opacity:0.6;"/>
   </g>
   <g id="patch_79">
    <path clip-path="url(#p8ac438c69c)" d="M 123.308624 143463.029537 
L 125.869887 143463.029537 
L 125.869887 143463.029537 
L 123.308624 143463.029537 
z
" style="fill:#800080;opacity:0.6;"/>
   </g>
   <g id="patch_80">
    <path clip-path="url(#p8ac438c69c)" d="M 125.869887 143463.029537 
L 128.43115 143463.029537 
L 128.43115 143463.029537 
L 125.869887 143463.029537 
z
" style="fill:#800080;opacity:0.6;"/>
   </g>
   <g id="patch_81">
    <path clip-path="url(#p8ac438c69c)" d="M 128.43115 143463.029537 
L 130.992413 143463.029537 
L 130.992413 143463.029537 
L 128.43115 143463.029537 
z
" style="fill:#800080;opacity:0.6;"/>
   </g>
   <g id="patch_82">
    <path clip-path="url(#p8ac438c69c)" d="M 130.992413 143463.029537 
L 133.553675 143463.029537 
L 133.553675 143463.029537 
L 130.992413 143463.029537 
z
" style="fill:#800080;opacity:0.6;"/>
   </g>
   <g id="patch_83">
    <path clip-path="url(#p8ac438c69c)" d="M 133.553675 143463.029537 
L 136.114938 143463.029537 
L 136.114938 143463.029537 
L 133.553675 143463.029537 
z
" style="fill:#800080;opacity:0.6;"/>
   </g>
   <g id="patch_84">
    <path clip-path="url(#p8ac438c69c)" d="M 136.114938 143463.029537 
L 138.676201 143463.029537 
L 138.676201 143463.029537 
L 136.114938 143463.029537 
z
" style="fill:#800080;opacity:0.6;"/>
   </g>
   <g id="patch_85">
    <path clip-path="url(#p8ac438c69c)" d="M 138.676201 143463.029537 
L 141.237464 143463.029537 
L 141.237464 143463.029537 
L 138.676201 143463.029537 
z
" style="fill:#800080;opacity:0.6;"/>
   </g>
   <g id="patch_86">
    <path clip-path="url(#p8ac438c69c)" d="M 141.237464 143463.029537 
L 143.798727 143463.029537 
L 143.798727 143463.029537 
L 141.237464 143463.029537 
z
" style="fill:#800080;opacity:0.6;"/>
   </g>
   <g id="patch_87">
    <path clip-path="url(#p8ac438c69c)" d="M 143.798727 143463.029537 
L 146.359989 143463.029537 
L 146.359989 159.292908 
L 143.798727 159.292908 
z
" style="fill:#800080;opacity:0.6;"/>
   </g>
   <g id="patch_88">
    <path clip-path="url(#p8ac438c69c)" d="M 146.359989 143463.029537 
L 148.921252 143463.029537 
L 148.921252 143463.029537 
L 146.359989 143463.029537 
z
" style="fill:#800080;opacity:0.6;"/>
   </g>
   <g id="patch_89">
    <path clip-path="url(#p8ac438c69c)" d="M 148.921252 143463.029537 
L 151.482515 143463.029537 
L 151.482515 143463.029537 
L 148.921252 143463.029537 
z
" style="fill:#800080;opacity:0.6;"/>
   </g>
   <g id="patch_90">
    <path clip-path="url(#p8ac438c69c)" d="M 151.482515 143463.029537 
L 154.043778 143463.029537 
L 154.043778 143463.029537 
L 151.482515 143463.029537 
z
" style="fill:#800080;opacity:0.6;"/>
   </g>
   <g id="patch_91">
    <path clip-path="url(#p8ac438c69c)" d="M 154.043778 143463.029537 
L 156.605041 143463.029537 
L 156.605041 143463.029537 
L 154.043778 143463.029537 
z
" style="fill:#800080;opacity:0.6;"/>
   </g>
   <g id="patch_92">
    <path clip-path="url(#p8ac438c69c)" d="M 156.605041 143463.029537 
L 159.166303 143463.029537 
L 159.166303 143463.029537 
L 156.605041 143463.029537 
z
" style="fill:#800080;opacity:0.6;"/>
   </g>
   <g id="patch_93">
    <path clip-path="url(#p8ac438c69c)" d="M 159.166303 143463.029537 
L 161.727566 143463.029537 
L 161.727566 143463.029537 
L 159.166303 143463.029537 
z
" style="fill:#800080;opacity:0.6;"/>
   </g>
   <g id="patch_94">
    <path clip-path="url(#p8ac438c69c)" d="M 161.727566 143463.029537 
L 164.288829 143463.029537 
L 164.288829 143463.029537 
L 161.727566 143463.029537 
z
" style="fill:#800080;opacity:0.6;"/>
   </g>
   <g id="patch_95">
    <path clip-path="url(#p8ac438c69c)" d="M 164.288829 143463.029537 
L 166.850092 143463.029537 
L 166.850092 143463.029537 
L 164.288829 143463.029537 
z
" style="fill:#800080;opacity:0.6;"/>
   </g>
   <g id="patch_96">
    <path clip-path="url(#p8ac438c69c)" d="M 166.850092 143463.029537 
L 169.411355 143463.029537 
L 169.411355 143463.029537 
L 166.850092 143463.029537 
z
" style="fill:#800080;opacity:0.6;"/>
   </g>
   <g id="patch_97">
    <path clip-path="url(#p8ac438c69c)" d="M 169.411355 143463.029537 
L 171.972618 143463.029537 
L 171.972618 143463.029537 
L 169.411355 143463.029537 
z
" style="fill:#800080;opacity:0.6;"/>
   </g>
   <g id="patch_98">
    <path clip-path="url(#p8ac438c69c)" d="M 171.972618 143463.029537 
L 174.53388 143463.029537 
L 174.53388 143463.029537 
L 171.972618 143463.029537 
z
" style="fill:#800080;opacity:0.6;"/>
   </g>
   <g id="patch_99">
    <path clip-path="url(#p8ac438c69c)" d="M 174.53388 143463.029537 
L 177.095143 143463.029537 
L 177.095143 143463.029537 
L 174.53388 143463.029537 
z
" style="fill:#800080;opacity:0.6;"/>
   </g>
   <g id="patch_100">
    <path clip-path="url(#p8ac438c69c)" d="M 177.095143 143463.029537 
L 179.656406 143463.029537 
L 179.656406 143463.029537 
L 177.095143 143463.029537 
z
" style="fill:#800080;opacity:0.6;"/>
   </g>
   <g id="patch_101">
    <path clip-path="url(#p8ac438c69c)" d="M 179.656406 143463.029537 
L 182.217669 143463.029537 
L 182.217669 143463.029537 
L 179.656406 143463.029537 
z
" style="fill:#800080;opacity:0.6;"/>
   </g>
   <g id="patch_102">
    <path clip-path="url(#p8ac438c69c)" d="M 182.217669 143463.029537 
L 184.778932 143463.029537 
L 184.778932 159.179645 
L 182.217669 159.179645 
z
" style="fill:#800080;opacity:0.6;"/>
   </g>
   <g id="patch_103">
    <path clip-path="url(#p8ac438c69c)" d="M 184.778932 143463.029537 
L 187.340194 143463.029537 
L 187.340194 143463.029537 
L 184.778932 143463.029537 
z
" style="fill:#800080;opacity:0.6;"/>
   </g>
   <g id="patch_104">
    <path clip-path="url(#p8ac438c69c)" d="M 187.340194 143463.029537 
L 189.901457 143463.029537 
L 189.901457 143463.029537 
L 187.340194 143463.029537 
z
" style="fill:#800080;opacity:0.6;"/>
   </g>
   <g id="patch_105">
    <path clip-path="url(#p8ac438c69c)" d="M 189.901457 143463.029537 
L 192.46272 143463.029537 
L 192.46272 143463.029537 
L 189.901457 143463.029537 
z
" style="fill:#800080;opacity:0.6;"/>
   </g>
   <g id="patch_106">
    <path clip-path="url(#p8ac438c69c)" d="M 192.46272 143463.029537 
L 195.023983 143463.029537 
L 195.023983 143463.029537 
L 192.46272 143463.029537 
z
" style="fill:#800080;opacity:0.6;"/>
   </g>
   <g id="patch_107">
    <path clip-path="url(#p8ac438c69c)" d="M 195.023983 143463.029537 
L 197.585246 143463.029537 
L 197.585246 143463.029537 
L 195.023983 143463.029537 
z
" style="fill:#800080;opacity:0.6;"/>
   </g>
   <g id="patch_108">
    <path clip-path="url(#p8ac438c69c)" d="M 197.585246 143463.029537 
L 200.146508 143463.029537 
L 200.146508 143463.029537 
L 197.585246 143463.029537 
z
" style="fill:#800080;opacity:0.6;"/>
   </g>
   <g id="patch_109">
    <path clip-path="url(#p8ac438c69c)" d="M 200.146508 143463.029537 
L 202.707771 143463.029537 
L 202.707771 143463.029537 
L 200.146508 143463.029537 
z
" style="fill:#800080;opacity:0.6;"/>
   </g>
   <g id="patch_110">
    <path clip-path="url(#p8ac438c69c)" d="M 202.707771 143463.029537 
L 205.269034 143463.029537 
L 205.269034 155.497931 
L 202.707771 155.497931 
z
" style="fill:#800080;opacity:0.6;"/>
   </g>
   <g id="matplotlib.axis_1">
    <g id="xtick_1">
     <g id="line2d_1">
      <defs>
       <path d="M 0 0 
L 0 3.5 
" id="m93626ff810" style="stroke:#000000;stroke-width:0.8;"/>
      </defs>
      <g>
       <use style="stroke:#000000;stroke-width:0.8;" x="53.073182" xlink:href="#m93626ff810" y="170.28"/>
      </g>
     </g>
     <g id="text_1">
      <!-- $\mathdefault{10^{-1}}$ -->
      <defs>
       <path d="M 12.40625 8.296875 
L 28.515625 8.296875 
L 28.515625 63.921875 
L 10.984375 60.40625 
L 10.984375 69.390625 
L 28.421875 72.90625 
L 38.28125 72.90625 
L 38.28125 8.296875 
L 54.390625 8.296875 
L 54.390625 0 
L 12.40625 0 
z
" id="DejaVuSans-49"/>
       <path d="M 31.78125 66.40625 
Q 24.171875 66.40625 20.328125 58.90625 
Q 16.5 51.421875 16.5 36.375 
Q 16.5 21.390625 20.328125 13.890625 
Q 24.171875 6.390625 31.78125 6.390625 
Q 39.453125 6.390625 43.28125 13.890625 
Q 47.125 21.390625 47.125 36.375 
Q 47.125 51.421875 43.28125 58.90625 
Q 39.453125 66.40625 31.78125 66.40625 
z
M 31.78125 74.21875 
Q 44.046875 74.21875 50.515625 64.515625 
Q 56.984375 54.828125 56.984375 36.375 
Q 56.984375 17.96875 50.515625 8.265625 
Q 44.046875 -1.421875 31.78125 -1.421875 
Q 19.53125 -1.421875 13.0625 8.265625 
Q 6.59375 17.96875 6.59375 36.375 
Q 6.59375 54.828125 13.0625 64.515625 
Q 19.53125 74.21875 31.78125 74.21875 
z
" id="DejaVuSans-48"/>
       <path d="M 10.59375 35.5 
L 73.1875 35.5 
L 73.1875 27.203125 
L 10.59375 27.203125 
z
" id="DejaVuSans-8722"/>
      </defs>
      <g transform="translate(41.323182 184.878438)scale(0.1 -0.1)">
       <use transform="translate(0 0.684375)" xlink:href="#DejaVuSans-49"/>
       <use transform="translate(63.623047 0.684375)" xlink:href="#DejaVuSans-48"/>
       <use transform="translate(128.203125 38.965625)scale(0.7)" xlink:href="#DejaVuSans-8722"/>
       <use transform="translate(186.855469 38.965625)scale(0.7)" xlink:href="#DejaVuSans-49"/>
      </g>
     </g>
    </g>
    <g id="xtick_2">
     <g id="line2d_2">
      <g>
       <use style="stroke:#000000;stroke-width:0.8;" x="211.667066" xlink:href="#m93626ff810" y="170.28"/>
      </g>
     </g>
     <g id="text_2">
      <!-- $\mathdefault{10^{0}}$ -->
      <g transform="translate(202.867066 184.878438)scale(0.1 -0.1)">
       <use transform="translate(0 0.765625)" xlink:href="#DejaVuSans-49"/>
       <use transform="translate(63.623047 0.765625)" xlink:href="#DejaVuSans-48"/>
       <use transform="translate(128.203125 39.046875)scale(0.7)" xlink:href="#DejaVuSans-48"/>
      </g>
     </g>
    </g>
    <g id="xtick_3">
     <g id="line2d_3">
      <defs>
       <path d="M 0 0 
L 0 2 
" id="me9b9630450" style="stroke:#000000;stroke-width:0.6;"/>
      </defs>
      <g>
       <use style="stroke:#000000;stroke-width:0.6;" x="45.816324" xlink:href="#me9b9630450" y="170.28"/>
      </g>
     </g>
    </g>
    <g id="xtick_4">
     <g id="line2d_4">
      <g>
       <use style="stroke:#000000;stroke-width:0.6;" x="100.814698" xlink:href="#me9b9630450" y="170.28"/>
      </g>
     </g>
    </g>
    <g id="xtick_5">
     <g id="line2d_5">
      <g>
       <use style="stroke:#000000;stroke-width:0.6;" x="128.741695" xlink:href="#me9b9630450" y="170.28"/>
      </g>
     </g>
    </g>
    <g id="xtick_6">
     <g id="line2d_6">
      <g>
       <use style="stroke:#000000;stroke-width:0.6;" x="148.556214" xlink:href="#me9b9630450" y="170.28"/>
      </g>
     </g>
    </g>
    <g id="xtick_7">
     <g id="line2d_7">
      <g>
       <use style="stroke:#000000;stroke-width:0.6;" x="163.92555" xlink:href="#me9b9630450" y="170.28"/>
      </g>
     </g>
    </g>
    <g id="xtick_8">
     <g id="line2d_8">
      <g>
       <use style="stroke:#000000;stroke-width:0.6;" x="176.483211" xlink:href="#me9b9630450" y="170.28"/>
      </g>
     </g>
    </g>
    <g id="xtick_9">
     <g id="line2d_9">
      <g>
       <use style="stroke:#000000;stroke-width:0.6;" x="187.100562" xlink:href="#me9b9630450" y="170.28"/>
      </g>
     </g>
    </g>
    <g id="xtick_10">
     <g id="line2d_10">
      <g>
       <use style="stroke:#000000;stroke-width:0.6;" x="196.297731" xlink:href="#me9b9630450" y="170.28"/>
      </g>
     </g>
    </g>
    <g id="xtick_11">
     <g id="line2d_11">
      <g>
       <use style="stroke:#000000;stroke-width:0.6;" x="204.410208" xlink:href="#me9b9630450" y="170.28"/>
      </g>
     </g>
    </g>
    <g id="text_3">
     <!-- Length -->
     <defs>
      <path d="M 9.8125 72.90625 
L 19.671875 72.90625 
L 19.671875 8.296875 
L 55.171875 8.296875 
L 55.171875 0 
L 9.8125 0 
z
" id="DejaVuSans-76"/>
      <path d="M 56.203125 29.59375 
L 56.203125 25.203125 
L 14.890625 25.203125 
Q 15.484375 15.921875 20.484375 11.0625 
Q 25.484375 6.203125 34.421875 6.203125 
Q 39.59375 6.203125 44.453125 7.46875 
Q 49.3125 8.734375 54.109375 11.28125 
L 54.109375 2.78125 
Q 49.265625 0.734375 44.1875 -0.34375 
Q 39.109375 -1.421875 33.890625 -1.421875 
Q 20.796875 -1.421875 13.15625 6.1875 
Q 5.515625 13.8125 5.515625 26.8125 
Q 5.515625 40.234375 12.765625 48.109375 
Q 20.015625 56 32.328125 56 
Q 43.359375 56 49.78125 48.890625 
Q 56.203125 41.796875 56.203125 29.59375 
z
M 47.21875 32.234375 
Q 47.125 39.59375 43.09375 43.984375 
Q 39.0625 48.390625 32.421875 48.390625 
Q 24.90625 48.390625 20.390625 44.140625 
Q 15.875 39.890625 15.1875 32.171875 
z
" id="DejaVuSans-101"/>
      <path d="M 54.890625 33.015625 
L 54.890625 0 
L 45.90625 0 
L 45.90625 32.71875 
Q 45.90625 40.484375 42.875 44.328125 
Q 39.84375 48.1875 33.796875 48.1875 
Q 26.515625 48.1875 22.3125 43.546875 
Q 18.109375 38.921875 18.109375 30.90625 
L 18.109375 0 
L 9.078125 0 
L 9.078125 54.6875 
L 18.109375 54.6875 
L 18.109375 46.1875 
Q 21.34375 51.125 25.703125 53.5625 
Q 30.078125 56 35.796875 56 
Q 45.21875 56 50.046875 50.171875 
Q 54.890625 44.34375 54.890625 33.015625 
z
" id="DejaVuSans-110"/>
      <path d="M 45.40625 27.984375 
Q 45.40625 37.75 41.375 43.109375 
Q 37.359375 48.484375 30.078125 48.484375 
Q 22.859375 48.484375 18.828125 43.109375 
Q 14.796875 37.75 14.796875 27.984375 
Q 14.796875 18.265625 18.828125 12.890625 
Q 22.859375 7.515625 30.078125 7.515625 
Q 37.359375 7.515625 41.375 12.890625 
Q 45.40625 18.265625 45.40625 27.984375 
z
M 54.390625 6.78125 
Q 54.390625 -7.171875 48.1875 -13.984375 
Q 42 -20.796875 29.203125 -20.796875 
Q 24.46875 -20.796875 20.265625 -20.09375 
Q 16.0625 -19.390625 12.109375 -17.921875 
L 12.109375 -9.1875 
Q 16.0625 -11.328125 19.921875 -12.34375 
Q 23.78125 -13.375 27.78125 -13.375 
Q 36.625 -13.375 41.015625 -8.765625 
Q 45.40625 -4.15625 45.40625 5.171875 
L 45.40625 9.625 
Q 42.625 4.78125 38.28125 2.390625 
Q 33.9375 0 27.875 0 
Q 17.828125 0 11.671875 7.65625 
Q 5.515625 15.328125 5.515625 27.984375 
Q 5.515625 40.671875 11.671875 48.328125 
Q 17.828125 56 27.875 56 
Q 33.9375 56 38.28125 53.609375 
Q 42.625 51.21875 45.40625 46.390625 
L 45.40625 54.6875 
L 54.390625 54.6875 
z
" id="DejaVuSans-103"/>
      <path d="M 18.3125 70.21875 
L 18.3125 54.6875 
L 36.8125 54.6875 
L 36.8125 47.703125 
L 18.3125 47.703125 
L 18.3125 18.015625 
Q 18.3125 11.328125 20.140625 9.421875 
Q 21.96875 7.515625 27.59375 7.515625 
L 36.8125 7.515625 
L 36.8125 0 
L 27.59375 0 
Q 17.1875 0 13.234375 3.875 
Q 9.28125 7.765625 9.28125 18.015625 
L 9.28125 47.703125 
L 2.6875 47.703125 
L 2.6875 54.6875 
L 9.28125 54.6875 
L 9.28125 70.21875 
z
" id="DejaVuSans-116"/>
      <path d="M 54.890625 33.015625 
L 54.890625 0 
L 45.90625 0 
L 45.90625 32.71875 
Q 45.90625 40.484375 42.875 44.328125 
Q 39.84375 48.1875 33.796875 48.1875 
Q 26.515625 48.1875 22.3125 43.546875 
Q 18.109375 38.921875 18.109375 30.90625 
L 18.109375 0 
L 9.078125 0 
L 9.078125 75.984375 
L 18.109375 75.984375 
L 18.109375 46.1875 
Q 21.34375 51.125 25.703125 53.5625 
Q 30.078125 56 35.796875 56 
Q 45.21875 56 50.046875 50.171875 
Q 54.890625 44.34375 54.890625 33.015625 
z
" id="DejaVuSans-104"/>
     </defs>
     <g transform="translate(111.844531 198.556563)scale(0.1 -0.1)">
      <use xlink:href="#DejaVuSans-76"/>
      <use x="55.697266" xlink:href="#DejaVuSans-101"/>
      <use x="117.220703" xlink:href="#DejaVuSans-110"/>
      <use x="180.599609" xlink:href="#DejaVuSans-103"/>
      <use x="244.076172" xlink:href="#DejaVuSans-116"/>
      <use x="283.285156" xlink:href="#DejaVuSans-104"/>
     </g>
    </g>
   </g>
   <g id="matplotlib.axis_2">
    <g id="ytick_1">
     <g id="line2d_12">
      <defs>
       <path d="M 0 0 
L -3.5 0 
" id="m386499135a" style="stroke:#000000;stroke-width:0.8;"/>
      </defs>
      <g>
       <use style="stroke:#000000;stroke-width:0.8;" x="45.478125" xlink:href="#m386499135a" y="81.353924"/>
      </g>
     </g>
     <g id="text_4">
      <!-- $\mathdefault{10^{1}}$ -->
      <g transform="translate(20.878125 85.153143)scale(0.1 -0.1)">
       <use transform="translate(0 0.684375)" xlink:href="#DejaVuSans-49"/>
       <use transform="translate(63.623047 0.684375)" xlink:href="#DejaVuSans-48"/>
       <use transform="translate(128.203125 38.965625)scale(0.7)" xlink:href="#DejaVuSans-49"/>
      </g>
     </g>
    </g>
    <g id="ytick_2">
     <g id="line2d_13">
      <defs>
       <path d="M 0 0 
L -2 0 
" id="m9bb4215a15" style="stroke:#000000;stroke-width:0.6;"/>
      </defs>
      <g>
       <use style="stroke:#000000;stroke-width:0.6;" x="45.478125" xlink:href="#m9bb4215a15" y="156.250259"/>
      </g>
     </g>
    </g>
    <g id="ytick_3">
     <g id="line2d_14">
      <g>
       <use style="stroke:#000000;stroke-width:0.6;" x="45.478125" xlink:href="#m9bb4215a15" y="138.354229"/>
      </g>
     </g>
    </g>
    <g id="ytick_4">
     <g id="line2d_15">
      <g>
       <use style="stroke:#000000;stroke-width:0.6;" x="45.478125" xlink:href="#m9bb4215a15" y="124.47299"/>
      </g>
     </g>
    </g>
    <g id="ytick_5">
     <g id="line2d_16">
      <g>
       <use style="stroke:#000000;stroke-width:0.6;" x="45.478125" xlink:href="#m9bb4215a15" y="113.131193"/>
      </g>
     </g>
    </g>
    <g id="ytick_6">
     <g id="line2d_17">
      <g>
       <use style="stroke:#000000;stroke-width:0.6;" x="45.478125" xlink:href="#m9bb4215a15" y="103.541839"/>
      </g>
     </g>
    </g>
    <g id="ytick_7">
     <g id="line2d_18">
      <g>
       <use style="stroke:#000000;stroke-width:0.6;" x="45.478125" xlink:href="#m9bb4215a15" y="95.235163"/>
      </g>
     </g>
    </g>
    <g id="ytick_8">
     <g id="line2d_19">
      <g>
       <use style="stroke:#000000;stroke-width:0.6;" x="45.478125" xlink:href="#m9bb4215a15" y="87.908156"/>
      </g>
     </g>
    </g>
    <g id="ytick_9">
     <g id="line2d_20">
      <g>
       <use style="stroke:#000000;stroke-width:0.6;" x="45.478125" xlink:href="#m9bb4215a15" y="38.234858"/>
      </g>
     </g>
    </g>
    <g id="ytick_10">
     <g id="line2d_21">
      <g>
       <use style="stroke:#000000;stroke-width:0.6;" x="45.478125" xlink:href="#m9bb4215a15" y="13.011821"/>
      </g>
     </g>
    </g>
    <g id="text_5">
     <!-- Count -->
     <defs>
      <path d="M 64.40625 67.28125 
L 64.40625 56.890625 
Q 59.421875 61.53125 53.78125 63.8125 
Q 48.140625 66.109375 41.796875 66.109375 
Q 29.296875 66.109375 22.65625 58.46875 
Q 16.015625 50.828125 16.015625 36.375 
Q 16.015625 21.96875 22.65625 14.328125 
Q 29.296875 6.6875 41.796875 6.6875 
Q 48.140625 6.6875 53.78125 8.984375 
Q 59.421875 11.28125 64.40625 15.921875 
L 64.40625 5.609375 
Q 59.234375 2.09375 53.4375 0.328125 
Q 47.65625 -1.421875 41.21875 -1.421875 
Q 24.65625 -1.421875 15.125 8.703125 
Q 5.609375 18.84375 5.609375 36.375 
Q 5.609375 53.953125 15.125 64.078125 
Q 24.65625 74.21875 41.21875 74.21875 
Q 47.75 74.21875 53.53125 72.484375 
Q 59.328125 70.75 64.40625 67.28125 
z
" id="DejaVuSans-67"/>
      <path d="M 30.609375 48.390625 
Q 23.390625 48.390625 19.1875 42.75 
Q 14.984375 37.109375 14.984375 27.296875 
Q 14.984375 17.484375 19.15625 11.84375 
Q 23.34375 6.203125 30.609375 6.203125 
Q 37.796875 6.203125 41.984375 11.859375 
Q 46.1875 17.53125 46.1875 27.296875 
Q 46.1875 37.015625 41.984375 42.703125 
Q 37.796875 48.390625 30.609375 48.390625 
z
M 30.609375 56 
Q 42.328125 56 49.015625 48.375 
Q 55.71875 40.765625 55.71875 27.296875 
Q 55.71875 13.875 49.015625 6.21875 
Q 42.328125 -1.421875 30.609375 -1.421875 
Q 18.84375 -1.421875 12.171875 6.21875 
Q 5.515625 13.875 5.515625 27.296875 
Q 5.515625 40.765625 12.171875 48.375 
Q 18.84375 56 30.609375 56 
z
" id="DejaVuSans-111"/>
      <path d="M 8.5 21.578125 
L 8.5 54.6875 
L 17.484375 54.6875 
L 17.484375 21.921875 
Q 17.484375 14.15625 20.5 10.265625 
Q 23.53125 6.390625 29.59375 6.390625 
Q 36.859375 6.390625 41.078125 11.03125 
Q 45.3125 15.671875 45.3125 23.6875 
L 45.3125 54.6875 
L 54.296875 54.6875 
L 54.296875 0 
L 45.3125 0 
L 45.3125 8.40625 
Q 42.046875 3.421875 37.71875 1 
Q 33.40625 -1.421875 27.6875 -1.421875 
Q 18.265625 -1.421875 13.375 4.4375 
Q 8.5 10.296875 8.5 21.578125 
z
M 31.109375 56 
z
" id="DejaVuSans-117"/>
     </defs>
     <g transform="translate(14.798438 103.588437)rotate(-90)scale(0.1 -0.1)">
      <use xlink:href="#DejaVuSans-67"/>
      <use x="69.824219" xlink:href="#DejaVuSans-111"/>
      <use x="131.005859" xlink:href="#DejaVuSans-117"/>
      <use x="194.384766" xlink:href="#DejaVuSans-110"/>
      <use x="257.763672" xlink:href="#DejaVuSans-116"/>
     </g>
    </g>
   </g>
   <g id="patch_111">
    <path d="M 45.478125 170.28 
L 45.478125 7.2 
" style="fill:none;stroke:#000000;stroke-linecap:square;stroke-linejoin:miter;stroke-width:0.8;"/>
   </g>
   <g id="patch_112">
    <path d="M 45.478125 170.28 
L 212.878125 170.28 
" style="fill:none;stroke:#000000;stroke-linecap:square;stroke-linejoin:miter;stroke-width:0.8;"/>
   </g>
   <g id="legend_1">
    <g id="patch_113">
     <path d="M 219.878125 104.918125 
L 298.725 104.918125 
Q 300.725 104.918125 300.725 102.918125 
L 300.725 74.561875 
Q 300.725 72.561875 298.725 72.561875 
L 219.878125 72.561875 
Q 217.878125 72.561875 217.878125 74.561875 
L 217.878125 102.918125 
Q 217.878125 104.918125 219.878125 104.918125 
z
" style="fill:#ffffff;opacity:0.8;stroke:#cccccc;stroke-linejoin:miter;"/>
    </g>
    <g id="patch_114">
     <path d="M 221.878125 84.160313 
L 241.878125 84.160313 
L 241.878125 77.160313 
L 221.878125 77.160313 
z
" style="fill:#a52a2a;opacity:0.6;"/>
    </g>
    <g id="text_6">
     <!-- Brownian -->
     <defs>
      <path d="M 19.671875 34.8125 
L 19.671875 8.109375 
L 35.5 8.109375 
Q 43.453125 8.109375 47.28125 11.40625 
Q 51.125 14.703125 51.125 21.484375 
Q 51.125 28.328125 47.28125 31.5625 
Q 43.453125 34.8125 35.5 34.8125 
z
M 19.671875 64.796875 
L 19.671875 42.828125 
L 34.28125 42.828125 
Q 41.5 42.828125 45.03125 45.53125 
Q 48.578125 48.25 48.578125 53.8125 
Q 48.578125 59.328125 45.03125 62.0625 
Q 41.5 64.796875 34.28125 64.796875 
z
M 9.8125 72.90625 
L 35.015625 72.90625 
Q 46.296875 72.90625 52.390625 68.21875 
Q 58.5 63.53125 58.5 54.890625 
Q 58.5 48.1875 55.375 44.234375 
Q 52.25 40.28125 46.1875 39.3125 
Q 53.46875 37.75 57.5 32.78125 
Q 61.53125 27.828125 61.53125 20.40625 
Q 61.53125 10.640625 54.890625 5.3125 
Q 48.25 0 35.984375 0 
L 9.8125 0 
z
" id="DejaVuSans-66"/>
      <path d="M 41.109375 46.296875 
Q 39.59375 47.171875 37.8125 47.578125 
Q 36.03125 48 33.890625 48 
Q 26.265625 48 22.1875 43.046875 
Q 18.109375 38.09375 18.109375 28.8125 
L 18.109375 0 
L 9.078125 0 
L 9.078125 54.6875 
L 18.109375 54.6875 
L 18.109375 46.1875 
Q 20.953125 51.171875 25.484375 53.578125 
Q 30.03125 56 36.53125 56 
Q 37.453125 56 38.578125 55.875 
Q 39.703125 55.765625 41.0625 55.515625 
z
" id="DejaVuSans-114"/>
      <path d="M 4.203125 54.6875 
L 13.1875 54.6875 
L 24.421875 12.015625 
L 35.59375 54.6875 
L 46.1875 54.6875 
L 57.421875 12.015625 
L 68.609375 54.6875 
L 77.59375 54.6875 
L 63.28125 0 
L 52.6875 0 
L 40.921875 44.828125 
L 29.109375 0 
L 18.5 0 
z
" id="DejaVuSans-119"/>
      <path d="M 9.421875 54.6875 
L 18.40625 54.6875 
L 18.40625 0 
L 9.421875 0 
z
M 9.421875 75.984375 
L 18.40625 75.984375 
L 18.40625 64.59375 
L 9.421875 64.59375 
z
" id="DejaVuSans-105"/>
      <path d="M 34.28125 27.484375 
Q 23.390625 27.484375 19.1875 25 
Q 14.984375 22.515625 14.984375 16.5 
Q 14.984375 11.71875 18.140625 8.90625 
Q 21.296875 6.109375 26.703125 6.109375 
Q 34.1875 6.109375 38.703125 11.40625 
Q 43.21875 16.703125 43.21875 25.484375 
L 43.21875 27.484375 
z
M 52.203125 31.203125 
L 52.203125 0 
L 43.21875 0 
L 43.21875 8.296875 
Q 40.140625 3.328125 35.546875 0.953125 
Q 30.953125 -1.421875 24.3125 -1.421875 
Q 15.921875 -1.421875 10.953125 3.296875 
Q 6 8.015625 6 15.921875 
Q 6 25.140625 12.171875 29.828125 
Q 18.359375 34.515625 30.609375 34.515625 
L 43.21875 34.515625 
L 43.21875 35.40625 
Q 43.21875 41.609375 39.140625 45 
Q 35.0625 48.390625 27.6875 48.390625 
Q 23 48.390625 18.546875 47.265625 
Q 14.109375 46.140625 10.015625 43.890625 
L 10.015625 52.203125 
Q 14.9375 54.109375 19.578125 55.046875 
Q 24.21875 56 28.609375 56 
Q 40.484375 56 46.34375 49.84375 
Q 52.203125 43.703125 52.203125 31.203125 
z
" id="DejaVuSans-97"/>
     </defs>
     <g transform="translate(249.878125 84.160313)scale(0.1 -0.1)">
      <use xlink:href="#DejaVuSans-66"/>
      <use x="68.603516" xlink:href="#DejaVuSans-114"/>
      <use x="109.685547" xlink:href="#DejaVuSans-111"/>
      <use x="170.867188" xlink:href="#DejaVuSans-119"/>
      <use x="252.654297" xlink:href="#DejaVuSans-110"/>
      <use x="316.033203" xlink:href="#DejaVuSans-105"/>
      <use x="343.816406" xlink:href="#DejaVuSans-97"/>
      <use x="405.095703" xlink:href="#DejaVuSans-110"/>
     </g>
    </g>
    <g id="patch_115">
     <path d="M 221.878125 98.838437 
L 241.878125 98.838437 
L 241.878125 91.838437 
L 221.878125 91.838437 
z
" style="fill:#800080;opacity:0.6;"/>
    </g>
    <g id="text_7">
     <!-- Levy -->
     <defs>
      <path d="M 2.984375 54.6875 
L 12.5 54.6875 
L 29.59375 8.796875 
L 46.6875 54.6875 
L 56.203125 54.6875 
L 35.6875 0 
L 23.484375 0 
z
" id="DejaVuSans-118"/>
      <path d="M 32.171875 -5.078125 
Q 28.375 -14.84375 24.75 -17.8125 
Q 21.140625 -20.796875 15.09375 -20.796875 
L 7.90625 -20.796875 
L 7.90625 -13.28125 
L 13.1875 -13.28125 
Q 16.890625 -13.28125 18.9375 -11.515625 
Q 21 -9.765625 23.484375 -3.21875 
L 25.09375 0.875 
L 2.984375 54.6875 
L 12.5 54.6875 
L 29.59375 11.921875 
L 46.6875 54.6875 
L 56.203125 54.6875 
z
" id="DejaVuSans-121"/>
     </defs>
     <g transform="translate(249.878125 98.838437)scale(0.1 -0.1)">
      <use xlink:href="#DejaVuSans-76"/>
      <use x="55.697266" xlink:href="#DejaVuSans-101"/>
      <use x="117.220703" xlink:href="#DejaVuSans-118"/>
      <use x="176.400391" xlink:href="#DejaVuSans-121"/>
     </g>
    </g>
   </g>
  </g>
 </g>
 <defs>
  <clipPath id="p8ac438c69c">
   <rect height="163.08" width="167.4" x="45.478125" y="7.2"/>
  </clipPath>
 </defs>
</svg>