<?xml version="1.0" encoding="utf-8" standalone="no"?>
<!DOCTYPE svg PUBLIC "-//W3C//DTD SVG 1.1//EN"
  "http://www.w3.org/Graphics/SVG/1.1/DTD/svg11.dtd">
<!-- Created with matplotlib (https://matplotlib.org/) -->
<svg height="280.15625pt" version="1.1" viewBox="0 0 424.7625 280.15625" width="424.7625pt" xmlns="http://www.w3.org/2000/svg" xmlns:xlink="http://www.w3.org/1999/xlink">
 <defs>
  <style type="text/css">
*{stroke-linecap:butt;stroke-linejoin:round;}
  </style>
 </defs>
 <g id="figure_1">
  <g id="patch_1">
   <path d="M 0 280.15625 
L 424.7625 280.15625 
L 424.7625 0 
L 0 0 
z
" style="fill:none;"/>
  </g>
  <g id="axes_1">
   <g id="patch_2">
    <path d="M 33.2875 242.6 
L 417.5625 242.6 
L 417.5625 7.2 
L 33.2875 7.2 
z
" style="fill:#ffffff;"/>
   </g>
   <g id="patch_3">
    <path clip-path="url(#p59696f9f09)" d="M 50.754545 242.6 
L 62.981477 242.6 
L 62.981477 21.571184 
L 50.754545 21.571184 
z
" style="fill:#a52a2a;opacity:0.5;"/>
   </g>
   <g id="patch_4">
    <path clip-path="url(#p59696f9f09)" d="M 62.981477 242.6 
L 75.208409 242.6 
L 75.208409 220.180952 
L 62.981477 220.180952 
z
" style="fill:#a52a2a;opacity:0.5;"/>
   </g>
   <g id="patch_5">
    <path clip-path="url(#p59696f9f09)" d="M 75.208409 242.6 
L 87.435341 242.6 
L 87.435341 232.252747 
L 75.208409 232.252747 
z
" style="fill:#a52a2a;opacity:0.5;"/>
   </g>
   <g id="patch_6">
    <path clip-path="url(#p59696f9f09)" d="M 87.435341 242.6 
L 99.662273 242.6 
L 99.662273 242.6 
L 87.435341 242.6 
z
" style="fill:#a52a2a;opacity:0.5;"/>
   </g>
   <g id="patch_7">
    <path clip-path="url(#p59696f9f09)" d="M 99.662273 242.6 
L 111.889205 242.6 
L 111.889205 225.067155 
L 99.662273 225.067155 
z
" style="fill:#a52a2a;opacity:0.5;"/>
   </g>
   <g id="patch_8">
    <path clip-path="url(#p59696f9f09)" d="M 111.889205 242.6 
L 124.116136 242.6 
L 124.116136 238.576068 
L 111.889205 238.576068 
z
" style="fill:#a52a2a;opacity:0.5;"/>
   </g>
   <g id="patch_9">
    <path clip-path="url(#p59696f9f09)" d="M 124.116136 242.6 
L 136.343068 242.6 
L 136.343068 242.6 
L 124.116136 242.6 
z
" style="fill:#a52a2a;opacity:0.5;"/>
   </g>
   <g id="patch_10">
    <path clip-path="url(#p59696f9f09)" d="M 136.343068 242.6 
L 148.57 242.6 
L 148.57 240.588034 
L 136.343068 240.588034 
z
" style="fill:#a52a2a;opacity:0.5;"/>
   </g>
   <g id="patch_11">
    <path clip-path="url(#p59696f9f09)" d="M 148.57 242.6 
L 160.796932 242.6 
L 160.796932 238.288645 
L 148.57 238.288645 
z
" style="fill:#a52a2a;opacity:0.5;"/>
   </g>
   <g id="patch_12">
    <path clip-path="url(#p59696f9f09)" d="M 160.796932 242.6 
L 173.023864 242.6 
L 173.023864 242.6 
L 160.796932 242.6 
z
" style="fill:#a52a2a;opacity:0.5;"/>
   </g>
   <g id="patch_13">
    <path clip-path="url(#p59696f9f09)" d="M 173.023864 242.6 
L 185.250795 242.6 
L 185.250795 240.300611 
L 173.023864 240.300611 
z
" style="fill:#a52a2a;opacity:0.5;"/>
   </g>
   <g id="patch_14">
    <path clip-path="url(#p59696f9f09)" d="M 185.250795 242.6 
L 197.477727 242.6 
L 197.477727 241.162882 
L 185.250795 241.162882 
z
" style="fill:#a52a2a;opacity:0.5;"/>
   </g>
   <g id="patch_15">
    <path clip-path="url(#p59696f9f09)" d="M 197.477727 242.6 
L 209.704659 242.6 
L 209.704659 241.450305 
L 197.477727 241.450305 
z
" style="fill:#a52a2a;opacity:0.5;"/>
   </g>
   <g id="patch_16">
    <path clip-path="url(#p59696f9f09)" d="M 209.704659 242.6 
L 221.931591 242.6 
L 221.931591 242.6 
L 209.704659 242.6 
z
" style="fill:#a52a2a;opacity:0.5;"/>
   </g>
   <g id="patch_17">
    <path clip-path="url(#p59696f9f09)" d="M 221.931591 242.6 
L 234.158523 242.6 
L 234.158523 242.312576 
L 221.931591 242.312576 
z
" style="fill:#a52a2a;opacity:0.5;"/>
   </g>
   <g id="patch_18">
    <path clip-path="url(#p59696f9f09)" d="M 234.158523 242.6 
L 246.385455 242.6 
L 246.385455 242.6 
L 234.158523 242.6 
z
" style="fill:#a52a2a;opacity:0.5;"/>
   </g>
   <g id="patch_19">
    <path clip-path="url(#p59696f9f09)" d="M 246.385455 242.6 
L 258.612386 242.6 
L 258.612386 242.6 
L 246.385455 242.6 
z
" style="fill:#a52a2a;opacity:0.5;"/>
   </g>
   <g id="patch_20">
    <path clip-path="url(#p59696f9f09)" d="M 258.612386 242.6 
L 270.839318 242.6 
L 270.839318 242.6 
L 258.612386 242.6 
z
" style="fill:#a52a2a;opacity:0.5;"/>
   </g>
   <g id="patch_21">
    <path clip-path="url(#p59696f9f09)" d="M 270.839318 242.6 
L 283.06625 242.6 
L 283.06625 242.312576 
L 270.839318 242.312576 
z
" style="fill:#a52a2a;opacity:0.5;"/>
   </g>
   <g id="patch_22">
    <path clip-path="url(#p59696f9f09)" d="M 283.06625 242.6 
L 295.293182 242.6 
L 295.293182 242.312576 
L 283.06625 242.312576 
z
" style="fill:#a52a2a;opacity:0.5;"/>
   </g>
   <g id="patch_23">
    <path clip-path="url(#p59696f9f09)" d="M 50.754545 242.6 
L 63.85483 242.6 
L 63.85483 18.409524 
L 50.754545 18.409524 
z
" style="fill:#800080;opacity:0.5;"/>
   </g>
   <g id="patch_24">
    <path clip-path="url(#p59696f9f09)" d="M 63.85483 242.6 
L 76.955114 242.6 
L 76.955114 222.480342 
L 63.85483 222.480342 
z
" style="fill:#800080;opacity:0.5;"/>
   </g>
   <g id="patch_25">
    <path clip-path="url(#p59696f9f09)" d="M 76.955114 242.6 
L 90.055398 242.6 
L 90.055398 232.540171 
L 76.955114 232.540171 
z
" style="fill:#800080;opacity:0.5;"/>
   </g>
   <g id="patch_26">
    <path clip-path="url(#p59696f9f09)" d="M 90.055398 242.6 
L 103.155682 242.6 
L 103.155682 242.6 
L 90.055398 242.6 
z
" style="fill:#800080;opacity:0.5;"/>
   </g>
   <g id="patch_27">
    <path clip-path="url(#p59696f9f09)" d="M 103.155682 242.6 
L 116.255966 242.6 
L 116.255966 229.665934 
L 103.155682 229.665934 
z
" style="fill:#800080;opacity:0.5;"/>
   </g>
   <g id="patch_28">
    <path clip-path="url(#p59696f9f09)" d="M 116.255966 242.6 
L 129.35625 242.6 
L 129.35625 237.13895 
L 116.255966 237.13895 
z
" style="fill:#800080;opacity:0.5;"/>
   </g>
   <g id="patch_29">
    <path clip-path="url(#p59696f9f09)" d="M 129.35625 242.6 
L 142.456534 242.6 
L 142.456534 238.576068 
L 129.35625 238.576068 
z
" style="fill:#800080;opacity:0.5;"/>
   </g>
   <g id="patch_30">
    <path clip-path="url(#p59696f9f09)" d="M 142.456534 242.6 
L 155.556818 242.6 
L 155.556818 242.6 
L 142.456534 242.6 
z
" style="fill:#800080;opacity:0.5;"/>
   </g>
   <g id="patch_31">
    <path clip-path="url(#p59696f9f09)" d="M 155.556818 242.6 
L 168.657102 242.6 
L 168.657102 239.725763 
L 155.556818 239.725763 
z
" style="fill:#800080;opacity:0.5;"/>
   </g>
   <g id="patch_32">
    <path clip-path="url(#p59696f9f09)" d="M 168.657102 242.6 
L 181.757386 242.6 
L 181.757386 239.725763 
L 168.657102 239.725763 
z
" style="fill:#800080;opacity:0.5;"/>
   </g>
   <g id="patch_33">
    <path clip-path="url(#p59696f9f09)" d="M 181.757386 242.6 
L 194.85767 242.6 
L 194.85767 240.875458 
L 181.757386 240.875458 
z
" style="fill:#800080;opacity:0.5;"/>
   </g>
   <g id="patch_34">
    <path clip-path="url(#p59696f9f09)" d="M 194.85767 242.6 
L 207.957955 242.6 
L 207.957955 242.6 
L 194.85767 242.6 
z
" style="fill:#800080;opacity:0.5;"/>
   </g>
   <g id="patch_35">
    <path clip-path="url(#p59696f9f09)" d="M 207.957955 242.6 
L 221.058239 242.6 
L 221.058239 241.450305 
L 207.957955 241.450305 
z
" style="fill:#800080;opacity:0.5;"/>
   </g>
   <g id="patch_36">
    <path clip-path="url(#p59696f9f09)" d="M 221.058239 242.6 
L 234.158523 242.6 
L 234.158523 241.450305 
L 221.058239 241.450305 
z
" style="fill:#800080;opacity:0.5;"/>
   </g>
   <g id="patch_37">
    <path clip-path="url(#p59696f9f09)" d="M 234.158523 242.6 
L 247.258807 242.6 
L 247.258807 242.6 
L 234.158523 242.6 
z
" style="fill:#800080;opacity:0.5;"/>
   </g>
   <g id="patch_38">
    <path clip-path="url(#p59696f9f09)" d="M 247.258807 242.6 
L 260.359091 242.6 
L 260.359091 242.6 
L 247.258807 242.6 
z
" style="fill:#800080;opacity:0.5;"/>
   </g>
   <g id="patch_39">
    <path clip-path="url(#p59696f9f09)" d="M 260.359091 242.6 
L 273.459375 242.6 
L 273.459375 242.312576 
L 260.359091 242.312576 
z
" style="fill:#800080;opacity:0.5;"/>
   </g>
   <g id="patch_40">
    <path clip-path="url(#p59696f9f09)" d="M 273.459375 242.6 
L 286.559659 242.6 
L 286.559659 242.6 
L 273.459375 242.6 
z
" style="fill:#800080;opacity:0.5;"/>
   </g>
   <g id="patch_41">
    <path clip-path="url(#p59696f9f09)" d="M 286.559659 242.6 
L 299.659943 242.6 
L 299.659943 242.312576 
L 286.559659 242.312576 
z
" style="fill:#800080;opacity:0.5;"/>
   </g>
   <g id="patch_42">
    <path clip-path="url(#p59696f9f09)" d="M 299.659943 242.6 
L 312.760227 242.6 
L 312.760227 242.312576 
L 299.659943 242.312576 
z
" style="fill:#800080;opacity:0.5;"/>
   </g>
   <g id="patch_43">
    <path clip-path="url(#p59696f9f09)" d="M 50.754545 242.6 
L 68.221591 242.6 
L 68.221591 73.594872 
L 50.754545 73.594872 
z
" style="fill:#008000;opacity:0.5;"/>
   </g>
   <g id="patch_44">
    <path clip-path="url(#p59696f9f09)" d="M 68.221591 242.6 
L 85.688636 242.6 
L 85.688636 216.444444 
L 68.221591 216.444444 
z
" style="fill:#008000;opacity:0.5;"/>
   </g>
   <g id="patch_45">
    <path clip-path="url(#p59696f9f09)" d="M 85.688636 242.6 
L 103.155682 242.6 
L 103.155682 229.665934 
L 85.688636 229.665934 
z
" style="fill:#008000;opacity:0.5;"/>
   </g>
   <g id="patch_46">
    <path clip-path="url(#p59696f9f09)" d="M 103.155682 242.6 
L 120.622727 242.6 
L 120.622727 215.007326 
L 103.155682 215.007326 
z
" style="fill:#008000;opacity:0.5;"/>
   </g>
   <g id="patch_47">
    <path clip-path="url(#p59696f9f09)" d="M 120.622727 242.6 
L 138.089773 242.6 
L 138.089773 229.665934 
L 120.622727 229.665934 
z
" style="fill:#008000;opacity:0.5;"/>
   </g>
   <g id="patch_48">
    <path clip-path="url(#p59696f9f09)" d="M 138.089773 242.6 
L 155.556818 242.6 
L 155.556818 232.827595 
L 138.089773 232.827595 
z
" style="fill:#008000;opacity:0.5;"/>
   </g>
   <g id="patch_49">
    <path clip-path="url(#p59696f9f09)" d="M 155.556818 242.6 
L 173.023864 242.6 
L 173.023864 231.965324 
L 155.556818 231.965324 
z
" style="fill:#008000;opacity:0.5;"/>
   </g>
   <g id="patch_50">
    <path clip-path="url(#p59696f9f09)" d="M 173.023864 242.6 
L 190.490909 242.6 
L 190.490909 237.713797 
L 173.023864 237.713797 
z
" style="fill:#008000;opacity:0.5;"/>
   </g>
   <g id="patch_51">
    <path clip-path="url(#p59696f9f09)" d="M 190.490909 242.6 
L 207.957955 242.6 
L 207.957955 239.438339 
L 190.490909 239.438339 
z
" style="fill:#008000;opacity:0.5;"/>
   </g>
   <g id="patch_52">
    <path clip-path="url(#p59696f9f09)" d="M 207.957955 242.6 
L 225.425 242.6 
L 225.425 239.438339 
L 207.957955 239.438339 
z
" style="fill:#008000;opacity:0.5;"/>
   </g>
   <g id="patch_53">
    <path clip-path="url(#p59696f9f09)" d="M 225.425 242.6 
L 242.892045 242.6 
L 242.892045 240.300611 
L 225.425 240.300611 
z
" style="fill:#008000;opacity:0.5;"/>
   </g>
   <g id="patch_54">
    <path clip-path="url(#p59696f9f09)" d="M 242.892045 242.6 
L 260.359091 242.6 
L 260.359091 241.162882 
L 242.892045 241.162882 
z
" style="fill:#008000;opacity:0.5;"/>
   </g>
   <g id="patch_55">
    <path clip-path="url(#p59696f9f09)" d="M 260.359091 242.6 
L 277.826136 242.6 
L 277.826136 241.162882 
L 260.359091 241.162882 
z
" style="fill:#008000;opacity:0.5;"/>
   </g>
   <g id="patch_56">
    <path clip-path="url(#p59696f9f09)" d="M 277.826136 242.6 
L 295.293182 242.6 
L 295.293182 242.025153 
L 277.826136 242.025153 
z
" style="fill:#008000;opacity:0.5;"/>
   </g>
   <g id="patch_57">
    <path clip-path="url(#p59696f9f09)" d="M 295.293182 242.6 
L 312.760227 242.6 
L 312.760227 242.312576 
L 295.293182 242.312576 
z
" style="fill:#008000;opacity:0.5;"/>
   </g>
   <g id="patch_58">
    <path clip-path="url(#p59696f9f09)" d="M 312.760227 242.6 
L 330.227273 242.6 
L 330.227273 242.6 
L 312.760227 242.6 
z
" style="fill:#008000;opacity:0.5;"/>
   </g>
   <g id="patch_59">
    <path clip-path="url(#p59696f9f09)" d="M 330.227273 242.6 
L 347.694318 242.6 
L 347.694318 242.025153 
L 330.227273 242.025153 
z
" style="fill:#008000;opacity:0.5;"/>
   </g>
   <g id="patch_60">
    <path clip-path="url(#p59696f9f09)" d="M 347.694318 242.6 
L 365.161364 242.6 
L 365.161364 242.6 
L 347.694318 242.6 
z
" style="fill:#008000;opacity:0.5;"/>
   </g>
   <g id="patch_61">
    <path clip-path="url(#p59696f9f09)" d="M 365.161364 242.6 
L 382.628409 242.6 
L 382.628409 242.6 
L 365.161364 242.6 
z
" style="fill:#008000;opacity:0.5;"/>
   </g>
   <g id="patch_62">
    <path clip-path="url(#p59696f9f09)" d="M 382.628409 242.6 
L 400.095455 242.6 
L 400.095455 242.025153 
L 382.628409 242.025153 
z
" style="fill:#008000;opacity:0.5;"/>
   </g>
   <g id="matplotlib.axis_1">
    <g id="xtick_1">
     <g id="line2d_1">
      <defs>
       <path d="M 0 0 
L 0 3.5 
" id="m3004fb3c1d" style="stroke:#000000;stroke-width:0.8;"/>
      </defs>
      <g>
       <use style="stroke:#000000;stroke-width:0.8;" x="50.754545" xlink:href="#m3004fb3c1d" y="242.6"/>
      </g>
     </g>
     <g id="text_1">
      <!-- 0.0 -->
      <defs>
       <path d="M 31.78125 66.40625 
Q 24.171875 66.40625 20.328125 58.90625 
Q 16.5 51.421875 16.5 36.375 
Q 16.5 21.390625 20.328125 13.890625 
Q 24.171875 6.390625 31.78125 6.390625 
Q 39.453125 6.390625 43.28125 13.890625 
Q 47.125 21.390625 47.125 36.375 
Q 47.125 51.421875 43.28125 58.90625 
Q 39.453125 66.40625 31.78125 66.40625 
z
M 31.78125 74.21875 
Q 44.046875 74.21875 50.515625 64.515625 
Q 56.984375 54.828125 56.984375 36.375 
Q 56.984375 17.96875 50.515625 8.265625 
Q 44.046875 -1.421875 31.78125 -1.421875 
Q 19.53125 -1.421875 13.0625 8.265625 
Q 6.59375 17.96875 6.59375 36.375 
Q 6.59375 54.828125 13.0625 64.515625 
Q 19.53125 74.21875 31.78125 74.21875 
z
" id="DejaVuSans-48"/>
       <path d="M 10.6875 12.40625 
L 21 12.40625 
L 21 0 
L 10.6875 0 
z
" id="DejaVuSans-46"/>
      </defs>
      <g transform="translate(42.802983 257.198437)scale(0.1 -0.1)">
       <use xlink:href="#DejaVuSans-48"/>
       <use x="63.623047" xlink:href="#DejaVuSans-46"/>
       <use x="95.410156" xlink:href="#DejaVuSans-48"/>
      </g>
     </g>
    </g>
    <g id="xtick_2">
     <g id="line2d_2">
      <g>
       <use style="stroke:#000000;stroke-width:0.8;" x="94.422159" xlink:href="#m3004fb3c1d" y="242.6"/>
      </g>
     </g>
     <g id="text_2">
      <!-- 2.5 -->
      <defs>
       <path d="M 19.1875 8.296875 
L 53.609375 8.296875 
L 53.609375 0 
L 7.328125 0 
L 7.328125 8.296875 
Q 12.9375 14.109375 22.625 23.890625 
Q 32.328125 33.6875 34.8125 36.53125 
Q 39.546875 41.84375 41.421875 45.53125 
Q 43.3125 49.21875 43.3125 52.78125 
Q 43.3125 58.59375 39.234375 62.25 
Q 35.15625 65.921875 28.609375 65.921875 
Q 23.96875 65.921875 18.8125 64.3125 
Q 13.671875 62.703125 7.8125 59.421875 
L 7.8125 69.390625 
Q 13.765625 71.78125 18.9375 73 
Q 24.125 74.21875 28.421875 74.21875 
Q 39.75 74.21875 46.484375 68.546875 
Q 53.21875 62.890625 53.21875 53.421875 
Q 53.21875 48.921875 51.53125 44.890625 
Q 49.859375 40.875 45.40625 35.40625 
Q 44.1875 33.984375 37.640625 27.21875 
Q 31.109375 20.453125 19.1875 8.296875 
z
" id="DejaVuSans-50"/>
       <path d="M 10.796875 72.90625 
L 49.515625 72.90625 
L 49.515625 64.59375 
L 19.828125 64.59375 
L 19.828125 46.734375 
Q 21.96875 47.46875 24.109375 47.828125 
Q 26.265625 48.1875 28.421875 48.1875 
Q 40.625 48.1875 47.75 41.5 
Q 54.890625 34.8125 54.890625 23.390625 
Q 54.890625 11.625 47.5625 5.09375 
Q 40.234375 -1.421875 26.90625 -1.421875 
Q 22.3125 -1.421875 17.546875 -0.640625 
Q 12.796875 0.140625 7.71875 1.703125 
L 7.71875 11.625 
Q 12.109375 9.234375 16.796875 8.0625 
Q 21.484375 6.890625 26.703125 6.890625 
Q 35.15625 6.890625 40.078125 11.328125 
Q 45.015625 15.765625 45.015625 23.390625 
Q 45.015625 31 40.078125 35.4375 
Q 35.15625 39.890625 26.703125 39.890625 
Q 22.75 39.890625 18.8125 39.015625 
Q 14.890625 38.140625 10.796875 36.28125 
z
" id="DejaVuSans-53"/>
      </defs>
      <g transform="translate(86.470597 257.198437)scale(0.1 -0.1)">
       <use xlink:href="#DejaVuSans-50"/>
       <use x="63.623047" xlink:href="#DejaVuSans-46"/>
       <use x="95.410156" xlink:href="#DejaVuSans-53"/>
      </g>
     </g>
    </g>
    <g id="xtick_3">
     <g id="line2d_3">
      <g>
       <use style="stroke:#000000;stroke-width:0.8;" x="138.089773" xlink:href="#m3004fb3c1d" y="242.6"/>
      </g>
     </g>
     <g id="text_3">
      <!-- 5.0 -->
      <g transform="translate(130.13821 257.198437)scale(0.1 -0.1)">
       <use xlink:href="#DejaVuSans-53"/>
       <use x="63.623047" xlink:href="#DejaVuSans-46"/>
       <use x="95.410156" xlink:href="#DejaVuSans-48"/>
      </g>
     </g>
    </g>
    <g id="xtick_4">
     <g id="line2d_4">
      <g>
       <use style="stroke:#000000;stroke-width:0.8;" x="181.757386" xlink:href="#m3004fb3c1d" y="242.6"/>
      </g>
     </g>
     <g id="text_4">
      <!-- 7.5 -->
      <defs>
       <path d="M 8.203125 72.90625 
L 55.078125 72.90625 
L 55.078125 68.703125 
L 28.609375 0 
L 18.3125 0 
L 43.21875 64.59375 
L 8.203125 64.59375 
z
" id="DejaVuSans-55"/>
      </defs>
      <g transform="translate(173.805824 257.198437)scale(0.1 -0.1)">
       <use xlink:href="#DejaVuSans-55"/>
       <use x="63.623047" xlink:href="#DejaVuSans-46"/>
       <use x="95.410156" xlink:href="#DejaVuSans-53"/>
      </g>
     </g>
    </g>
    <g id="xtick_5">
     <g id="line2d_5">
      <g>
       <use style="stroke:#000000;stroke-width:0.8;" x="225.425" xlink:href="#m3004fb3c1d" y="242.6"/>
      </g>
     </g>
     <g id="text_5">
      <!-- 10.0 -->
      <defs>
       <path d="M 12.40625 8.296875 
L 28.515625 8.296875 
L 28.515625 63.921875 
L 10.984375 60.40625 
L 10.984375 69.390625 
L 28.421875 72.90625 
L 38.28125 72.90625 
L 38.28125 8.296875 
L 54.390625 8.296875 
L 54.390625 0 
L 12.40625 0 
z
" id="DejaVuSans-49"/>
      </defs>
      <g transform="translate(214.292187 257.198437)scale(0.1 -0.1)">
       <use xlink:href="#DejaVuSans-49"/>
       <use x="63.623047" xlink:href="#DejaVuSans-48"/>
       <use x="127.246094" xlink:href="#DejaVuSans-46"/>
       <use x="159.033203" xlink:href="#DejaVuSans-48"/>
      </g>
     </g>
    </g>
    <g id="xtick_6">
     <g id="line2d_6">
      <g>
       <use style="stroke:#000000;stroke-width:0.8;" x="269.092614" xlink:href="#m3004fb3c1d" y="242.6"/>
      </g>
     </g>
     <g id="text_6">
      <!-- 12.5 -->
      <g transform="translate(257.959801 257.198437)scale(0.1 -0.1)">
       <use xlink:href="#DejaVuSans-49"/>
       <use x="63.623047" xlink:href="#DejaVuSans-50"/>
       <use x="127.246094" xlink:href="#DejaVuSans-46"/>
       <use x="159.033203" xlink:href="#DejaVuSans-53"/>
      </g>
     </g>
    </g>
    <g id="xtick_7">
     <g id="line2d_7">
      <g>
       <use style="stroke:#000000;stroke-width:0.8;" x="312.760227" xlink:href="#m3004fb3c1d" y="242.6"/>
      </g>
     </g>
     <g id="text_7">
      <!-- 15.0 -->
      <g transform="translate(301.627415 257.198437)scale(0.1 -0.1)">
       <use xlink:href="#DejaVuSans-49"/>
       <use x="63.623047" xlink:href="#DejaVuSans-53"/>
       <use x="127.246094" xlink:href="#DejaVuSans-46"/>
       <use x="159.033203" xlink:href="#DejaVuSans-48"/>
      </g>
     </g>
    </g>
    <g id="xtick_8">
     <g id="line2d_8">
      <g>
       <use style="stroke:#000000;stroke-width:0.8;" x="356.427841" xlink:href="#m3004fb3c1d" y="242.6"/>
      </g>
     </g>
     <g id="text_8">
      <!-- 17.5 -->
      <g transform="translate(345.295028 257.198437)scale(0.1 -0.1)">
       <use xlink:href="#DejaVuSans-49"/>
       <use x="63.623047" xlink:href="#DejaVuSans-55"/>
       <use x="127.246094" xlink:href="#DejaVuSans-46"/>
       <use x="159.033203" xlink:href="#DejaVuSans-53"/>
      </g>
     </g>
    </g>
    <g id="xtick_9">
     <g id="line2d_9">
      <g>
       <use style="stroke:#000000;stroke-width:0.8;" x="400.095455" xlink:href="#m3004fb3c1d" y="242.6"/>
      </g>
     </g>
     <g id="text_9">
      <!-- 20.0 -->
      <g transform="translate(388.962642 257.198437)scale(0.1 -0.1)">
       <use xlink:href="#DejaVuSans-50"/>
       <use x="63.623047" xlink:href="#DejaVuSans-48"/>
       <use x="127.246094" xlink:href="#DejaVuSans-46"/>
       <use x="159.033203" xlink:href="#DejaVuSans-48"/>
      </g>
     </g>
    </g>
    <g id="text_10">
     <!-- Score -->
     <defs>
      <path d="M 53.515625 70.515625 
L 53.515625 60.890625 
Q 47.90625 63.578125 42.921875 64.890625 
Q 37.9375 66.21875 33.296875 66.21875 
Q 25.25 66.21875 20.875 63.09375 
Q 16.5 59.96875 16.5 54.203125 
Q 16.5 49.359375 19.40625 46.890625 
Q 22.3125 44.4375 30.421875 42.921875 
L 36.375 41.703125 
Q 47.40625 39.59375 52.65625 34.296875 
Q 57.90625 29 57.90625 20.125 
Q 57.90625 9.515625 50.796875 4.046875 
Q 43.703125 -1.421875 29.984375 -1.421875 
Q 24.8125 -1.421875 18.96875 -0.25 
Q 13.140625 0.921875 6.890625 3.21875 
L 6.890625 13.375 
Q 12.890625 10.015625 18.65625 8.296875 
Q 24.421875 6.59375 29.984375 6.59375 
Q 38.421875 6.59375 43.015625 9.90625 
Q 47.609375 13.234375 47.609375 19.390625 
Q 47.609375 24.75 44.3125 27.78125 
Q 41.015625 30.8125 33.5 32.328125 
L 27.484375 33.5 
Q 16.453125 35.6875 11.515625 40.375 
Q 6.59375 45.0625 6.59375 53.421875 
Q 6.59375 63.09375 13.40625 68.65625 
Q 20.21875 74.21875 32.171875 74.21875 
Q 37.3125 74.21875 42.625 73.28125 
Q 47.953125 72.359375 53.515625 70.515625 
z
" id="DejaVuSans-83"/>
      <path d="M 48.78125 52.59375 
L 48.78125 44.1875 
Q 44.96875 46.296875 41.140625 47.34375 
Q 37.3125 48.390625 33.40625 48.390625 
Q 24.65625 48.390625 19.8125 42.84375 
Q 14.984375 37.3125 14.984375 27.296875 
Q 14.984375 17.28125 19.8125 11.734375 
Q 24.65625 6.203125 33.40625 6.203125 
Q 37.3125 6.203125 41.140625 7.25 
Q 44.96875 8.296875 48.78125 10.40625 
L 48.78125 2.09375 
Q 45.015625 0.34375 40.984375 -0.53125 
Q 36.96875 -1.421875 32.421875 -1.421875 
Q 20.0625 -1.421875 12.78125 6.34375 
Q 5.515625 14.109375 5.515625 27.296875 
Q 5.515625 40.671875 12.859375 48.328125 
Q 20.21875 56 33.015625 56 
Q 37.15625 56 41.109375 55.140625 
Q 45.0625 54.296875 48.78125 52.59375 
z
" id="DejaVuSans-99"/>
      <path d="M 30.609375 48.390625 
Q 23.390625 48.390625 19.1875 42.75 
Q 14.984375 37.109375 14.984375 27.296875 
Q 14.984375 17.484375 19.15625 11.84375 
Q 23.34375 6.203125 30.609375 6.203125 
Q 37.796875 6.203125 41.984375 11.859375 
Q 46.1875 17.53125 46.1875 27.296875 
Q 46.1875 37.015625 41.984375 42.703125 
Q 37.796875 48.390625 30.609375 48.390625 
z
M 30.609375 56 
Q 42.328125 56 49.015625 48.375 
Q 55.71875 40.765625 55.71875 27.296875 
Q 55.71875 13.875 49.015625 6.21875 
Q 42.328125 -1.421875 30.609375 -1.421875 
Q 18.84375 -1.421875 12.171875 6.21875 
Q 5.515625 13.875 5.515625 27.296875 
Q 5.515625 40.765625 12.171875 48.375 
Q 18.84375 56 30.609375 56 
z
" id="DejaVuSans-111"/>
      <path d="M 41.109375 46.296875 
Q 39.59375 47.171875 37.8125 47.578125 
Q 36.03125 48 33.890625 48 
Q 26.265625 48 22.1875 43.046875 
Q 18.109375 38.09375 18.109375 28.8125 
L 18.109375 0 
L 9.078125 0 
L 9.078125 54.6875 
L 18.109375 54.6875 
L 18.109375 46.1875 
Q 20.953125 51.171875 25.484375 53.578125 
Q 30.03125 56 36.53125 56 
Q 37.453125 56 38.578125 55.875 
Q 39.703125 55.765625 41.0625 55.515625 
z
" id="DejaVuSans-114"/>
      <path d="M 56.203125 29.59375 
L 56.203125 25.203125 
L 14.890625 25.203125 
Q 15.484375 15.921875 20.484375 11.0625 
Q 25.484375 6.203125 34.421875 6.203125 
Q 39.59375 6.203125 44.453125 7.46875 
Q 49.3125 8.734375 54.109375 11.28125 
L 54.109375 2.78125 
Q 49.265625 0.734375 44.1875 -0.34375 
Q 39.109375 -1.421875 33.890625 -1.421875 
Q 20.796875 -1.421875 13.15625 6.1875 
Q 5.515625 13.8125 5.515625 26.8125 
Q 5.515625 40.234375 12.765625 48.109375 
Q 20.015625 56 32.328125 56 
Q 43.359375 56 49.78125 48.890625 
Q 56.203125 41.796875 56.203125 29.59375 
z
M 47.21875 32.234375 
Q 47.125 39.59375 43.09375 43.984375 
Q 39.0625 48.390625 32.421875 48.390625 
Q 24.90625 48.390625 20.390625 44.140625 
Q 15.875 39.890625 15.1875 32.171875 
z
" id="DejaVuSans-101"/>
     </defs>
     <g transform="translate(211.311719 270.876562)scale(0.1 -0.1)">
      <use xlink:href="#DejaVuSans-83"/>
      <use x="63.476562" xlink:href="#DejaVuSans-99"/>
      <use x="118.457031" xlink:href="#DejaVuSans-111"/>
      <use x="179.638672" xlink:href="#DejaVuSans-114"/>
      <use x="220.720703" xlink:href="#DejaVuSans-101"/>
     </g>
    </g>
   </g>
   <g id="matplotlib.axis_2">
    <g id="ytick_1">
     <g id="line2d_10">
      <defs>
       <path d="M 0 0 
L -3.5 0 
" id="md85071df11" style="stroke:#000000;stroke-width:0.8;"/>
      </defs>
      <g>
       <use style="stroke:#000000;stroke-width:0.8;" x="33.2875" xlink:href="#md85071df11" y="242.6"/>
      </g>
     </g>
     <g id="text_11">
      <!-- 0 -->
      <g transform="translate(19.925 246.399219)scale(0.1 -0.1)">
       <use xlink:href="#DejaVuSans-48"/>
      </g>
     </g>
    </g>
    <g id="ytick_2">
     <g id="line2d_11">
      <g>
       <use style="stroke:#000000;stroke-width:0.8;" x="33.2875" xlink:href="#md85071df11" y="213.857631"/>
      </g>
     </g>
     <g id="text_12">
      <!-- 100 -->
      <g transform="translate(7.2 217.65685)scale(0.1 -0.1)">
       <use xlink:href="#DejaVuSans-49"/>
       <use x="63.623047" xlink:href="#DejaVuSans-48"/>
       <use x="127.246094" xlink:href="#DejaVuSans-48"/>
      </g>
     </g>
    </g>
    <g id="ytick_3">
     <g id="line2d_12">
      <g>
       <use style="stroke:#000000;stroke-width:0.8;" x="33.2875" xlink:href="#md85071df11" y="185.115263"/>
      </g>
     </g>
     <g id="text_13">
      <!-- 200 -->
      <g transform="translate(7.2 188.914481)scale(0.1 -0.1)">
       <use xlink:href="#DejaVuSans-50"/>
       <use x="63.623047" xlink:href="#DejaVuSans-48"/>
       <use x="127.246094" xlink:href="#DejaVuSans-48"/>
      </g>
     </g>
    </g>
    <g id="ytick_4">
     <g id="line2d_13">
      <g>
       <use style="stroke:#000000;stroke-width:0.8;" x="33.2875" xlink:href="#md85071df11" y="156.372894"/>
      </g>
     </g>
     <g id="text_14">
      <!-- 300 -->
      <defs>
       <path d="M 40.578125 39.3125 
Q 47.65625 37.796875 51.625 33 
Q 55.609375 28.21875 55.609375 21.1875 
Q 55.609375 10.40625 48.1875 4.484375 
Q 40.765625 -1.421875 27.09375 -1.421875 
Q 22.515625 -1.421875 17.65625 -0.515625 
Q 12.796875 0.390625 7.625 2.203125 
L 7.625 11.71875 
Q 11.71875 9.328125 16.59375 8.109375 
Q 21.484375 6.890625 26.8125 6.890625 
Q 36.078125 6.890625 40.9375 10.546875 
Q 45.796875 14.203125 45.796875 21.1875 
Q 45.796875 27.640625 41.28125 31.265625 
Q 36.765625 34.90625 28.71875 34.90625 
L 20.21875 34.90625 
L 20.21875 43.015625 
L 29.109375 43.015625 
Q 36.375 43.015625 40.234375 45.921875 
Q 44.09375 48.828125 44.09375 54.296875 
Q 44.09375 59.90625 40.109375 62.90625 
Q 36.140625 65.921875 28.71875 65.921875 
Q 24.65625 65.921875 20.015625 65.03125 
Q 15.375 64.15625 9.8125 62.3125 
L 9.8125 71.09375 
Q 15.4375 72.65625 20.34375 73.4375 
Q 25.25 74.21875 29.59375 74.21875 
Q 40.828125 74.21875 47.359375 69.109375 
Q 53.90625 64.015625 53.90625 55.328125 
Q 53.90625 49.265625 50.4375 45.09375 
Q 46.96875 40.921875 40.578125 39.3125 
z
" id="DejaVuSans-51"/>
      </defs>
      <g transform="translate(7.2 160.172113)scale(0.1 -0.1)">
       <use xlink:href="#DejaVuSans-51"/>
       <use x="63.623047" xlink:href="#DejaVuSans-48"/>
       <use x="127.246094" xlink:href="#DejaVuSans-48"/>
      </g>
     </g>
    </g>
    <g id="ytick_5">
     <g id="line2d_14">
      <g>
       <use style="stroke:#000000;stroke-width:0.8;" x="33.2875" xlink:href="#md85071df11" y="127.630525"/>
      </g>
     </g>
     <g id="text_15">
      <!-- 400 -->
      <defs>
       <path d="M 37.796875 64.3125 
L 12.890625 25.390625 
L 37.796875 25.390625 
z
M 35.203125 72.90625 
L 47.609375 72.90625 
L 47.609375 25.390625 
L 58.015625 25.390625 
L 58.015625 17.1875 
L 47.609375 17.1875 
L 47.609375 0 
L 37.796875 0 
L 37.796875 17.1875 
L 4.890625 17.1875 
L 4.890625 26.703125 
z
" id="DejaVuSans-52"/>
      </defs>
      <g transform="translate(7.2 131.429744)scale(0.1 -0.1)">
       <use xlink:href="#DejaVuSans-52"/>
       <use x="63.623047" xlink:href="#DejaVuSans-48"/>
       <use x="127.246094" xlink:href="#DejaVuSans-48"/>
      </g>
     </g>
    </g>
    <g id="ytick_6">
     <g id="line2d_15">
      <g>
       <use style="stroke:#000000;stroke-width:0.8;" x="33.2875" xlink:href="#md85071df11" y="98.888156"/>
      </g>
     </g>
     <g id="text_16">
      <!-- 500 -->
      <g transform="translate(7.2 102.687375)scale(0.1 -0.1)">
       <use xlink:href="#DejaVuSans-53"/>
       <use x="63.623047" xlink:href="#DejaVuSans-48"/>
       <use x="127.246094" xlink:href="#DejaVuSans-48"/>
      </g>
     </g>
    </g>
    <g id="ytick_7">
     <g id="line2d_16">
      <g>
       <use style="stroke:#000000;stroke-width:0.8;" x="33.2875" xlink:href="#md85071df11" y="70.145788"/>
      </g>
     </g>
     <g id="text_17">
      <!-- 600 -->
      <defs>
       <path d="M 33.015625 40.375 
Q 26.375 40.375 22.484375 35.828125 
Q 18.609375 31.296875 18.609375 23.390625 
Q 18.609375 15.53125 22.484375 10.953125 
Q 26.375 6.390625 33.015625 6.390625 
Q 39.65625 6.390625 43.53125 10.953125 
Q 47.40625 15.53125 47.40625 23.390625 
Q 47.40625 31.296875 43.53125 35.828125 
Q 39.65625 40.375 33.015625 40.375 
z
M 52.59375 71.296875 
L 52.59375 62.3125 
Q 48.875 64.0625 45.09375 64.984375 
Q 41.3125 65.921875 37.59375 65.921875 
Q 27.828125 65.921875 22.671875 59.328125 
Q 17.53125 52.734375 16.796875 39.40625 
Q 19.671875 43.65625 24.015625 45.921875 
Q 28.375 48.1875 33.59375 48.1875 
Q 44.578125 48.1875 50.953125 41.515625 
Q 57.328125 34.859375 57.328125 23.390625 
Q 57.328125 12.15625 50.6875 5.359375 
Q 44.046875 -1.421875 33.015625 -1.421875 
Q 20.359375 -1.421875 13.671875 8.265625 
Q 6.984375 17.96875 6.984375 36.375 
Q 6.984375 53.65625 15.1875 63.9375 
Q 23.390625 74.21875 37.203125 74.21875 
Q 40.921875 74.21875 44.703125 73.484375 
Q 48.484375 72.75 52.59375 71.296875 
z
" id="DejaVuSans-54"/>
      </defs>
      <g transform="translate(7.2 73.945006)scale(0.1 -0.1)">
       <use xlink:href="#DejaVuSans-54"/>
       <use x="63.623047" xlink:href="#DejaVuSans-48"/>
       <use x="127.246094" xlink:href="#DejaVuSans-48"/>
      </g>
     </g>
    </g>
    <g id="ytick_8">
     <g id="line2d_17">
      <g>
       <use style="stroke:#000000;stroke-width:0.8;" x="33.2875" xlink:href="#md85071df11" y="41.403419"/>
      </g>
     </g>
     <g id="text_18">
      <!-- 700 -->
      <g transform="translate(7.2 45.202638)scale(0.1 -0.1)">
       <use xlink:href="#DejaVuSans-55"/>
       <use x="63.623047" xlink:href="#DejaVuSans-48"/>
       <use x="127.246094" xlink:href="#DejaVuSans-48"/>
      </g>
     </g>
    </g>
    <g id="ytick_9">
     <g id="line2d_18">
      <g>
       <use style="stroke:#000000;stroke-width:0.8;" x="33.2875" xlink:href="#md85071df11" y="12.66105"/>
      </g>
     </g>
     <g id="text_19">
      <!-- 800 -->
      <defs>
       <path d="M 31.78125 34.625 
Q 24.75 34.625 20.71875 30.859375 
Q 16.703125 27.09375 16.703125 20.515625 
Q 16.703125 13.921875 20.71875 10.15625 
Q 24.75 6.390625 31.78125 6.390625 
Q 38.8125 6.390625 42.859375 10.171875 
Q 46.921875 13.96875 46.921875 20.515625 
Q 46.921875 27.09375 42.890625 30.859375 
Q 38.875 34.625 31.78125 34.625 
z
M 21.921875 38.8125 
Q 15.578125 40.375 12.03125 44.71875 
Q 8.5 49.078125 8.5 55.328125 
Q 8.5 64.0625 14.71875 69.140625 
Q 20.953125 74.21875 31.78125 74.21875 
Q 42.671875 74.21875 48.875 69.140625 
Q 55.078125 64.0625 55.078125 55.328125 
Q 55.078125 49.078125 51.53125 44.71875 
Q 48 40.375 41.703125 38.8125 
Q 48.828125 37.15625 52.796875 32.3125 
Q 56.78125 27.484375 56.78125 20.515625 
Q 56.78125 9.90625 50.3125 4.234375 
Q 43.84375 -1.421875 31.78125 -1.421875 
Q 19.734375 -1.421875 13.25 4.234375 
Q 6.78125 9.90625 6.78125 20.515625 
Q 6.78125 27.484375 10.78125 32.3125 
Q 14.796875 37.15625 21.921875 38.8125 
z
M 18.3125 54.390625 
Q 18.3125 48.734375 21.84375 45.5625 
Q 25.390625 42.390625 31.78125 42.390625 
Q 38.140625 42.390625 41.71875 45.5625 
Q 45.3125 48.734375 45.3125 54.390625 
Q 45.3125 60.0625 41.71875 63.234375 
Q 38.140625 66.40625 31.78125 66.40625 
Q 25.390625 66.40625 21.84375 63.234375 
Q 18.3125 60.0625 18.3125 54.390625 
z
" id="DejaVuSans-56"/>
      </defs>
      <g transform="translate(7.2 16.460269)scale(0.1 -0.1)">
       <use xlink:href="#DejaVuSans-56"/>
       <use x="63.623047" xlink:href="#DejaVuSans-48"/>
       <use x="127.246094" xlink:href="#DejaVuSans-48"/>
      </g>
     </g>
    </g>
   </g>
   <g id="patch_63">
    <path d="M 33.2875 242.6 
L 33.2875 7.2 
" style="fill:none;stroke:#000000;stroke-linecap:square;stroke-linejoin:miter;stroke-width:0.8;"/>
   </g>
   <g id="patch_64">
    <path d="M 33.2875 242.6 
L 417.5625 242.6 
" style="fill:none;stroke:#000000;stroke-linecap:square;stroke-linejoin:miter;stroke-width:0.8;"/>
   </g>
   <g id="legend_1">
    <g id="patch_65">
     <path d="M 355.001562 59.234375 
L 410.5625 59.234375 
Q 412.5625 59.234375 412.5625 57.234375 
L 412.5625 14.2 
Q 412.5625 12.2 410.5625 12.2 
L 355.001562 12.2 
Q 353.001562 12.2 353.001562 14.2 
L 353.001562 57.234375 
Q 353.001562 59.234375 355.001562 59.234375 
z
" style="fill:#ffffff;opacity:0.8;stroke:#cccccc;stroke-linejoin:miter;"/>
    </g>
    <g id="patch_66">
     <path d="M 357.001562 23.798437 
L 377.001562 23.798437 
L 377.001562 16.798437 
L 357.001562 16.798437 
z
" style="fill:#a52a2a;opacity:0.5;"/>
    </g>
    <g id="text_20">
     <!-- Diff -->
     <defs>
      <path d="M 19.671875 64.796875 
L 19.671875 8.109375 
L 31.59375 8.109375 
Q 46.6875 8.109375 53.6875 14.9375 
Q 60.6875 21.78125 60.6875 36.53125 
Q 60.6875 51.171875 53.6875 57.984375 
Q 46.6875 64.796875 31.59375 64.796875 
z
M 9.8125 72.90625 
L 30.078125 72.90625 
Q 51.265625 72.90625 61.171875 64.09375 
Q 71.09375 55.28125 71.09375 36.53125 
Q 71.09375 17.671875 61.125 8.828125 
Q 51.171875 0 30.078125 0 
L 9.8125 0 
z
" id="DejaVuSans-68"/>
      <path d="M 9.421875 54.6875 
L 18.40625 54.6875 
L 18.40625 0 
L 9.421875 0 
z
M 9.421875 75.984375 
L 18.40625 75.984375 
L 18.40625 64.59375 
L 9.421875 64.59375 
z
" id="DejaVuSans-105"/>
      <path d="M 37.109375 75.984375 
L 37.109375 68.5 
L 28.515625 68.5 
Q 23.6875 68.5 21.796875 66.546875 
Q 19.921875 64.59375 19.921875 59.515625 
L 19.921875 54.6875 
L 34.71875 54.6875 
L 34.71875 47.703125 
L 19.921875 47.703125 
L 19.921875 0 
L 10.890625 0 
L 10.890625 47.703125 
L 2.296875 47.703125 
L 2.296875 54.6875 
L 10.890625 54.6875 
L 10.890625 58.5 
Q 10.890625 67.625 15.140625 71.796875 
Q 19.390625 75.984375 28.609375 75.984375 
z
" id="DejaVuSans-102"/>
     </defs>
     <g transform="translate(385.001562 23.798437)scale(0.1 -0.1)">
      <use xlink:href="#DejaVuSans-68"/>
      <use x="77.001953" xlink:href="#DejaVuSans-105"/>
      <use x="104.785156" xlink:href="#DejaVuSans-102"/>
      <use x="139.990234" xlink:href="#DejaVuSans-102"/>
     </g>
    </g>
    <g id="patch_67">
     <path d="M 357.001562 38.476562 
L 377.001562 38.476562 
L 377.001562 31.476562 
L 357.001562 31.476562 
z
" style="fill:#800080;opacity:0.5;"/>
    </g>
    <g id="text_21">
     <!-- Levy -->
     <defs>
      <path d="M 9.8125 72.90625 
L 19.671875 72.90625 
L 19.671875 8.296875 
L 55.171875 8.296875 
L 55.171875 0 
L 9.8125 0 
z
" id="DejaVuSans-76"/>
      <path d="M 2.984375 54.6875 
L 12.5 54.6875 
L 29.59375 8.796875 
L 46.6875 54.6875 
L 56.203125 54.6875 
L 35.6875 0 
L 23.484375 0 
z
" id="DejaVuSans-118"/>
      <path d="M 32.171875 -5.078125 
Q 28.375 -14.84375 24.75 -17.8125 
Q 21.140625 -20.796875 15.09375 -20.796875 
L 7.90625 -20.796875 
L 7.90625 -13.28125 
L 13.1875 -13.28125 
Q 16.890625 -13.28125 18.9375 -11.515625 
Q 21 -9.765625 23.484375 -3.21875 
L 25.09375 0.875 
L 2.984375 54.6875 
L 12.5 54.6875 
L 29.59375 11.921875 
L 46.6875 54.6875 
L 56.203125 54.6875 
z
" id="DejaVuSans-121"/>
     </defs>
     <g transform="translate(385.001562 38.476562)scale(0.1 -0.1)">
      <use xlink:href="#DejaVuSans-76"/>
      <use x="55.697266" xlink:href="#DejaVuSans-101"/>
      <use x="117.220703" xlink:href="#DejaVuSans-118"/>
      <use x="176.400391" xlink:href="#DejaVuSans-121"/>
     </g>
    </g>
    <g id="patch_68">
     <path d="M 357.001562 53.154687 
L 377.001562 53.154687 
L 377.001562 46.154687 
L 357.001562 46.154687 
z
" style="fill:#008000;opacity:0.5;"/>
    </g>
    <g id="text_22">
     <!-- Sniff -->
     <defs>
      <path d="M 54.890625 33.015625 
L 54.890625 0 
L 45.90625 0 
L 45.90625 32.71875 
Q 45.90625 40.484375 42.875 44.328125 
Q 39.84375 48.1875 33.796875 48.1875 
Q 26.515625 48.1875 22.3125 43.546875 
Q 18.109375 38.921875 18.109375 30.90625 
L 18.109375 0 
L 9.078125 0 
L 9.078125 54.6875 
L 18.109375 54.6875 
L 18.109375 46.1875 
Q 21.34375 51.125 25.703125 53.5625 
Q 30.078125 56 35.796875 56 
Q 45.21875 56 50.046875 50.171875 
Q 54.890625 44.34375 54.890625 33.015625 
z
" id="DejaVuSans-110"/>
     </defs>
     <g transform="translate(385.001562 53.154687)scale(0.1 -0.1)">
      <use xlink:href="#DejaVuSans-83"/>
      <use x="63.476562" xlink:href="#DejaVuSans-110"/>
      <use x="126.855469" xlink:href="#DejaVuSans-105"/>
      <use x="154.638672" xlink:href="#DejaVuSans-102"/>
      <use x="189.84375" xlink:href="#DejaVuSans-102"/>
     </g>
    </g>
   </g>
  </g>
 </g>
 <defs>
  <clipPath id="p59696f9f09">
   <rect height="235.4" width="384.275" x="33.2875" y="7.2"/>
  </clipPath>
 </defs>
</svg>