<?xml version="1.0" encoding="utf-8" standalone="no"?>
<!DOCTYPE svg PUBLIC "-//W3C//DTD SVG 1.1//EN"
  "http://www.w3.org/Graphics/SVG/1.1/DTD/svg11.dtd">
<!-- Created with matplotlib (https://matplotlib.org/) -->
<svg height="207.83625pt" version="1.1" viewBox="0 0 307.925 207.83625" width="307.925pt" xmlns="http://www.w3.org/2000/svg" xmlns:xlink="http://www.w3.org/1999/xlink">
 <defs>
  <style type="text/css">
*{stroke-linecap:butt;stroke-linejoin:round;}
  </style>
 </defs>
 <g id="figure_1">
  <g id="patch_1">
   <path d="M 0 207.83625 
L 307.925 207.83625 
L 307.925 0 
L 0 0 
z
" style="fill:none;"/>
  </g>
  <g id="axes_1">
   <g id="patch_2">
    <path d="M 45.478125 170.28 
L 212.878125 170.28 
L 212.878125 7.2 
L 45.478125 7.2 
z
" style="fill:#ffffff;"/>
   </g>
   <g id="patch_3">
    <path clip-path="url(#p9151b52084)" d="M 53.424618 120779.673589 
L 55.666791 120779.673589 
L 55.666791 101.223845 
L 53.424618 101.223845 
z
" style="fill:#a52a2a;opacity:0.6;"/>
   </g>
   <g id="patch_4">
    <path clip-path="url(#p9151b52084)" d="M 55.666791 120779.673589 
L 57.908965 120779.673589 
L 57.908965 102.799583 
L 55.666791 102.799583 
z
" style="fill:#a52a2a;opacity:0.6;"/>
   </g>
   <g id="patch_5">
    <path clip-path="url(#p9151b52084)" d="M 57.908965 120779.673589 
L 60.151138 120779.673589 
L 60.151138 46.844092 
L 57.908965 46.844092 
z
" style="fill:#a52a2a;opacity:0.6;"/>
   </g>
   <g id="patch_6">
    <path clip-path="url(#p9151b52084)" d="M 60.151138 120779.673589 
L 62.393311 120779.673589 
L 62.393311 120779.673589 
L 60.151138 120779.673589 
z
" style="fill:#a52a2a;opacity:0.6;"/>
   </g>
   <g id="patch_7">
    <path clip-path="url(#p9151b52084)" d="M 62.393311 120779.673589 
L 64.635484 120779.673589 
L 64.635484 107.526797 
L 62.393311 107.526797 
z
" style="fill:#a52a2a;opacity:0.6;"/>
   </g>
   <g id="patch_8">
    <path clip-path="url(#p9151b52084)" d="M 64.635484 120779.673589 
L 66.877657 120779.673589 
L 66.877657 72.804371 
L 64.635484 72.804371 
z
" style="fill:#a52a2a;opacity:0.6;"/>
   </g>
   <g id="patch_9">
    <path clip-path="url(#p9151b52084)" d="M 66.877657 120779.673589 
L 69.119831 120779.673589 
L 69.119831 120779.673589 
L 66.877657 120779.673589 
z
" style="fill:#a52a2a;opacity:0.6;"/>
   </g>
   <g id="patch_10">
    <path clip-path="url(#p9151b52084)" d="M 69.119831 120779.673589 
L 71.362004 120779.673589 
L 71.362004 120779.673589 
L 69.119831 120779.673589 
z
" style="fill:#a52a2a;opacity:0.6;"/>
   </g>
   <g id="patch_11">
    <path clip-path="url(#p9151b52084)" d="M 71.362004 120779.673589 
L 73.604177 120779.673589 
L 73.604177 113.82975 
L 71.362004 113.82975 
z
" style="fill:#a52a2a;opacity:0.6;"/>
   </g>
   <g id="patch_12">
    <path clip-path="url(#p9151b52084)" d="M 73.604177 120779.673589 
L 75.84635 120779.673589 
L 75.84635 79.107324 
L 73.604177 79.107324 
z
" style="fill:#a52a2a;opacity:0.6;"/>
   </g>
   <g id="patch_13">
    <path clip-path="url(#p9151b52084)" d="M 75.84635 120779.673589 
L 78.088523 120779.673589 
L 78.088523 116.981226 
L 75.84635 116.981226 
z
" style="fill:#a52a2a;opacity:0.6;"/>
   </g>
   <g id="patch_14">
    <path clip-path="url(#p9151b52084)" d="M 78.088523 120779.673589 
L 80.330697 120779.673589 
L 80.330697 118.556965 
L 78.088523 118.556965 
z
" style="fill:#a52a2a;opacity:0.6;"/>
   </g>
   <g id="patch_15">
    <path clip-path="url(#p9151b52084)" d="M 80.330697 120779.673589 
L 82.57287 120779.673589 
L 82.57287 83.834539 
L 80.330697 83.834539 
z
" style="fill:#a52a2a;opacity:0.6;"/>
   </g>
   <g id="patch_16">
    <path clip-path="url(#p9151b52084)" d="M 82.57287 120779.673589 
L 84.815043 120779.673589 
L 84.815043 121.708441 
L 82.57287 121.708441 
z
" style="fill:#a52a2a;opacity:0.6;"/>
   </g>
   <g id="patch_17">
    <path clip-path="url(#p9151b52084)" d="M 84.815043 120779.673589 
L 87.057216 120779.673589 
L 87.057216 120779.673589 
L 84.815043 120779.673589 
z
" style="fill:#a52a2a;opacity:0.6;"/>
   </g>
   <g id="patch_18">
    <path clip-path="url(#p9151b52084)" d="M 87.057216 120779.673589 
L 89.299389 120779.673589 
L 89.299389 124.859917 
L 87.057216 124.859917 
z
" style="fill:#a52a2a;opacity:0.6;"/>
   </g>
   <g id="patch_19">
    <path clip-path="url(#p9151b52084)" d="M 89.299389 120779.673589 
L 91.541563 120779.673589 
L 91.541563 90.137492 
L 89.299389 90.137492 
z
" style="fill:#a52a2a;opacity:0.6;"/>
   </g>
   <g id="patch_20">
    <path clip-path="url(#p9151b52084)" d="M 91.541563 120779.673589 
L 93.783736 120779.673589 
L 93.783736 80.027831 
L 91.541563 80.027831 
z
" style="fill:#a52a2a;opacity:0.6;"/>
   </g>
   <g id="patch_21">
    <path clip-path="url(#p9151b52084)" d="M 93.783736 120779.673589 
L 96.025909 120779.673589 
L 96.025909 93.288968 
L 93.783736 93.288968 
z
" style="fill:#a52a2a;opacity:0.6;"/>
   </g>
   <g id="patch_22">
    <path clip-path="url(#p9151b52084)" d="M 96.025909 120779.673589 
L 98.268082 120779.673589 
L 98.268082 131.16287 
L 96.025909 131.16287 
z
" style="fill:#a52a2a;opacity:0.6;"/>
   </g>
   <g id="patch_23">
    <path clip-path="url(#p9151b52084)" d="M 98.268082 120779.673589 
L 100.510255 120779.673589 
L 100.510255 75.20738 
L 98.268082 75.20738 
z
" style="fill:#a52a2a;opacity:0.6;"/>
   </g>
   <g id="patch_24">
    <path clip-path="url(#p9151b52084)" d="M 100.510255 120779.673589 
L 102.752429 120779.673589 
L 102.752429 120779.673589 
L 100.510255 120779.673589 
z
" style="fill:#a52a2a;opacity:0.6;"/>
   </g>
   <g id="patch_25">
    <path clip-path="url(#p9151b52084)" d="M 102.752429 120779.673589 
L 104.994602 120779.673589 
L 104.994602 135.890085 
L 102.752429 135.890085 
z
" style="fill:#a52a2a;opacity:0.6;"/>
   </g>
   <g id="patch_26">
    <path clip-path="url(#p9151b52084)" d="M 104.994602 120779.673589 
L 107.236775 120779.673589 
L 107.236775 120779.673589 
L 104.994602 120779.673589 
z
" style="fill:#a52a2a;opacity:0.6;"/>
   </g>
   <g id="patch_27">
    <path clip-path="url(#p9151b52084)" d="M 107.236775 120779.673589 
L 109.478948 120779.673589 
L 109.478948 117.808496 
L 107.236775 117.808496 
z
" style="fill:#a52a2a;opacity:0.6;"/>
   </g>
   <g id="patch_28">
    <path clip-path="url(#p9151b52084)" d="M 109.478948 120779.673589 
L 111.721121 120779.673589 
L 111.721121 83.08607 
L 109.478948 83.08607 
z
" style="fill:#a52a2a;opacity:0.6;"/>
   </g>
   <g id="patch_29">
    <path clip-path="url(#p9151b52084)" d="M 111.721121 120779.673589 
L 113.963294 120779.673589 
L 113.963294 120779.673589 
L 111.721121 120779.673589 
z
" style="fill:#a52a2a;opacity:0.6;"/>
   </g>
   <g id="patch_30">
    <path clip-path="url(#p9151b52084)" d="M 113.963294 120779.673589 
L 116.205468 120779.673589 
L 116.205468 120779.673589 
L 113.963294 120779.673589 
z
" style="fill:#a52a2a;opacity:0.6;"/>
   </g>
   <g id="patch_31">
    <path clip-path="url(#p9151b52084)" d="M 116.205468 120779.673589 
L 118.447641 120779.673589 
L 118.447641 120779.673589 
L 116.205468 120779.673589 
z
" style="fill:#a52a2a;opacity:0.6;"/>
   </g>
   <g id="patch_32">
    <path clip-path="url(#p9151b52084)" d="M 118.447641 120779.673589 
L 120.689814 120779.673589 
L 120.689814 120779.673589 
L 118.447641 120779.673589 
z
" style="fill:#a52a2a;opacity:0.6;"/>
   </g>
   <g id="patch_33">
    <path clip-path="url(#p9151b52084)" d="M 120.689814 120779.673589 
L 122.931987 120779.673589 
L 122.931987 127.262925 
L 120.689814 127.262925 
z
" style="fill:#a52a2a;opacity:0.6;"/>
   </g>
   <g id="patch_34">
    <path clip-path="url(#p9151b52084)" d="M 122.931987 120779.673589 
L 125.17416 120779.673589 
L 125.17416 120779.673589 
L 122.931987 120779.673589 
z
" style="fill:#a52a2a;opacity:0.6;"/>
   </g>
   <g id="patch_35">
    <path clip-path="url(#p9151b52084)" d="M 125.17416 120779.673589 
L 127.416334 120779.673589 
L 127.416334 120779.673589 
L 125.17416 120779.673589 
z
" style="fill:#a52a2a;opacity:0.6;"/>
   </g>
   <g id="patch_36">
    <path clip-path="url(#p9151b52084)" d="M 127.416334 120779.673589 
L 129.658507 120779.673589 
L 129.658507 131.99014 
L 127.416334 131.99014 
z
" style="fill:#a52a2a;opacity:0.6;"/>
   </g>
   <g id="patch_37">
    <path clip-path="url(#p9151b52084)" d="M 129.658507 120779.673589 
L 131.90068 120779.673589 
L 131.90068 133.565878 
L 129.658507 133.565878 
z
" style="fill:#a52a2a;opacity:0.6;"/>
   </g>
   <g id="patch_38">
    <path clip-path="url(#p9151b52084)" d="M 131.90068 120779.673589 
L 134.142853 120779.673589 
L 134.142853 135.141616 
L 131.90068 135.141616 
z
" style="fill:#a52a2a;opacity:0.6;"/>
   </g>
   <g id="patch_39">
    <path clip-path="url(#p9151b52084)" d="M 134.142853 120779.673589 
L 136.385026 120779.673589 
L 136.385026 136.717355 
L 134.142853 136.717355 
z
" style="fill:#a52a2a;opacity:0.6;"/>
   </g>
   <g id="patch_40">
    <path clip-path="url(#p9151b52084)" d="M 136.385026 120779.673589 
L 138.6272 120779.673589 
L 138.6272 120779.673589 
L 136.385026 120779.673589 
z
" style="fill:#a52a2a;opacity:0.6;"/>
   </g>
   <g id="patch_41">
    <path clip-path="url(#p9151b52084)" d="M 138.6272 120779.673589 
L 140.869373 120779.673589 
L 140.869373 120779.673589 
L 138.6272 120779.673589 
z
" style="fill:#a52a2a;opacity:0.6;"/>
   </g>
   <g id="patch_42">
    <path clip-path="url(#p9151b52084)" d="M 140.869373 120779.673589 
L 143.111546 120779.673589 
L 143.111546 120779.673589 
L 140.869373 120779.673589 
z
" style="fill:#a52a2a;opacity:0.6;"/>
   </g>
   <g id="patch_43">
    <path clip-path="url(#p9151b52084)" d="M 143.111546 120779.673589 
L 145.353719 120779.673589 
L 145.353719 91.657044 
L 143.111546 91.657044 
z
" style="fill:#a52a2a;opacity:0.6;"/>
   </g>
   <g id="patch_44">
    <path clip-path="url(#p9151b52084)" d="M 145.353719 120779.673589 
L 147.595892 120779.673589 
L 147.595892 120779.673589 
L 145.353719 120779.673589 
z
" style="fill:#a52a2a;opacity:0.6;"/>
   </g>
   <g id="patch_45">
    <path clip-path="url(#p9151b52084)" d="M 147.595892 120779.673589 
L 149.838066 120779.673589 
L 149.838066 120779.673589 
L 147.595892 120779.673589 
z
" style="fill:#a52a2a;opacity:0.6;"/>
   </g>
   <g id="patch_46">
    <path clip-path="url(#p9151b52084)" d="M 149.838066 120779.673589 
L 152.080239 120779.673589 
L 152.080239 120779.673589 
L 149.838066 120779.673589 
z
" style="fill:#a52a2a;opacity:0.6;"/>
   </g>
   <g id="patch_47">
    <path clip-path="url(#p9151b52084)" d="M 152.080239 120779.673589 
L 154.322412 120779.673589 
L 154.322412 120779.673589 
L 152.080239 120779.673589 
z
" style="fill:#a52a2a;opacity:0.6;"/>
   </g>
   <g id="patch_48">
    <path clip-path="url(#p9151b52084)" d="M 154.322412 120779.673589 
L 156.564585 120779.673589 
L 156.564585 120779.673589 
L 154.322412 120779.673589 
z
" style="fill:#a52a2a;opacity:0.6;"/>
   </g>
   <g id="patch_49">
    <path clip-path="url(#p9151b52084)" d="M 156.564585 120779.673589 
L 158.806758 120779.673589 
L 158.806758 125.724238 
L 156.564585 125.724238 
z
" style="fill:#a52a2a;opacity:0.6;"/>
   </g>
   <g id="patch_50">
    <path clip-path="url(#p9151b52084)" d="M 158.806758 120779.673589 
L 161.048932 120779.673589 
L 161.048932 120779.673589 
L 158.806758 120779.673589 
z
" style="fill:#a52a2a;opacity:0.6;"/>
   </g>
   <g id="patch_51">
    <path clip-path="url(#p9151b52084)" d="M 161.048932 120779.673589 
L 163.291105 120779.673589 
L 163.291105 128.875715 
L 161.048932 128.875715 
z
" style="fill:#a52a2a;opacity:0.6;"/>
   </g>
   <g id="patch_52">
    <path clip-path="url(#p9151b52084)" d="M 53.087216 120779.673589 
L 55.666569 120779.673589 
L 55.666569 14.612727 
L 53.087216 14.612727 
z
" style="fill:#800080;opacity:0.6;"/>
   </g>
   <g id="patch_53">
    <path clip-path="url(#p9151b52084)" d="M 55.666569 120779.673589 
L 58.245922 120779.673589 
L 58.245922 25.973092 
L 55.666569 25.973092 
z
" style="fill:#800080;opacity:0.6;"/>
   </g>
   <g id="patch_54">
    <path clip-path="url(#p9151b52084)" d="M 58.245922 120779.673589 
L 60.825274 120779.673589 
L 60.825274 75.769354 
L 58.245922 75.769354 
z
" style="fill:#800080;opacity:0.6;"/>
   </g>
   <g id="patch_55">
    <path clip-path="url(#p9151b52084)" d="M 60.825274 120779.673589 
L 63.404627 120779.673589 
L 63.404627 29.59849 
L 60.825274 29.59849 
z
" style="fill:#800080;opacity:0.6;"/>
   </g>
   <g id="patch_56">
    <path clip-path="url(#p9151b52084)" d="M 63.404627 120779.673589 
L 65.98398 120779.673589 
L 65.98398 115.692916 
L 63.404627 115.692916 
z
" style="fill:#800080;opacity:0.6;"/>
   </g>
   <g id="patch_57">
    <path clip-path="url(#p9151b52084)" d="M 65.98398 120779.673589 
L 68.563333 120779.673589 
L 68.563333 117.505614 
L 65.98398 117.505614 
z
" style="fill:#800080;opacity:0.6;"/>
   </g>
   <g id="patch_58">
    <path clip-path="url(#p9151b52084)" d="M 68.563333 120779.673589 
L 71.142686 120779.673589 
L 71.142686 120779.673589 
L 68.563333 120779.673589 
z
" style="fill:#800080;opacity:0.6;"/>
   </g>
   <g id="patch_59">
    <path clip-path="url(#p9151b52084)" d="M 71.142686 120779.673589 
L 73.722039 120779.673589 
L 73.722039 121.131012 
L 71.142686 121.131012 
z
" style="fill:#800080;opacity:0.6;"/>
   </g>
   <g id="patch_60">
    <path clip-path="url(#p9151b52084)" d="M 73.722039 120779.673589 
L 76.301392 120779.673589 
L 76.301392 120779.673589 
L 73.722039 120779.673589 
z
" style="fill:#800080;opacity:0.6;"/>
   </g>
   <g id="patch_61">
    <path clip-path="url(#p9151b52084)" d="M 76.301392 120779.673589 
L 78.880744 120779.673589 
L 78.880744 120779.673589 
L 76.301392 120779.673589 
z
" style="fill:#800080;opacity:0.6;"/>
   </g>
   <g id="patch_62">
    <path clip-path="url(#p9151b52084)" d="M 78.880744 120779.673589 
L 81.460097 120779.673589 
L 81.460097 162.867273 
L 78.880744 162.867273 
z
" style="fill:#800080;opacity:0.6;"/>
   </g>
   <g id="patch_63">
    <path clip-path="url(#p9151b52084)" d="M 81.460097 120779.673589 
L 84.03945 120779.673589 
L 84.03945 128.381808 
L 81.460097 128.381808 
z
" style="fill:#800080;opacity:0.6;"/>
   </g>
   <g id="patch_64">
    <path clip-path="url(#p9151b52084)" d="M 84.03945 120779.673589 
L 86.618803 120779.673589 
L 86.618803 72.663278 
L 84.03945 72.663278 
z
" style="fill:#800080;opacity:0.6;"/>
   </g>
   <g id="patch_65">
    <path clip-path="url(#p9151b52084)" d="M 86.618803 120779.673589 
L 89.198156 120779.673589 
L 89.198156 120779.673589 
L 86.618803 120779.673589 
z
" style="fill:#800080;opacity:0.6;"/>
   </g>
   <g id="patch_66">
    <path clip-path="url(#p9151b52084)" d="M 89.198156 120779.673589 
L 91.777509 120779.673589 
L 91.777509 133.819904 
L 89.198156 133.819904 
z
" style="fill:#800080;opacity:0.6;"/>
   </g>
   <g id="patch_67">
    <path clip-path="url(#p9151b52084)" d="M 91.777509 120779.673589 
L 94.356862 120779.673589 
L 94.356862 120779.673589 
L 91.777509 120779.673589 
z
" style="fill:#800080;opacity:0.6;"/>
   </g>
   <g id="patch_68">
    <path clip-path="url(#p9151b52084)" d="M 94.356862 120779.673589 
L 96.936214 120779.673589 
L 96.936214 101.147138 
L 94.356862 101.147138 
z
" style="fill:#800080;opacity:0.6;"/>
   </g>
   <g id="patch_69">
    <path clip-path="url(#p9151b52084)" d="M 96.936214 120779.673589 
L 99.515567 120779.673589 
L 99.515567 102.959837 
L 96.936214 102.959837 
z
" style="fill:#800080;opacity:0.6;"/>
   </g>
   <g id="patch_70">
    <path clip-path="url(#p9151b52084)" d="M 99.515567 120779.673589 
L 102.09492 120779.673589 
L 102.09492 120779.673589 
L 99.515567 120779.673589 
z
" style="fill:#800080;opacity:0.6;"/>
   </g>
   <g id="patch_71">
    <path clip-path="url(#p9151b52084)" d="M 102.09492 120779.673589 
L 104.674273 120779.673589 
L 104.674273 120779.673589 
L 102.09492 120779.673589 
z
" style="fill:#800080;opacity:0.6;"/>
   </g>
   <g id="patch_72">
    <path clip-path="url(#p9151b52084)" d="M 104.674273 120779.673589 
L 107.253626 120779.673589 
L 107.253626 120779.673589 
L 104.674273 120779.673589 
z
" style="fill:#800080;opacity:0.6;"/>
   </g>
   <g id="patch_73">
    <path clip-path="url(#p9151b52084)" d="M 107.253626 120779.673589 
L 109.832979 120779.673589 
L 109.832979 125.275731 
L 107.253626 125.275731 
z
" style="fill:#800080;opacity:0.6;"/>
   </g>
   <g id="patch_74">
    <path clip-path="url(#p9151b52084)" d="M 109.832979 120779.673589 
L 112.412331 120779.673589 
L 112.412331 127.08843 
L 109.832979 127.08843 
z
" style="fill:#800080;opacity:0.6;"/>
   </g>
   <g id="patch_75">
    <path clip-path="url(#p9151b52084)" d="M 112.412331 120779.673589 
L 114.991684 120779.673589 
L 114.991684 120779.673589 
L 112.412331 120779.673589 
z
" style="fill:#800080;opacity:0.6;"/>
   </g>
   <g id="patch_76">
    <path clip-path="url(#p9151b52084)" d="M 114.991684 120779.673589 
L 117.571037 120779.673589 
L 117.571037 120779.673589 
L 114.991684 120779.673589 
z
" style="fill:#800080;opacity:0.6;"/>
   </g>
   <g id="patch_77">
    <path clip-path="url(#p9151b52084)" d="M 117.571037 120779.673589 
L 120.15039 120779.673589 
L 120.15039 120779.673589 
L 117.571037 120779.673589 
z
" style="fill:#800080;opacity:0.6;"/>
   </g>
   <g id="patch_78">
    <path clip-path="url(#p9151b52084)" d="M 120.15039 120779.673589 
L 122.729743 120779.673589 
L 122.729743 120779.673589 
L 120.15039 120779.673589 
z
" style="fill:#800080;opacity:0.6;"/>
   </g>
   <g id="patch_79">
    <path clip-path="url(#p9151b52084)" d="M 122.729743 120779.673589 
L 125.309096 120779.673589 
L 125.309096 120779.673589 
L 122.729743 120779.673589 
z
" style="fill:#800080;opacity:0.6;"/>
   </g>
   <g id="patch_80">
    <path clip-path="url(#p9151b52084)" d="M 125.309096 120779.673589 
L 127.888449 120779.673589 
L 127.888449 120779.673589 
L 125.309096 120779.673589 
z
" style="fill:#800080;opacity:0.6;"/>
   </g>
   <g id="patch_81">
    <path clip-path="url(#p9151b52084)" d="M 127.888449 120779.673589 
L 130.467801 120779.673589 
L 130.467801 120779.673589 
L 127.888449 120779.673589 
z
" style="fill:#800080;opacity:0.6;"/>
   </g>
   <g id="patch_82">
    <path clip-path="url(#p9151b52084)" d="M 130.467801 120779.673589 
L 133.047154 120779.673589 
L 133.047154 120779.673589 
L 130.467801 120779.673589 
z
" style="fill:#800080;opacity:0.6;"/>
   </g>
   <g id="patch_83">
    <path clip-path="url(#p9151b52084)" d="M 133.047154 120779.673589 
L 135.626507 120779.673589 
L 135.626507 120779.673589 
L 133.047154 120779.673589 
z
" style="fill:#800080;opacity:0.6;"/>
   </g>
   <g id="patch_84">
    <path clip-path="url(#p9151b52084)" d="M 135.626507 120779.673589 
L 138.20586 120779.673589 
L 138.20586 120779.673589 
L 135.626507 120779.673589 
z
" style="fill:#800080;opacity:0.6;"/>
   </g>
   <g id="patch_85">
    <path clip-path="url(#p9151b52084)" d="M 138.20586 120779.673589 
L 140.785213 120779.673589 
L 140.785213 131.963018 
L 138.20586 131.963018 
z
" style="fill:#800080;opacity:0.6;"/>
   </g>
   <g id="patch_86">
    <path clip-path="url(#p9151b52084)" d="M 140.785213 120779.673589 
L 143.364566 120779.673589 
L 143.364566 120779.673589 
L 140.785213 120779.673589 
z
" style="fill:#800080;opacity:0.6;"/>
   </g>
   <g id="patch_87">
    <path clip-path="url(#p9151b52084)" d="M 143.364566 120779.673589 
L 145.943919 120779.673589 
L 145.943919 120779.673589 
L 143.364566 120779.673589 
z
" style="fill:#800080;opacity:0.6;"/>
   </g>
   <g id="patch_88">
    <path clip-path="url(#p9151b52084)" d="M 145.943919 120779.673589 
L 148.523271 120779.673589 
L 148.523271 120779.673589 
L 145.943919 120779.673589 
z
" style="fill:#800080;opacity:0.6;"/>
   </g>
   <g id="patch_89">
    <path clip-path="url(#p9151b52084)" d="M 148.523271 120779.673589 
L 151.102624 120779.673589 
L 151.102624 120779.673589 
L 148.523271 120779.673589 
z
" style="fill:#800080;opacity:0.6;"/>
   </g>
   <g id="patch_90">
    <path clip-path="url(#p9151b52084)" d="M 151.102624 120779.673589 
L 153.681977 120779.673589 
L 153.681977 120779.673589 
L 151.102624 120779.673589 
z
" style="fill:#800080;opacity:0.6;"/>
   </g>
   <g id="patch_91">
    <path clip-path="url(#p9151b52084)" d="M 153.681977 120779.673589 
L 156.26133 120779.673589 
L 156.26133 106.541048 
L 153.681977 106.541048 
z
" style="fill:#800080;opacity:0.6;"/>
   </g>
   <g id="patch_92">
    <path clip-path="url(#p9151b52084)" d="M 156.26133 120779.673589 
L 158.840683 120779.673589 
L 158.840683 120779.673589 
L 156.26133 120779.673589 
z
" style="fill:#800080;opacity:0.6;"/>
   </g>
   <g id="patch_93">
    <path clip-path="url(#p9151b52084)" d="M 158.840683 120779.673589 
L 161.420036 120779.673589 
L 161.420036 120779.673589 
L 158.840683 120779.673589 
z
" style="fill:#800080;opacity:0.6;"/>
   </g>
   <g id="patch_94">
    <path clip-path="url(#p9151b52084)" d="M 161.420036 120779.673589 
L 163.999388 120779.673589 
L 163.999388 120779.673589 
L 161.420036 120779.673589 
z
" style="fill:#800080;opacity:0.6;"/>
   </g>
   <g id="patch_95">
    <path clip-path="url(#p9151b52084)" d="M 163.999388 120779.673589 
L 166.578741 120779.673589 
L 166.578741 120779.673589 
L 163.999388 120779.673589 
z
" style="fill:#800080;opacity:0.6;"/>
   </g>
   <g id="patch_96">
    <path clip-path="url(#p9151b52084)" d="M 166.578741 120779.673589 
L 169.158094 120779.673589 
L 169.158094 120779.673589 
L 166.578741 120779.673589 
z
" style="fill:#800080;opacity:0.6;"/>
   </g>
   <g id="patch_97">
    <path clip-path="url(#p9151b52084)" d="M 169.158094 120779.673589 
L 171.737447 120779.673589 
L 171.737447 120779.673589 
L 169.158094 120779.673589 
z
" style="fill:#800080;opacity:0.6;"/>
   </g>
   <g id="patch_98">
    <path clip-path="url(#p9151b52084)" d="M 171.737447 120779.673589 
L 174.3168 120779.673589 
L 174.3168 134.295039 
L 171.737447 134.295039 
z
" style="fill:#800080;opacity:0.6;"/>
   </g>
   <g id="patch_99">
    <path clip-path="url(#p9151b52084)" d="M 174.3168 120779.673589 
L 176.896153 120779.673589 
L 176.896153 120779.673589 
L 174.3168 120779.673589 
z
" style="fill:#800080;opacity:0.6;"/>
   </g>
   <g id="patch_100">
    <path clip-path="url(#p9151b52084)" d="M 176.896153 120779.673589 
L 179.475506 120779.673589 
L 179.475506 137.920436 
L 176.896153 137.920436 
z
" style="fill:#800080;opacity:0.6;"/>
   </g>
   <g id="patch_101">
    <path clip-path="url(#p9151b52084)" d="M 179.475506 120779.673589 
L 182.054858 120779.673589 
L 182.054858 120779.673589 
L 179.475506 120779.673589 
z
" style="fill:#800080;opacity:0.6;"/>
   </g>
   <g id="patch_102">
    <path clip-path="url(#p9151b52084)" d="M 182.054858 120779.673589 
L 184.634211 120779.673589 
L 184.634211 120779.673589 
L 182.054858 120779.673589 
z
" style="fill:#800080;opacity:0.6;"/>
   </g>
   <g id="patch_103">
    <path clip-path="url(#p9151b52084)" d="M 184.634211 120779.673589 
L 187.213564 120779.673589 
L 187.213564 120779.673589 
L 184.634211 120779.673589 
z
" style="fill:#800080;opacity:0.6;"/>
   </g>
   <g id="patch_104">
    <path clip-path="url(#p9151b52084)" d="M 187.213564 120779.673589 
L 189.792917 120779.673589 
L 189.792917 120779.673589 
L 187.213564 120779.673589 
z
" style="fill:#800080;opacity:0.6;"/>
   </g>
   <g id="patch_105">
    <path clip-path="url(#p9151b52084)" d="M 189.792917 120779.673589 
L 192.37227 120779.673589 
L 192.37227 120779.673589 
L 189.792917 120779.673589 
z
" style="fill:#800080;opacity:0.6;"/>
   </g>
   <g id="patch_106">
    <path clip-path="url(#p9151b52084)" d="M 192.37227 120779.673589 
L 194.951623 120779.673589 
L 194.951623 120779.673589 
L 192.37227 120779.673589 
z
" style="fill:#800080;opacity:0.6;"/>
   </g>
   <g id="patch_107">
    <path clip-path="url(#p9151b52084)" d="M 194.951623 120779.673589 
L 197.530976 120779.673589 
L 197.530976 120779.673589 
L 194.951623 120779.673589 
z
" style="fill:#800080;opacity:0.6;"/>
   </g>
   <g id="patch_108">
    <path clip-path="url(#p9151b52084)" d="M 197.530976 120779.673589 
L 200.110328 120779.673589 
L 200.110328 120779.673589 
L 197.530976 120779.673589 
z
" style="fill:#800080;opacity:0.6;"/>
   </g>
   <g id="patch_109">
    <path clip-path="url(#p9151b52084)" d="M 200.110328 120779.673589 
L 202.689681 120779.673589 
L 202.689681 120779.673589 
L 200.110328 120779.673589 
z
" style="fill:#800080;opacity:0.6;"/>
   </g>
   <g id="patch_110">
    <path clip-path="url(#p9151b52084)" d="M 202.689681 120779.673589 
L 205.269034 120779.673589 
L 205.269034 140.982326 
L 202.689681 140.982326 
z
" style="fill:#800080;opacity:0.6;"/>
   </g>
   <g id="matplotlib.axis_1">
    <g id="xtick_1">
     <g id="line2d_1">
      <defs>
       <path d="M 0 0 
L 0 3.5 
" id="m482d28c6f3" style="stroke:#000000;stroke-width:0.8;"/>
      </defs>
      <g>
       <use style="stroke:#000000;stroke-width:0.8;" x="52.90208" xlink:href="#m482d28c6f3" y="170.28"/>
      </g>
     </g>
     <g id="text_1">
      <!-- $\mathdefault{10^{-1}}$ -->
      <defs>
       <path d="M 12.40625 8.296875 
L 28.515625 8.296875 
L 28.515625 63.921875 
L 10.984375 60.40625 
L 10.984375 69.390625 
L 28.421875 72.90625 
L 38.28125 72.90625 
L 38.28125 8.296875 
L 54.390625 8.296875 
L 54.390625 0 
L 12.40625 0 
z
" id="DejaVuSans-49"/>
       <path d="M 31.78125 66.40625 
Q 24.171875 66.40625 20.328125 58.90625 
Q 16.5 51.421875 16.5 36.375 
Q 16.5 21.390625 20.328125 13.890625 
Q 24.171875 6.390625 31.78125 6.390625 
Q 39.453125 6.390625 43.28125 13.890625 
Q 47.125 21.390625 47.125 36.375 
Q 47.125 51.421875 43.28125 58.90625 
Q 39.453125 66.40625 31.78125 66.40625 
z
M 31.78125 74.21875 
Q 44.046875 74.21875 50.515625 64.515625 
Q 56.984375 54.828125 56.984375 36.375 
Q 56.984375 17.96875 50.515625 8.265625 
Q 44.046875 -1.421875 31.78125 -1.421875 
Q 19.53125 -1.421875 13.0625 8.265625 
Q 6.59375 17.96875 6.59375 36.375 
Q 6.59375 54.828125 13.0625 64.515625 
Q 19.53125 74.21875 31.78125 74.21875 
z
" id="DejaVuSans-48"/>
       <path d="M 10.59375 35.5 
L 73.1875 35.5 
L 73.1875 27.203125 
L 10.59375 27.203125 
z
" id="DejaVuSans-8722"/>
      </defs>
      <g transform="translate(41.15208 184.878438)scale(0.1 -0.1)">
       <use transform="translate(0 0.684375)" xlink:href="#DejaVuSans-49"/>
       <use transform="translate(63.623047 0.684375)" xlink:href="#DejaVuSans-48"/>
       <use transform="translate(128.203125 38.965625)scale(0.7)" xlink:href="#DejaVuSans-8722"/>
       <use transform="translate(186.855469 38.965625)scale(0.7)" xlink:href="#DejaVuSans-49"/>
      </g>
     </g>
    </g>
    <g id="xtick_2">
     <g id="line2d_2">
      <defs>
       <path d="M 0 0 
L 0 2 
" id="m144c3b5f85" style="stroke:#000000;stroke-width:0.6;"/>
      </defs>
      <g>
       <use style="stroke:#000000;stroke-width:0.6;" x="104.552012" xlink:href="#m144c3b5f85" y="170.28"/>
      </g>
     </g>
     <g id="text_2">
      <!-- $\mathdefault{2\times10^{-1}}$ -->
      <defs>
       <path d="M 19.1875 8.296875 
L 53.609375 8.296875 
L 53.609375 0 
L 7.328125 0 
L 7.328125 8.296875 
Q 12.9375 14.109375 22.625 23.890625 
Q 32.328125 33.6875 34.8125 36.53125 
Q 39.546875 41.84375 41.421875 45.53125 
Q 43.3125 49.21875 43.3125 52.78125 
Q 43.3125 58.59375 39.234375 62.25 
Q 35.15625 65.921875 28.609375 65.921875 
Q 23.96875 65.921875 18.8125 64.3125 
Q 13.671875 62.703125 7.8125 59.421875 
L 7.8125 69.390625 
Q 13.765625 71.78125 18.9375 73 
Q 24.125 74.21875 28.421875 74.21875 
Q 39.75 74.21875 46.484375 68.546875 
Q 53.21875 62.890625 53.21875 53.421875 
Q 53.21875 48.921875 51.53125 44.890625 
Q 49.859375 40.875 45.40625 35.40625 
Q 44.1875 33.984375 37.640625 27.21875 
Q 31.109375 20.453125 19.1875 8.296875 
z
" id="DejaVuSans-50"/>
       <path d="M 70.125 53.71875 
L 47.796875 31.296875 
L 70.125 8.984375 
L 64.3125 3.078125 
L 41.890625 25.484375 
L 19.484375 3.078125 
L 13.71875 8.984375 
L 35.984375 31.296875 
L 13.71875 53.71875 
L 19.484375 59.625 
L 41.890625 37.203125 
L 64.3125 59.625 
z
" id="DejaVuSans-215"/>
      </defs>
      <g transform="translate(83.502012 183.278437)scale(0.1 -0.1)">
       <use transform="translate(0 0.684375)" xlink:href="#DejaVuSans-50"/>
       <use transform="translate(83.105469 0.684375)" xlink:href="#DejaVuSans-215"/>
       <use transform="translate(186.376953 0.684375)" xlink:href="#DejaVuSans-49"/>
       <use transform="translate(250 0.684375)" xlink:href="#DejaVuSans-48"/>
       <use transform="translate(314.580078 38.965625)scale(0.7)" xlink:href="#DejaVuSans-8722"/>
       <use transform="translate(373.232422 38.965625)scale(0.7)" xlink:href="#DejaVuSans-49"/>
      </g>
     </g>
    </g>
    <g id="xtick_3">
     <g id="line2d_3">
      <g>
       <use style="stroke:#000000;stroke-width:0.6;" x="134.765286" xlink:href="#m144c3b5f85" y="170.28"/>
      </g>
     </g>
     <g id="text_3">
      <!-- $\mathdefault{3\times10^{-1}}$ -->
      <defs>
       <path d="M 40.578125 39.3125 
Q 47.65625 37.796875 51.625 33 
Q 55.609375 28.21875 55.609375 21.1875 
Q 55.609375 10.40625 48.1875 4.484375 
Q 40.765625 -1.421875 27.09375 -1.421875 
Q 22.515625 -1.421875 17.65625 -0.515625 
Q 12.796875 0.390625 7.625 2.203125 
L 7.625 11.71875 
Q 11.71875 9.328125 16.59375 8.109375 
Q 21.484375 6.890625 26.8125 6.890625 
Q 36.078125 6.890625 40.9375 10.546875 
Q 45.796875 14.203125 45.796875 21.1875 
Q 45.796875 27.640625 41.28125 31.265625 
Q 36.765625 34.90625 28.71875 34.90625 
L 20.21875 34.90625 
L 20.21875 43.015625 
L 29.109375 43.015625 
Q 36.375 43.015625 40.234375 45.921875 
Q 44.09375 48.828125 44.09375 54.296875 
Q 44.09375 59.90625 40.109375 62.90625 
Q 36.140625 65.921875 28.71875 65.921875 
Q 24.65625 65.921875 20.015625 65.03125 
Q 15.375 64.15625 9.8125 62.3125 
L 9.8125 71.09375 
Q 15.4375 72.65625 20.34375 73.4375 
Q 25.25 74.21875 29.59375 74.21875 
Q 40.828125 74.21875 47.359375 69.109375 
Q 53.90625 64.015625 53.90625 55.328125 
Q 53.90625 49.265625 50.4375 45.09375 
Q 46.96875 40.921875 40.578125 39.3125 
z
" id="DejaVuSans-51"/>
      </defs>
      <g transform="translate(113.715286 183.278437)scale(0.1 -0.1)">
       <use transform="translate(0 0.684375)" xlink:href="#DejaVuSans-51"/>
       <use transform="translate(83.105469 0.684375)" xlink:href="#DejaVuSans-215"/>
       <use transform="translate(186.376953 0.684375)" xlink:href="#DejaVuSans-49"/>
       <use transform="translate(250 0.684375)" xlink:href="#DejaVuSans-48"/>
       <use transform="translate(314.580078 38.965625)scale(0.7)" xlink:href="#DejaVuSans-8722"/>
       <use transform="translate(373.232422 38.965625)scale(0.7)" xlink:href="#DejaVuSans-49"/>
      </g>
     </g>
    </g>
    <g id="xtick_4">
     <g id="line2d_4">
      <g>
       <use style="stroke:#000000;stroke-width:0.6;" x="156.201944" xlink:href="#m144c3b5f85" y="170.28"/>
      </g>
     </g>
     <g id="text_4">
      <!-- $\mathdefault{4\times10^{-1}}$ -->
      <defs>
       <path d="M 37.796875 64.3125 
L 12.890625 25.390625 
L 37.796875 25.390625 
z
M 35.203125 72.90625 
L 47.609375 72.90625 
L 47.609375 25.390625 
L 58.015625 25.390625 
L 58.015625 17.1875 
L 47.609375 17.1875 
L 47.609375 0 
L 37.796875 0 
L 37.796875 17.1875 
L 4.890625 17.1875 
L 4.890625 26.703125 
z
" id="DejaVuSans-52"/>
      </defs>
      <g transform="translate(135.151944 183.278437)scale(0.1 -0.1)">
       <use transform="translate(0 0.684375)" xlink:href="#DejaVuSans-52"/>
       <use transform="translate(83.105469 0.684375)" xlink:href="#DejaVuSans-215"/>
       <use transform="translate(186.376953 0.684375)" xlink:href="#DejaVuSans-49"/>
       <use transform="translate(250 0.684375)" xlink:href="#DejaVuSans-48"/>
       <use transform="translate(314.580078 38.965625)scale(0.7)" xlink:href="#DejaVuSans-8722"/>
       <use transform="translate(373.232422 38.965625)scale(0.7)" xlink:href="#DejaVuSans-49"/>
      </g>
     </g>
    </g>
    <g id="xtick_5">
     <g id="line2d_5">
      <g>
       <use style="stroke:#000000;stroke-width:0.6;" x="172.829508" xlink:href="#m144c3b5f85" y="170.28"/>
      </g>
     </g>
    </g>
    <g id="xtick_6">
     <g id="line2d_6">
      <g>
       <use style="stroke:#000000;stroke-width:0.6;" x="186.415218" xlink:href="#m144c3b5f85" y="170.28"/>
      </g>
     </g>
     <g id="text_5">
      <!-- $\mathdefault{6\times10^{-1}}$ -->
      <defs>
       <path d="M 33.015625 40.375 
Q 26.375 40.375 22.484375 35.828125 
Q 18.609375 31.296875 18.609375 23.390625 
Q 18.609375 15.53125 22.484375 10.953125 
Q 26.375 6.390625 33.015625 6.390625 
Q 39.65625 6.390625 43.53125 10.953125 
Q 47.40625 15.53125 47.40625 23.390625 
Q 47.40625 31.296875 43.53125 35.828125 
Q 39.65625 40.375 33.015625 40.375 
z
M 52.59375 71.296875 
L 52.59375 62.3125 
Q 48.875 64.0625 45.09375 64.984375 
Q 41.3125 65.921875 37.59375 65.921875 
Q 27.828125 65.921875 22.671875 59.328125 
Q 17.53125 52.734375 16.796875 39.40625 
Q 19.671875 43.65625 24.015625 45.921875 
Q 28.375 48.1875 33.59375 48.1875 
Q 44.578125 48.1875 50.953125 41.515625 
Q 57.328125 34.859375 57.328125 23.390625 
Q 57.328125 12.15625 50.6875 5.359375 
Q 44.046875 -1.421875 33.015625 -1.421875 
Q 20.359375 -1.421875 13.671875 8.265625 
Q 6.984375 17.96875 6.984375 36.375 
Q 6.984375 53.65625 15.1875 63.9375 
Q 23.390625 74.21875 37.203125 74.21875 
Q 40.921875 74.21875 44.703125 73.484375 
Q 48.484375 72.75 52.59375 71.296875 
z
" id="DejaVuSans-54"/>
      </defs>
      <g transform="translate(165.365218 183.278437)scale(0.1 -0.1)">
       <use transform="translate(0 0.684375)" xlink:href="#DejaVuSans-54"/>
       <use transform="translate(83.105469 0.684375)" xlink:href="#DejaVuSans-215"/>
       <use transform="translate(186.376953 0.684375)" xlink:href="#DejaVuSans-49"/>
       <use transform="translate(250 0.684375)" xlink:href="#DejaVuSans-48"/>
       <use transform="translate(314.580078 38.965625)scale(0.7)" xlink:href="#DejaVuSans-8722"/>
       <use transform="translate(373.232422 38.965625)scale(0.7)" xlink:href="#DejaVuSans-49"/>
      </g>
     </g>
    </g>
    <g id="xtick_7">
     <g id="line2d_7">
      <g>
       <use style="stroke:#000000;stroke-width:0.6;" x="197.901771" xlink:href="#m144c3b5f85" y="170.28"/>
      </g>
     </g>
    </g>
    <g id="xtick_8">
     <g id="line2d_8">
      <g>
       <use style="stroke:#000000;stroke-width:0.6;" x="207.851876" xlink:href="#m144c3b5f85" y="170.28"/>
      </g>
     </g>
    </g>
    <g id="text_6">
     <!-- Length -->
     <defs>
      <path d="M 9.8125 72.90625 
L 19.671875 72.90625 
L 19.671875 8.296875 
L 55.171875 8.296875 
L 55.171875 0 
L 9.8125 0 
z
" id="DejaVuSans-76"/>
      <path d="M 56.203125 29.59375 
L 56.203125 25.203125 
L 14.890625 25.203125 
Q 15.484375 15.921875 20.484375 11.0625 
Q 25.484375 6.203125 34.421875 6.203125 
Q 39.59375 6.203125 44.453125 7.46875 
Q 49.3125 8.734375 54.109375 11.28125 
L 54.109375 2.78125 
Q 49.265625 0.734375 44.1875 -0.34375 
Q 39.109375 -1.421875 33.890625 -1.421875 
Q 20.796875 -1.421875 13.15625 6.1875 
Q 5.515625 13.8125 5.515625 26.8125 
Q 5.515625 40.234375 12.765625 48.109375 
Q 20.015625 56 32.328125 56 
Q 43.359375 56 49.78125 48.890625 
Q 56.203125 41.796875 56.203125 29.59375 
z
M 47.21875 32.234375 
Q 47.125 39.59375 43.09375 43.984375 
Q 39.0625 48.390625 32.421875 48.390625 
Q 24.90625 48.390625 20.390625 44.140625 
Q 15.875 39.890625 15.1875 32.171875 
z
" id="DejaVuSans-101"/>
      <path d="M 54.890625 33.015625 
L 54.890625 0 
L 45.90625 0 
L 45.90625 32.71875 
Q 45.90625 40.484375 42.875 44.328125 
Q 39.84375 48.1875 33.796875 48.1875 
Q 26.515625 48.1875 22.3125 43.546875 
Q 18.109375 38.921875 18.109375 30.90625 
L 18.109375 0 
L 9.078125 0 
L 9.078125 54.6875 
L 18.109375 54.6875 
L 18.109375 46.1875 
Q 21.34375 51.125 25.703125 53.5625 
Q 30.078125 56 35.796875 56 
Q 45.21875 56 50.046875 50.171875 
Q 54.890625 44.34375 54.890625 33.015625 
z
" id="DejaVuSans-110"/>
      <path d="M 45.40625 27.984375 
Q 45.40625 37.75 41.375 43.109375 
Q 37.359375 48.484375 30.078125 48.484375 
Q 22.859375 48.484375 18.828125 43.109375 
Q 14.796875 37.75 14.796875 27.984375 
Q 14.796875 18.265625 18.828125 12.890625 
Q 22.859375 7.515625 30.078125 7.515625 
Q 37.359375 7.515625 41.375 12.890625 
Q 45.40625 18.265625 45.40625 27.984375 
z
M 54.390625 6.78125 
Q 54.390625 -7.171875 48.1875 -13.984375 
Q 42 -20.796875 29.203125 -20.796875 
Q 24.46875 -20.796875 20.265625 -20.09375 
Q 16.0625 -19.390625 12.109375 -17.921875 
L 12.109375 -9.1875 
Q 16.0625 -11.328125 19.921875 -12.34375 
Q 23.78125 -13.375 27.78125 -13.375 
Q 36.625 -13.375 41.015625 -8.765625 
Q 45.40625 -4.15625 45.40625 5.171875 
L 45.40625 9.625 
Q 42.625 4.78125 38.28125 2.390625 
Q 33.9375 0 27.875 0 
Q 17.828125 0 11.671875 7.65625 
Q 5.515625 15.328125 5.515625 27.984375 
Q 5.515625 40.671875 11.671875 48.328125 
Q 17.828125 56 27.875 56 
Q 33.9375 56 38.28125 53.609375 
Q 42.625 51.21875 45.40625 46.390625 
L 45.40625 54.6875 
L 54.390625 54.6875 
z
" id="DejaVuSans-103"/>
      <path d="M 18.3125 70.21875 
L 18.3125 54.6875 
L 36.8125 54.6875 
L 36.8125 47.703125 
L 18.3125 47.703125 
L 18.3125 18.015625 
Q 18.3125 11.328125 20.140625 9.421875 
Q 21.96875 7.515625 27.59375 7.515625 
L 36.8125 7.515625 
L 36.8125 0 
L 27.59375 0 
Q 17.1875 0 13.234375 3.875 
Q 9.28125 7.765625 9.28125 18.015625 
L 9.28125 47.703125 
L 2.6875 47.703125 
L 2.6875 54.6875 
L 9.28125 54.6875 
L 9.28125 70.21875 
z
" id="DejaVuSans-116"/>
      <path d="M 54.890625 33.015625 
L 54.890625 0 
L 45.90625 0 
L 45.90625 32.71875 
Q 45.90625 40.484375 42.875 44.328125 
Q 39.84375 48.1875 33.796875 48.1875 
Q 26.515625 48.1875 22.3125 43.546875 
Q 18.109375 38.921875 18.109375 30.90625 
L 18.109375 0 
L 9.078125 0 
L 9.078125 75.984375 
L 18.109375 75.984375 
L 18.109375 46.1875 
Q 21.34375 51.125 25.703125 53.5625 
Q 30.078125 56 35.796875 56 
Q 45.21875 56 50.046875 50.171875 
Q 54.890625 44.34375 54.890625 33.015625 
z
" id="DejaVuSans-104"/>
     </defs>
     <g transform="translate(111.844531 198.556563)scale(0.1 -0.1)">
      <use xlink:href="#DejaVuSans-76"/>
      <use x="55.697266" xlink:href="#DejaVuSans-101"/>
      <use x="117.220703" xlink:href="#DejaVuSans-110"/>
      <use x="180.599609" xlink:href="#DejaVuSans-103"/>
      <use x="244.076172" xlink:href="#DejaVuSans-116"/>
      <use x="283.285156" xlink:href="#DejaVuSans-104"/>
     </g>
    </g>
   </g>
   <g id="matplotlib.axis_2">
    <g id="ytick_1">
     <g id="line2d_9">
      <defs>
       <path d="M 0 0 
L -3.5 0 
" id="maa9e22bc2e" style="stroke:#000000;stroke-width:0.8;"/>
      </defs>
      <g>
       <use style="stroke:#000000;stroke-width:0.8;" x="45.478125" xlink:href="#maa9e22bc2e" y="79.202828"/>
      </g>
     </g>
     <g id="text_7">
      <!-- $\mathdefault{10^{1}}$ -->
      <g transform="translate(20.878125 83.002047)scale(0.1 -0.1)">
       <use transform="translate(0 0.684375)" xlink:href="#DejaVuSans-49"/>
       <use transform="translate(63.623047 0.684375)" xlink:href="#DejaVuSans-48"/>
       <use transform="translate(128.203125 38.965625)scale(0.7)" xlink:href="#DejaVuSans-49"/>
      </g>
     </g>
    </g>
    <g id="ytick_2">
     <g id="line2d_10">
      <defs>
       <path d="M 0 0 
L -2 0 
" id="mb2d054c791" style="stroke:#000000;stroke-width:0.6;"/>
      </defs>
      <g>
       <use style="stroke:#000000;stroke-width:0.6;" x="45.478125" xlink:href="#mb2d054c791" y="163.484555"/>
      </g>
     </g>
    </g>
    <g id="ytick_3">
     <g id="line2d_11">
      <g>
       <use style="stroke:#000000;stroke-width:0.6;" x="45.478125" xlink:href="#mb2d054c791" y="142.25149"/>
      </g>
     </g>
    </g>
    <g id="ytick_4">
     <g id="line2d_12">
      <g>
       <use style="stroke:#000000;stroke-width:0.6;" x="45.478125" xlink:href="#mb2d054c791" y="127.186391"/>
      </g>
     </g>
    </g>
    <g id="ytick_5">
     <g id="line2d_13">
      <g>
       <use style="stroke:#000000;stroke-width:0.6;" x="45.478125" xlink:href="#mb2d054c791" y="115.500992"/>
      </g>
     </g>
    </g>
    <g id="ytick_6">
     <g id="line2d_14">
      <g>
       <use style="stroke:#000000;stroke-width:0.6;" x="45.478125" xlink:href="#mb2d054c791" y="105.953326"/>
      </g>
     </g>
    </g>
    <g id="ytick_7">
     <g id="line2d_15">
      <g>
       <use style="stroke:#000000;stroke-width:0.6;" x="45.478125" xlink:href="#mb2d054c791" y="97.88089"/>
      </g>
     </g>
    </g>
    <g id="ytick_8">
     <g id="line2d_16">
      <g>
       <use style="stroke:#000000;stroke-width:0.6;" x="45.478125" xlink:href="#mb2d054c791" y="90.888227"/>
      </g>
     </g>
    </g>
    <g id="ytick_9">
     <g id="line2d_17">
      <g>
       <use style="stroke:#000000;stroke-width:0.6;" x="45.478125" xlink:href="#mb2d054c791" y="84.720262"/>
      </g>
     </g>
    </g>
    <g id="ytick_10">
     <g id="line2d_18">
      <g>
       <use style="stroke:#000000;stroke-width:0.6;" x="45.478125" xlink:href="#mb2d054c791" y="42.904664"/>
      </g>
     </g>
    </g>
    <g id="ytick_11">
     <g id="line2d_19">
      <g>
       <use style="stroke:#000000;stroke-width:0.6;" x="45.478125" xlink:href="#mb2d054c791" y="21.6716"/>
      </g>
     </g>
    </g>
    <g id="text_8">
     <!-- Count -->
     <defs>
      <path d="M 64.40625 67.28125 
L 64.40625 56.890625 
Q 59.421875 61.53125 53.78125 63.8125 
Q 48.140625 66.109375 41.796875 66.109375 
Q 29.296875 66.109375 22.65625 58.46875 
Q 16.015625 50.828125 16.015625 36.375 
Q 16.015625 21.96875 22.65625 14.328125 
Q 29.296875 6.6875 41.796875 6.6875 
Q 48.140625 6.6875 53.78125 8.984375 
Q 59.421875 11.28125 64.40625 15.921875 
L 64.40625 5.609375 
Q 59.234375 2.09375 53.4375 0.328125 
Q 47.65625 -1.421875 41.21875 -1.421875 
Q 24.65625 -1.421875 15.125 8.703125 
Q 5.609375 18.84375 5.609375 36.375 
Q 5.609375 53.953125 15.125 64.078125 
Q 24.65625 74.21875 41.21875 74.21875 
Q 47.75 74.21875 53.53125 72.484375 
Q 59.328125 70.75 64.40625 67.28125 
z
" id="DejaVuSans-67"/>
      <path d="M 30.609375 48.390625 
Q 23.390625 48.390625 19.1875 42.75 
Q 14.984375 37.109375 14.984375 27.296875 
Q 14.984375 17.484375 19.15625 11.84375 
Q 23.34375 6.203125 30.609375 6.203125 
Q 37.796875 6.203125 41.984375 11.859375 
Q 46.1875 17.53125 46.1875 27.296875 
Q 46.1875 37.015625 41.984375 42.703125 
Q 37.796875 48.390625 30.609375 48.390625 
z
M 30.609375 56 
Q 42.328125 56 49.015625 48.375 
Q 55.71875 40.765625 55.71875 27.296875 
Q 55.71875 13.875 49.015625 6.21875 
Q 42.328125 -1.421875 30.609375 -1.421875 
Q 18.84375 -1.421875 12.171875 6.21875 
Q 5.515625 13.875 5.515625 27.296875 
Q 5.515625 40.765625 12.171875 48.375 
Q 18.84375 56 30.609375 56 
z
" id="DejaVuSans-111"/>
      <path d="M 8.5 21.578125 
L 8.5 54.6875 
L 17.484375 54.6875 
L 17.484375 21.921875 
Q 17.484375 14.15625 20.5 10.265625 
Q 23.53125 6.390625 29.59375 6.390625 
Q 36.859375 6.390625 41.078125 11.03125 
Q 45.3125 15.671875 45.3125 23.6875 
L 45.3125 54.6875 
L 54.296875 54.6875 
L 54.296875 0 
L 45.3125 0 
L 45.3125 8.40625 
Q 42.046875 3.421875 37.71875 1 
Q 33.40625 -1.421875 27.6875 -1.421875 
Q 18.265625 -1.421875 13.375 4.4375 
Q 8.5 10.296875 8.5 21.578125 
z
M 31.109375 56 
z
" id="DejaVuSans-117"/>
     </defs>
     <g transform="translate(14.798438 103.588437)rotate(-90)scale(0.1 -0.1)">
      <use xlink:href="#DejaVuSans-67"/>
      <use x="69.824219" xlink:href="#DejaVuSans-111"/>
      <use x="131.005859" xlink:href="#DejaVuSans-117"/>
      <use x="194.384766" xlink:href="#DejaVuSans-110"/>
      <use x="257.763672" xlink:href="#DejaVuSans-116"/>
     </g>
    </g>
   </g>
   <g id="patch_111">
    <path d="M 45.478125 170.28 
L 45.478125 7.2 
" style="fill:none;stroke:#000000;stroke-linecap:square;stroke-linejoin:miter;stroke-width:0.8;"/>
   </g>
   <g id="patch_112">
    <path d="M 45.478125 170.28 
L 212.878125 170.28 
" style="fill:none;stroke:#000000;stroke-linecap:square;stroke-linejoin:miter;stroke-width:0.8;"/>
   </g>
   <g id="legend_1">
    <g id="patch_113">
     <path d="M 219.878125 104.918125 
L 298.725 104.918125 
Q 300.725 104.918125 300.725 102.918125 
L 300.725 74.561875 
Q 300.725 72.561875 298.725 72.561875 
L 219.878125 72.561875 
Q 217.878125 72.561875 217.878125 74.561875 
L 217.878125 102.918125 
Q 217.878125 104.918125 219.878125 104.918125 
z
" style="fill:#ffffff;opacity:0.8;stroke:#cccccc;stroke-linejoin:miter;"/>
    </g>
    <g id="patch_114">
     <path d="M 221.878125 84.160313 
L 241.878125 84.160313 
L 241.878125 77.160313 
L 221.878125 77.160313 
z
" style="fill:#a52a2a;opacity:0.6;"/>
    </g>
    <g id="text_9">
     <!-- Brownian -->
     <defs>
      <path d="M 19.671875 34.8125 
L 19.671875 8.109375 
L 35.5 8.109375 
Q 43.453125 8.109375 47.28125 11.40625 
Q 51.125 14.703125 51.125 21.484375 
Q 51.125 28.328125 47.28125 31.5625 
Q 43.453125 34.8125 35.5 34.8125 
z
M 19.671875 64.796875 
L 19.671875 42.828125 
L 34.28125 42.828125 
Q 41.5 42.828125 45.03125 45.53125 
Q 48.578125 48.25 48.578125 53.8125 
Q 48.578125 59.328125 45.03125 62.0625 
Q 41.5 64.796875 34.28125 64.796875 
z
M 9.8125 72.90625 
L 35.015625 72.90625 
Q 46.296875 72.90625 52.390625 68.21875 
Q 58.5 63.53125 58.5 54.890625 
Q 58.5 48.1875 55.375 44.234375 
Q 52.25 40.28125 46.1875 39.3125 
Q 53.46875 37.75 57.5 32.78125 
Q 61.53125 27.828125 61.53125 20.40625 
Q 61.53125 10.640625 54.890625 5.3125 
Q 48.25 0 35.984375 0 
L 9.8125 0 
z
" id="DejaVuSans-66"/>
      <path d="M 41.109375 46.296875 
Q 39.59375 47.171875 37.8125 47.578125 
Q 36.03125 48 33.890625 48 
Q 26.265625 48 22.1875 43.046875 
Q 18.109375 38.09375 18.109375 28.8125 
L 18.109375 0 
L 9.078125 0 
L 9.078125 54.6875 
L 18.109375 54.6875 
L 18.109375 46.1875 
Q 20.953125 51.171875 25.484375 53.578125 
Q 30.03125 56 36.53125 56 
Q 37.453125 56 38.578125 55.875 
Q 39.703125 55.765625 41.0625 55.515625 
z
" id="DejaVuSans-114"/>
      <path d="M 4.203125 54.6875 
L 13.1875 54.6875 
L 24.421875 12.015625 
L 35.59375 54.6875 
L 46.1875 54.6875 
L 57.421875 12.015625 
L 68.609375 54.6875 
L 77.59375 54.6875 
L 63.28125 0 
L 52.6875 0 
L 40.921875 44.828125 
L 29.109375 0 
L 18.5 0 
z
" id="DejaVuSans-119"/>
      <path d="M 9.421875 54.6875 
L 18.40625 54.6875 
L 18.40625 0 
L 9.421875 0 
z
M 9.421875 75.984375 
L 18.40625 75.984375 
L 18.40625 64.59375 
L 9.421875 64.59375 
z
" id="DejaVuSans-105"/>
      <path d="M 34.28125 27.484375 
Q 23.390625 27.484375 19.1875 25 
Q 14.984375 22.515625 14.984375 16.5 
Q 14.984375 11.71875 18.140625 8.90625 
Q 21.296875 6.109375 26.703125 6.109375 
Q 34.1875 6.109375 38.703125 11.40625 
Q 43.21875 16.703125 43.21875 25.484375 
L 43.21875 27.484375 
z
M 52.203125 31.203125 
L 52.203125 0 
L 43.21875 0 
L 43.21875 8.296875 
Q 40.140625 3.328125 35.546875 0.953125 
Q 30.953125 -1.421875 24.3125 -1.421875 
Q 15.921875 -1.421875 10.953125 3.296875 
Q 6 8.015625 6 15.921875 
Q 6 25.140625 12.171875 29.828125 
Q 18.359375 34.515625 30.609375 34.515625 
L 43.21875 34.515625 
L 43.21875 35.40625 
Q 43.21875 41.609375 39.140625 45 
Q 35.0625 48.390625 27.6875 48.390625 
Q 23 48.390625 18.546875 47.265625 
Q 14.109375 46.140625 10.015625 43.890625 
L 10.015625 52.203125 
Q 14.9375 54.109375 19.578125 55.046875 
Q 24.21875 56 28.609375 56 
Q 40.484375 56 46.34375 49.84375 
Q 52.203125 43.703125 52.203125 31.203125 
z
" id="DejaVuSans-97"/>
     </defs>
     <g transform="translate(249.878125 84.160313)scale(0.1 -0.1)">
      <use xlink:href="#DejaVuSans-66"/>
      <use x="68.603516" xlink:href="#DejaVuSans-114"/>
      <use x="109.685547" xlink:href="#DejaVuSans-111"/>
      <use x="170.867188" xlink:href="#DejaVuSans-119"/>
      <use x="252.654297" xlink:href="#DejaVuSans-110"/>
      <use x="316.033203" xlink:href="#DejaVuSans-105"/>
      <use x="343.816406" xlink:href="#DejaVuSans-97"/>
      <use x="405.095703" xlink:href="#DejaVuSans-110"/>
     </g>
    </g>
    <g id="patch_115">
     <path d="M 221.878125 98.838437 
L 241.878125 98.838437 
L 241.878125 91.838437 
L 221.878125 91.838437 
z
" style="fill:#800080;opacity:0.6;"/>
    </g>
    <g id="text_10">
     <!-- Levy -->
     <defs>
      <path d="M 2.984375 54.6875 
L 12.5 54.6875 
L 29.59375 8.796875 
L 46.6875 54.6875 
L 56.203125 54.6875 
L 35.6875 0 
L 23.484375 0 
z
" id="DejaVuSans-118"/>
      <path d="M 32.171875 -5.078125 
Q 28.375 -14.84375 24.75 -17.8125 
Q 21.140625 -20.796875 15.09375 -20.796875 
L 7.90625 -20.796875 
L 7.90625 -13.28125 
L 13.1875 -13.28125 
Q 16.890625 -13.28125 18.9375 -11.515625 
Q 21 -9.765625 23.484375 -3.21875 
L 25.09375 0.875 
L 2.984375 54.6875 
L 12.5 54.6875 
L 29.59375 11.921875 
L 46.6875 54.6875 
L 56.203125 54.6875 
z
" id="DejaVuSans-121"/>
     </defs>
     <g transform="translate(249.878125 98.838437)scale(0.1 -0.1)">
      <use xlink:href="#DejaVuSans-76"/>
      <use x="55.697266" xlink:href="#DejaVuSans-101"/>
      <use x="117.220703" xlink:href="#DejaVuSans-118"/>
      <use x="176.400391" xlink:href="#DejaVuSans-121"/>
     </g>
    </g>
   </g>
  </g>
 </g>
 <defs>
  <clipPath id="p9151b52084">
   <rect height="163.08" width="167.4" x="45.478125" y="7.2"/>
  </clipPath>
 </defs>
</svg>