<?xml version="1.0" encoding="utf-8" standalone="no"?>
<!DOCTYPE svg PUBLIC "-//W3C//DTD SVG 1.1//EN"
  "http://www.w3.org/Graphics/SVG/1.1/DTD/svg11.dtd">
<!-- Created with matplotlib (https://matplotlib.org/) -->
<svg height="153.47625pt" version="1.1" viewBox="0 0 335.564062 153.47625" width="335.564062pt" xmlns="http://www.w3.org/2000/svg" xmlns:xlink="http://www.w3.org/1999/xlink">
 <defs>
  <style type="text/css">
*{stroke-linecap:butt;stroke-linejoin:round;}
  </style>
 </defs>
 <g id="figure_1">
  <g id="patch_1">
   <path d="M 0 153.47625 
L 335.564062 153.47625 
L 335.564062 0 
L 0 0 
z
" style="fill:none;"/>
  </g>
  <g id="axes_1">
   <g id="patch_2">
    <path d="M 40.603125 115.92 
L 263.803125 115.92 
L 263.803125 7.2 
L 40.603125 7.2 
z
" style="fill:#ffffff;"/>
   </g>
   <g id="matplotlib.axis_1">
    <g id="xtick_1">
     <g id="line2d_1">
      <defs>
       <path d="M 0 0 
L 0 3.5 
" id="m51f7163ed6" style="stroke:#000000;stroke-width:0.8;"/>
      </defs>
      <g>
       <use style="stroke:#000000;stroke-width:0.8;" x="50.078913" xlink:href="#m51f7163ed6" y="115.92"/>
      </g>
     </g>
     <g id="text_1">
      <!-- 0 -->
      <defs>
       <path d="M 31.78125 66.40625 
Q 24.171875 66.40625 20.328125 58.90625 
Q 16.5 51.421875 16.5 36.375 
Q 16.5 21.390625 20.328125 13.890625 
Q 24.171875 6.390625 31.78125 6.390625 
Q 39.453125 6.390625 43.28125 13.890625 
Q 47.125 21.390625 47.125 36.375 
Q 47.125 51.421875 43.28125 58.90625 
Q 39.453125 66.40625 31.78125 66.40625 
z
M 31.78125 74.21875 
Q 44.046875 74.21875 50.515625 64.515625 
Q 56.984375 54.828125 56.984375 36.375 
Q 56.984375 17.96875 50.515625 8.265625 
Q 44.046875 -1.421875 31.78125 -1.421875 
Q 19.53125 -1.421875 13.0625 8.265625 
Q 6.59375 17.96875 6.59375 36.375 
Q 6.59375 54.828125 13.0625 64.515625 
Q 19.53125 74.21875 31.78125 74.21875 
z
" id="DejaVuSans-48"/>
      </defs>
      <g transform="translate(46.897663 130.518438)scale(0.1 -0.1)">
       <use xlink:href="#DejaVuSans-48"/>
      </g>
     </g>
    </g>
    <g id="xtick_2">
     <g id="line2d_2">
      <g>
       <use style="stroke:#000000;stroke-width:0.8;" x="83.562261" xlink:href="#m51f7163ed6" y="115.92"/>
      </g>
     </g>
     <g id="text_2">
      <!-- 50 -->
      <defs>
       <path d="M 10.796875 72.90625 
L 49.515625 72.90625 
L 49.515625 64.59375 
L 19.828125 64.59375 
L 19.828125 46.734375 
Q 21.96875 47.46875 24.109375 47.828125 
Q 26.265625 48.1875 28.421875 48.1875 
Q 40.625 48.1875 47.75 41.5 
Q 54.890625 34.8125 54.890625 23.390625 
Q 54.890625 11.625 47.5625 5.09375 
Q 40.234375 -1.421875 26.90625 -1.421875 
Q 22.3125 -1.421875 17.546875 -0.640625 
Q 12.796875 0.140625 7.71875 1.703125 
L 7.71875 11.625 
Q 12.109375 9.234375 16.796875 8.0625 
Q 21.484375 6.890625 26.703125 6.890625 
Q 35.15625 6.890625 40.078125 11.328125 
Q 45.015625 15.765625 45.015625 23.390625 
Q 45.015625 31 40.078125 35.4375 
Q 35.15625 39.890625 26.703125 39.890625 
Q 22.75 39.890625 18.8125 39.015625 
Q 14.890625 38.140625 10.796875 36.28125 
z
" id="DejaVuSans-53"/>
      </defs>
      <g transform="translate(77.199761 130.518438)scale(0.1 -0.1)">
       <use xlink:href="#DejaVuSans-53"/>
       <use x="63.623047" xlink:href="#DejaVuSans-48"/>
      </g>
     </g>
    </g>
    <g id="xtick_3">
     <g id="line2d_3">
      <g>
       <use style="stroke:#000000;stroke-width:0.8;" x="117.045609" xlink:href="#m51f7163ed6" y="115.92"/>
      </g>
     </g>
     <g id="text_3">
      <!-- 100 -->
      <defs>
       <path d="M 12.40625 8.296875 
L 28.515625 8.296875 
L 28.515625 63.921875 
L 10.984375 60.40625 
L 10.984375 69.390625 
L 28.421875 72.90625 
L 38.28125 72.90625 
L 38.28125 8.296875 
L 54.390625 8.296875 
L 54.390625 0 
L 12.40625 0 
z
" id="DejaVuSans-49"/>
      </defs>
      <g transform="translate(107.501859 130.518438)scale(0.1 -0.1)">
       <use xlink:href="#DejaVuSans-49"/>
       <use x="63.623047" xlink:href="#DejaVuSans-48"/>
       <use x="127.246094" xlink:href="#DejaVuSans-48"/>
      </g>
     </g>
    </g>
    <g id="xtick_4">
     <g id="line2d_4">
      <g>
       <use style="stroke:#000000;stroke-width:0.8;" x="150.528958" xlink:href="#m51f7163ed6" y="115.92"/>
      </g>
     </g>
     <g id="text_4">
      <!-- 150 -->
      <g transform="translate(140.985208 130.518438)scale(0.1 -0.1)">
       <use xlink:href="#DejaVuSans-49"/>
       <use x="63.623047" xlink:href="#DejaVuSans-53"/>
       <use x="127.246094" xlink:href="#DejaVuSans-48"/>
      </g>
     </g>
    </g>
    <g id="xtick_5">
     <g id="line2d_5">
      <g>
       <use style="stroke:#000000;stroke-width:0.8;" x="184.012306" xlink:href="#m51f7163ed6" y="115.92"/>
      </g>
     </g>
     <g id="text_5">
      <!-- 200 -->
      <defs>
       <path d="M 19.1875 8.296875 
L 53.609375 8.296875 
L 53.609375 0 
L 7.328125 0 
L 7.328125 8.296875 
Q 12.9375 14.109375 22.625 23.890625 
Q 32.328125 33.6875 34.8125 36.53125 
Q 39.546875 41.84375 41.421875 45.53125 
Q 43.3125 49.21875 43.3125 52.78125 
Q 43.3125 58.59375 39.234375 62.25 
Q 35.15625 65.921875 28.609375 65.921875 
Q 23.96875 65.921875 18.8125 64.3125 
Q 13.671875 62.703125 7.8125 59.421875 
L 7.8125 69.390625 
Q 13.765625 71.78125 18.9375 73 
Q 24.125 74.21875 28.421875 74.21875 
Q 39.75 74.21875 46.484375 68.546875 
Q 53.21875 62.890625 53.21875 53.421875 
Q 53.21875 48.921875 51.53125 44.890625 
Q 49.859375 40.875 45.40625 35.40625 
Q 44.1875 33.984375 37.640625 27.21875 
Q 31.109375 20.453125 19.1875 8.296875 
z
" id="DejaVuSans-50"/>
      </defs>
      <g transform="translate(174.468556 130.518438)scale(0.1 -0.1)">
       <use xlink:href="#DejaVuSans-50"/>
       <use x="63.623047" xlink:href="#DejaVuSans-48"/>
       <use x="127.246094" xlink:href="#DejaVuSans-48"/>
      </g>
     </g>
    </g>
    <g id="xtick_6">
     <g id="line2d_6">
      <g>
       <use style="stroke:#000000;stroke-width:0.8;" x="217.495654" xlink:href="#m51f7163ed6" y="115.92"/>
      </g>
     </g>
     <g id="text_6">
      <!-- 250 -->
      <g transform="translate(207.951904 130.518438)scale(0.1 -0.1)">
       <use xlink:href="#DejaVuSans-50"/>
       <use x="63.623047" xlink:href="#DejaVuSans-53"/>
       <use x="127.246094" xlink:href="#DejaVuSans-48"/>
      </g>
     </g>
    </g>
    <g id="xtick_7">
     <g id="line2d_7">
      <g>
       <use style="stroke:#000000;stroke-width:0.8;" x="250.979003" xlink:href="#m51f7163ed6" y="115.92"/>
      </g>
     </g>
     <g id="text_7">
      <!-- 300 -->
      <defs>
       <path d="M 40.578125 39.3125 
Q 47.65625 37.796875 51.625 33 
Q 55.609375 28.21875 55.609375 21.1875 
Q 55.609375 10.40625 48.1875 4.484375 
Q 40.765625 -1.421875 27.09375 -1.421875 
Q 22.515625 -1.421875 17.65625 -0.515625 
Q 12.796875 0.390625 7.625 2.203125 
L 7.625 11.71875 
Q 11.71875 9.328125 16.59375 8.109375 
Q 21.484375 6.890625 26.8125 6.890625 
Q 36.078125 6.890625 40.9375 10.546875 
Q 45.796875 14.203125 45.796875 21.1875 
Q 45.796875 27.640625 41.28125 31.265625 
Q 36.765625 34.90625 28.71875 34.90625 
L 20.21875 34.90625 
L 20.21875 43.015625 
L 29.109375 43.015625 
Q 36.375 43.015625 40.234375 45.921875 
Q 44.09375 48.828125 44.09375 54.296875 
Q 44.09375 59.90625 40.109375 62.90625 
Q 36.140625 65.921875 28.71875 65.921875 
Q 24.65625 65.921875 20.015625 65.03125 
Q 15.375 64.15625 9.8125 62.3125 
L 9.8125 71.09375 
Q 15.4375 72.65625 20.34375 73.4375 
Q 25.25 74.21875 29.59375 74.21875 
Q 40.828125 74.21875 47.359375 69.109375 
Q 53.90625 64.015625 53.90625 55.328125 
Q 53.90625 49.265625 50.4375 45.09375 
Q 46.96875 40.921875 40.578125 39.3125 
z
" id="DejaVuSans-51"/>
      </defs>
      <g transform="translate(241.435253 130.518438)scale(0.1 -0.1)">
       <use xlink:href="#DejaVuSans-51"/>
       <use x="63.623047" xlink:href="#DejaVuSans-48"/>
       <use x="127.246094" xlink:href="#DejaVuSans-48"/>
      </g>
     </g>
    </g>
    <g id="text_8">
     <!-- Turn count -->
     <defs>
      <path d="M -0.296875 72.90625 
L 61.375 72.90625 
L 61.375 64.59375 
L 35.5 64.59375 
L 35.5 0 
L 25.59375 0 
L 25.59375 64.59375 
L -0.296875 64.59375 
z
" id="DejaVuSans-84"/>
      <path d="M 8.5 21.578125 
L 8.5 54.6875 
L 17.484375 54.6875 
L 17.484375 21.921875 
Q 17.484375 14.15625 20.5 10.265625 
Q 23.53125 6.390625 29.59375 6.390625 
Q 36.859375 6.390625 41.078125 11.03125 
Q 45.3125 15.671875 45.3125 23.6875 
L 45.3125 54.6875 
L 54.296875 54.6875 
L 54.296875 0 
L 45.3125 0 
L 45.3125 8.40625 
Q 42.046875 3.421875 37.71875 1 
Q 33.40625 -1.421875 27.6875 -1.421875 
Q 18.265625 -1.421875 13.375 4.4375 
Q 8.5 10.296875 8.5 21.578125 
z
M 31.109375 56 
z
" id="DejaVuSans-117"/>
      <path d="M 41.109375 46.296875 
Q 39.59375 47.171875 37.8125 47.578125 
Q 36.03125 48 33.890625 48 
Q 26.265625 48 22.1875 43.046875 
Q 18.109375 38.09375 18.109375 28.8125 
L 18.109375 0 
L 9.078125 0 
L 9.078125 54.6875 
L 18.109375 54.6875 
L 18.109375 46.1875 
Q 20.953125 51.171875 25.484375 53.578125 
Q 30.03125 56 36.53125 56 
Q 37.453125 56 38.578125 55.875 
Q 39.703125 55.765625 41.0625 55.515625 
z
" id="DejaVuSans-114"/>
      <path d="M 54.890625 33.015625 
L 54.890625 0 
L 45.90625 0 
L 45.90625 32.71875 
Q 45.90625 40.484375 42.875 44.328125 
Q 39.84375 48.1875 33.796875 48.1875 
Q 26.515625 48.1875 22.3125 43.546875 
Q 18.109375 38.921875 18.109375 30.90625 
L 18.109375 0 
L 9.078125 0 
L 9.078125 54.6875 
L 18.109375 54.6875 
L 18.109375 46.1875 
Q 21.34375 51.125 25.703125 53.5625 
Q 30.078125 56 35.796875 56 
Q 45.21875 56 50.046875 50.171875 
Q 54.890625 44.34375 54.890625 33.015625 
z
" id="DejaVuSans-110"/>
      <path id="DejaVuSans-32"/>
      <path d="M 48.78125 52.59375 
L 48.78125 44.1875 
Q 44.96875 46.296875 41.140625 47.34375 
Q 37.3125 48.390625 33.40625 48.390625 
Q 24.65625 48.390625 19.8125 42.84375 
Q 14.984375 37.3125 14.984375 27.296875 
Q 14.984375 17.28125 19.8125 11.734375 
Q 24.65625 6.203125 33.40625 6.203125 
Q 37.3125 6.203125 41.140625 7.25 
Q 44.96875 8.296875 48.78125 10.40625 
L 48.78125 2.09375 
Q 45.015625 0.34375 40.984375 -0.53125 
Q 36.96875 -1.421875 32.421875 -1.421875 
Q 20.0625 -1.421875 12.78125 6.34375 
Q 5.515625 14.109375 5.515625 27.296875 
Q 5.515625 40.671875 12.859375 48.328125 
Q 20.21875 56 33.015625 56 
Q 37.15625 56 41.109375 55.140625 
Q 45.0625 54.296875 48.78125 52.59375 
z
" id="DejaVuSans-99"/>
      <path d="M 30.609375 48.390625 
Q 23.390625 48.390625 19.1875 42.75 
Q 14.984375 37.109375 14.984375 27.296875 
Q 14.984375 17.484375 19.15625 11.84375 
Q 23.34375 6.203125 30.609375 6.203125 
Q 37.796875 6.203125 41.984375 11.859375 
Q 46.1875 17.53125 46.1875 27.296875 
Q 46.1875 37.015625 41.984375 42.703125 
Q 37.796875 48.390625 30.609375 48.390625 
z
M 30.609375 56 
Q 42.328125 56 49.015625 48.375 
Q 55.71875 40.765625 55.71875 27.296875 
Q 55.71875 13.875 49.015625 6.21875 
Q 42.328125 -1.421875 30.609375 -1.421875 
Q 18.84375 -1.421875 12.171875 6.21875 
Q 5.515625 13.875 5.515625 27.296875 
Q 5.515625 40.765625 12.171875 48.375 
Q 18.84375 56 30.609375 56 
z
" id="DejaVuSans-111"/>
      <path d="M 18.3125 70.21875 
L 18.3125 54.6875 
L 36.8125 54.6875 
L 36.8125 47.703125 
L 18.3125 47.703125 
L 18.3125 18.015625 
Q 18.3125 11.328125 20.140625 9.421875 
Q 21.96875 7.515625 27.59375 7.515625 
L 36.8125 7.515625 
L 36.8125 0 
L 27.59375 0 
Q 17.1875 0 13.234375 3.875 
Q 9.28125 7.765625 9.28125 18.015625 
L 9.28125 47.703125 
L 2.6875 47.703125 
L 2.6875 54.6875 
L 9.28125 54.6875 
L 9.28125 70.21875 
z
" id="DejaVuSans-116"/>
     </defs>
     <g transform="translate(125.073437 144.196562)scale(0.1 -0.1)">
      <use xlink:href="#DejaVuSans-84"/>
      <use x="60.849609" xlink:href="#DejaVuSans-117"/>
      <use x="124.228516" xlink:href="#DejaVuSans-114"/>
      <use x="165.326172" xlink:href="#DejaVuSans-110"/>
      <use x="228.705078" xlink:href="#DejaVuSans-32"/>
      <use x="260.492188" xlink:href="#DejaVuSans-99"/>
      <use x="315.472656" xlink:href="#DejaVuSans-111"/>
      <use x="376.654297" xlink:href="#DejaVuSans-117"/>
      <use x="440.033203" xlink:href="#DejaVuSans-110"/>
      <use x="503.412109" xlink:href="#DejaVuSans-116"/>
     </g>
    </g>
   </g>
   <g id="matplotlib.axis_2">
    <g id="ytick_1">
     <g id="line2d_8">
      <defs>
       <path d="M 0 0 
L -3.5 0 
" id="m5ab093c16f" style="stroke:#000000;stroke-width:0.8;"/>
      </defs>
      <g>
       <use style="stroke:#000000;stroke-width:0.8;" x="40.603125" xlink:href="#m5ab093c16f" y="110.978182"/>
      </g>
     </g>
     <g id="text_9">
      <!-- 2 -->
      <g transform="translate(27.240625 114.777401)scale(0.1 -0.1)">
       <use xlink:href="#DejaVuSans-50"/>
      </g>
     </g>
    </g>
    <g id="ytick_2">
     <g id="line2d_9">
      <g>
       <use style="stroke:#000000;stroke-width:0.8;" x="40.603125" xlink:href="#m5ab093c16f" y="86.269091"/>
      </g>
     </g>
     <g id="text_10">
      <!-- 4 -->
      <defs>
       <path d="M 37.796875 64.3125 
L 12.890625 25.390625 
L 37.796875 25.390625 
z
M 35.203125 72.90625 
L 47.609375 72.90625 
L 47.609375 25.390625 
L 58.015625 25.390625 
L 58.015625 17.1875 
L 47.609375 17.1875 
L 47.609375 0 
L 37.796875 0 
L 37.796875 17.1875 
L 4.890625 17.1875 
L 4.890625 26.703125 
z
" id="DejaVuSans-52"/>
      </defs>
      <g transform="translate(27.240625 90.06831)scale(0.1 -0.1)">
       <use xlink:href="#DejaVuSans-52"/>
      </g>
     </g>
    </g>
    <g id="ytick_3">
     <g id="line2d_10">
      <g>
       <use style="stroke:#000000;stroke-width:0.8;" x="40.603125" xlink:href="#m5ab093c16f" y="61.56"/>
      </g>
     </g>
     <g id="text_11">
      <!-- 6 -->
      <defs>
       <path d="M 33.015625 40.375 
Q 26.375 40.375 22.484375 35.828125 
Q 18.609375 31.296875 18.609375 23.390625 
Q 18.609375 15.53125 22.484375 10.953125 
Q 26.375 6.390625 33.015625 6.390625 
Q 39.65625 6.390625 43.53125 10.953125 
Q 47.40625 15.53125 47.40625 23.390625 
Q 47.40625 31.296875 43.53125 35.828125 
Q 39.65625 40.375 33.015625 40.375 
z
M 52.59375 71.296875 
L 52.59375 62.3125 
Q 48.875 64.0625 45.09375 64.984375 
Q 41.3125 65.921875 37.59375 65.921875 
Q 27.828125 65.921875 22.671875 59.328125 
Q 17.53125 52.734375 16.796875 39.40625 
Q 19.671875 43.65625 24.015625 45.921875 
Q 28.375 48.1875 33.59375 48.1875 
Q 44.578125 48.1875 50.953125 41.515625 
Q 57.328125 34.859375 57.328125 23.390625 
Q 57.328125 12.15625 50.6875 5.359375 
Q 44.046875 -1.421875 33.015625 -1.421875 
Q 20.359375 -1.421875 13.671875 8.265625 
Q 6.984375 17.96875 6.984375 36.375 
Q 6.984375 53.65625 15.1875 63.9375 
Q 23.390625 74.21875 37.203125 74.21875 
Q 40.921875 74.21875 44.703125 73.484375 
Q 48.484375 72.75 52.59375 71.296875 
z
" id="DejaVuSans-54"/>
      </defs>
      <g transform="translate(27.240625 65.359219)scale(0.1 -0.1)">
       <use xlink:href="#DejaVuSans-54"/>
      </g>
     </g>
    </g>
    <g id="ytick_4">
     <g id="line2d_11">
      <g>
       <use style="stroke:#000000;stroke-width:0.8;" x="40.603125" xlink:href="#m5ab093c16f" y="36.850909"/>
      </g>
     </g>
     <g id="text_12">
      <!-- 8 -->
      <defs>
       <path d="M 31.78125 34.625 
Q 24.75 34.625 20.71875 30.859375 
Q 16.703125 27.09375 16.703125 20.515625 
Q 16.703125 13.921875 20.71875 10.15625 
Q 24.75 6.390625 31.78125 6.390625 
Q 38.8125 6.390625 42.859375 10.171875 
Q 46.921875 13.96875 46.921875 20.515625 
Q 46.921875 27.09375 42.890625 30.859375 
Q 38.875 34.625 31.78125 34.625 
z
M 21.921875 38.8125 
Q 15.578125 40.375 12.03125 44.71875 
Q 8.5 49.078125 8.5 55.328125 
Q 8.5 64.0625 14.71875 69.140625 
Q 20.953125 74.21875 31.78125 74.21875 
Q 42.671875 74.21875 48.875 69.140625 
Q 55.078125 64.0625 55.078125 55.328125 
Q 55.078125 49.078125 51.53125 44.71875 
Q 48 40.375 41.703125 38.8125 
Q 48.828125 37.15625 52.796875 32.3125 
Q 56.78125 27.484375 56.78125 20.515625 
Q 56.78125 9.90625 50.3125 4.234375 
Q 43.84375 -1.421875 31.78125 -1.421875 
Q 19.734375 -1.421875 13.25 4.234375 
Q 6.78125 9.90625 6.78125 20.515625 
Q 6.78125 27.484375 10.78125 32.3125 
Q 14.796875 37.15625 21.921875 38.8125 
z
M 18.3125 54.390625 
Q 18.3125 48.734375 21.84375 45.5625 
Q 25.390625 42.390625 31.78125 42.390625 
Q 38.140625 42.390625 41.71875 45.5625 
Q 45.3125 48.734375 45.3125 54.390625 
Q 45.3125 60.0625 41.71875 63.234375 
Q 38.140625 66.40625 31.78125 66.40625 
Q 25.390625 66.40625 21.84375 63.234375 
Q 18.3125 60.0625 18.3125 54.390625 
z
" id="DejaVuSans-56"/>
      </defs>
      <g transform="translate(27.240625 40.650128)scale(0.1 -0.1)">
       <use xlink:href="#DejaVuSans-56"/>
      </g>
     </g>
    </g>
    <g id="ytick_5">
     <g id="line2d_12">
      <g>
       <use style="stroke:#000000;stroke-width:0.8;" x="40.603125" xlink:href="#m5ab093c16f" y="12.141818"/>
      </g>
     </g>
     <g id="text_13">
      <!-- 10 -->
      <g transform="translate(20.878125 15.941037)scale(0.1 -0.1)">
       <use xlink:href="#DejaVuSans-49"/>
       <use x="63.623047" xlink:href="#DejaVuSans-48"/>
      </g>
     </g>
    </g>
    <g id="text_14">
     <!-- Length -->
     <defs>
      <path d="M 9.8125 72.90625 
L 19.671875 72.90625 
L 19.671875 8.296875 
L 55.171875 8.296875 
L 55.171875 0 
L 9.8125 0 
z
" id="DejaVuSans-76"/>
      <path d="M 56.203125 29.59375 
L 56.203125 25.203125 
L 14.890625 25.203125 
Q 15.484375 15.921875 20.484375 11.0625 
Q 25.484375 6.203125 34.421875 6.203125 
Q 39.59375 6.203125 44.453125 7.46875 
Q 49.3125 8.734375 54.109375 11.28125 
L 54.109375 2.78125 
Q 49.265625 0.734375 44.1875 -0.34375 
Q 39.109375 -1.421875 33.890625 -1.421875 
Q 20.796875 -1.421875 13.15625 6.1875 
Q 5.515625 13.8125 5.515625 26.8125 
Q 5.515625 40.234375 12.765625 48.109375 
Q 20.015625 56 32.328125 56 
Q 43.359375 56 49.78125 48.890625 
Q 56.203125 41.796875 56.203125 29.59375 
z
M 47.21875 32.234375 
Q 47.125 39.59375 43.09375 43.984375 
Q 39.0625 48.390625 32.421875 48.390625 
Q 24.90625 48.390625 20.390625 44.140625 
Q 15.875 39.890625 15.1875 32.171875 
z
" id="DejaVuSans-101"/>
      <path d="M 45.40625 27.984375 
Q 45.40625 37.75 41.375 43.109375 
Q 37.359375 48.484375 30.078125 48.484375 
Q 22.859375 48.484375 18.828125 43.109375 
Q 14.796875 37.75 14.796875 27.984375 
Q 14.796875 18.265625 18.828125 12.890625 
Q 22.859375 7.515625 30.078125 7.515625 
Q 37.359375 7.515625 41.375 12.890625 
Q 45.40625 18.265625 45.40625 27.984375 
z
M 54.390625 6.78125 
Q 54.390625 -7.171875 48.1875 -13.984375 
Q 42 -20.796875 29.203125 -20.796875 
Q 24.46875 -20.796875 20.265625 -20.09375 
Q 16.0625 -19.390625 12.109375 -17.921875 
L 12.109375 -9.1875 
Q 16.0625 -11.328125 19.921875 -12.34375 
Q 23.78125 -13.375 27.78125 -13.375 
Q 36.625 -13.375 41.015625 -8.765625 
Q 45.40625 -4.15625 45.40625 5.171875 
L 45.40625 9.625 
Q 42.625 4.78125 38.28125 2.390625 
Q 33.9375 0 27.875 0 
Q 17.828125 0 11.671875 7.65625 
Q 5.515625 15.328125 5.515625 27.984375 
Q 5.515625 40.671875 11.671875 48.328125 
Q 17.828125 56 27.875 56 
Q 33.9375 56 38.28125 53.609375 
Q 42.625 51.21875 45.40625 46.390625 
L 45.40625 54.6875 
L 54.390625 54.6875 
z
" id="DejaVuSans-103"/>
      <path d="M 54.890625 33.015625 
L 54.890625 0 
L 45.90625 0 
L 45.90625 32.71875 
Q 45.90625 40.484375 42.875 44.328125 
Q 39.84375 48.1875 33.796875 48.1875 
Q 26.515625 48.1875 22.3125 43.546875 
Q 18.109375 38.921875 18.109375 30.90625 
L 18.109375 0 
L 9.078125 0 
L 9.078125 75.984375 
L 18.109375 75.984375 
L 18.109375 46.1875 
Q 21.34375 51.125 25.703125 53.5625 
Q 30.078125 56 35.796875 56 
Q 45.21875 56 50.046875 50.171875 
Q 54.890625 44.34375 54.890625 33.015625 
z
" id="DejaVuSans-104"/>
     </defs>
     <g transform="translate(14.798438 78.893594)rotate(-90)scale(0.1 -0.1)">
      <use xlink:href="#DejaVuSans-76"/>
      <use x="55.697266" xlink:href="#DejaVuSans-101"/>
      <use x="117.220703" xlink:href="#DejaVuSans-110"/>
      <use x="180.599609" xlink:href="#DejaVuSans-103"/>
      <use x="244.076172" xlink:href="#DejaVuSans-116"/>
      <use x="283.285156" xlink:href="#DejaVuSans-104"/>
     </g>
    </g>
   </g>
   <g id="line2d_13">
    <path clip-path="url(#p01d7f60de9)" d="M 50.74858 98.623636 
L 51.418247 61.56 
L 51.418247 61.56 
L 52.087913 110.978182 
L 52.087913 110.978182 
L 54.766581 110.978182 
L 54.766581 110.978182 
L 55.436248 98.623636 
L 55.436248 98.623636 
L 56.105915 110.978182 
L 56.105915 110.978182 
L 58.114916 110.978182 
L 58.114916 110.978182 
L 58.784583 36.850909 
L 58.784583 36.850909 
L 59.45425 98.623636 
L 59.45425 98.623636 
L 60.123917 110.978182 
L 60.123917 110.978182 
L 60.793584 98.623636 
L 60.793584 98.623636 
L 61.463251 61.56 
L 61.463251 61.56 
L 62.132918 110.978182 
L 62.132918 110.978182 
L 62.802585 98.623636 
L 62.802585 98.623636 
L 63.472252 98.623636 
L 63.472252 98.623636 
L 64.141919 110.978182 
L 64.141919 110.978182 
L 64.811586 110.978182 
L 64.811586 110.978182 
L 65.481253 86.269091 
L 65.481253 86.269091 
L 66.15092 98.623636 
L 66.15092 98.623636 
L 66.820587 24.496364 
L 66.820587 24.496364 
L 67.490254 110.978182 
L 67.490254 110.978182 
L 70.168922 110.978182 
L 70.168922 110.978182 
L 70.838589 98.623636 
L 70.838589 98.623636 
L 71.508256 49.205455 
L 71.508256 49.205455 
L 72.847589 98.623636 
L 72.847589 98.623636 
L 73.517256 110.978182 
L 73.517256 110.978182 
L 74.186923 61.56 
L 74.186923 61.56 
L 74.85659 98.623636 
L 74.85659 98.623636 
L 75.526257 110.978182 
L 75.526257 110.978182 
L 76.195924 73.914545 
L 76.195924 73.914545 
L 76.865591 61.56 
L 76.865591 61.56 
L 77.535258 98.623636 
L 77.535258 98.623636 
L 78.204925 98.623636 
L 78.204925 98.623636 
L 78.874592 110.978182 
L 78.874592 110.978182 
L 79.544259 86.269091 
L 79.544259 86.269091 
L 80.213926 110.978182 
L 80.213926 110.978182 
L 81.55326 110.978182 
L 81.55326 110.978182 
L 82.222927 24.496364 
L 82.222927 24.496364 
L 82.892594 36.850909 
L 82.892594 36.850909 
L 83.562261 110.978182 
L 83.562261 110.978182 
L 85.571262 110.978182 
L 85.571262 110.978182 
L 86.240929 98.623636 
L 86.240929 98.623636 
L 86.910596 98.623636 
L 86.910596 98.623636 
L 87.580263 110.978182 
L 87.580263 110.978182 
L 88.24993 73.914545 
L 88.24993 73.914545 
L 88.919597 110.978182 
L 88.919597 110.978182 
L 90.928598 110.978182 
L 90.928598 110.978182 
L 91.598265 12.141818 
L 91.598265 12.141818 
L 92.267931 110.978182 
L 92.267931 110.978182 
L 92.937598 110.978182 
L 92.937598 110.978182 
L 93.607265 98.623636 
L 93.607265 98.623636 
L 94.276932 110.978182 
L 94.276932 110.978182 
L 96.285933 110.978182 
L 96.285933 110.978182 
L 96.9556 86.269091 
L 96.9556 86.269091 
L 97.625267 110.978182 
L 97.625267 110.978182 
L 98.294934 98.623636 
L 98.294934 98.623636 
L 98.964601 110.978182 
L 98.964601 110.978182 
L 99.634268 110.978182 
L 99.634268 110.978182 
L 100.303935 73.914545 
L 100.303935 73.914545 
L 100.973602 98.623636 
L 100.973602 98.623636 
L 101.643269 110.978182 
L 101.643269 110.978182 
L 102.312936 110.978182 
L 102.312936 110.978182 
L 102.982603 98.623636 
L 102.982603 98.623636 
L 103.65227 110.978182 
L 103.65227 110.978182 
L 104.991604 110.978182 
L 104.991604 110.978182 
L 105.661271 73.914545 
L 105.661271 73.914545 
L 106.330938 110.978182 
L 106.330938 110.978182 
L 107.000605 73.914545 
L 107.000605 73.914545 
L 107.670272 110.978182 
L 107.670272 110.978182 
L 108.339939 110.978182 
L 108.339939 110.978182 
L 109.009606 98.623636 
L 109.009606 98.623636 
L 109.679273 98.623636 
L 109.679273 98.623636 
L 110.34894 86.269091 
L 110.34894 86.269091 
L 111.018607 86.269091 
L 111.018607 86.269091 
L 111.688274 110.978182 
L 111.688274 110.978182 
L 113.027607 110.978182 
L 113.027607 110.978182 
L 113.697274 24.496364 
L 113.697274 24.496364 
L 114.366941 110.978182 
L 114.366941 110.978182 
L 117.045609 110.978182 
L 117.045609 110.978182 
L 117.715276 61.56 
L 117.715276 61.56 
L 118.384943 110.978182 
L 118.384943 110.978182 
L 119.05461 86.269091 
L 119.05461 86.269091 
L 119.724277 110.978182 
L 119.724277 110.978182 
L 121.063611 110.978182 
L 121.063611 110.978182 
L 121.733278 98.623636 
L 121.733278 98.623636 
L 122.402945 110.978182 
L 122.402945 110.978182 
L 124.411946 110.978182 
L 124.411946 110.978182 
L 125.081613 98.623636 
L 125.081613 98.623636 
L 125.75128 110.978182 
L 125.75128 110.978182 
L 127.760281 110.978182 
L 127.760281 110.978182 
L 128.429948 98.623636 
L 128.429948 98.623636 
L 129.099615 98.623636 
L 129.099615 98.623636 
L 129.769282 110.978182 
L 129.769282 110.978182 
L 131.778283 110.978182 
L 131.778283 110.978182 
L 132.447949 98.623636 
L 132.447949 98.623636 
L 133.117616 110.978182 
L 133.117616 110.978182 
L 133.787283 110.978182 
L 133.787283 110.978182 
L 134.45695 49.205455 
L 134.45695 49.205455 
L 135.126617 98.623636 
L 135.126617 98.623636 
L 135.796284 49.205455 
L 135.796284 49.205455 
L 136.465951 98.623636 
L 136.465951 98.623636 
L 137.135618 110.978182 
L 137.135618 110.978182 
L 137.805285 86.269091 
L 137.805285 86.269091 
L 139.144619 110.978182 
L 139.144619 110.978182 
L 141.823287 110.978182 
L 141.823287 110.978182 
L 142.492954 98.623636 
L 142.492954 98.623636 
L 143.162621 61.56 
L 143.162621 61.56 
L 144.501955 110.978182 
L 144.501955 110.978182 
L 146.510956 110.978182 
L 146.510956 110.978182 
L 147.180623 98.623636 
L 147.180623 98.623636 
L 147.85029 73.914545 
L 147.85029 73.914545 
L 148.519957 110.978182 
L 148.519957 110.978182 
L 150.528958 110.978182 
L 150.528958 110.978182 
L 151.198625 36.850909 
L 151.198625 36.850909 
L 151.868292 110.978182 
L 151.868292 110.978182 
L 152.537958 98.623636 
L 152.537958 98.623636 
L 153.207625 98.623636 
L 153.207625 98.623636 
L 153.877292 110.978182 
L 153.877292 110.978182 
L 156.55596 110.978182 
L 156.55596 110.978182 
L 157.225627 98.623636 
L 157.225627 98.623636 
L 157.895294 110.978182 
L 157.895294 110.978182 
L 158.564961 86.269091 
L 158.564961 86.269091 
L 159.904295 110.978182 
L 159.904295 110.978182 
L 161.243629 110.978182 
L 161.243629 110.978182 
L 161.913296 61.56 
L 161.913296 61.56 
L 162.582963 98.623636 
L 162.582963 98.623636 
L 163.25263 110.978182 
L 163.25263 110.978182 
L 164.591964 110.978182 
L 164.591964 110.978182 
L 165.261631 98.623636 
L 165.261631 98.623636 
L 165.931298 110.978182 
L 165.931298 110.978182 
L 167.270632 110.978182 
L 167.270632 110.978182 
L 167.940299 61.56 
L 167.940299 61.56 
L 168.609966 49.205455 
L 168.609966 49.205455 
L 169.279633 110.978182 
L 169.279633 110.978182 
L 169.9493 61.56 
L 169.9493 61.56 
L 170.618967 110.978182 
L 170.618967 110.978182 
L 171.288634 98.623636 
L 171.288634 98.623636 
L 171.958301 110.978182 
L 171.958301 110.978182 
L 172.627967 98.623636 
L 172.627967 98.623636 
L 173.297634 110.978182 
L 173.297634 110.978182 
L 173.967301 110.978182 
L 173.967301 110.978182 
L 174.636968 49.205455 
L 174.636968 49.205455 
L 175.306635 110.978182 
L 175.306635 110.978182 
L 175.976302 110.978182 
L 175.976302 110.978182 
L 176.645969 98.623636 
L 176.645969 98.623636 
L 177.315636 73.914545 
L 177.315636 73.914545 
L 177.985303 73.914545 
L 177.985303 73.914545 
L 178.65497 98.623636 
L 178.65497 98.623636 
L 179.324637 73.914545 
L 179.324637 73.914545 
L 179.994304 98.623636 
L 179.994304 98.623636 
L 180.663971 110.978182 
L 180.663971 110.978182 
L 181.333638 110.978182 
L 181.333638 110.978182 
L 182.003305 98.623636 
L 182.003305 98.623636 
L 182.672972 98.623636 
L 182.672972 98.623636 
L 183.342639 110.978182 
L 183.342639 110.978182 
L 184.012306 110.978182 
L 184.012306 110.978182 
L 184.681973 98.623636 
L 184.681973 98.623636 
L 185.35164 110.978182 
L 185.35164 110.978182 
L 186.021307 98.623636 
L 186.021307 98.623636 
L 186.690974 110.978182 
L 186.690974 110.978182 
L 188.030308 110.978182 
L 188.030308 110.978182 
L 188.699975 73.914545 
L 188.699975 73.914545 
L 189.369642 86.269091 
L 189.369642 86.269091 
L 190.039309 36.850909 
L 190.039309 36.850909 
L 190.708976 24.496364 
L 190.708976 24.496364 
L 191.378643 98.623636 
L 191.378643 98.623636 
L 192.04831 110.978182 
L 192.04831 110.978182 
L 192.717976 86.269091 
L 192.717976 86.269091 
L 193.387643 110.978182 
L 193.387643 110.978182 
L 194.05731 110.978182 
L 194.05731 110.978182 
L 194.726977 61.56 
L 194.726977 61.56 
L 195.396644 110.978182 
L 195.396644 110.978182 
L 199.414646 110.978182 
L 199.414646 110.978182 
L 200.084313 86.269091 
L 200.084313 86.269091 
L 200.75398 110.978182 
L 200.75398 110.978182 
L 202.762981 110.978182 
L 202.762981 110.978182 
L 203.432648 36.850909 
L 203.432648 36.850909 
L 204.102315 110.978182 
L 204.102315 110.978182 
L 204.771982 110.978182 
L 204.771982 110.978182 
L 205.441649 98.623636 
L 205.441649 98.623636 
L 206.111316 110.978182 
L 206.111316 110.978182 
L 207.45065 110.978182 
L 207.45065 110.978182 
L 208.120317 98.623636 
L 208.120317 98.623636 
L 208.789984 98.623636 
L 208.789984 98.623636 
L 209.459651 110.978182 
L 209.459651 110.978182 
L 210.129318 73.914545 
L 210.129318 73.914545 
L 210.798985 110.978182 
L 210.798985 110.978182 
L 213.477652 110.978182 
L 213.477652 110.978182 
L 214.147319 98.623636 
L 214.147319 98.623636 
L 214.816986 98.623636 
L 214.816986 98.623636 
L 215.486653 110.978182 
L 215.486653 110.978182 
L 216.15632 98.623636 
L 216.15632 98.623636 
L 216.825987 73.914545 
L 216.825987 73.914545 
L 218.834988 110.978182 
L 218.834988 110.978182 
L 219.504655 98.623636 
L 219.504655 98.623636 
L 220.174322 110.978182 
L 220.174322 110.978182 
L 220.843989 110.978182 
L 220.843989 110.978182 
L 221.513656 73.914545 
L 221.513656 73.914545 
L 222.183323 110.978182 
L 222.183323 110.978182 
L 222.85299 73.914545 
L 222.85299 73.914545 
L 223.522657 98.623636 
L 223.522657 98.623636 
L 224.192324 110.978182 
L 224.192324 110.978182 
L 224.861991 110.978182 
L 224.861991 110.978182 
L 225.531658 98.623636 
L 225.531658 98.623636 
L 226.201325 110.978182 
L 226.201325 110.978182 
L 228.879993 110.978182 
L 228.879993 110.978182 
L 229.54966 73.914545 
L 229.54966 73.914545 
L 230.219327 98.623636 
L 230.219327 98.623636 
L 230.888994 86.269091 
L 230.888994 86.269091 
L 231.558661 110.978182 
L 231.558661 110.978182 
L 232.228328 73.914545 
L 232.228328 73.914545 
L 232.897994 73.914545 
L 232.897994 73.914545 
L 233.567661 98.623636 
L 233.567661 98.623636 
L 234.237328 110.978182 
L 234.237328 110.978182 
L 235.576662 110.978182 
L 235.576662 110.978182 
L 236.246329 98.623636 
L 236.246329 98.623636 
L 236.915996 73.914545 
L 236.915996 73.914545 
L 237.585663 110.978182 
L 237.585663 110.978182 
L 238.25533 110.978182 
L 238.25533 110.978182 
L 238.924997 86.269091 
L 238.924997 86.269091 
L 240.264331 110.978182 
L 240.264331 110.978182 
L 240.933998 73.914545 
L 240.933998 73.914545 
L 241.603665 98.623636 
L 241.603665 98.623636 
L 242.273332 61.56 
L 242.273332 61.56 
L 242.942999 110.978182 
L 242.942999 110.978182 
L 243.612666 98.623636 
L 243.612666 98.623636 
L 244.282333 110.978182 
L 244.282333 110.978182 
L 244.952 110.978182 
L 244.952 110.978182 
L 245.621667 98.623636 
L 245.621667 98.623636 
L 246.291334 98.623636 
L 246.291334 98.623636 
L 246.961001 110.978182 
L 246.961001 110.978182 
L 247.630668 98.623636 
L 247.630668 98.623636 
L 248.300335 98.623636 
L 248.300335 98.623636 
L 248.970002 110.978182 
L 248.970002 110.978182 
L 249.639669 110.978182 
L 249.639669 110.978182 
L 250.309336 73.914545 
L 250.309336 73.914545 
L 250.979003 110.978182 
L 250.979003 110.978182 
L 251.64867 98.623636 
L 251.64867 98.623636 
L 252.318337 110.978182 
L 252.318337 110.978182 
L 252.988003 86.269091 
L 252.988003 86.269091 
L 253.65767 110.978182 
L 253.65767 110.978182 
" style="fill:none;stroke:#800080;stroke-linecap:square;stroke-opacity:0.6;stroke-width:1.5;"/>
   </g>
   <g id="patch_3">
    <path d="M 40.603125 115.92 
L 40.603125 7.2 
" style="fill:none;stroke:#000000;stroke-linecap:square;stroke-linejoin:miter;stroke-width:0.8;"/>
   </g>
   <g id="patch_4">
    <path d="M 263.803125 115.92 
L 263.803125 7.2 
" style="fill:none;stroke:#000000;stroke-linecap:square;stroke-linejoin:miter;stroke-width:0.8;"/>
   </g>
   <g id="patch_5">
    <path d="M 40.603125 115.92 
L 263.803125 115.92 
" style="fill:none;stroke:#000000;stroke-linecap:square;stroke-linejoin:miter;stroke-width:0.8;"/>
   </g>
   <g id="patch_6">
    <path d="M 40.603125 7.2 
L 263.803125 7.2 
" style="fill:none;stroke:#000000;stroke-linecap:square;stroke-linejoin:miter;stroke-width:0.8;"/>
   </g>
   <g id="legend_1">
    <g id="patch_7">
     <path d="M 270.803125 70.399062 
L 326.364062 70.399062 
Q 328.364062 70.399062 328.364062 68.399062 
L 328.364062 54.720937 
Q 328.364062 52.720937 326.364062 52.720937 
L 270.803125 52.720937 
Q 268.803125 52.720937 268.803125 54.720937 
L 268.803125 68.399062 
Q 268.803125 70.399062 270.803125 70.399062 
z
" style="fill:#ffffff;opacity:0.8;stroke:#cccccc;stroke-linejoin:miter;"/>
    </g>
    <g id="line2d_14">
     <path d="M 272.803125 60.819375 
L 292.803125 60.819375 
" style="fill:none;stroke:#800080;stroke-linecap:square;stroke-opacity:0.6;stroke-width:1.5;"/>
    </g>
    <g id="line2d_15"/>
    <g id="text_15">
     <!-- Levy -->
     <defs>
      <path d="M 2.984375 54.6875 
L 12.5 54.6875 
L 29.59375 8.796875 
L 46.6875 54.6875 
L 56.203125 54.6875 
L 35.6875 0 
L 23.484375 0 
z
" id="DejaVuSans-118"/>
      <path d="M 32.171875 -5.078125 
Q 28.375 -14.84375 24.75 -17.8125 
Q 21.140625 -20.796875 15.09375 -20.796875 
L 7.90625 -20.796875 
L 7.90625 -13.28125 
L 13.1875 -13.28125 
Q 16.890625 -13.28125 18.9375 -11.515625 
Q 21 -9.765625 23.484375 -3.21875 
L 25.09375 0.875 
L 2.984375 54.6875 
L 12.5 54.6875 
L 29.59375 11.921875 
L 46.6875 54.6875 
L 56.203125 54.6875 
z
" id="DejaVuSans-121"/>
     </defs>
     <g transform="translate(300.803125 64.319375)scale(0.1 -0.1)">
      <use xlink:href="#DejaVuSans-76"/>
      <use x="55.697266" xlink:href="#DejaVuSans-101"/>
      <use x="117.220703" xlink:href="#DejaVuSans-118"/>
      <use x="176.400391" xlink:href="#DejaVuSans-121"/>
     </g>
    </g>
   </g>
  </g>
 </g>
 <defs>
  <clipPath id="p01d7f60de9">
   <rect height="108.72" width="223.2" x="40.603125" y="7.2"/>
  </clipPath>
 </defs>
</svg>